<svg width="56" height="128" viewBox="0 0 56 128" fill="none" xmlns="http://www.w3.org/2000/svg">
<line x1="28.5" y1="128" x2="28.5" y2="55" stroke="#BDD5EA" stroke-width="5" stroke-dasharray="10 10"/>
<circle cx="28" cy="28" r="25.5" fill="#F8F8FF" stroke="#BDD5EA" stroke-width="5"/>
<path d="M29.3077 17H20.4231C19.7804 17 19.1641 17.2596 18.7097 17.7218C18.2553 18.1839 18 18.8107 18 19.4643V37.5357C18 38.1893 18.2553 38.8161 18.7097 39.2782C19.1641 39.7404 19.7804 40 20.4231 40H36.5769C37.2196 40 37.8359 39.7404 38.2903 39.2782C38.7447 38.8161 39 38.1893 39 37.5357V28.5C39 27.8464 38.7447 27.2196 38.2903 26.7575C37.8359 26.2953 37.2196 26.0357 36.5769 26.0357H31.7308V19.4643C31.7308 18.8107 31.4755 18.1839 31.0211 17.7218C30.5667 17.2596 29.9503 17 29.3077 17ZM18.8077 37.5357V19.4643C18.8077 19.0286 18.9779 18.6107 19.2808 18.3026C19.5838 17.9945 19.9947 17.8214 20.4231 17.8214H29.3077C29.7361 17.8214 30.147 17.9945 30.4499 18.3026C30.7529 18.6107 30.9231 19.0286 30.9231 19.4643V39.1786H27.6923V33.8393C27.6923 33.7304 27.6498 33.6259 27.574 33.5489C27.4983 33.4718 27.3956 33.4286 27.2885 33.4286H22.4423C22.3352 33.4286 22.2325 33.4718 22.1567 33.5489C22.081 33.6259 22.0385 33.7304 22.0385 33.8393V39.1786H20.4231C19.9947 39.1786 19.5838 39.0055 19.2808 38.6974C18.9779 38.3893 18.8077 37.9714 18.8077 37.5357ZM22.8462 39.1786V34.25H26.8846V39.1786H22.8462ZM36.5769 26.8571C37.0054 26.8571 37.4162 27.0302 37.7192 27.3383C38.0221 27.6464 38.1923 28.0643 38.1923 28.5V37.5357C38.1923 37.9714 38.0221 38.3893 37.7192 38.6974C37.4162 39.0055 37.0054 39.1786 36.5769 39.1786H31.7308V26.8571H36.5769Z" fill="#494949"/>
<path d="M20.425 21.3684H22.125C22.2377 21.3684 22.3458 21.3268 22.4255 21.2528C22.5052 21.1788 22.55 21.0784 22.55 20.9737V19.3947C22.55 19.29 22.5052 19.1896 22.4255 19.1156C22.3458 19.0416 22.2377 19 22.125 19H20.425C20.3123 19 20.2042 19.0416 20.1245 19.1156C20.0448 19.1896 20 19.29 20 19.3947V20.9737C20 21.0784 20.0448 21.1788 20.1245 21.2528C20.2042 21.3268 20.3123 21.3684 20.425 21.3684ZM20.85 19.7895H21.7V20.5789H20.85V19.7895ZM20.425 25.3158H22.125C22.2377 25.3158 22.3458 25.2742 22.4255 25.2002C22.5052 25.1261 22.55 25.0257 22.55 24.9211V23.3421C22.55 23.2374 22.5052 23.137 22.4255 23.063C22.3458 22.989 22.2377 22.9474 22.125 22.9474H20.425C20.3123 22.9474 20.2042 22.989 20.1245 23.063C20.0448 23.137 20 23.2374 20 23.3421V24.9211C20 25.0257 20.0448 25.1261 20.1245 25.2002C20.2042 25.2742 20.3123 25.3158 20.425 25.3158ZM20.85 23.7368H21.7V24.5263H20.85V23.7368ZM22.125 29.2632C22.2377 29.2632 22.3458 29.2216 22.4255 29.1475C22.5052 29.0735 22.55 28.9731 22.55 28.8684V27.2895C22.55 27.1848 22.5052 27.0844 22.4255 27.0104C22.3458 26.9363 22.2377 26.8947 22.125 26.8947H20.425C20.3123 26.8947 20.2042 26.9363 20.1245 27.0104C20.0448 27.0844 20 27.1848 20 27.2895V28.8684C20 28.9731 20.0448 29.0735 20.1245 29.1475C20.2042 29.2216 20.3123 29.2632 20.425 29.2632H22.125ZM20.85 27.6842H21.7V28.4737H20.85V27.6842ZM27.225 21.3684H28.925C29.0377 21.3684 29.1458 21.3268 29.2255 21.2528C29.3052 21.1788 29.35 21.0784 29.35 20.9737V19.3947C29.35 19.29 29.3052 19.1896 29.2255 19.1156C29.1458 19.0416 29.0377 19 28.925 19H27.225C27.1123 19 27.0042 19.0416 26.9245 19.1156C26.8448 19.1896 26.8 19.29 26.8 19.3947V20.9737C26.8 21.0784 26.8448 21.1788 26.9245 21.2528C27.0042 21.3268 27.1123 21.3684 27.225 21.3684ZM27.65 19.7895H28.5V20.5789H27.65V19.7895ZM27.225 25.3158H28.925C29.0377 25.3158 29.1458 25.2742 29.2255 25.2002C29.3052 25.1261 29.35 25.0257 29.35 24.9211V23.3421C29.35 23.2374 29.3052 23.137 29.2255 23.063C29.1458 22.989 29.0377 22.9474 28.925 22.9474H27.225C27.1123 22.9474 27.0042 22.989 26.9245 23.063C26.8448 23.137 26.8 23.2374 26.8 23.3421V24.9211C26.8 25.0257 26.8448 25.1261 26.9245 25.2002C27.0042 25.2742 27.1123 25.3158 27.225 25.3158ZM27.65 23.7368H28.5V24.5263H27.65V23.7368ZM27.225 29.2632H28.925C29.0377 29.2632 29.1458 29.2216 29.2255 29.1475C29.3052 29.0735 29.35 28.9731 29.35 28.8684V27.2895C29.35 27.1848 29.3052 27.0844 29.2255 27.0104C29.1458 26.9363 29.0377 26.8947 28.925 26.8947H27.225C27.1123 26.8947 27.0042 26.9363 26.9245 27.0104C26.8448 27.0844 26.8 27.1848 26.8 27.2895V28.8684C26.8 28.9731 26.8448 29.0735 26.9245 29.1475C27.0042 29.2216 27.1123 29.2632 27.225 29.2632ZM27.65 27.6842H28.5V28.4737H27.65V27.6842ZM34.875 30.0526H36.575C36.6877 30.0526 36.7958 30.011 36.8755 29.937C36.9552 29.863 37 29.7626 37 29.6579V28.0789C37 27.9743 36.9552 27.8739 36.8755 27.7998C36.7958 27.7258 36.6877 27.6842 36.575 27.6842H34.875C34.7623 27.6842 34.6542 27.7258 34.5745 27.7998C34.4948 27.8739 34.45 27.9743 34.45 28.0789V29.6579C34.45 29.7626 34.4948 29.863 34.5745 29.937C34.6542 30.011 34.7623 30.0526 34.875 30.0526ZM35.3 28.4737H36.15V29.2632H35.3V28.4737ZM34.875 34H36.575C36.6877 34 36.7958 33.9584 36.8755 33.8844C36.9552 33.8104 37 33.71 37 33.6053V32.0263C37 31.9216 36.9552 31.8212 36.8755 31.7472C36.7958 31.6732 36.6877 31.6316 36.575 31.6316H34.875C34.7623 31.6316 34.6542 31.6732 34.5745 31.7472C34.4948 31.8212 34.45 31.9216 34.45 32.0263V33.6053C34.45 33.71 34.4948 33.8104 34.5745 33.8844C34.6542 33.9584 34.7623 34 34.875 34ZM35.3 32.4211H36.15V33.2105H35.3V32.4211Z" fill="#494949"/>
</svg>
