<svg width="109" height="171" viewBox="0 0 109 171" fill="none" xmlns="http://www.w3.org/2000/svg">
<g filter="url(#filter0_d)">
<circle cx="54.5" cy="52.5" r="49.5" fill="white"/>
<circle cx="54.5" cy="52.5" r="48" stroke="#BDD5EA" stroke-width="3"/>
</g>
<path d="M56.8119 33.0537H41.1052C39.9691 33.0537 38.8795 33.5127 38.0762 34.3297C37.2728 35.1467 36.8215 36.2548 36.8215 37.4102V69.3579C36.8215 70.5133 37.2728 71.6214 38.0762 72.4384C38.8795 73.2554 39.9691 73.7144 41.1052 73.7144H69.6629C70.799 73.7144 71.8885 73.2554 72.6919 72.4384C73.4952 71.6214 73.9465 70.5133 73.9465 69.3579V53.3841C73.9465 52.2287 73.4952 51.1206 72.6919 50.3036C71.8885 49.4865 70.799 49.0276 69.6629 49.0276H61.0956V37.4102C61.0956 36.2548 60.6443 35.1467 59.8409 34.3297C59.0376 33.5127 57.948 33.0537 56.8119 33.0537ZM38.2494 69.3579V37.4102C38.2494 36.6399 38.5503 35.9012 39.0859 35.3565C39.6214 34.8119 40.3478 34.5059 41.1052 34.5059H56.8119C57.5693 34.5059 58.2957 34.8119 58.8313 35.3565C59.3668 35.9012 59.6677 36.6399 59.6677 37.4102V72.2623H53.9561V62.8232C53.9561 62.6306 53.8809 62.4459 53.747 62.3097C53.6131 62.1736 53.4316 62.0971 53.2422 62.0971H44.6749C44.4855 62.0971 44.304 62.1736 44.1701 62.3097C44.0362 62.4459 43.961 62.6306 43.961 62.8232V72.2623H41.1052C40.3478 72.2623 39.6214 71.9563 39.0859 71.4116C38.5503 70.8669 38.2494 70.1282 38.2494 69.3579ZM45.3888 72.2623V63.5492H52.5283V72.2623H45.3888ZM69.6629 50.4797C70.4203 50.4797 71.1467 50.7857 71.6822 51.3304C72.2178 51.8751 72.5186 52.6138 72.5186 53.3841V69.3579C72.5186 70.1282 72.2178 70.8669 71.6822 71.4116C71.1467 71.9563 70.4203 72.2623 69.6629 72.2623H61.0956V50.4797H69.6629Z" fill="#577399"/>
<path d="M41.1085 40.7764H44.1139C44.3131 40.7764 44.5042 40.7029 44.6452 40.572C44.7861 40.4411 44.8652 40.2636 44.8652 40.0785V37.2872C44.8652 37.1021 44.7861 36.9246 44.6452 36.7937C44.5042 36.6629 44.3131 36.5894 44.1139 36.5894H41.1085C40.9092 36.5894 40.7181 36.6629 40.5772 36.7937C40.4363 36.9246 40.3572 37.1021 40.3572 37.2872V40.0785C40.3572 40.2636 40.4363 40.4411 40.5772 40.572C40.7181 40.7029 40.9092 40.7764 41.1085 40.7764ZM41.8599 37.985H43.3625V39.3807H41.8599V37.985ZM41.1085 47.7548H44.1139C44.3131 47.7548 44.5042 47.6812 44.6452 47.5504C44.7861 47.4195 44.8652 47.242 44.8652 47.0569V44.2656C44.8652 44.0805 44.7861 43.903 44.6452 43.7721C44.5042 43.6413 44.3131 43.5677 44.1139 43.5677H41.1085C40.9092 43.5677 40.7181 43.6413 40.5772 43.7721C40.4363 43.903 40.3572 44.0805 40.3572 44.2656V47.0569C40.3572 47.242 40.4363 47.4195 40.5772 47.5504C40.7181 47.6812 40.9092 47.7548 41.1085 47.7548ZM41.8599 44.9634H43.3625V46.3591H41.8599V44.9634ZM44.1139 54.7332C44.3131 54.7332 44.5042 54.6596 44.6452 54.5288C44.7861 54.3979 44.8652 54.2204 44.8652 54.0353V51.244C44.8652 51.0589 44.7861 50.8814 44.6452 50.7505C44.5042 50.6196 44.3131 50.5461 44.1139 50.5461H41.1085C40.9092 50.5461 40.7181 50.6196 40.5772 50.7505C40.4363 50.8814 40.3572 51.0589 40.3572 51.244V54.0353C40.3572 54.2204 40.4363 54.3979 40.5772 54.5288C40.7181 54.6596 40.9092 54.7332 41.1085 54.7332H44.1139ZM41.8599 51.9418H43.3625V53.3375H41.8599V51.9418ZM53.1299 40.7764H56.1353C56.3346 40.7764 56.5257 40.7029 56.6666 40.572C56.8075 40.4411 56.8866 40.2636 56.8866 40.0785V37.2872C56.8866 37.1021 56.8075 36.9246 56.6666 36.7937C56.5257 36.6629 56.3346 36.5894 56.1353 36.5894H53.1299C52.9307 36.5894 52.7396 36.6629 52.5987 36.7937C52.4578 36.9246 52.3786 37.1021 52.3786 37.2872V40.0785C52.3786 40.2636 52.4578 40.4411 52.5987 40.572C52.7396 40.7029 52.9307 40.7764 53.1299 40.7764ZM53.8813 37.985H55.384V39.3807H53.8813V37.985ZM53.1299 47.7548H56.1353C56.3346 47.7548 56.5257 47.6812 56.6666 47.5504C56.8075 47.4195 56.8866 47.242 56.8866 47.0569V44.2656C56.8866 44.0805 56.8075 43.903 56.6666 43.7721C56.5257 43.6413 56.3346 43.5677 56.1353 43.5677H53.1299C52.9307 43.5677 52.7396 43.6413 52.5987 43.7721C52.4578 43.903 52.3786 44.0805 52.3786 44.2656V47.0569C52.3786 47.242 52.4578 47.4195 52.5987 47.5504C52.7396 47.6812 52.9307 47.7548 53.1299 47.7548ZM53.8813 44.9634H55.384V46.3591H53.8813V44.9634ZM53.1299 54.7332H56.1353C56.3346 54.7332 56.5257 54.6596 56.6666 54.5288C56.8075 54.3979 56.8866 54.2204 56.8866 54.0353V51.244C56.8866 51.0589 56.8075 50.8814 56.6666 50.7505C56.5257 50.6196 56.3346 50.5461 56.1353 50.5461H53.1299C52.9307 50.5461 52.7396 50.6196 52.5987 50.7505C52.4578 50.8814 52.3786 51.0589 52.3786 51.244V54.0353C52.3786 54.2204 52.4578 54.3979 52.5987 54.5288C52.7396 54.6596 52.9307 54.7332 53.1299 54.7332ZM53.8813 51.9418H55.384V53.3375H53.8813V51.9418ZM66.6541 56.1288H69.6594C69.8587 56.1288 70.0498 56.0553 70.1907 55.9244C70.3316 55.7936 70.4108 55.6161 70.4108 55.431V52.6396C70.4108 52.4546 70.3316 52.2771 70.1907 52.1462C70.0498 52.0153 69.8587 51.9418 69.6594 51.9418H66.6541C66.4548 51.9418 66.2637 52.0153 66.1228 52.1462C65.9819 52.2771 65.9027 52.4546 65.9027 52.6396V55.431C65.9027 55.6161 65.9819 55.7936 66.1228 55.9244C66.2637 56.0553 66.4548 56.1288 66.6541 56.1288ZM67.4054 53.3375H68.9081V54.7332H67.4054V53.3375ZM66.6541 63.1072H69.6594C69.8587 63.1072 70.0498 63.0337 70.1907 62.9028C70.3316 62.7719 70.4108 62.5945 70.4108 62.4094V59.618C70.4108 59.4329 70.3316 59.2554 70.1907 59.1246C70.0498 58.9937 69.8587 58.9202 69.6594 58.9202H66.6541C66.4548 58.9202 66.2637 58.9937 66.1228 59.1246C65.9819 59.2554 65.9027 59.4329 65.9027 59.618V62.4094C65.9027 62.5945 65.9819 62.7719 66.1228 62.9028C66.2637 63.0337 66.4548 63.1072 66.6541 63.1072ZM67.4054 60.3159H68.9081V61.7115H67.4054V60.3159Z" fill="#577399"/>
<path d="M55 171L55 101" stroke="#BDD5EA" stroke-width="5" stroke-dasharray="10 10"/>
<defs>
<filter id="filter0_d" x="0" y="0" width="109" height="109" filterUnits="userSpaceOnUse" color-interpolation-filters="sRGB">
<feFlood flood-opacity="0" result="BackgroundImageFix"/>
<feColorMatrix in="SourceAlpha" type="matrix" values="0 0 0 0 0 0 0 0 0 0 0 0 0 0 0 0 0 0 127 0" result="hardAlpha"/>
<feOffset dy="2"/>
<feGaussianBlur stdDeviation="2.5"/>
<feComposite in2="hardAlpha" operator="out"/>
<feColorMatrix type="matrix" values="0 0 0 0 0 0 0 0 0 0 0 0 0 0 0 0 0 0 0.16 0"/>
<feBlend mode="normal" in2="BackgroundImageFix" result="effect1_dropShadow"/>
<feBlend mode="normal" in="SourceGraphic" in2="effect1_dropShadow" result="shape"/>
</filter>
</defs>
</svg>
