<svg width="76" height="76" viewBox="0 0 76 76" fill="none" xmlns="http://www.w3.org/2000/svg">
<path d="M69.6667 0H6.33333C2.83417 0 0 2.83733 0 6.33333V69.6667C0 73.1627 2.83417 76 6.33333 76H69.6667C73.1627 76 76 73.1627 76 69.6667V6.33333C76 2.83733 73.1627 0 69.6667 0ZM56.4047 53.3678V53.3742C55.7745 54.9005 54.7675 56.2432 53.4818 57.2818C52.1518 58.3585 50.4672 59.2452 48.3962 59.8785C46.3252 60.5213 43.8647 60.8443 41.0083 60.8443H20.6403V16.511H42.1832C46.1668 16.511 49.3588 17.4072 51.7433 19.2343C54.15 21.071 55.3502 23.807 55.3502 27.4993C55.3502 29.7318 54.8023 31.6477 53.7067 33.231C52.6173 34.8048 51.0467 36.0367 49.02 36.8917V37.0373C51.7243 37.6073 53.8175 38.893 55.1918 40.888C56.5725 42.883 57.2755 45.4005 57.2755 48.4468C57.2755 50.1505 56.9462 51.7718 56.3255 53.2855L56.4047 53.3678Z" fill="#543B79"/>
<path d="M48.0194 42.808C46.7345 41.608 44.9294 41.0224 42.5947 41.0224H29.0533V55H42.6354C44.9514 55 46.7721 54.3856 48.057 53.144C49.3419 51.912 50 50.1552 50 47.896C49.9781 45.688 49.3419 43.9792 48.057 42.808H48.0194V42.808ZM46.1234 33.7744H46.1391C47.3801 32.6992 47.9881 31.16 47.9881 29.1536C47.9881 26.9008 47.4365 25.3008 46.324 24.3856C45.2209 23.4736 43.6289 23 41.5354 23H29V35.3616H41.5354C43.3656 35.3616 44.9231 34.8176 46.1234 33.7744Z" fill="#543B79"/>
<path d="M38 17H21V61H38V54.7174H28.6503V40.9894H38V35.4297H28.6007V23.2889H38V17Z" fill="#DEDEDE"/>
<path d="M38 0H6.33333C2.83417 0 0 2.83733 0 6.33333V69.6667C0 73.1627 2.83417 76 6.33333 76H38V60.8443H20.6403V16.511H38V0Z" fill="#493369"/>
<path d="M38 41H29V55H38V41Z" fill="#493369"/>
</svg>
