<svg width="103" height="103" viewBox="0 0 103 103" fill="none" xmlns="http://www.w3.org/2000/svg">
<circle cx="51.5" cy="51.5" r="50.06" fill="#F7F7FF" stroke="#BDD5EA" stroke-width="2.88"/>
<path d="M57.8903 71.0671L53.7508 77.9214C53.5521 78.2504 53.2711 78.5226 52.9351 78.7116C52.599 78.9007 52.2195 79 51.8333 79C51.4472 79 51.0676 78.9007 50.7316 78.7116C50.3956 78.5226 50.1146 78.2504 49.9159 77.9214L45.7764 71.067C45.5777 70.7381 45.2967 70.4658 44.9607 70.2768C44.6246 70.0878 44.2451 69.9885 43.8589 69.9885H27.2361C26.6431 69.9885 26.0743 69.7544 25.6549 69.3378C25.2356 68.9212 25 68.3561 25 67.7669V32.2216C25 31.6324 25.2356 31.0673 25.6549 30.6507C26.0743 30.2341 26.6431 30 27.2361 30H76.4306C77.0236 30 77.5924 30.2341 78.0117 30.6507C78.4311 31.0673 78.6667 31.6324 78.6667 32.2216V67.767C78.6667 68.0588 78.6088 68.3476 78.4965 68.6172C78.3841 68.8867 78.2194 69.1316 78.0117 69.3379C77.8041 69.5442 77.5576 69.7078 77.2863 69.8195C77.015 69.9311 76.7242 69.9886 76.4305 69.9886L59.8077 69.9885C59.4216 69.9885 59.042 70.0878 58.706 70.2768C58.37 70.4659 58.0889 70.7381 57.8903 71.0671Z" stroke="#FE5F55" stroke-width="4" stroke-linecap="round" stroke-linejoin="round"/>
<path d="M51.8345 52.5555C53.338 52.5555 54.5567 51.3367 54.5567 49.8333C54.5567 48.3299 53.338 47.1111 51.8345 47.1111C50.3311 47.1111 49.1123 48.3299 49.1123 49.8333C49.1123 51.3367 50.3311 52.5555 51.8345 52.5555Z" fill="#FE5F55"/>
<path d="M65.0552 52.5555C66.5587 52.5555 67.7775 51.3367 67.7775 49.8333C67.7775 48.3299 66.5587 47.1111 65.0552 47.1111C63.5518 47.1111 62.333 48.3299 62.333 49.8333C62.333 51.3367 63.5518 52.5555 65.0552 52.5555Z" fill="#FE5F55"/>
<path d="M38.6119 52.5555C40.1153 52.5555 41.3341 51.3367 41.3341 49.8333C41.3341 48.3299 40.1153 47.1111 38.6119 47.1111C37.1084 47.1111 35.8896 48.3299 35.8896 49.8333C35.8896 51.3367 37.1084 52.5555 38.6119 52.5555Z" fill="#FE5F55"/>
</svg>
