<svg width="67" height="76" viewBox="0 0 67 76" fill="none" xmlns="http://www.w3.org/2000/svg">
<path d="M60.7218 68.609L33.5016 76L6.28135 68.609L0 0H67L60.7218 68.609Z" fill="#2062AF"/>
<path d="M34 5.00314V68.9843L34.0647 69L56.7605 63.0708L62 5L34 5.00314Z" fill="#3C9CD7"/>
<path d="M33.3135 22.7443L14 30.9133L14.6414 39L33.3135 30.8943L53.178 22.2701L54 14L33.3135 22.7443Z" fill="white"/>
<path d="M14 31.0404L14.6642 39L34 31.0218V23L14 31.0404Z" fill="url(#paint0_linear)"/>
<path d="M54 14L34 22.2844V30L53.2053 21.8323L54 14Z" fill="url(#paint1_linear)"/>
<path d="M14 30.0066L14.6673 38.4436L44.4762 38.5393L43.8089 49.7864L34 52.5966L24.5701 50.1723L24 43.1899H15.2374L16.381 56.6667L34.0939 62L51.713 56.7623L54 30H14V30.0066Z" fill="url(#paint2_linear)"/>
<path opacity="0.05" d="M34 30H14L14.6642 38.4388L34 38.5014V30ZM34 52.5682L33.9065 52.5946L24.5239 50.1699L23.9565 43.186H15.2317L16.3698 56.6656L34 62V52.5682Z" fill="black"/>
<path d="M13 14H54L53.1926 23H13.9878L13 14Z" fill="url(#paint3_linear)"/>
<path opacity="0.05" d="M34 14H13L14.0033 23H34V14Z" fill="black"/>
<defs>
<linearGradient id="paint0_linear" x1="24.0126" y1="39.0034" x2="24.0126" y2="23.0144" gradientUnits="userSpaceOnUse">
<stop offset="0.387" stop-color="#D1D3D4" stop-opacity="0"/>
<stop offset="1" stop-color="#D1D3D4"/>
</linearGradient>
<linearGradient id="paint1_linear" x1="44.014" y1="30.0115" x2="44.014" y2="14.0153" gradientUnits="userSpaceOnUse">
<stop offset="0.387" stop-color="#D1D3D4" stop-opacity="0"/>
<stop offset="1" stop-color="#D1D3D4"/>
</linearGradient>
<linearGradient id="paint2_linear" x1="14.0128" y1="46.0104" x2="54.0102" y2="46.0104" gradientUnits="userSpaceOnUse">
<stop stop-color="#E8E7E5"/>
<stop offset="1" stop-color="white"/>
</linearGradient>
<linearGradient id="paint3_linear" x1="13.0031" y1="18.505" x2="54.0016" y2="18.505" gradientUnits="userSpaceOnUse">
<stop stop-color="#E8E7E5"/>
<stop offset="1" stop-color="white"/>
</linearGradient>
</defs>
</svg>
