<svg width="338" height="117" viewBox="0 0 338 117" fill="none" xmlns="http://www.w3.org/2000/svg">
<path d="M0.5 0.5H210.421L251.388 61.9926L210.439 116.5H0.5V0.5Z" fill="#BDD5EA" stroke="#9AD0FF"/>
<path d="M24.475 46.178L23.243 42.811C23.1823 42.6617 23.1193 42.4843 23.054 42.279C22.9887 42.0737 22.9233 41.852 22.858 41.614C22.7973 41.852 22.7343 42.076 22.669 42.286C22.6037 42.4913 22.5407 42.671 22.48 42.825L21.255 46.178H24.475ZM27.8 50H26.344C26.1807 50 26.0477 49.9603 25.945 49.881C25.8423 49.797 25.7653 49.6943 25.714 49.573L24.958 47.508H20.765L20.009 49.573C19.9717 49.6803 19.8993 49.7783 19.792 49.867C19.6847 49.9557 19.5517 50 19.393 50H17.923L21.906 39.878H23.824L27.8 50ZM28.561 50V42.818H29.618C29.842 42.818 29.989 42.923 30.059 43.133L30.171 43.665C30.297 43.525 30.4277 43.3967 30.563 43.28C30.703 43.1633 30.85 43.063 31.004 42.979C31.1627 42.895 31.3307 42.8297 31.508 42.783C31.69 42.7317 31.8884 42.706 32.103 42.706C32.5557 42.706 32.9267 42.8297 33.216 43.077C33.51 43.3197 33.7294 43.644 33.874 44.05C33.986 43.812 34.126 43.609 34.294 43.441C34.462 43.2683 34.6464 43.1283 34.847 43.021C35.0477 42.9137 35.26 42.8343 35.484 42.783C35.7127 42.7317 35.9414 42.706 36.17 42.706C36.5667 42.706 36.919 42.7667 37.227 42.888C37.535 43.0093 37.794 43.1867 38.004 43.42C38.214 43.6533 38.3727 43.938 38.48 44.274C38.592 44.61 38.648 44.995 38.648 45.429V50H36.919V45.429C36.919 44.9717 36.8187 44.6287 36.618 44.4C36.4174 44.1667 36.1234 44.05 35.736 44.05C35.5587 44.05 35.393 44.0803 35.239 44.141C35.0897 44.2017 34.9567 44.2903 34.84 44.407C34.728 44.519 34.6394 44.6613 34.574 44.834C34.5087 45.0067 34.476 45.205 34.476 45.429V50H32.74V45.429C32.74 44.9483 32.642 44.5983 32.446 44.379C32.2547 44.1597 31.9724 44.05 31.599 44.05C31.347 44.05 31.1114 44.113 30.892 44.239C30.6774 44.3603 30.4767 44.5283 30.29 44.743V50H28.561ZM40.2915 50V42.818H41.3485C41.5725 42.818 41.7195 42.923 41.7895 43.133L41.9015 43.665C42.0275 43.525 42.1582 43.3967 42.2935 43.28C42.4335 43.1633 42.5805 43.063 42.7345 42.979C42.8932 42.895 43.0612 42.8297 43.2385 42.783C43.4205 42.7317 43.6188 42.706 43.8335 42.706C44.2862 42.706 44.6572 42.8297 44.9465 43.077C45.2405 43.3197 45.4598 43.644 45.6045 44.05C45.7165 43.812 45.8565 43.609 46.0245 43.441C46.1925 43.2683 46.3768 43.1283 46.5775 43.021C46.7782 42.9137 46.9905 42.8343 47.2145 42.783C47.4432 42.7317 47.6718 42.706 47.9005 42.706C48.2972 42.706 48.6495 42.7667 48.9575 42.888C49.2655 43.0093 49.5245 43.1867 49.7345 43.42C49.9445 43.6533 50.1032 43.938 50.2105 44.274C50.3225 44.61 50.3785 44.995 50.3785 45.429V50H48.6495V45.429C48.6495 44.9717 48.5492 44.6287 48.3485 44.4C48.1478 44.1667 47.8538 44.05 47.4665 44.05C47.2892 44.05 47.1235 44.0803 46.9695 44.141C46.8202 44.2017 46.6872 44.2903 46.5705 44.407C46.4585 44.519 46.3698 44.6613 46.3045 44.834C46.2392 45.0067 46.2065 45.205 46.2065 45.429V50H44.4705V45.429C44.4705 44.9483 44.3725 44.5983 44.1765 44.379C43.9852 44.1597 43.7028 44.05 43.3295 44.05C43.0775 44.05 42.8418 44.113 42.6225 44.239C42.4078 44.3603 42.2072 44.5283 42.0205 44.743V50H40.2915ZM53.814 42.818V50H52.078V42.818H53.814ZM54.052 40.725C54.052 40.8743 54.0216 41.0143 53.961 41.145C53.9003 41.2757 53.8186 41.39 53.716 41.488C53.618 41.586 53.5013 41.6653 53.366 41.726C53.2306 41.782 53.086 41.81 52.932 41.81C52.7826 41.81 52.6403 41.782 52.505 41.726C52.3743 41.6653 52.26 41.586 52.162 41.488C52.064 41.39 51.9846 41.2757 51.924 41.145C51.868 41.0143 51.84 40.8743 51.84 40.725C51.84 40.571 51.868 40.4263 51.924 40.291C51.9846 40.1557 52.064 40.039 52.162 39.941C52.26 39.843 52.3743 39.766 52.505 39.71C52.6403 39.6493 52.7826 39.619 52.932 39.619C53.086 39.619 53.2306 39.6493 53.366 39.71C53.5013 39.766 53.618 39.843 53.716 39.941C53.8186 40.039 53.9003 40.1557 53.961 40.291C54.0216 40.4263 54.052 40.571 54.052 40.725ZM57.1937 43.7C57.3383 43.5553 57.49 43.4223 57.6487 43.301C57.812 43.175 57.9823 43.07 58.1597 42.986C58.3417 42.8973 58.5353 42.8297 58.7407 42.783C58.946 42.7317 59.17 42.706 59.4127 42.706C59.8047 42.706 60.1523 42.7737 60.4557 42.909C60.759 43.0397 61.011 43.2263 61.2117 43.469C61.417 43.707 61.571 43.994 61.6737 44.33C61.781 44.6613 61.8347 45.0277 61.8347 45.429V50H60.1057V45.429C60.1057 44.9903 60.0053 44.652 59.8047 44.414C59.604 44.1713 59.2983 44.05 58.8877 44.05C58.589 44.05 58.309 44.1177 58.0477 44.253C57.7863 44.3883 57.539 44.5727 57.3057 44.806V50H55.5767V42.818H56.6337C56.8577 42.818 57.0047 42.923 57.0747 43.133L57.1937 43.7ZM65.271 42.818V50H63.535V42.818H65.271ZM65.509 40.725C65.509 40.8743 65.4787 41.0143 65.418 41.145C65.3573 41.2757 65.2757 41.39 65.173 41.488C65.075 41.586 64.9583 41.6653 64.823 41.726C64.6877 41.782 64.543 41.81 64.389 41.81C64.2397 41.81 64.0973 41.782 63.962 41.726C63.8313 41.6653 63.717 41.586 63.619 41.488C63.521 41.39 63.4417 41.2757 63.381 41.145C63.325 41.0143 63.297 40.8743 63.297 40.725C63.297 40.571 63.325 40.4263 63.381 40.291C63.4417 40.1557 63.521 40.039 63.619 39.941C63.717 39.843 63.8313 39.766 63.962 39.71C64.0973 39.6493 64.2397 39.619 64.389 39.619C64.543 39.619 64.6877 39.6493 64.823 39.71C64.9583 39.766 65.075 39.843 65.173 39.941C65.2757 40.039 65.3573 40.1557 65.418 40.291C65.4787 40.4263 65.509 40.571 65.509 40.725ZM71.4157 44.218C71.369 44.2927 71.32 44.3463 71.2687 44.379C71.2174 44.407 71.152 44.421 71.0727 44.421C70.9887 44.421 70.8977 44.3977 70.7997 44.351C70.7064 44.3043 70.5967 44.253 70.4707 44.197C70.3447 44.1363 70.2 44.0827 70.0367 44.036C69.878 43.9893 69.689 43.966 69.4697 43.966C69.129 43.966 68.8607 44.0383 68.6647 44.183C68.4734 44.3277 68.3777 44.5167 68.3777 44.75C68.3777 44.904 68.4267 45.0347 68.5247 45.142C68.6274 45.2447 68.7604 45.3357 68.9237 45.415C69.0917 45.4943 69.2807 45.5667 69.4907 45.632C69.7007 45.6927 69.913 45.7603 70.1277 45.835C70.347 45.9097 70.5617 45.996 70.7717 46.094C70.9817 46.1873 71.1684 46.3087 71.3317 46.458C71.4997 46.6027 71.6327 46.7777 71.7307 46.983C71.8334 47.1883 71.8847 47.4357 71.8847 47.725C71.8847 48.0703 71.8217 48.39 71.6957 48.684C71.5744 48.9733 71.3924 49.2253 71.1497 49.44C70.907 49.65 70.606 49.8157 70.2467 49.937C69.892 50.0537 69.4814 50.112 69.0147 50.112C68.7674 50.112 68.5247 50.0887 68.2867 50.042C68.0534 50 67.827 49.9393 67.6077 49.86C67.393 49.7807 67.1924 49.6873 67.0057 49.58C66.8237 49.4727 66.6627 49.356 66.5227 49.23L66.9217 48.572C66.973 48.4927 67.0337 48.432 67.1037 48.39C67.1737 48.348 67.2624 48.327 67.3697 48.327C67.477 48.327 67.5774 48.3573 67.6707 48.418C67.7687 48.4787 67.8807 48.544 68.0067 48.614C68.1327 48.684 68.2797 48.7493 68.4477 48.81C68.6204 48.8707 68.8374 48.901 69.0987 48.901C69.304 48.901 69.479 48.8777 69.6237 48.831C69.773 48.7797 69.8944 48.7143 69.9877 48.635C70.0857 48.5557 70.1557 48.4647 70.1977 48.362C70.2444 48.2547 70.2677 48.145 70.2677 48.033C70.2677 47.865 70.2164 47.7273 70.1137 47.62C70.0157 47.5127 69.8827 47.4193 69.7147 47.34C69.5514 47.2607 69.3624 47.1907 69.1477 47.13C68.9377 47.0647 68.7207 46.9947 68.4967 46.92C68.2774 46.8453 68.0604 46.759 67.8457 46.661C67.6357 46.5583 67.4467 46.43 67.2787 46.276C67.1154 46.122 66.9824 45.933 66.8797 45.709C66.7817 45.485 66.7327 45.2143 66.7327 44.897C66.7327 44.603 66.791 44.323 66.9077 44.057C67.0244 43.791 67.1947 43.56 67.4187 43.364C67.6474 43.1633 67.9297 43.0047 68.2657 42.888C68.6064 42.7667 68.9984 42.706 69.4417 42.706C69.9364 42.706 70.3867 42.7877 70.7927 42.951C71.1987 43.1143 71.537 43.329 71.8077 43.595L71.4157 44.218ZM75.58 50.112C74.9547 50.112 74.474 49.937 74.138 49.587C73.8067 49.2323 73.641 48.7447 73.641 48.124V44.113H72.906C72.8127 44.113 72.7334 44.0827 72.668 44.022C72.6027 43.9613 72.57 43.8703 72.57 43.749V43.063L73.725 42.874L74.089 40.914C74.1124 40.8207 74.1567 40.7483 74.222 40.697C74.2874 40.6457 74.3714 40.62 74.474 40.62H75.37V42.881H77.288V44.113H75.37V48.005C75.37 48.229 75.4237 48.404 75.531 48.53C75.643 48.656 75.7947 48.719 75.986 48.719C76.0934 48.719 76.182 48.7073 76.252 48.684C76.3267 48.656 76.3897 48.628 76.441 48.6C76.497 48.572 76.546 48.5463 76.588 48.523C76.63 48.495 76.672 48.481 76.714 48.481C76.7654 48.481 76.8074 48.495 76.84 48.523C76.8727 48.5463 76.9077 48.5837 76.945 48.635L77.463 49.475C77.211 49.685 76.9217 49.8437 76.595 49.951C76.2684 50.0583 75.93 50.112 75.58 50.112ZM80.026 44.064C80.25 43.6347 80.516 43.2987 80.824 43.056C81.132 42.8087 81.496 42.685 81.916 42.685C82.2473 42.685 82.5133 42.7573 82.714 42.902L82.602 44.197C82.5787 44.281 82.5437 44.3417 82.497 44.379C82.455 44.4117 82.3967 44.428 82.322 44.428C82.252 44.428 82.147 44.4163 82.007 44.393C81.8717 44.3697 81.7387 44.358 81.608 44.358C81.4167 44.358 81.2463 44.386 81.097 44.442C80.9477 44.498 80.8123 44.5797 80.691 44.687C80.5743 44.7897 80.4693 44.9157 80.376 45.065C80.2873 45.2143 80.2033 45.3847 80.124 45.576V50H78.395V42.818H79.41C79.5873 42.818 79.711 42.8507 79.781 42.916C79.851 42.9767 79.8977 43.0887 79.921 43.252L80.026 44.064ZM87.316 46.934C86.8166 46.9573 86.3966 47.0017 86.056 47.067C85.7153 47.1277 85.4423 47.207 85.237 47.305C85.0316 47.403 84.8846 47.5173 84.796 47.648C84.7073 47.7787 84.663 47.921 84.663 48.075C84.663 48.3783 84.7516 48.5953 84.929 48.726C85.111 48.8567 85.3466 48.922 85.636 48.922C85.9906 48.922 86.2963 48.859 86.553 48.733C86.8143 48.6023 87.0686 48.4063 87.316 48.145V46.934ZM83.354 43.819C84.18 43.063 85.174 42.685 86.336 42.685C86.756 42.685 87.1316 42.755 87.463 42.895C87.7943 43.0303 88.0743 43.2217 88.303 43.469C88.5316 43.7117 88.7043 44.0033 88.821 44.344C88.9423 44.6847 89.003 45.058 89.003 45.464V50H88.219C88.0556 50 87.9296 49.9767 87.841 49.93C87.7523 49.8787 87.6823 49.7783 87.631 49.629L87.477 49.111C87.295 49.2743 87.1176 49.419 86.945 49.545C86.7723 49.6663 86.5926 49.769 86.406 49.853C86.2193 49.937 86.0186 50 85.804 50.042C85.594 50.0887 85.3606 50.112 85.104 50.112C84.8006 50.112 84.5206 50.0723 84.264 49.993C84.0073 49.909 83.7856 49.7853 83.599 49.622C83.4123 49.4587 83.2676 49.2557 83.165 49.013C83.0623 48.7703 83.011 48.488 83.011 48.166C83.011 47.984 83.0413 47.8043 83.102 47.627C83.1626 47.445 83.2606 47.2723 83.396 47.109C83.536 46.9457 83.7156 46.7917 83.935 46.647C84.1543 46.5023 84.4226 46.3763 84.74 46.269C85.062 46.1617 85.4353 46.0753 85.86 46.01C86.2846 45.94 86.77 45.898 87.316 45.884V45.464C87.316 44.9833 87.2133 44.6287 87.008 44.4C86.8026 44.1667 86.5063 44.05 86.119 44.05C85.839 44.05 85.6056 44.0827 85.419 44.148C85.237 44.2133 85.076 44.288 84.936 44.372C84.796 44.4513 84.6676 44.5237 84.551 44.589C84.439 44.6543 84.313 44.687 84.173 44.687C84.0516 44.687 83.949 44.6567 83.865 44.596C83.781 44.5307 83.7133 44.456 83.662 44.372L83.354 43.819ZM95.7903 43.532C95.7903 43.6533 95.7693 43.7723 95.7273 43.889C95.6853 44.0057 95.6293 44.1013 95.5593 44.176L92.1503 48.67H95.6853V50H90.1413V49.279C90.1413 49.1997 90.16 49.1063 90.1973 48.999C90.2347 48.887 90.2907 48.782 90.3653 48.684L93.8093 44.141H90.3443V42.818H95.7903V43.532ZM98.8628 42.818V50H97.1268V42.818H98.8628ZM99.1008 40.725C99.1008 40.8743 99.0705 41.0143 99.0098 41.145C98.9491 41.2757 98.8675 41.39 98.7648 41.488C98.6668 41.586 98.5501 41.6653 98.4148 41.726C98.2795 41.782 98.1348 41.81 97.9808 41.81C97.8315 41.81 97.6891 41.782 97.5538 41.726C97.4231 41.6653 97.3088 41.586 97.2108 41.488C97.1128 41.39 97.0335 41.2757 96.9728 41.145C96.9168 41.0143 96.8888 40.8743 96.8888 40.725C96.8888 40.571 96.9168 40.4263 96.9728 40.291C97.0335 40.1557 97.1128 40.039 97.2108 39.941C97.3088 39.843 97.4231 39.766 97.5538 39.71C97.6891 39.6493 97.8315 39.619 97.9808 39.619C98.1348 39.619 98.2795 39.6493 98.4148 39.71C98.5501 39.766 98.6668 39.843 98.7648 39.941C98.8675 40.039 98.9491 40.1557 99.0098 40.291C99.0705 40.4263 99.1008 40.571 99.1008 40.725ZM103.803 42.706C104.335 42.706 104.818 42.7923 105.252 42.965C105.691 43.1377 106.064 43.3827 106.372 43.7C106.685 44.0173 106.925 44.4047 107.093 44.862C107.261 45.3193 107.345 45.8303 107.345 46.395C107.345 46.9643 107.261 47.4777 107.093 47.935C106.925 48.3923 106.685 48.782 106.372 49.104C106.064 49.426 105.691 49.6733 105.252 49.846C104.818 50.0187 104.335 50.105 103.803 50.105C103.267 50.105 102.779 50.0187 102.34 49.846C101.902 49.6733 101.526 49.426 101.213 49.104C100.905 48.782 100.665 48.3923 100.492 47.935C100.324 47.4777 100.24 46.9643 100.24 46.395C100.24 45.8303 100.324 45.3193 100.492 44.862C100.665 44.4047 100.905 44.0173 101.213 43.7C101.526 43.3827 101.902 43.1377 102.34 42.965C102.779 42.7923 103.267 42.706 103.803 42.706ZM103.803 48.775C104.401 48.775 104.842 48.5743 105.126 48.173C105.416 47.7717 105.56 47.1837 105.56 46.409C105.56 45.6343 105.416 45.044 105.126 44.638C104.842 44.232 104.401 44.029 103.803 44.029C103.197 44.029 102.746 44.2343 102.452 44.645C102.163 45.051 102.018 45.639 102.018 46.409C102.018 47.179 102.163 47.767 102.452 48.173C102.746 48.5743 103.197 48.775 103.803 48.775ZM110.282 43.7C110.426 43.5553 110.578 43.4223 110.737 43.301C110.9 43.175 111.07 43.07 111.248 42.986C111.43 42.8973 111.623 42.8297 111.829 42.783C112.034 42.7317 112.258 42.706 112.501 42.706C112.893 42.706 113.24 42.7737 113.544 42.909C113.847 43.0397 114.099 43.2263 114.3 43.469C114.505 43.707 114.659 43.994 114.762 44.33C114.869 44.6613 114.923 45.0277 114.923 45.429V50H113.194V45.429C113.194 44.9903 113.093 44.652 112.893 44.414C112.692 44.1713 112.386 44.05 111.976 44.05C111.677 44.05 111.397 44.1177 111.136 44.253C110.874 44.3883 110.627 44.5727 110.394 44.806V50H108.665V42.818H109.722C109.946 42.818 110.093 42.923 110.163 43.133L110.282 43.7ZM118.359 42.818V50H116.623V42.818H118.359ZM118.597 40.725C118.597 40.8743 118.567 41.0143 118.506 41.145C118.445 41.2757 118.364 41.39 118.261 41.488C118.163 41.586 118.046 41.6653 117.911 41.726C117.776 41.782 117.631 41.81 117.477 41.81C117.328 41.81 117.185 41.782 117.05 41.726C116.919 41.6653 116.805 41.586 116.707 41.488C116.609 41.39 116.53 41.2757 116.469 41.145C116.413 41.0143 116.385 40.8743 116.385 40.725C116.385 40.571 116.413 40.4263 116.469 40.291C116.53 40.1557 116.609 40.039 116.707 39.941C116.805 39.843 116.919 39.766 117.05 39.71C117.185 39.6493 117.328 39.619 117.477 39.619C117.631 39.619 117.776 39.6493 117.911 39.71C118.046 39.766 118.163 39.843 118.261 39.941C118.364 40.039 118.445 40.1557 118.506 40.291C118.567 40.4263 118.597 40.571 118.597 40.725ZM128.671 44.337C128.62 44.4023 128.568 44.4537 128.517 44.491C128.47 44.5283 128.4 44.547 128.307 44.547C128.218 44.547 128.132 44.5213 128.048 44.47C127.964 44.414 127.864 44.3533 127.747 44.288C127.63 44.218 127.49 44.1573 127.327 44.106C127.168 44.05 126.97 44.022 126.732 44.022C126.429 44.022 126.163 44.078 125.934 44.19C125.705 44.2973 125.514 44.4537 125.36 44.659C125.211 44.8643 125.099 45.114 125.024 45.408C124.949 45.6973 124.912 46.0263 124.912 46.395C124.912 46.7777 124.952 47.1183 125.031 47.417C125.115 47.7157 125.234 47.9677 125.388 48.173C125.542 48.3737 125.729 48.5277 125.948 48.635C126.167 48.7377 126.415 48.789 126.69 48.789C126.965 48.789 127.187 48.7563 127.355 48.691C127.528 48.621 127.672 48.5463 127.789 48.467C127.906 48.383 128.006 48.3083 128.09 48.243C128.179 48.173 128.277 48.138 128.384 48.138C128.524 48.138 128.629 48.1917 128.699 48.299L129.196 48.929C129.005 49.153 128.797 49.342 128.573 49.496C128.349 49.6453 128.116 49.7667 127.873 49.86C127.635 49.9487 127.388 50.0117 127.131 50.049C126.879 50.0863 126.627 50.105 126.375 50.105C125.932 50.105 125.514 50.0233 125.122 49.86C124.73 49.692 124.387 49.4493 124.093 49.132C123.799 48.8147 123.566 48.4273 123.393 47.97C123.225 47.508 123.141 46.983 123.141 46.395C123.141 45.8677 123.216 45.38 123.365 44.932C123.519 44.4793 123.743 44.0897 124.037 43.763C124.331 43.4317 124.695 43.1727 125.129 42.986C125.563 42.7993 126.062 42.706 126.627 42.706C127.164 42.706 127.633 42.7923 128.034 42.965C128.44 43.1377 128.804 43.385 129.126 43.707L128.671 44.337ZM133.335 42.706C133.867 42.706 134.35 42.7923 134.784 42.965C135.222 43.1377 135.596 43.3827 135.904 43.7C136.216 44.0173 136.457 44.4047 136.625 44.862C136.793 45.3193 136.877 45.8303 136.877 46.395C136.877 46.9643 136.793 47.4777 136.625 47.935C136.457 48.3923 136.216 48.782 135.904 49.104C135.596 49.426 135.222 49.6733 134.784 49.846C134.35 50.0187 133.867 50.105 133.335 50.105C132.798 50.105 132.31 50.0187 131.872 49.846C131.433 49.6733 131.057 49.426 130.745 49.104C130.437 48.782 130.196 48.3923 130.024 47.935C129.856 47.4777 129.772 46.9643 129.772 46.395C129.772 45.8303 129.856 45.3193 130.024 44.862C130.196 44.4047 130.437 44.0173 130.745 43.7C131.057 43.3827 131.433 43.1377 131.872 42.965C132.31 42.7923 132.798 42.706 133.335 42.706ZM133.335 48.775C133.932 48.775 134.373 48.5743 134.658 48.173C134.947 47.7717 135.092 47.1837 135.092 46.409C135.092 45.6343 134.947 45.044 134.658 44.638C134.373 44.232 133.932 44.029 133.335 44.029C132.728 44.029 132.278 44.2343 131.984 44.645C131.694 45.051 131.55 45.639 131.55 46.409C131.55 47.179 131.694 47.767 131.984 48.173C132.278 48.5743 132.728 48.775 133.335 48.775ZM139.813 43.7C139.957 43.5553 140.109 43.4223 140.268 43.301C140.431 43.175 140.601 43.07 140.779 42.986C140.961 42.8973 141.154 42.8297 141.36 42.783C141.565 42.7317 141.789 42.706 142.032 42.706C142.424 42.706 142.771 42.7737 143.075 42.909C143.378 43.0397 143.63 43.2263 143.831 43.469C144.036 43.707 144.19 43.994 144.293 44.33C144.4 44.6613 144.454 45.0277 144.454 45.429V50H142.725V45.429C142.725 44.9903 142.624 44.652 142.424 44.414C142.223 44.1713 141.917 44.05 141.507 44.05C141.208 44.05 140.928 44.1177 140.667 44.253C140.405 44.3883 140.158 44.5727 139.925 44.806V50H138.196V42.818H139.253C139.477 42.818 139.624 42.923 139.694 43.133L139.813 43.7ZM150.606 44.652C150.41 44.414 150.195 44.246 149.962 44.148C149.733 44.05 149.486 44.001 149.22 44.001C148.959 44.001 148.723 44.05 148.513 44.148C148.303 44.246 148.123 44.3953 147.974 44.596C147.825 44.792 147.71 45.044 147.631 45.352C147.552 45.6553 147.512 46.0147 147.512 46.43C147.512 46.85 147.545 47.207 147.61 47.501C147.68 47.7903 147.778 48.0283 147.904 48.215C148.03 48.397 148.184 48.53 148.366 48.614C148.548 48.6933 148.751 48.733 148.975 48.733C149.334 48.733 149.64 48.6583 149.892 48.509C150.144 48.3597 150.382 48.1473 150.606 47.872V44.652ZM152.335 39.598V50H151.278C151.049 50 150.905 49.895 150.844 49.685L150.697 48.992C150.408 49.3233 150.074 49.5917 149.696 49.797C149.323 50.0023 148.886 50.105 148.387 50.105C147.995 50.105 147.636 50.0233 147.309 49.86C146.982 49.6967 146.7 49.461 146.462 49.153C146.229 48.8403 146.047 48.4553 145.916 47.998C145.79 47.5407 145.727 47.018 145.727 46.43C145.727 45.898 145.799 45.4033 145.944 44.946C146.089 44.4887 146.296 44.092 146.567 43.756C146.838 43.42 147.162 43.1587 147.54 42.972C147.918 42.7807 148.343 42.685 148.814 42.685C149.215 42.685 149.558 42.748 149.843 42.874C150.128 43 150.382 43.1703 150.606 43.385V39.598H152.335ZM157.22 42.706C157.752 42.706 158.235 42.7923 158.669 42.965C159.107 43.1377 159.481 43.3827 159.789 43.7C160.101 44.0173 160.341 44.4047 160.51 44.862C160.678 45.3193 160.762 45.8303 160.762 46.395C160.762 46.9643 160.678 47.4777 160.51 47.935C160.341 48.3923 160.101 48.782 159.789 49.104C159.481 49.426 159.107 49.6733 158.669 49.846C158.235 50.0187 157.752 50.105 157.22 50.105C156.683 50.105 156.195 50.0187 155.757 49.846C155.318 49.6733 154.942 49.426 154.63 49.104C154.322 48.782 154.081 48.3923 153.909 47.935C153.741 47.4777 153.657 46.9643 153.657 46.395C153.657 45.8303 153.741 45.3193 153.909 44.862C154.081 44.4047 154.322 44.0173 154.63 43.7C154.942 43.3827 155.318 43.1377 155.757 42.965C156.195 42.7923 156.683 42.706 157.22 42.706ZM157.22 48.775C157.817 48.775 158.258 48.5743 158.543 48.173C158.832 47.7717 158.977 47.1837 158.977 46.409C158.977 45.6343 158.832 45.044 158.543 44.638C158.258 44.232 157.817 44.029 157.22 44.029C156.613 44.029 156.163 44.2343 155.869 44.645C155.579 45.051 155.435 45.639 155.435 46.409C155.435 47.179 155.579 47.767 155.869 48.173C156.163 48.5743 156.613 48.775 157.22 48.775ZM162.081 50V42.818H163.138C163.362 42.818 163.509 42.923 163.579 43.133L163.691 43.665C163.817 43.525 163.947 43.3967 164.083 43.28C164.223 43.1633 164.37 43.063 164.524 42.979C164.682 42.895 164.85 42.8297 165.028 42.783C165.21 42.7317 165.408 42.706 165.623 42.706C166.075 42.706 166.446 42.8297 166.736 43.077C167.03 43.3197 167.249 43.644 167.394 44.05C167.506 43.812 167.646 43.609 167.814 43.441C167.982 43.2683 168.166 43.1283 168.367 43.021C168.567 42.9137 168.78 42.8343 169.004 42.783C169.232 42.7317 169.461 42.706 169.69 42.706C170.086 42.706 170.439 42.7667 170.747 42.888C171.055 43.0093 171.314 43.1867 171.524 43.42C171.734 43.6533 171.892 43.938 172 44.274C172.112 44.61 172.168 44.995 172.168 45.429V50H170.439V45.429C170.439 44.9717 170.338 44.6287 170.138 44.4C169.937 44.1667 169.643 44.05 169.256 44.05C169.078 44.05 168.913 44.0803 168.759 44.141C168.609 44.2017 168.476 44.2903 168.36 44.407C168.248 44.519 168.159 44.6613 168.094 44.834C168.028 45.0067 167.996 45.205 167.996 45.429V50H166.26V45.429C166.26 44.9483 166.162 44.5983 165.966 44.379C165.774 44.1597 165.492 44.05 165.119 44.05C164.867 44.05 164.631 44.113 164.412 44.239C164.197 44.3603 163.996 44.5283 163.81 44.743V50H162.081ZM175.603 42.818V50H173.867V42.818H175.603ZM175.841 40.725C175.841 40.8743 175.811 41.0143 175.75 41.145C175.689 41.2757 175.608 41.39 175.505 41.488C175.407 41.586 175.29 41.6653 175.155 41.726C175.02 41.782 174.875 41.81 174.721 41.81C174.572 41.81 174.429 41.782 174.294 41.726C174.163 41.6653 174.049 41.586 173.951 41.488C173.853 41.39 173.774 41.2757 173.713 41.145C173.657 41.0143 173.629 40.8743 173.629 40.725C173.629 40.571 173.657 40.4263 173.713 40.291C173.774 40.1557 173.853 40.039 173.951 39.941C174.049 39.843 174.163 39.766 174.294 39.71C174.429 39.6493 174.572 39.619 174.721 39.619C174.875 39.619 175.02 39.6493 175.155 39.71C175.29 39.766 175.407 39.843 175.505 39.941C175.608 40.039 175.689 40.1557 175.75 40.291C175.811 40.4263 175.841 40.571 175.841 40.725ZM178.983 43.7C179.127 43.5553 179.279 43.4223 179.438 43.301C179.601 43.175 179.771 43.07 179.949 42.986C180.131 42.8973 180.324 42.8297 180.53 42.783C180.735 42.7317 180.959 42.706 181.202 42.706C181.594 42.706 181.941 42.7737 182.245 42.909C182.548 43.0397 182.8 43.2263 183.001 43.469C183.206 43.707 183.36 43.994 183.463 44.33C183.57 44.6613 183.624 45.0277 183.624 45.429V50H181.895V45.429C181.895 44.9903 181.794 44.652 181.594 44.414C181.393 44.1713 181.087 44.05 180.677 44.05C180.378 44.05 180.098 44.1177 179.837 44.253C179.575 44.3883 179.328 44.5727 179.095 44.806V50H177.366V42.818H178.423C178.647 42.818 178.794 42.923 178.864 43.133L178.983 43.7ZM187.06 42.818V50H185.324V42.818H187.06ZM187.298 40.725C187.298 40.8743 187.268 41.0143 187.207 41.145C187.146 41.2757 187.065 41.39 186.962 41.488C186.864 41.586 186.747 41.6653 186.612 41.726C186.477 41.782 186.332 41.81 186.178 41.81C186.029 41.81 185.886 41.782 185.751 41.726C185.62 41.6653 185.506 41.586 185.408 41.488C185.31 41.39 185.231 41.2757 185.17 41.145C185.114 41.0143 185.086 40.8743 185.086 40.725C185.086 40.571 185.114 40.4263 185.17 40.291C185.231 40.1557 185.31 40.039 185.408 39.941C185.506 39.843 185.62 39.766 185.751 39.71C185.886 39.6493 186.029 39.619 186.178 39.619C186.332 39.619 186.477 39.6493 186.612 39.71C186.747 39.766 186.864 39.843 186.962 39.941C187.065 40.039 187.146 40.1557 187.207 40.291C187.268 40.4263 187.298 40.571 187.298 40.725ZM192.617 46.934C192.117 46.9573 191.697 47.0017 191.357 47.067C191.016 47.1277 190.743 47.207 190.538 47.305C190.332 47.403 190.185 47.5173 190.097 47.648C190.008 47.7787 189.964 47.921 189.964 48.075C189.964 48.3783 190.052 48.5953 190.23 48.726C190.412 48.8567 190.647 48.922 190.937 48.922C191.291 48.922 191.597 48.859 191.854 48.733C192.115 48.6023 192.369 48.4063 192.617 48.145V46.934ZM188.655 43.819C189.481 43.063 190.475 42.685 191.637 42.685C192.057 42.685 192.432 42.755 192.764 42.895C193.095 43.0303 193.375 43.2217 193.604 43.469C193.832 43.7117 194.005 44.0033 194.122 44.344C194.243 44.6847 194.304 45.058 194.304 45.464V50H193.52C193.356 50 193.23 49.9767 193.142 49.93C193.053 49.8787 192.983 49.7783 192.932 49.629L192.778 49.111C192.596 49.2743 192.418 49.419 192.246 49.545C192.073 49.6663 191.893 49.769 191.707 49.853C191.52 49.937 191.319 50 191.105 50.042C190.895 50.0887 190.661 50.112 190.405 50.112C190.101 50.112 189.821 50.0723 189.565 49.993C189.308 49.909 189.086 49.7853 188.9 49.622C188.713 49.4587 188.568 49.2557 188.466 49.013C188.363 48.7703 188.312 48.488 188.312 48.166C188.312 47.984 188.342 47.8043 188.403 47.627C188.463 47.445 188.561 47.2723 188.697 47.109C188.837 46.9457 189.016 46.7917 189.236 46.647C189.455 46.5023 189.723 46.3763 190.041 46.269C190.363 46.1617 190.736 46.0753 191.161 46.01C191.585 45.94 192.071 45.898 192.617 45.884V45.464C192.617 44.9833 192.514 44.6287 192.309 44.4C192.103 44.1667 191.807 44.05 191.42 44.05C191.14 44.05 190.906 44.0827 190.72 44.148C190.538 44.2133 190.377 44.288 190.237 44.372C190.097 44.4513 189.968 44.5237 189.852 44.589C189.74 44.6543 189.614 44.687 189.474 44.687C189.352 44.687 189.25 44.6567 189.166 44.596C189.082 44.5307 189.014 44.456 188.963 44.372L188.655 43.819ZM197.682 39.598V50H195.953V39.598H197.682ZM201.197 42.818V50H199.461V42.818H201.197ZM201.435 40.725C201.435 40.8743 201.404 41.0143 201.344 41.145C201.283 41.2757 201.201 41.39 201.099 41.488C201.001 41.586 200.884 41.6653 200.749 41.726C200.613 41.782 200.469 41.81 200.315 41.81C200.165 41.81 200.023 41.782 199.888 41.726C199.757 41.6653 199.643 41.586 199.545 41.488C199.447 41.39 199.367 41.2757 199.307 41.145C199.251 41.0143 199.223 40.8743 199.223 40.725C199.223 40.571 199.251 40.4263 199.307 40.291C199.367 40.1557 199.447 40.039 199.545 39.941C199.643 39.843 199.757 39.766 199.888 39.71C200.023 39.6493 200.165 39.619 200.315 39.619C200.469 39.619 200.613 39.6493 200.749 39.71C200.884 39.766 201.001 39.843 201.099 39.941C201.201 40.039 201.283 40.1557 201.344 40.291C201.404 40.4263 201.435 40.571 201.435 40.725Z" fill="#F8F8FF"/>
<path d="M24.608 68.276L23.033 64.195C22.9863 64.0737 22.9373 63.9337 22.886 63.775C22.8347 63.6117 22.7857 63.439 22.739 63.257C22.641 63.635 22.5407 63.95 22.438 64.202L20.863 68.276H24.608ZM27.436 72H26.386C26.2647 72 26.1667 71.9697 26.092 71.909C26.0173 71.8483 25.9613 71.7713 25.924 71.678L24.986 69.256H20.485L19.547 71.678C19.519 71.762 19.4653 71.8367 19.386 71.902C19.3067 71.9673 19.2087 72 19.092 72H18.042L22.053 61.969H23.425L27.436 72ZM32.9312 66.596C32.6979 66.2833 32.4459 66.0663 32.1752 65.945C31.9046 65.819 31.6012 65.756 31.2652 65.756C30.6072 65.756 30.1009 65.9917 29.7462 66.463C29.3916 66.9343 29.2142 67.6063 29.2142 68.479C29.2142 68.941 29.2539 69.3377 29.3332 69.669C29.4126 69.9957 29.5292 70.2663 29.6832 70.481C29.8372 70.691 30.0262 70.845 30.2502 70.943C30.4742 71.041 30.7286 71.09 31.0132 71.09C31.4239 71.09 31.7809 70.9967 32.0842 70.81C32.3922 70.6233 32.6746 70.3597 32.9312 70.019V66.596ZM34.1772 61.689V72H33.4352C33.2579 72 33.1459 71.9137 33.0992 71.741L32.9872 70.88C32.6839 71.244 32.3386 71.538 31.9512 71.762C31.5639 71.986 31.1159 72.098 30.6072 72.098C30.2012 72.098 29.8326 72.021 29.5012 71.867C29.1699 71.7083 28.8876 71.4773 28.6542 71.174C28.4209 70.8707 28.2412 70.4927 28.1152 70.04C27.9892 69.5873 27.9262 69.067 27.9262 68.479C27.9262 67.9563 27.9962 67.471 28.1362 67.023C28.2762 66.5703 28.4769 66.1783 28.7382 65.847C28.9996 65.5157 29.3192 65.2567 29.6972 65.07C30.0799 64.8787 30.5092 64.783 30.9852 64.783C31.4192 64.783 31.7902 64.8577 32.0982 65.007C32.4109 65.1517 32.6886 65.3547 32.9312 65.616V61.689H34.1772ZM40.7652 66.596C40.5319 66.2833 40.2799 66.0663 40.0092 65.945C39.7385 65.819 39.4352 65.756 39.0992 65.756C38.4412 65.756 37.9349 65.9917 37.5802 66.463C37.2255 66.9343 37.0482 67.6063 37.0482 68.479C37.0482 68.941 37.0879 69.3377 37.1672 69.669C37.2465 69.9957 37.3632 70.2663 37.5172 70.481C37.6712 70.691 37.8602 70.845 38.0842 70.943C38.3082 71.041 38.5625 71.09 38.8472 71.09C39.2579 71.09 39.6149 70.9967 39.9182 70.81C40.2262 70.6233 40.5085 70.3597 40.7652 70.019V66.596ZM42.0112 61.689V72H41.2692C41.0919 72 40.9799 71.9137 40.9332 71.741L40.8212 70.88C40.5179 71.244 40.1725 71.538 39.7852 71.762C39.3979 71.986 38.9499 72.098 38.4412 72.098C38.0352 72.098 37.6665 72.021 37.3352 71.867C37.0039 71.7083 36.7215 71.4773 36.4882 71.174C36.2549 70.8707 36.0752 70.4927 35.9492 70.04C35.8232 69.5873 35.7602 69.067 35.7602 68.479C35.7602 67.9563 35.8302 67.471 35.9702 67.023C36.1102 66.5703 36.3109 66.1783 36.5722 65.847C36.8335 65.5157 37.1532 65.2567 37.5312 65.07C37.9139 64.8787 38.3432 64.783 38.8192 64.783C39.2532 64.783 39.6242 64.8577 39.9322 65.007C40.2449 65.1517 40.5225 65.3547 40.7652 65.616V61.689H42.0112ZM48.7252 67.681C48.7252 67.3917 48.6832 67.128 48.5992 66.89C48.5199 66.6473 48.4009 66.4397 48.2422 66.267C48.0882 66.0897 47.8992 65.9543 47.6752 65.861C47.4512 65.763 47.1969 65.714 46.9122 65.714C46.3149 65.714 45.8412 65.889 45.4912 66.239C45.1459 66.5843 44.9312 67.065 44.8472 67.681H48.7252ZM49.7332 71.006C49.5792 71.1927 49.3949 71.356 49.1802 71.496C48.9655 71.6313 48.7345 71.7433 48.4872 71.832C48.2445 71.9207 47.9925 71.986 47.7312 72.028C47.4699 72.0747 47.2109 72.098 46.9542 72.098C46.4642 72.098 46.0115 72.0163 45.5962 71.853C45.1855 71.685 44.8285 71.4423 44.5252 71.125C44.2265 70.803 43.9932 70.4063 43.8252 69.935C43.6572 69.4637 43.5732 68.9223 43.5732 68.311C43.5732 67.8163 43.6479 67.3543 43.7972 66.925C43.9512 66.4957 44.1705 66.1247 44.4552 65.812C44.7399 65.4947 45.0875 65.2473 45.4982 65.07C45.9089 64.888 46.3709 64.797 46.8842 64.797C47.3089 64.797 47.7009 64.8693 48.0602 65.014C48.4242 65.154 48.7369 65.3593 48.9982 65.63C49.2642 65.896 49.4719 66.2273 49.6212 66.624C49.7705 67.016 49.8452 67.464 49.8452 67.968C49.8452 68.164 49.8242 68.2947 49.7822 68.36C49.7402 68.4253 49.6609 68.458 49.5442 68.458H44.8052C44.8192 68.906 44.8799 69.2957 44.9872 69.627C45.0992 69.9583 45.2532 70.236 45.4492 70.46C45.6452 70.6793 45.8785 70.845 46.1492 70.957C46.4199 71.0643 46.7232 71.118 47.0592 71.118C47.3719 71.118 47.6402 71.083 47.8642 71.013C48.0929 70.9383 48.2889 70.859 48.4522 70.775C48.6155 70.691 48.7509 70.614 48.8582 70.544C48.9702 70.4693 49.0659 70.432 49.1452 70.432C49.2479 70.432 49.3272 70.4717 49.3832 70.551L49.7332 71.006ZM53.498 72.112C52.938 72.112 52.5063 71.9557 52.203 71.643C51.9043 71.3303 51.755 70.88 51.755 70.292V65.952H50.901C50.8263 65.952 50.7633 65.931 50.712 65.889C50.6607 65.8423 50.635 65.7723 50.635 65.679V65.182L51.797 65.035L52.084 62.844C52.098 62.774 52.1283 62.718 52.175 62.676C52.2263 62.6293 52.2917 62.606 52.371 62.606H53.001V65.049H56.34L56.627 62.844C56.641 62.774 56.6713 62.718 56.718 62.676C56.7693 62.6293 56.8347 62.606 56.914 62.606H57.544V65.049H59.595V65.952H57.544V70.208C57.544 70.5067 57.6163 70.7283 57.761 70.873C57.9103 71.0177 58.097 71.09 58.321 71.09C58.4517 71.09 58.5637 71.0737 58.657 71.041C58.755 71.0037 58.839 70.964 58.909 70.922C58.979 70.88 59.0373 70.8427 59.084 70.81C59.1353 70.7727 59.1797 70.754 59.217 70.754C59.287 70.754 59.3453 70.7937 59.392 70.873L59.763 71.468C59.5437 71.6687 59.2823 71.8273 58.979 71.944C58.6757 72.056 58.363 72.112 58.041 72.112C57.4857 72.112 57.0563 71.9557 56.753 71.643C56.4497 71.3303 56.298 70.88 56.298 70.292V65.952H53.001V70.208C53.001 70.5067 53.0733 70.7283 53.218 70.873C53.3627 71.0177 53.5493 71.09 53.778 71.09C53.9087 71.09 54.0207 71.0737 54.114 71.041C54.212 71.0037 54.296 70.964 54.366 70.922C54.436 70.88 54.4943 70.8427 54.541 70.81C54.5923 70.7727 54.6367 70.754 54.674 70.754C54.7393 70.754 54.7977 70.7937 54.849 70.873L55.213 71.468C54.9983 71.6687 54.7393 71.8273 54.436 71.944C54.1327 72.056 53.82 72.112 53.498 72.112ZM63.8256 64.797C64.3436 64.797 64.8103 64.8833 65.2256 65.056C65.6409 65.2287 65.9956 65.4737 66.2896 65.791C66.5836 66.1083 66.8076 66.4933 66.9616 66.946C67.1203 67.394 67.1996 67.8957 67.1996 68.451C67.1996 69.011 67.1203 69.515 66.9616 69.963C66.8076 70.411 66.5836 70.7937 66.2896 71.111C65.9956 71.4283 65.6409 71.6733 65.2256 71.846C64.8103 72.014 64.3436 72.098 63.8256 72.098C63.3029 72.098 62.8316 72.014 62.4116 71.846C61.9963 71.6733 61.6416 71.4283 61.3476 71.111C61.0536 70.7937 60.8273 70.411 60.6686 69.963C60.5146 69.515 60.4376 69.011 60.4376 68.451C60.4376 67.8957 60.5146 67.394 60.6686 66.946C60.8273 66.4933 61.0536 66.1083 61.3476 65.791C61.6416 65.4737 61.9963 65.2287 62.4116 65.056C62.8316 64.8833 63.3029 64.797 63.8256 64.797ZM63.8256 71.125C64.5256 71.125 65.0483 70.8917 65.3936 70.425C65.7389 69.9537 65.9116 69.298 65.9116 68.458C65.9116 67.6133 65.7389 66.9553 65.3936 66.484C65.0483 66.0127 64.5256 65.777 63.8256 65.777C63.4709 65.777 63.1606 65.8377 62.8946 65.959C62.6333 66.0803 62.4139 66.2553 62.2366 66.484C62.0639 66.7127 61.9333 66.995 61.8446 67.331C61.7606 67.6623 61.7186 68.038 61.7186 68.458C61.7186 69.298 61.8913 69.9537 62.2366 70.425C62.5866 70.8917 63.1163 71.125 63.8256 71.125ZM76.205 68.808C75.631 68.8267 75.141 68.8733 74.735 68.948C74.3337 69.018 74.0047 69.1113 73.748 69.228C73.496 69.3447 73.3117 69.4823 73.195 69.641C73.083 69.7997 73.027 69.977 73.027 70.173C73.027 70.3597 73.0573 70.5207 73.118 70.656C73.1787 70.7913 73.2603 70.9033 73.363 70.992C73.4703 71.076 73.594 71.139 73.734 71.181C73.8787 71.2183 74.0327 71.237 74.196 71.237C74.4153 71.237 74.616 71.216 74.798 71.174C74.98 71.1273 75.1503 71.062 75.309 70.978C75.4723 70.894 75.6263 70.7937 75.771 70.677C75.9203 70.5603 76.065 70.4273 76.205 70.278V68.808ZM72.18 65.91C72.572 65.532 72.9943 65.2497 73.447 65.063C73.8997 64.8763 74.4013 64.783 74.952 64.783C75.3487 64.783 75.701 64.8483 76.009 64.979C76.317 65.1097 76.576 65.2917 76.786 65.525C76.996 65.7583 77.1547 66.0407 77.262 66.372C77.3693 66.7033 77.423 67.0673 77.423 67.464V72H76.87C76.7487 72 76.6553 71.9813 76.59 71.944C76.5247 71.902 76.4733 71.8227 76.436 71.706L76.296 71.034C76.1093 71.2067 75.9273 71.3607 75.75 71.496C75.5727 71.6267 75.386 71.7387 75.19 71.832C74.994 71.9207 74.784 71.9883 74.56 72.035C74.3407 72.0863 74.0957 72.112 73.825 72.112C73.5497 72.112 73.2907 72.0747 73.048 72C72.8053 71.9207 72.593 71.804 72.411 71.65C72.2337 71.496 72.0913 71.3023 71.984 71.069C71.8813 70.831 71.83 70.551 71.83 70.229C71.83 69.949 71.907 69.6807 72.061 69.424C72.215 69.1627 72.4647 68.9317 72.81 68.731C73.1553 68.5303 73.6057 68.367 74.161 68.241C74.7163 68.1103 75.3977 68.0357 76.205 68.017V67.464C76.205 66.9133 76.086 66.498 75.848 66.218C75.61 65.9333 75.2623 65.791 74.805 65.791C74.497 65.791 74.238 65.8307 74.028 65.91C73.8227 65.9847 73.643 66.071 73.489 66.169C73.3397 66.2623 73.209 66.3487 73.097 66.428C72.9897 66.5027 72.8823 66.54 72.775 66.54C72.691 66.54 72.6187 66.519 72.558 66.477C72.4973 66.4303 72.446 66.3743 72.404 66.309L72.18 65.91ZM80.609 61.689V72H79.363V61.689H80.609ZM83.9176 61.689V72H82.6716V61.689H83.9176ZM89.7812 68.808C89.2072 68.8267 88.7172 68.8733 88.3112 68.948C87.9098 69.018 87.5808 69.1113 87.3242 69.228C87.0722 69.3447 86.8878 69.4823 86.7712 69.641C86.6592 69.7997 86.6032 69.977 86.6032 70.173C86.6032 70.3597 86.6335 70.5207 86.6942 70.656C86.7548 70.7913 86.8365 70.9033 86.9392 70.992C87.0465 71.076 87.1702 71.139 87.3102 71.181C87.4548 71.2183 87.6088 71.237 87.7722 71.237C87.9915 71.237 88.1922 71.216 88.3742 71.174C88.5562 71.1273 88.7265 71.062 88.8852 70.978C89.0485 70.894 89.2025 70.7937 89.3472 70.677C89.4965 70.5603 89.6412 70.4273 89.7812 70.278V68.808ZM85.7562 65.91C86.1482 65.532 86.5705 65.2497 87.0232 65.063C87.4758 64.8763 87.9775 64.783 88.5282 64.783C88.9248 64.783 89.2772 64.8483 89.5852 64.979C89.8932 65.1097 90.1522 65.2917 90.3622 65.525C90.5722 65.7583 90.7308 66.0407 90.8382 66.372C90.9455 66.7033 90.9992 67.0673 90.9992 67.464V72H90.4462C90.3248 72 90.2315 71.9813 90.1662 71.944C90.1008 71.902 90.0495 71.8227 90.0122 71.706L89.8722 71.034C89.6855 71.2067 89.5035 71.3607 89.3262 71.496C89.1488 71.6267 88.9622 71.7387 88.7662 71.832C88.5702 71.9207 88.3602 71.9883 88.1362 72.035C87.9168 72.0863 87.6718 72.112 87.4012 72.112C87.1258 72.112 86.8668 72.0747 86.6242 72C86.3815 71.9207 86.1692 71.804 85.9872 71.65C85.8098 71.496 85.6675 71.3023 85.5602 71.069C85.4575 70.831 85.4062 70.551 85.4062 70.229C85.4062 69.949 85.4832 69.6807 85.6372 69.424C85.7912 69.1627 86.0408 68.9317 86.3862 68.731C86.7315 68.5303 87.1818 68.367 87.7372 68.241C88.2925 68.1103 88.9738 68.0357 89.7812 68.017V67.464C89.7812 66.9133 89.6622 66.498 89.4242 66.218C89.1862 65.9333 88.8385 65.791 88.3812 65.791C88.0732 65.791 87.8142 65.8307 87.6042 65.91C87.3988 65.9847 87.2192 66.071 87.0652 66.169C86.9158 66.2623 86.7852 66.3487 86.6732 66.428C86.5658 66.5027 86.4585 66.54 86.3512 66.54C86.2672 66.54 86.1948 66.519 86.1342 66.477C86.0735 66.4303 86.0222 66.3743 85.9802 66.309L85.7562 65.91ZM101.414 66.169C101.377 66.2203 101.34 66.26 101.302 66.288C101.265 66.316 101.214 66.33 101.148 66.33C101.078 66.33 101.001 66.302 100.917 66.246C100.833 66.1853 100.728 66.12 100.602 66.05C100.481 65.98 100.329 65.917 100.147 65.861C99.9699 65.8003 99.7505 65.77 99.4892 65.77C99.1392 65.77 98.8312 65.833 98.5652 65.959C98.2992 66.0803 98.0752 66.2577 97.8932 66.491C97.7159 66.7243 97.5805 67.0067 97.4872 67.338C97.3985 67.6693 97.3542 68.0403 97.3542 68.451C97.3542 68.8803 97.4032 69.263 97.5012 69.599C97.5992 69.9303 97.7369 70.2103 97.9142 70.439C98.0962 70.663 98.3132 70.8357 98.5652 70.957C98.8219 71.0737 99.1089 71.132 99.4262 71.132C99.7295 71.132 99.9792 71.097 100.175 71.027C100.371 70.9523 100.532 70.8707 100.658 70.782C100.789 70.6933 100.896 70.614 100.98 70.544C101.069 70.4693 101.155 70.432 101.239 70.432C101.342 70.432 101.421 70.4717 101.477 70.551L101.827 71.006C101.673 71.1973 101.498 71.3607 101.302 71.496C101.106 71.6313 100.894 71.7457 100.665 71.839C100.441 71.9277 100.206 71.993 99.9582 72.035C99.7109 72.077 99.4589 72.098 99.2022 72.098C98.7589 72.098 98.3459 72.0163 97.9632 71.853C97.5852 71.6897 97.2562 71.454 96.9762 71.146C96.6962 70.8333 96.4769 70.4507 96.3182 69.998C96.1595 69.5453 96.0802 69.0297 96.0802 68.451C96.0802 67.9237 96.1525 67.436 96.2972 66.988C96.4465 66.54 96.6612 66.155 96.9412 65.833C97.2259 65.5063 97.5735 65.252 97.9842 65.07C98.3995 64.888 98.8755 64.797 99.4122 64.797C99.9115 64.797 100.35 64.8787 100.728 65.042C101.111 65.2007 101.449 65.427 101.743 65.721L101.414 66.169ZM106.031 64.797C106.549 64.797 107.015 64.8833 107.431 65.056C107.846 65.2287 108.201 65.4737 108.495 65.791C108.789 66.1083 109.013 66.4933 109.167 66.946C109.325 67.394 109.405 67.8957 109.405 68.451C109.405 69.011 109.325 69.515 109.167 69.963C109.013 70.411 108.789 70.7937 108.495 71.111C108.201 71.4283 107.846 71.6733 107.431 71.846C107.015 72.014 106.549 72.098 106.031 72.098C105.508 72.098 105.037 72.014 104.617 71.846C104.201 71.6733 103.847 71.4283 103.553 71.111C103.259 70.7937 103.032 70.411 102.874 69.963C102.72 69.515 102.643 69.011 102.643 68.451C102.643 67.8957 102.72 67.394 102.874 66.946C103.032 66.4933 103.259 66.1083 103.553 65.791C103.847 65.4737 104.201 65.2287 104.617 65.056C105.037 64.8833 105.508 64.797 106.031 64.797ZM106.031 71.125C106.731 71.125 107.253 70.8917 107.599 70.425C107.944 69.9537 108.117 69.298 108.117 68.458C108.117 67.6133 107.944 66.9553 107.599 66.484C107.253 66.0127 106.731 65.777 106.031 65.777C105.676 65.777 105.366 65.8377 105.1 65.959C104.838 66.0803 104.619 66.2553 104.442 66.484C104.269 66.7127 104.138 66.995 104.05 67.331C103.966 67.6623 103.924 68.038 103.924 68.458C103.924 69.298 104.096 69.9537 104.442 70.425C104.792 70.8917 105.321 71.125 106.031 71.125ZM112.161 65.938C112.315 65.7653 112.478 65.609 112.651 65.469C112.824 65.329 113.006 65.21 113.197 65.112C113.393 65.0093 113.598 64.9323 113.813 64.881C114.032 64.825 114.268 64.797 114.52 64.797C114.907 64.797 115.248 64.8623 115.542 64.993C115.841 65.119 116.088 65.301 116.284 65.539C116.485 65.7723 116.636 66.0547 116.739 66.386C116.842 66.7173 116.893 67.0837 116.893 67.485V72H115.64V67.485C115.64 66.9483 115.516 66.533 115.269 66.239C115.026 65.9403 114.655 65.791 114.156 65.791C113.787 65.791 113.442 65.8797 113.12 66.057C112.803 66.2343 112.509 66.4747 112.238 66.778V72H110.985V64.909H111.734C111.911 64.909 112.021 64.9953 112.063 65.168L112.161 65.938ZM120.873 72.112C120.313 72.112 119.881 71.9557 119.578 71.643C119.279 71.3303 119.13 70.88 119.13 70.292V65.952H118.276C118.201 65.952 118.138 65.931 118.087 65.889C118.036 65.8423 118.01 65.7723 118.01 65.679V65.182L119.172 65.035L119.459 62.844C119.473 62.774 119.503 62.718 119.55 62.676C119.601 62.6293 119.667 62.606 119.746 62.606H120.376V65.049H122.427V65.952H120.376V70.208C120.376 70.5067 120.448 70.7283 120.593 70.873C120.738 71.0177 120.924 71.09 121.153 71.09C121.284 71.09 121.396 71.0737 121.489 71.041C121.587 71.0037 121.671 70.964 121.741 70.922C121.811 70.88 121.869 70.8427 121.916 70.81C121.967 70.7727 122.012 70.754 122.049 70.754C122.114 70.754 122.173 70.7937 122.224 70.873L122.588 71.468C122.373 71.6687 122.114 71.8273 121.811 71.944C121.508 72.056 121.195 72.112 120.873 72.112ZM127.557 68.808C126.983 68.8267 126.493 68.8733 126.087 68.948C125.685 69.018 125.356 69.1113 125.1 69.228C124.848 69.3447 124.663 69.4823 124.547 69.641C124.435 69.7997 124.379 69.977 124.379 70.173C124.379 70.3597 124.409 70.5207 124.47 70.656C124.53 70.7913 124.612 70.9033 124.715 70.992C124.822 71.076 124.946 71.139 125.086 71.181C125.23 71.2183 125.384 71.237 125.548 71.237C125.767 71.237 125.968 71.216 126.15 71.174C126.332 71.1273 126.502 71.062 126.661 70.978C126.824 70.894 126.978 70.7937 127.123 70.677C127.272 70.5603 127.417 70.4273 127.557 70.278V68.808ZM123.532 65.91C123.924 65.532 124.346 65.2497 124.799 65.063C125.251 64.8763 125.753 64.783 126.304 64.783C126.7 64.783 127.053 64.8483 127.361 64.979C127.669 65.1097 127.928 65.2917 128.138 65.525C128.348 65.7583 128.506 66.0407 128.614 66.372C128.721 66.7033 128.775 67.0673 128.775 67.464V72H128.222C128.1 72 128.007 71.9813 127.942 71.944C127.876 71.902 127.825 71.8227 127.788 71.706L127.648 71.034C127.461 71.2067 127.279 71.3607 127.102 71.496C126.924 71.6267 126.738 71.7387 126.542 71.832C126.346 71.9207 126.136 71.9883 125.912 72.035C125.692 72.0863 125.447 72.112 125.177 72.112C124.901 72.112 124.642 72.0747 124.4 72C124.157 71.9207 123.945 71.804 123.763 71.65C123.585 71.496 123.443 71.3023 123.336 71.069C123.233 70.831 123.182 70.551 123.182 70.229C123.182 69.949 123.259 69.6807 123.413 69.424C123.567 69.1627 123.816 68.9317 124.162 68.731C124.507 68.5303 124.957 68.367 125.513 68.241C126.068 68.1103 126.749 68.0357 127.557 68.017V67.464C127.557 66.9133 127.438 66.498 127.2 66.218C126.962 65.9333 126.614 65.791 126.157 65.791C125.849 65.791 125.59 65.8307 125.38 65.91C125.174 65.9847 124.995 66.071 124.841 66.169C124.691 66.2623 124.561 66.3487 124.449 66.428C124.341 66.5027 124.234 66.54 124.127 66.54C124.043 66.54 123.97 66.519 123.91 66.477C123.849 66.4303 123.798 66.3743 123.756 66.309L123.532 65.91ZM131.926 70.292C132.154 70.6 132.404 70.817 132.675 70.943C132.95 71.069 133.251 71.132 133.578 71.132C134.245 71.132 134.756 70.8963 135.111 70.425C135.465 69.9537 135.643 69.2513 135.643 68.318C135.643 67.45 135.484 66.813 135.167 66.407C134.854 65.9963 134.406 65.791 133.823 65.791C133.417 65.791 133.062 65.8843 132.759 66.071C132.46 66.2577 132.182 66.5213 131.926 66.862V70.292ZM131.926 65.931C132.224 65.5857 132.56 65.3103 132.934 65.105C133.312 64.8997 133.746 64.797 134.236 64.797C134.651 64.797 135.024 64.8763 135.356 65.035C135.692 65.1937 135.976 65.4247 136.21 65.728C136.443 66.0267 136.62 66.3907 136.742 66.82C136.868 67.2493 136.931 67.7323 136.931 68.269C136.931 68.843 136.861 69.3657 136.721 69.837C136.581 70.3083 136.378 70.712 136.112 71.048C135.85 71.3793 135.531 71.6383 135.153 71.825C134.775 72.007 134.35 72.098 133.879 72.098C133.412 72.098 133.018 72.0117 132.696 71.839C132.378 71.6617 132.101 71.412 131.863 71.09L131.8 71.734C131.762 71.9113 131.655 72 131.478 72H130.673V61.689H131.926V65.931ZM139.823 64.909V72H138.577V64.909H139.823ZM140.089 62.683C140.089 62.8043 140.063 62.9187 140.012 63.026C139.965 63.1287 139.9 63.222 139.816 63.306C139.736 63.3853 139.641 63.4483 139.529 63.495C139.421 63.5417 139.307 63.565 139.186 63.565C139.064 63.565 138.95 63.5417 138.843 63.495C138.74 63.4483 138.649 63.3853 138.57 63.306C138.49 63.222 138.427 63.1287 138.381 63.026C138.334 62.9187 138.311 62.8043 138.311 62.683C138.311 62.5617 138.334 62.4473 138.381 62.34C138.427 62.228 138.49 62.1323 138.57 62.053C138.649 61.969 138.74 61.9037 138.843 61.857C138.95 61.8103 139.064 61.787 139.186 61.787C139.307 61.787 139.421 61.8103 139.529 61.857C139.641 61.9037 139.736 61.969 139.816 62.053C139.9 62.1323 139.965 62.228 140.012 62.34C140.063 62.4473 140.089 62.5617 140.089 62.683ZM143.158 61.689V72H141.912V61.689H143.158ZM146.494 64.909V72H145.248V64.909H146.494ZM146.76 62.683C146.76 62.8043 146.735 62.9187 146.683 63.026C146.637 63.1287 146.571 63.222 146.487 63.306C146.408 63.3853 146.312 63.4483 146.2 63.495C146.093 63.5417 145.979 63.565 145.857 63.565C145.736 63.565 145.622 63.5417 145.514 63.495C145.412 63.4483 145.321 63.3853 145.241 63.306C145.162 63.222 145.099 63.1287 145.052 63.026C145.006 62.9187 144.982 62.8043 144.982 62.683C144.982 62.5617 145.006 62.4473 145.052 62.34C145.099 62.228 145.162 62.1323 145.241 62.053C145.321 61.969 145.412 61.9037 145.514 61.857C145.622 61.8103 145.736 61.787 145.857 61.787C145.979 61.787 146.093 61.8103 146.2 61.857C146.312 61.9037 146.408 61.969 146.487 62.053C146.571 62.1323 146.637 62.228 146.683 62.34C146.735 62.4473 146.76 62.5617 146.76 62.683ZM150.719 72.112C150.159 72.112 149.727 71.9557 149.424 71.643C149.125 71.3303 148.976 70.88 148.976 70.292V65.952H148.122C148.047 65.952 147.984 65.931 147.933 65.889C147.881 65.8423 147.856 65.7723 147.856 65.679V65.182L149.018 65.035L149.305 62.844C149.319 62.774 149.349 62.718 149.396 62.676C149.447 62.6293 149.512 62.606 149.592 62.606H150.222V65.049H152.273V65.952H150.222V70.208C150.222 70.5067 150.294 70.7283 150.439 70.873C150.583 71.0177 150.77 71.09 150.999 71.09C151.129 71.09 151.241 71.0737 151.335 71.041C151.433 71.0037 151.517 70.964 151.587 70.922C151.657 70.88 151.715 70.8427 151.762 70.81C151.813 70.7727 151.857 70.754 151.895 70.754C151.96 70.754 152.018 70.7937 152.07 70.873L152.434 71.468C152.219 71.6687 151.96 71.8273 151.657 71.944C151.353 72.056 151.041 72.112 150.719 72.112ZM157.402 68.808C156.828 68.8267 156.338 68.8733 155.932 68.948C155.531 69.018 155.202 69.1113 154.945 69.228C154.693 69.3447 154.509 69.4823 154.392 69.641C154.28 69.7997 154.224 69.977 154.224 70.173C154.224 70.3597 154.255 70.5207 154.315 70.656C154.376 70.7913 154.458 70.9033 154.56 70.992C154.668 71.076 154.791 71.139 154.931 71.181C155.076 71.2183 155.23 71.237 155.393 71.237C155.613 71.237 155.813 71.216 155.995 71.174C156.177 71.1273 156.348 71.062 156.506 70.978C156.67 70.894 156.824 70.7937 156.968 70.677C157.118 70.5603 157.262 70.4273 157.402 70.278V68.808ZM153.377 65.91C153.769 65.532 154.192 65.2497 154.644 65.063C155.097 64.8763 155.599 64.783 156.149 64.783C156.546 64.783 156.898 64.8483 157.206 64.979C157.514 65.1097 157.773 65.2917 157.983 65.525C158.193 65.7583 158.352 66.0407 158.459 66.372C158.567 66.7033 158.62 67.0673 158.62 67.464V72H158.067C157.946 72 157.853 71.9813 157.787 71.944C157.722 71.902 157.671 71.8227 157.633 71.706L157.493 71.034C157.307 71.2067 157.125 71.3607 156.947 71.496C156.77 71.6267 156.583 71.7387 156.387 71.832C156.191 71.9207 155.981 71.9883 155.757 72.035C155.538 72.0863 155.293 72.112 155.022 72.112C154.747 72.112 154.488 72.0747 154.245 72C154.003 71.9207 153.79 71.804 153.608 71.65C153.431 71.496 153.289 71.3023 153.181 71.069C153.079 70.831 153.027 70.551 153.027 70.229C153.027 69.949 153.104 69.6807 153.258 69.424C153.412 69.1627 153.662 68.9317 154.007 68.731C154.353 68.5303 154.803 68.367 155.358 68.241C155.914 68.1103 156.595 68.0357 157.402 68.017V67.464C157.402 66.9133 157.283 66.498 157.045 66.218C156.807 65.9333 156.46 65.791 156.002 65.791C155.694 65.791 155.435 65.8307 155.225 65.91C155.02 65.9847 154.84 66.071 154.686 66.169C154.537 66.2623 154.406 66.3487 154.294 66.428C154.187 66.5027 154.08 66.54 153.972 66.54C153.888 66.54 153.816 66.519 153.755 66.477C153.695 66.4303 153.643 66.3743 153.601 66.309L153.377 65.91ZM155.295 61.857C155.449 61.857 155.564 61.8827 155.638 61.934C155.713 61.9807 155.783 62.0577 155.848 62.165L156.891 63.859H156.177C156.079 63.859 156 63.845 155.939 63.817C155.879 63.7843 155.816 63.733 155.75 63.663L154.112 61.857H155.295Z" fill="#F8F8FF"/>
<circle cx="305.5" cy="61.5" r="32" fill="#BDD5EA" stroke="#9AD0FF"/>
<path d="M295.888 56.579C296.051 56.579 296.18 56.628 296.273 56.726C296.366 56.8193 296.413 56.9407 296.413 57.09V58H289.595V57.489C289.595 57.3863 289.616 57.279 289.658 57.167C289.7 57.055 289.768 56.9523 289.861 56.859L292.997 53.716C293.263 53.45 293.499 53.1957 293.704 52.953C293.914 52.7103 294.091 52.4677 294.236 52.225C294.385 51.9823 294.497 51.7373 294.572 51.49C294.651 51.238 294.691 50.9743 294.691 50.699C294.691 50.433 294.649 50.1997 294.565 49.999C294.486 49.7937 294.374 49.6257 294.229 49.495C294.089 49.3597 293.919 49.2593 293.718 49.194C293.522 49.124 293.305 49.089 293.067 49.089C292.838 49.089 292.626 49.1217 292.43 49.187C292.239 49.2523 292.066 49.3433 291.912 49.46C291.763 49.5767 291.637 49.7167 291.534 49.88C291.436 50.0387 291.364 50.2137 291.317 50.405C291.247 50.5963 291.156 50.7247 291.044 50.79C290.937 50.8553 290.778 50.8693 290.568 50.832L289.777 50.692C289.847 50.216 289.978 49.7983 290.169 49.439C290.365 49.0797 290.61 48.781 290.904 48.543C291.198 48.3003 291.534 48.1183 291.912 47.997C292.295 47.871 292.708 47.808 293.151 47.808C293.599 47.808 294.01 47.8757 294.383 48.011C294.761 48.1417 295.085 48.3307 295.356 48.578C295.631 48.8207 295.846 49.117 296 49.467C296.154 49.817 296.231 50.2113 296.231 50.65C296.231 51.0233 296.175 51.3687 296.063 51.686C295.956 52.0033 295.809 52.3067 295.622 52.596C295.435 52.8853 295.216 53.1677 294.964 53.443C294.717 53.7137 294.455 53.989 294.18 54.269L291.744 56.761C291.945 56.705 292.145 56.6607 292.346 56.628C292.551 56.5953 292.745 56.579 292.927 56.579H295.888ZM304.856 52.96C304.856 53.842 304.76 54.605 304.569 55.249C304.382 55.893 304.123 56.4273 303.792 56.852C303.461 57.2767 303.071 57.5917 302.623 57.797C302.175 58.0023 301.692 58.105 301.174 58.105C300.656 58.105 300.173 58.0023 299.725 57.797C299.277 57.5917 298.887 57.2767 298.556 56.852C298.229 56.4273 297.973 55.893 297.786 55.249C297.599 54.605 297.506 53.842 297.506 52.96C297.506 52.078 297.599 51.315 297.786 50.671C297.973 50.0223 298.229 49.488 298.556 49.068C298.887 48.6433 299.277 48.3283 299.725 48.123C300.173 47.913 300.656 47.808 301.174 47.808C301.692 47.808 302.175 47.913 302.623 48.123C303.071 48.3283 303.461 48.6433 303.792 49.068C304.123 49.488 304.382 50.0223 304.569 50.671C304.76 51.315 304.856 52.078 304.856 52.96ZM303.302 52.96C303.302 52.2133 303.241 51.5927 303.12 51.098C303.003 50.5987 302.847 50.1997 302.651 49.901C302.455 49.6023 302.229 49.39 301.972 49.264C301.715 49.138 301.449 49.075 301.174 49.075C300.894 49.075 300.626 49.138 300.369 49.264C300.117 49.39 299.893 49.6023 299.697 49.901C299.501 50.1997 299.345 50.5987 299.228 51.098C299.111 51.5927 299.053 52.2133 299.053 52.96C299.053 53.7067 299.111 54.3297 299.228 54.829C299.345 55.3237 299.501 55.7203 299.697 56.019C299.893 56.3177 300.117 56.53 300.369 56.656C300.626 56.782 300.894 56.845 301.174 56.845C301.449 56.845 301.715 56.782 301.972 56.656C302.229 56.53 302.455 56.3177 302.651 56.019C302.847 55.7203 303.003 55.3237 303.12 54.829C303.241 54.3297 303.302 53.7067 303.302 52.96ZM312.431 56.859V58H306.936V56.859H309.036V50.545C309.036 50.321 309.043 50.0923 309.057 49.859L307.44 51.224C307.37 51.28 307.298 51.3173 307.223 51.336C307.153 51.35 307.086 51.35 307.02 51.336C306.96 51.322 306.904 51.301 306.852 51.273C306.806 51.2403 306.768 51.2053 306.74 51.168L306.271 50.51L309.309 47.899H310.534V56.859H312.431ZM320.972 47.92V48.585C320.972 48.781 320.951 48.9397 320.909 49.061C320.867 49.1823 320.825 49.285 320.783 49.369L316.8 57.475C316.73 57.6243 316.63 57.7503 316.499 57.853C316.373 57.951 316.205 58 315.995 58H314.91L318.97 50.027C319.045 49.8823 319.12 49.7517 319.194 49.635C319.269 49.5183 319.353 49.4063 319.446 49.299H314.413C314.32 49.299 314.238 49.264 314.168 49.194C314.098 49.1193 314.063 49.0353 314.063 48.942V47.92H320.972ZM295.888 73.579C296.051 73.579 296.18 73.628 296.273 73.726C296.366 73.8193 296.413 73.9407 296.413 74.09V75H289.595V74.489C289.595 74.3863 289.616 74.279 289.658 74.167C289.7 74.055 289.768 73.9523 289.861 73.859L292.997 70.716C293.263 70.45 293.499 70.1957 293.704 69.953C293.914 69.7103 294.091 69.4677 294.236 69.225C294.385 68.9823 294.497 68.7373 294.572 68.49C294.651 68.238 294.691 67.9743 294.691 67.699C294.691 67.433 294.649 67.1997 294.565 66.999C294.486 66.7937 294.374 66.6257 294.229 66.495C294.089 66.3597 293.919 66.2593 293.718 66.194C293.522 66.124 293.305 66.089 293.067 66.089C292.838 66.089 292.626 66.1217 292.43 66.187C292.239 66.2523 292.066 66.3433 291.912 66.46C291.763 66.5767 291.637 66.7167 291.534 66.88C291.436 67.0387 291.364 67.2137 291.317 67.405C291.247 67.5963 291.156 67.7247 291.044 67.79C290.937 67.8553 290.778 67.8693 290.568 67.832L289.777 67.692C289.847 67.216 289.978 66.7983 290.169 66.439C290.365 66.0797 290.61 65.781 290.904 65.543C291.198 65.3003 291.534 65.1183 291.912 64.997C292.295 64.871 292.708 64.808 293.151 64.808C293.599 64.808 294.01 64.8757 294.383 65.011C294.761 65.1417 295.085 65.3307 295.356 65.578C295.631 65.8207 295.846 66.117 296 66.467C296.154 66.817 296.231 67.2113 296.231 67.65C296.231 68.0233 296.175 68.3687 296.063 68.686C295.956 69.0033 295.809 69.3067 295.622 69.596C295.435 69.8853 295.216 70.1677 294.964 70.443C294.717 70.7137 294.455 70.989 294.18 71.269L291.744 73.761C291.945 73.705 292.145 73.6607 292.346 73.628C292.551 73.5953 292.745 73.579 292.927 73.579H295.888ZM304.856 69.96C304.856 70.842 304.76 71.605 304.569 72.249C304.382 72.893 304.123 73.4273 303.792 73.852C303.461 74.2767 303.071 74.5917 302.623 74.797C302.175 75.0023 301.692 75.105 301.174 75.105C300.656 75.105 300.173 75.0023 299.725 74.797C299.277 74.5917 298.887 74.2767 298.556 73.852C298.229 73.4273 297.973 72.893 297.786 72.249C297.599 71.605 297.506 70.842 297.506 69.96C297.506 69.078 297.599 68.315 297.786 67.671C297.973 67.0223 298.229 66.488 298.556 66.068C298.887 65.6433 299.277 65.3283 299.725 65.123C300.173 64.913 300.656 64.808 301.174 64.808C301.692 64.808 302.175 64.913 302.623 65.123C303.071 65.3283 303.461 65.6433 303.792 66.068C304.123 66.488 304.382 67.0223 304.569 67.671C304.76 68.315 304.856 69.078 304.856 69.96ZM303.302 69.96C303.302 69.2133 303.241 68.5927 303.12 68.098C303.003 67.5987 302.847 67.1997 302.651 66.901C302.455 66.6023 302.229 66.39 301.972 66.264C301.715 66.138 301.449 66.075 301.174 66.075C300.894 66.075 300.626 66.138 300.369 66.264C300.117 66.39 299.893 66.6023 299.697 66.901C299.501 67.1997 299.345 67.5987 299.228 68.098C299.111 68.5927 299.053 69.2133 299.053 69.96C299.053 70.7067 299.111 71.3297 299.228 71.829C299.345 72.3237 299.501 72.7203 299.697 73.019C299.893 73.3177 300.117 73.53 300.369 73.656C300.626 73.782 300.894 73.845 301.174 73.845C301.449 73.845 301.715 73.782 301.972 73.656C302.229 73.53 302.455 73.3177 302.651 73.019C302.847 72.7203 303.003 72.3237 303.12 71.829C303.241 71.3297 303.302 70.7067 303.302 69.96ZM312.431 73.859V75H306.936V73.859H309.036V67.545C309.036 67.321 309.043 67.0923 309.057 66.859L307.44 68.224C307.37 68.28 307.298 68.3173 307.223 68.336C307.153 68.35 307.086 68.35 307.02 68.336C306.96 68.322 306.904 68.301 306.852 68.273C306.806 68.2403 306.768 68.2053 306.74 68.168L306.271 67.51L309.309 64.899H310.534V73.859H312.431ZM317.423 73.922C317.727 73.922 317.997 73.88 318.235 73.796C318.473 73.7073 318.672 73.586 318.83 73.432C318.994 73.2733 319.117 73.0867 319.201 72.872C319.285 72.6573 319.327 72.424 319.327 72.172C319.327 71.864 319.278 71.598 319.18 71.374C319.087 71.15 318.954 70.9657 318.781 70.821C318.613 70.6717 318.413 70.562 318.179 70.492C317.946 70.4173 317.694 70.38 317.423 70.38C317.153 70.38 316.901 70.4173 316.667 70.492C316.434 70.562 316.231 70.6717 316.058 70.821C315.89 70.9657 315.757 71.15 315.659 71.374C315.566 71.598 315.519 71.864 315.519 72.172C315.519 72.424 315.561 72.6573 315.645 72.872C315.729 73.0867 315.851 73.2733 316.009 73.432C316.173 73.586 316.373 73.7073 316.611 73.796C316.849 73.88 317.12 73.922 317.423 73.922ZM317.423 65.963C317.148 65.963 316.905 66.005 316.695 66.089C316.49 66.173 316.32 66.285 316.184 66.425C316.049 66.565 315.946 66.7307 315.876 66.922C315.811 67.1087 315.778 67.307 315.778 67.517C315.778 67.727 315.806 67.9323 315.862 68.133C315.923 68.3337 316.016 68.5133 316.142 68.672C316.273 68.826 316.443 68.9497 316.653 69.043C316.863 69.1363 317.12 69.183 317.423 69.183C317.727 69.183 317.983 69.1363 318.193 69.043C318.403 68.9497 318.571 68.826 318.697 68.672C318.828 68.5133 318.921 68.3337 318.977 68.133C319.038 67.9323 319.068 67.727 319.068 67.517C319.068 67.307 319.033 67.1087 318.963 66.922C318.898 66.7307 318.795 66.565 318.655 66.425C318.52 66.285 318.35 66.173 318.144 66.089C317.939 66.005 317.699 65.963 317.423 65.963ZM319.012 69.743C319.633 69.9343 320.097 70.2377 320.405 70.653C320.718 71.0683 320.874 71.584 320.874 72.2C320.874 72.6433 320.79 73.0447 320.622 73.404C320.454 73.7633 320.219 74.069 319.915 74.321C319.612 74.573 319.248 74.769 318.823 74.909C318.403 75.0443 317.937 75.112 317.423 75.112C316.91 75.112 316.441 75.0443 316.016 74.909C315.596 74.769 315.235 74.573 314.931 74.321C314.628 74.069 314.392 73.7633 314.224 73.404C314.056 73.0447 313.972 72.6433 313.972 72.2C313.972 71.584 314.126 71.0683 314.434 70.653C314.747 70.2377 315.214 69.9343 315.834 69.743C315.33 69.5423 314.95 69.2507 314.693 68.868C314.441 68.4853 314.315 68.0257 314.315 67.489C314.315 67.111 314.39 66.7587 314.539 66.432C314.689 66.1053 314.899 65.823 315.169 65.585C315.445 65.3423 315.774 65.1533 316.156 65.018C316.539 64.878 316.961 64.808 317.423 64.808C317.885 64.808 318.305 64.878 318.683 65.018C319.066 65.1533 319.393 65.3423 319.663 65.585C319.939 65.823 320.151 66.1053 320.3 66.432C320.454 66.7587 320.531 67.111 320.531 67.489C320.531 68.0257 320.403 68.4853 320.146 68.868C319.894 69.2507 319.516 69.5423 319.012 69.743Z" fill="#F8F8FF"/>
</svg>
