<svg width="339" height="117" viewBox="0 0 339 117" fill="none" xmlns="http://www.w3.org/2000/svg">
<path d="M0.5 116.5L210.421 116.5L251.388 55.0074L210.439 0.500008L0.5 0.500008L0.5 116.5Z" fill="#FFD84E" stroke="#EFBB00"/>
<path d="M22.367 45.621V48.204H25.853V50.031H22.367V54H19.987V43.801H26.553V45.621H22.367ZM29.1615 47.861C29.3855 47.469 29.6422 47.161 29.9315 46.937C30.2255 46.713 30.5615 46.601 30.9395 46.601C31.2662 46.601 31.5322 46.678 31.7375 46.832L31.5975 48.428C31.5742 48.5307 31.5345 48.6007 31.4785 48.638C31.4272 48.6753 31.3548 48.694 31.2615 48.694C31.2242 48.694 31.1752 48.6917 31.1145 48.687C31.0538 48.6823 30.9908 48.6777 30.9255 48.673C30.8602 48.6637 30.7925 48.6567 30.7225 48.652C30.6572 48.6427 30.5965 48.638 30.5405 48.638C30.2232 48.638 29.9688 48.722 29.7775 48.89C29.5908 49.058 29.4322 49.2913 29.3015 49.59V54H27.1315V46.741H28.4195C28.5268 46.741 28.6155 46.7503 28.6855 46.769C28.7602 46.7877 28.8208 46.818 28.8675 46.86C28.9188 46.8973 28.9562 46.9487 28.9795 47.014C29.0075 47.0793 29.0308 47.1587 29.0495 47.252L29.1615 47.861ZM35.7001 46.629C36.2508 46.629 36.7525 46.7153 37.2051 46.888C37.6578 47.0607 38.0451 47.308 38.3671 47.63C38.6938 47.952 38.9458 48.344 39.1231 48.806C39.3051 49.2633 39.3961 49.779 39.3961 50.353C39.3961 50.9317 39.3051 51.4543 39.1231 51.921C38.9458 52.383 38.6938 52.7773 38.3671 53.104C38.0451 53.426 37.6578 53.6757 37.2051 53.853C36.7525 54.0257 36.2508 54.112 35.7001 54.112C35.1448 54.112 34.6385 54.0257 34.1811 53.853C33.7285 53.6757 33.3365 53.426 33.0051 53.104C32.6785 52.7773 32.4241 52.383 32.2421 51.921C32.0648 51.4543 31.9761 50.9317 31.9761 50.353C31.9761 49.779 32.0648 49.2633 32.2421 48.806C32.4241 48.344 32.6785 47.952 33.0051 47.63C33.3365 47.308 33.7285 47.0607 34.1811 46.888C34.6385 46.7153 35.1448 46.629 35.7001 46.629ZM35.7001 52.502C36.1995 52.502 36.5658 52.327 36.7991 51.977C37.0371 51.6223 37.1561 51.0857 37.1561 50.367C37.1561 49.6483 37.0371 49.114 36.7991 48.764C36.5658 48.414 36.1995 48.239 35.7001 48.239C35.1868 48.239 34.8111 48.414 34.5731 48.764C34.3351 49.114 34.2161 49.6483 34.2161 50.367C34.2161 51.0857 34.3351 51.6223 34.5731 51.977C34.8111 52.327 35.1868 52.502 35.7001 52.502ZM42.4909 47.525C42.6309 47.3943 42.7756 47.273 42.9249 47.161C43.0742 47.049 43.2329 46.9557 43.4009 46.881C43.5736 46.8017 43.7579 46.741 43.9539 46.699C44.1546 46.6523 44.3716 46.629 44.6049 46.629C45.0016 46.629 45.3516 46.699 45.6549 46.839C45.9629 46.9743 46.2219 47.1657 46.4319 47.413C46.6419 47.6557 46.8006 47.9473 46.9079 48.288C47.0152 48.624 47.0689 48.9903 47.0689 49.387V54H44.8989V49.387C44.8989 49.0323 44.8172 48.757 44.6539 48.561C44.4906 48.3603 44.2502 48.26 43.9329 48.26C43.6949 48.26 43.4709 48.3113 43.2609 48.414C43.0556 48.512 42.8549 48.6473 42.6589 48.82V54H40.4889V46.741H41.8329C42.1036 46.741 42.2809 46.8623 42.3649 47.105L42.4909 47.525ZM50.9746 54.112C50.6292 54.112 50.3236 54.063 50.0576 53.965C49.7962 53.8623 49.5746 53.72 49.3926 53.538C49.2152 53.3513 49.0799 53.1273 48.9866 52.866C48.8932 52.6047 48.8466 52.313 48.8466 51.991V48.239H48.2306C48.1186 48.239 48.0229 48.204 47.9436 48.134C47.8642 48.0593 47.8246 47.952 47.8246 47.812V46.965L48.9796 46.741L49.4066 44.97C49.4626 44.746 49.6212 44.634 49.8826 44.634H51.0166V46.755H52.8156V48.239H51.0166V51.844C51.0166 52.012 51.0562 52.152 51.1356 52.264C51.2196 52.3713 51.3386 52.425 51.4926 52.425C51.5719 52.425 51.6372 52.418 51.6886 52.404C51.7446 52.3853 51.7912 52.3667 51.8286 52.348C51.8706 52.3247 51.9079 52.306 51.9406 52.292C51.9779 52.2733 52.0199 52.264 52.0666 52.264C52.1319 52.264 52.1832 52.2803 52.2206 52.313C52.2626 52.341 52.3046 52.3877 52.3466 52.453L53.0046 53.482C52.7246 53.692 52.4096 53.8507 52.0596 53.958C51.7096 54.0607 51.3479 54.112 50.9746 54.112ZM53.7436 48.869H57.5236V50.619H53.7436V48.869ZM63.502 49.499C63.502 49.3263 63.4786 49.1583 63.432 48.995C63.39 48.8317 63.3176 48.687 63.215 48.561C63.117 48.4303 62.9863 48.3253 62.823 48.246C62.6596 48.1667 62.4613 48.127 62.228 48.127C61.8173 48.127 61.4953 48.246 61.262 48.484C61.0286 48.7173 60.8746 49.0557 60.8 49.499H63.502ZM60.772 50.759C60.842 51.3657 61.0263 51.8067 61.325 52.082C61.6236 52.3527 62.0086 52.488 62.48 52.488C62.732 52.488 62.949 52.4577 63.131 52.397C63.313 52.3363 63.474 52.2687 63.614 52.194C63.7586 52.1193 63.8893 52.0517 64.006 51.991C64.1273 51.9303 64.2533 51.9 64.384 51.9C64.5566 51.9 64.6873 51.963 64.776 52.089L65.406 52.866C65.182 53.1227 64.9393 53.3327 64.678 53.496C64.4213 53.6547 64.1553 53.7807 63.88 53.874C63.6093 53.9627 63.3363 54.0233 63.061 54.056C62.7903 54.0933 62.5313 54.112 62.284 54.112C61.7753 54.112 61.297 54.0303 60.849 53.867C60.4056 53.699 60.016 53.4517 59.68 53.125C59.3486 52.7983 59.085 52.3923 58.889 51.907C58.6976 51.4217 58.602 50.857 58.602 50.213C58.602 49.7277 58.6836 49.268 58.847 48.834C59.015 48.4 59.253 48.0197 59.561 47.693C59.8736 47.3663 60.2493 47.1073 60.688 46.916C61.1313 46.7247 61.6306 46.629 62.186 46.629C62.6666 46.629 63.1053 46.7037 63.502 46.853C63.9033 47.0023 64.2463 47.2193 64.531 47.504C64.8203 47.7887 65.0443 48.1387 65.203 48.554C65.3663 48.9647 65.448 49.4313 65.448 49.954C65.448 50.1173 65.441 50.2503 65.427 50.353C65.413 50.4557 65.3873 50.5373 65.35 50.598C65.3126 50.6587 65.2613 50.7007 65.196 50.724C65.1353 50.7473 65.056 50.759 64.958 50.759H60.772ZM68.5358 47.525C68.6758 47.3943 68.8205 47.273 68.9698 47.161C69.1192 47.049 69.2778 46.9557 69.4458 46.881C69.6185 46.8017 69.8028 46.741 69.9988 46.699C70.1995 46.6523 70.4165 46.629 70.6498 46.629C71.0465 46.629 71.3965 46.699 71.6998 46.839C72.0078 46.9743 72.2668 47.1657 72.4768 47.413C72.6868 47.6557 72.8455 47.9473 72.9528 48.288C73.0602 48.624 73.1138 48.9903 73.1138 49.387V54H70.9438V49.387C70.9438 49.0323 70.8622 48.757 70.6988 48.561C70.5355 48.3603 70.2952 48.26 69.9778 48.26C69.7398 48.26 69.5158 48.3113 69.3058 48.414C69.1005 48.512 68.8998 48.6473 68.7038 48.82V54H66.5338V46.741H67.8778C68.1485 46.741 68.3258 46.8623 68.4098 47.105L68.5358 47.525ZM78.9212 48.687C78.7579 48.505 78.5805 48.379 78.3892 48.309C78.1979 48.2343 77.9972 48.197 77.7872 48.197C77.5865 48.197 77.4022 48.2367 77.2342 48.316C77.0662 48.3953 76.9192 48.5237 76.7932 48.701C76.6719 48.8737 76.5762 49.1 76.5062 49.38C76.4362 49.66 76.4012 49.9983 76.4012 50.395C76.4012 50.7777 76.4292 51.0997 76.4852 51.361C76.5412 51.6223 76.6182 51.8347 76.7162 51.998C76.8189 52.1567 76.9402 52.271 77.0802 52.341C77.2202 52.411 77.3765 52.446 77.5492 52.446C77.7079 52.446 77.8502 52.432 77.9762 52.404C78.1069 52.3713 78.2259 52.327 78.3332 52.271C78.4405 52.215 78.5409 52.145 78.6342 52.061C78.7322 51.9723 78.8279 51.872 78.9212 51.76V48.687ZM81.0912 43.521V54H79.7472C79.4765 54 79.2992 53.8787 79.2152 53.636L79.0472 53.083C78.9025 53.237 78.7509 53.377 78.5922 53.503C78.4335 53.629 78.2609 53.7387 78.0742 53.832C77.8922 53.9207 77.6939 53.9883 77.4792 54.035C77.2692 54.0863 77.0405 54.112 76.7932 54.112C76.4152 54.112 76.0652 54.028 75.7432 53.86C75.4212 53.692 75.1435 53.4493 74.9102 53.132C74.6769 52.8147 74.4925 52.4273 74.3572 51.97C74.2265 51.508 74.1612 50.983 74.1612 50.395C74.1612 49.8537 74.2359 49.352 74.3852 48.89C74.5345 48.4233 74.7445 48.022 75.0152 47.686C75.2905 47.3453 75.6195 47.0793 76.0022 46.888C76.3849 46.6967 76.8072 46.601 77.2692 46.601C77.6472 46.601 77.9645 46.6547 78.2212 46.762C78.4779 46.8693 78.7112 47.014 78.9212 47.196V43.521H81.0912ZM90.2005 48.687C90.0372 48.505 89.8598 48.379 89.6685 48.309C89.4772 48.2343 89.2765 48.197 89.0665 48.197C88.8658 48.197 88.6815 48.2367 88.5135 48.316C88.3455 48.3953 88.1985 48.5237 88.0725 48.701C87.9512 48.8737 87.8555 49.1 87.7855 49.38C87.7155 49.66 87.6805 49.9983 87.6805 50.395C87.6805 50.7777 87.7085 51.0997 87.7645 51.361C87.8205 51.6223 87.8975 51.8347 87.9955 51.998C88.0982 52.1567 88.2195 52.271 88.3595 52.341C88.4995 52.411 88.6558 52.446 88.8285 52.446C88.9872 52.446 89.1295 52.432 89.2555 52.404C89.3862 52.3713 89.5052 52.327 89.6125 52.271C89.7198 52.215 89.8202 52.145 89.9135 52.061C90.0115 51.9723 90.1072 51.872 90.2005 51.76V48.687ZM92.3705 43.521V54H91.0265C90.7558 54 90.5785 53.8787 90.4945 53.636L90.3265 53.083C90.1818 53.237 90.0302 53.377 89.8715 53.503C89.7128 53.629 89.5402 53.7387 89.3535 53.832C89.1715 53.9207 88.9732 53.9883 88.7585 54.035C88.5485 54.0863 88.3198 54.112 88.0725 54.112C87.6945 54.112 87.3445 54.028 87.0225 53.86C86.7005 53.692 86.4228 53.4493 86.1895 53.132C85.9562 52.8147 85.7718 52.4273 85.6365 51.97C85.5058 51.508 85.4405 50.983 85.4405 50.395C85.4405 49.8537 85.5152 49.352 85.6645 48.89C85.8138 48.4233 86.0238 48.022 86.2945 47.686C86.5698 47.3453 86.8988 47.0793 87.2815 46.888C87.6642 46.6967 88.0865 46.601 88.5485 46.601C88.9265 46.601 89.2438 46.6547 89.5005 46.762C89.7572 46.8693 89.9905 47.014 90.2005 47.196V43.521H92.3705ZM98.3516 49.499C98.3516 49.3263 98.3282 49.1583 98.2816 48.995C98.2396 48.8317 98.1672 48.687 98.0646 48.561C97.9666 48.4303 97.8359 48.3253 97.6726 48.246C97.5092 48.1667 97.3109 48.127 97.0776 48.127C96.6669 48.127 96.3449 48.246 96.1116 48.484C95.8782 48.7173 95.7242 49.0557 95.6496 49.499H98.3516ZM95.6216 50.759C95.6916 51.3657 95.8759 51.8067 96.1746 52.082C96.4732 52.3527 96.8582 52.488 97.3296 52.488C97.5816 52.488 97.7986 52.4577 97.9806 52.397C98.1626 52.3363 98.3236 52.2687 98.4636 52.194C98.6082 52.1193 98.7389 52.0517 98.8556 51.991C98.9769 51.9303 99.1029 51.9 99.2336 51.9C99.4062 51.9 99.5369 51.963 99.6256 52.089L100.256 52.866C100.032 53.1227 99.7889 53.3327 99.5276 53.496C99.2709 53.6547 99.0049 53.7807 98.7296 53.874C98.4589 53.9627 98.1859 54.0233 97.9106 54.056C97.6399 54.0933 97.3809 54.112 97.1336 54.112C96.6249 54.112 96.1466 54.0303 95.6986 53.867C95.2552 53.699 94.8656 53.4517 94.5296 53.125C94.1982 52.7983 93.9346 52.3923 93.7386 51.907C93.5472 51.4217 93.4516 50.857 93.4516 50.213C93.4516 49.7277 93.5332 49.268 93.6966 48.834C93.8646 48.4 94.1026 48.0197 94.4106 47.693C94.7232 47.3663 95.0989 47.1073 95.5376 46.916C95.9809 46.7247 96.4802 46.629 97.0356 46.629C97.5162 46.629 97.9549 46.7037 98.3516 46.853C98.7529 47.0023 99.0959 47.2193 99.3806 47.504C99.6699 47.7887 99.8939 48.1387 100.053 48.554C100.216 48.9647 100.298 49.4313 100.298 49.954C100.298 50.1173 100.291 50.2503 100.277 50.353C100.263 50.4557 100.237 50.5373 100.2 50.598C100.162 50.6587 100.111 50.7007 100.046 50.724C99.9849 50.7473 99.9056 50.759 99.8076 50.759H95.6216ZM108.017 46.741L105.203 54H103.229L100.415 46.741H102.221C102.375 46.741 102.504 46.7783 102.606 46.853C102.714 46.923 102.786 47.0117 102.823 47.119L103.831 50.374C103.92 50.64 103.997 50.899 104.062 51.151C104.132 51.403 104.193 51.655 104.244 51.907C104.347 51.403 104.489 50.892 104.671 50.374L105.721 47.119C105.759 47.0117 105.829 46.923 105.931 46.853C106.034 46.7783 106.155 46.741 106.295 46.741H108.017ZM112.994 49.499C112.994 49.3263 112.971 49.1583 112.924 48.995C112.882 48.8317 112.81 48.687 112.707 48.561C112.609 48.4303 112.478 48.3253 112.315 48.246C112.152 48.1667 111.953 48.127 111.72 48.127C111.309 48.127 110.987 48.246 110.754 48.484C110.521 48.7173 110.367 49.0557 110.292 49.499H112.994ZM110.264 50.759C110.334 51.3657 110.518 51.8067 110.817 52.082C111.116 52.3527 111.501 52.488 111.972 52.488C112.224 52.488 112.441 52.4577 112.623 52.397C112.805 52.3363 112.966 52.2687 113.106 52.194C113.251 52.1193 113.381 52.0517 113.498 51.991C113.619 51.9303 113.745 51.9 113.876 51.9C114.049 51.9 114.179 51.963 114.268 52.089L114.898 52.866C114.674 53.1227 114.431 53.3327 114.17 53.496C113.913 53.6547 113.647 53.7807 113.372 53.874C113.101 53.9627 112.828 54.0233 112.553 54.056C112.282 54.0933 112.023 54.112 111.776 54.112C111.267 54.112 110.789 54.0303 110.341 53.867C109.898 53.699 109.508 53.4517 109.172 53.125C108.841 52.7983 108.577 52.3923 108.381 51.907C108.19 51.4217 108.094 50.857 108.094 50.213C108.094 49.7277 108.176 49.268 108.339 48.834C108.507 48.4 108.745 48.0197 109.053 47.693C109.366 47.3663 109.741 47.1073 110.18 46.916C110.623 46.7247 111.123 46.629 111.678 46.629C112.159 46.629 112.597 46.7037 112.994 46.853C113.395 47.0023 113.738 47.2193 114.023 47.504C114.312 47.7887 114.536 48.1387 114.695 48.554C114.858 48.9647 114.94 49.4313 114.94 49.954C114.94 50.1173 114.933 50.2503 114.919 50.353C114.905 50.4557 114.879 50.5373 114.842 50.598C114.805 50.6587 114.753 50.7007 114.688 50.724C114.627 50.7473 114.548 50.759 114.45 50.759H110.264ZM118.196 43.521V54H116.026V43.521H118.196ZM123.009 46.629C123.559 46.629 124.061 46.7153 124.514 46.888C124.966 47.0607 125.354 47.308 125.676 47.63C126.002 47.952 126.254 48.344 126.432 48.806C126.614 49.2633 126.705 49.779 126.705 50.353C126.705 50.9317 126.614 51.4543 126.432 51.921C126.254 52.383 126.002 52.7773 125.676 53.104C125.354 53.426 124.966 53.6757 124.514 53.853C124.061 54.0257 123.559 54.112 123.009 54.112C122.453 54.112 121.947 54.0257 121.49 53.853C121.037 53.6757 120.645 53.426 120.314 53.104C119.987 52.7773 119.733 52.383 119.551 51.921C119.373 51.4543 119.285 50.9317 119.285 50.353C119.285 49.779 119.373 49.2633 119.551 48.806C119.733 48.344 119.987 47.952 120.314 47.63C120.645 47.308 121.037 47.0607 121.49 46.888C121.947 46.7153 122.453 46.629 123.009 46.629ZM123.009 52.502C123.508 52.502 123.874 52.327 124.108 51.977C124.346 51.6223 124.465 51.0857 124.465 50.367C124.465 49.6483 124.346 49.114 124.108 48.764C123.874 48.414 123.508 48.239 123.009 48.239C122.495 48.239 122.12 48.414 121.882 48.764C121.644 49.114 121.525 49.6483 121.525 50.367C121.525 51.0857 121.644 51.6223 121.882 51.977C122.12 52.327 122.495 52.502 123.009 52.502ZM129.968 52.026C130.131 52.2033 130.308 52.3293 130.5 52.404C130.691 52.4787 130.892 52.516 131.102 52.516C131.302 52.516 131.487 52.4763 131.655 52.397C131.823 52.3177 131.967 52.1917 132.089 52.019C132.215 51.8417 132.313 51.613 132.383 51.333C132.453 51.053 132.488 50.7123 132.488 50.311C132.488 49.9283 132.46 49.6063 132.404 49.345C132.348 49.0837 132.268 48.8737 132.166 48.715C132.068 48.5517 131.949 48.435 131.809 48.365C131.669 48.295 131.512 48.26 131.34 48.26C131.022 48.26 130.761 48.3183 130.556 48.435C130.35 48.5517 130.154 48.722 129.968 48.946V52.026ZM129.835 47.637C130.119 47.3337 130.441 47.0863 130.801 46.895C131.165 46.699 131.596 46.601 132.096 46.601C132.474 46.601 132.824 46.685 133.146 46.853C133.468 47.021 133.745 47.2637 133.979 47.581C134.212 47.8983 134.394 48.288 134.525 48.75C134.66 49.2073 134.728 49.7277 134.728 50.311C134.728 50.857 134.651 51.361 134.497 51.823C134.347 52.285 134.135 52.6863 133.86 53.027C133.589 53.3677 133.262 53.6337 132.88 53.825C132.502 54.0163 132.082 54.112 131.62 54.112C131.242 54.112 130.924 54.0583 130.668 53.951C130.411 53.8437 130.178 53.699 129.968 53.517V56.303H127.798V46.741H129.142C129.412 46.741 129.59 46.8623 129.674 47.105L129.835 47.637ZM140.365 49.499C140.365 49.3263 140.342 49.1583 140.295 48.995C140.253 48.8317 140.181 48.687 140.078 48.561C139.98 48.4303 139.85 48.3253 139.686 48.246C139.523 48.1667 139.325 48.127 139.091 48.127C138.681 48.127 138.359 48.246 138.125 48.484C137.892 48.7173 137.738 49.0557 137.663 49.499H140.365ZM137.635 50.759C137.705 51.3657 137.89 51.8067 138.188 52.082C138.487 52.3527 138.872 52.488 139.343 52.488C139.595 52.488 139.812 52.4577 139.994 52.397C140.176 52.3363 140.337 52.2687 140.477 52.194C140.622 52.1193 140.753 52.0517 140.869 51.991C140.991 51.9303 141.117 51.9 141.247 51.9C141.42 51.9 141.551 51.963 141.639 52.089L142.269 52.866C142.045 53.1227 141.803 53.3327 141.541 53.496C141.285 53.6547 141.019 53.7807 140.743 53.874C140.473 53.9627 140.2 54.0233 139.924 54.056C139.654 54.0933 139.395 54.112 139.147 54.112C138.639 54.112 138.16 54.0303 137.712 53.867C137.269 53.699 136.879 53.4517 136.543 53.125C136.212 52.7983 135.948 52.3923 135.752 51.907C135.561 51.4217 135.465 50.857 135.465 50.213C135.465 49.7277 135.547 49.268 135.71 48.834C135.878 48.4 136.116 48.0197 136.424 47.693C136.737 47.3663 137.113 47.1073 137.551 46.916C137.995 46.7247 138.494 46.629 139.049 46.629C139.53 46.629 139.969 46.7037 140.365 46.853C140.767 47.0023 141.11 47.2193 141.394 47.504C141.684 47.7887 141.908 48.1387 142.066 48.554C142.23 48.9647 142.311 49.4313 142.311 49.954C142.311 50.1173 142.304 50.2503 142.29 50.353C142.276 50.4557 142.251 50.5373 142.213 50.598C142.176 50.6587 142.125 50.7007 142.059 50.724C141.999 50.7473 141.919 50.759 141.821 50.759H137.635ZM143.397 54V46.741H144.741C145.012 46.741 145.189 46.8623 145.273 47.105L145.392 47.497C145.513 47.371 145.639 47.2567 145.77 47.154C145.901 47.0467 146.041 46.9557 146.19 46.881C146.344 46.8017 146.507 46.741 146.68 46.699C146.857 46.6523 147.051 46.629 147.261 46.629C147.7 46.629 148.061 46.7433 148.346 46.972C148.635 47.196 148.855 47.497 149.004 47.875C149.125 47.651 149.272 47.4597 149.445 47.301C149.622 47.1423 149.811 47.014 150.012 46.916C150.217 46.818 150.432 46.7457 150.656 46.699C150.885 46.6523 151.111 46.629 151.335 46.629C151.75 46.629 152.119 46.692 152.441 46.818C152.763 46.9393 153.031 47.119 153.246 47.357C153.465 47.5903 153.631 47.8797 153.743 48.225C153.855 48.5657 153.911 48.953 153.911 49.387V54H151.741V49.387C151.741 48.6357 151.419 48.26 150.775 48.26C150.481 48.26 150.236 48.358 150.04 48.554C149.849 48.7453 149.753 49.023 149.753 49.387V54H147.583V49.387C147.583 48.9717 147.501 48.68 147.338 48.512C147.175 48.344 146.934 48.26 146.617 48.26C146.421 48.26 146.234 48.3043 146.057 48.393C145.884 48.4817 145.721 48.6007 145.567 48.75V54H143.397ZM159.82 49.499C159.82 49.3263 159.797 49.1583 159.75 48.995C159.708 48.8317 159.636 48.687 159.533 48.561C159.435 48.4303 159.305 48.3253 159.141 48.246C158.978 48.1667 158.78 48.127 158.546 48.127C158.136 48.127 157.814 48.246 157.58 48.484C157.347 48.7173 157.193 49.0557 157.118 49.499H159.82ZM157.09 50.759C157.16 51.3657 157.345 51.8067 157.643 52.082C157.942 52.3527 158.327 52.488 158.798 52.488C159.05 52.488 159.267 52.4577 159.449 52.397C159.631 52.3363 159.792 52.2687 159.932 52.194C160.077 52.1193 160.208 52.0517 160.324 51.991C160.446 51.9303 160.572 51.9 160.702 51.9C160.875 51.9 161.006 51.963 161.094 52.089L161.724 52.866C161.5 53.1227 161.258 53.3327 160.996 53.496C160.74 53.6547 160.474 53.7807 160.198 53.874C159.928 53.9627 159.655 54.0233 159.379 54.056C159.109 54.0933 158.85 54.112 158.602 54.112C158.094 54.112 157.615 54.0303 157.167 53.867C156.724 53.699 156.334 53.4517 155.998 53.125C155.667 52.7983 155.403 52.3923 155.207 51.907C155.016 51.4217 154.92 50.857 154.92 50.213C154.92 49.7277 155.002 49.268 155.165 48.834C155.333 48.4 155.571 48.0197 155.879 47.693C156.192 47.3663 156.568 47.1073 157.006 46.916C157.45 46.7247 157.949 46.629 158.504 46.629C158.985 46.629 159.424 46.7037 159.82 46.853C160.222 47.0023 160.565 47.2193 160.849 47.504C161.139 47.7887 161.363 48.1387 161.521 48.554C161.685 48.9647 161.766 49.4313 161.766 49.954C161.766 50.1173 161.759 50.2503 161.745 50.353C161.731 50.4557 161.706 50.5373 161.668 50.598C161.631 50.6587 161.58 50.7007 161.514 50.724C161.454 50.7473 161.374 50.759 161.276 50.759H157.09ZM164.854 47.525C164.994 47.3943 165.139 47.273 165.288 47.161C165.438 47.049 165.596 46.9557 165.764 46.881C165.937 46.8017 166.121 46.741 166.317 46.699C166.518 46.6523 166.735 46.629 166.968 46.629C167.365 46.629 167.715 46.699 168.018 46.839C168.326 46.9743 168.585 47.1657 168.795 47.413C169.005 47.6557 169.164 47.9473 169.271 48.288C169.379 48.624 169.432 48.9903 169.432 49.387V54H167.262V49.387C167.262 49.0323 167.181 48.757 167.017 48.561C166.854 48.3603 166.614 48.26 166.296 48.26C166.058 48.26 165.834 48.3113 165.624 48.414C165.419 48.512 165.218 48.6473 165.022 48.82V54H162.852V46.741L164.196 46.741C164.467 46.741 164.644 46.8623 164.728 47.105L164.854 47.525ZM173.338 54.112C172.993 54.112 172.687 54.063 172.421 53.965C172.16 53.8623 171.938 53.72 171.756 53.538C171.579 53.3513 171.443 53.1273 171.35 52.866C171.257 52.6047 171.21 52.313 171.21 51.991V48.239H170.594C170.482 48.239 170.386 48.204 170.307 48.134C170.228 48.0593 170.188 47.952 170.188 47.812V46.965L171.343 46.741L171.77 44.97C171.826 44.746 171.985 44.634 172.246 44.634H173.38V46.755H175.179V48.239H173.38V51.844C173.38 52.012 173.42 52.152 173.499 52.264C173.583 52.3713 173.702 52.425 173.856 52.425C173.935 52.425 174.001 52.418 174.052 52.404C174.108 52.3853 174.155 52.3667 174.192 52.348C174.234 52.3247 174.271 52.306 174.304 52.292C174.341 52.2733 174.383 52.264 174.43 52.264C174.495 52.264 174.547 52.2803 174.584 52.313C174.626 52.341 174.668 52.3877 174.71 52.453L175.368 53.482C175.088 53.692 174.773 53.8507 174.423 53.958C174.073 54.0607 173.711 54.112 173.338 54.112ZM25.622 62.873C25.552 62.985 25.4773 63.069 25.398 63.125C25.3233 63.181 25.2253 63.209 25.104 63.209C24.9967 63.209 24.88 63.1763 24.754 63.111C24.6327 63.041 24.4927 62.964 24.334 62.88C24.18 62.796 24.0027 62.7213 23.802 62.656C23.6013 62.586 23.3727 62.551 23.116 62.551C22.6727 62.551 22.3413 62.6467 22.122 62.838C21.9073 63.0247 21.8 63.279 21.8 63.601C21.8 63.8063 21.8653 63.9767 21.996 64.112C22.1267 64.2473 22.297 64.364 22.507 64.462C22.7217 64.56 22.9643 64.651 23.235 64.735C23.5103 64.8143 23.7903 64.9053 24.075 65.008C24.3597 65.106 24.6373 65.2227 24.908 65.358C25.1833 65.4933 25.426 65.666 25.636 65.876C25.8507 66.086 26.0233 66.3427 26.154 66.646C26.2847 66.9447 26.35 67.3063 26.35 67.731C26.35 68.2023 26.2683 68.6433 26.105 69.054C25.9417 69.4647 25.7037 69.824 25.391 70.132C25.083 70.4353 24.7003 70.6757 24.243 70.853C23.7903 71.0257 23.2747 71.112 22.696 71.112C22.3787 71.112 22.0543 71.0793 21.723 71.014C21.3963 70.9487 21.079 70.8577 20.771 70.741C20.463 70.6197 20.1737 70.4773 19.903 70.314C19.6323 70.1507 19.3967 69.9687 19.196 69.768L19.896 68.662C19.952 68.5827 20.0243 68.5173 20.113 68.466C20.2063 68.41 20.3067 68.382 20.414 68.382C20.554 68.382 20.694 68.4263 20.834 68.515C20.9787 68.6037 21.1397 68.7017 21.317 68.809C21.499 68.9163 21.7067 69.0143 21.94 69.103C22.1733 69.1917 22.4487 69.236 22.766 69.236C23.1953 69.236 23.529 69.1427 23.767 68.956C24.005 68.7647 24.124 68.4637 24.124 68.053C24.124 67.815 24.0587 67.6213 23.928 67.472C23.7973 67.3227 23.6247 67.199 23.41 67.101C23.2 67.003 22.9597 66.9167 22.689 66.842C22.4183 66.7673 22.1407 66.6857 21.856 66.597C21.5713 66.5037 21.2937 66.3917 21.023 66.261C20.7523 66.1257 20.5097 65.9507 20.295 65.736C20.085 65.5167 19.9147 65.246 19.784 64.924C19.6533 64.5973 19.588 64.196 19.588 63.72C19.588 63.3373 19.665 62.964 19.819 62.6C19.973 62.236 20.1993 61.9117 20.498 61.627C20.7967 61.3423 21.163 61.116 21.597 60.948C22.031 60.7753 22.528 60.689 23.088 60.689C23.4007 60.689 23.704 60.7147 23.998 60.766C24.2967 60.8127 24.579 60.885 24.845 60.983C25.111 61.0763 25.3583 61.1907 25.587 61.326C25.8203 61.4567 26.028 61.606 26.21 61.774L25.622 62.873ZM29.7695 71.112C29.4242 71.112 29.1185 71.063 28.8525 70.965C28.5912 70.8623 28.3695 70.72 28.1875 70.538C28.0102 70.3513 27.8748 70.1273 27.7815 69.866C27.6882 69.6047 27.6415 69.313 27.6415 68.991V65.239H27.0255C26.9135 65.239 26.8178 65.204 26.7385 65.134C26.6592 65.0593 26.6195 64.952 26.6195 64.812V63.965L27.7745 63.741L28.2015 61.97C28.2575 61.746 28.4162 61.634 28.6775 61.634H29.8115V63.755H31.6105V65.239H29.8115V68.844C29.8115 69.012 29.8512 69.152 29.9305 69.264C30.0145 69.3713 30.1335 69.425 30.2875 69.425C30.3668 69.425 30.4322 69.418 30.4835 69.404C30.5395 69.3853 30.5862 69.3667 30.6235 69.348C30.6655 69.3247 30.7028 69.306 30.7355 69.292C30.7728 69.2733 30.8148 69.264 30.8615 69.264C30.9268 69.264 30.9782 69.2803 31.0155 69.313C31.0575 69.341 31.0995 69.3877 31.1415 69.453L31.7995 70.482C31.5195 70.692 31.2045 70.8507 30.8545 70.958C30.5045 71.0607 30.1428 71.112 29.7695 71.112ZM39.0555 63.741V71H37.7115C37.4409 71 37.2635 70.8787 37.1795 70.636L37.0535 70.216C36.9135 70.3513 36.7689 70.475 36.6195 70.587C36.4702 70.6943 36.3092 70.7877 36.1365 70.867C35.9685 70.9417 35.7842 71 35.5835 71.042C35.3875 71.0887 35.1729 71.112 34.9395 71.112C34.5429 71.112 34.1905 71.0443 33.8825 70.909C33.5792 70.769 33.3225 70.5753 33.1125 70.328C32.9025 70.0807 32.7439 69.789 32.6365 69.453C32.5292 69.117 32.4755 68.7483 32.4755 68.347V63.741H34.6455V68.347C34.6455 68.7063 34.7272 68.984 34.8905 69.18C35.0539 69.376 35.2942 69.474 35.6115 69.474C35.8495 69.474 36.0712 69.425 36.2765 69.327C36.4865 69.2243 36.6895 69.0867 36.8855 68.914V63.741H39.0555ZM44.9329 65.687C44.7696 65.505 44.5923 65.379 44.4009 65.309C44.2096 65.2343 44.0089 65.197 43.7989 65.197C43.5983 65.197 43.4139 65.2367 43.2459 65.316C43.0779 65.3953 42.9309 65.5237 42.8049 65.701C42.6836 65.8737 42.5879 66.1 42.5179 66.38C42.4479 66.66 42.4129 66.9983 42.4129 67.395C42.4129 67.7777 42.4409 68.0997 42.4969 68.361C42.5529 68.6223 42.6299 68.8347 42.7279 68.998C42.8306 69.1567 42.9519 69.271 43.0919 69.341C43.2319 69.411 43.3883 69.446 43.5609 69.446C43.7196 69.446 43.8619 69.432 43.9879 69.404C44.1186 69.3713 44.2376 69.327 44.3449 69.271C44.4523 69.215 44.5526 69.145 44.6459 69.061C44.7439 68.9723 44.8396 68.872 44.9329 68.76V65.687ZM47.1029 60.521V71H45.7589C45.4883 71 45.3109 70.8787 45.2269 70.636L45.0589 70.083C44.9143 70.237 44.7626 70.377 44.6039 70.503C44.4453 70.629 44.2726 70.7387 44.0859 70.832C43.9039 70.9207 43.7056 70.9883 43.4909 71.035C43.2809 71.0863 43.0523 71.112 42.8049 71.112C42.4269 71.112 42.0769 71.028 41.7549 70.86C41.4329 70.692 41.1553 70.4493 40.9219 70.132C40.6886 69.8147 40.5043 69.4273 40.3689 68.97C40.2383 68.508 40.1729 67.983 40.1729 67.395C40.1729 66.8537 40.2476 66.352 40.3969 65.89C40.5463 65.4233 40.7563 65.022 41.0269 64.686C41.3023 64.3453 41.6313 64.0793 42.0139 63.888C42.3966 63.6967 42.8189 63.601 43.2809 63.601C43.6589 63.601 43.9763 63.6547 44.2329 63.762C44.4896 63.8693 44.7229 64.014 44.9329 64.196V60.521H47.1029ZM53.084 66.499C53.084 66.3263 53.0607 66.1583 53.014 65.995C52.972 65.8317 52.8997 65.687 52.797 65.561C52.699 65.4303 52.5683 65.3253 52.405 65.246C52.2417 65.1667 52.0433 65.127 51.81 65.127C51.3993 65.127 51.0773 65.246 50.844 65.484C50.6107 65.7173 50.4567 66.0557 50.382 66.499H53.084ZM50.354 67.759C50.424 68.3657 50.6083 68.8067 50.907 69.082C51.2057 69.3527 51.5907 69.488 52.062 69.488C52.314 69.488 52.531 69.4577 52.713 69.397C52.895 69.3363 53.056 69.2687 53.196 69.194C53.3407 69.1193 53.4713 69.0517 53.588 68.991C53.7093 68.9303 53.8353 68.9 53.966 68.9C54.1387 68.9 54.2693 68.963 54.358 69.089L54.988 69.866C54.764 70.1227 54.5213 70.3327 54.26 70.496C54.0033 70.6547 53.7373 70.7807 53.462 70.874C53.1913 70.9627 52.9183 71.0233 52.643 71.056C52.3723 71.0933 52.1133 71.112 51.866 71.112C51.3573 71.112 50.879 71.0303 50.431 70.867C49.9877 70.699 49.598 70.4517 49.262 70.125C48.9307 69.7983 48.667 69.3923 48.471 68.907C48.2797 68.4217 48.184 67.857 48.184 67.213C48.184 66.7277 48.2657 66.268 48.429 65.834C48.597 65.4 48.835 65.0197 49.143 64.693C49.4557 64.3663 49.8313 64.1073 50.27 63.916C50.7133 63.7247 51.2127 63.629 51.768 63.629C52.2487 63.629 52.6873 63.7037 53.084 63.853C53.4853 64.0023 53.8283 64.2193 54.113 64.504C54.4023 64.7887 54.6263 65.1387 54.785 65.554C54.9483 65.9647 55.03 66.4313 55.03 66.954C55.03 67.1173 55.023 67.2503 55.009 67.353C54.995 67.4557 54.9693 67.5373 54.932 67.598C54.8947 67.6587 54.8433 67.7007 54.778 67.724C54.7173 67.7473 54.638 67.759 54.54 67.759H50.354ZM58.1179 64.525C58.2579 64.3943 58.4025 64.273 58.5519 64.161C58.7012 64.049 58.8599 63.9557 59.0279 63.881C59.2005 63.8017 59.3849 63.741 59.5809 63.699C59.7815 63.6523 59.9985 63.629 60.2319 63.629C60.6285 63.629 60.9785 63.699 61.2819 63.839C61.5899 63.9743 61.8489 64.1657 62.0589 64.413C62.2689 64.6557 62.4275 64.9473 62.5349 65.288C62.6422 65.624 62.6959 65.9903 62.6959 66.387V71H60.5259V66.387C60.5259 66.0323 60.4442 65.757 60.2809 65.561C60.1175 65.3603 59.8772 65.26 59.5599 65.26C59.3219 65.26 59.0979 65.3113 58.8879 65.414C58.6825 65.512 58.4819 65.6473 58.2859 65.82V71H56.1159V63.741H57.4599C57.7305 63.741 57.9079 63.8623 57.9919 64.105L58.1179 64.525ZM66.6015 71.112C66.2562 71.112 65.9505 71.063 65.6845 70.965C65.4232 70.8623 65.2015 70.72 65.0195 70.538C64.8422 70.3513 64.7069 70.1273 64.6135 69.866C64.5202 69.6047 64.4735 69.313 64.4735 68.991V65.239H63.8575C63.7455 65.239 63.6499 65.204 63.5705 65.134C63.4912 65.0593 63.4515 64.952 63.4515 64.812V63.965L64.6065 63.741L65.0335 61.97C65.0895 61.746 65.2482 61.634 65.5095 61.634H66.6435V63.755H68.4425V65.239H66.6435V68.844C66.6435 69.012 66.6832 69.152 66.7625 69.264C66.8465 69.3713 66.9655 69.425 67.1195 69.425C67.1989 69.425 67.2642 69.418 67.3155 69.404C67.3715 69.3853 67.4182 69.3667 67.4555 69.348C67.4975 69.3247 67.5349 69.306 67.5675 69.292C67.6049 69.2733 67.6469 69.264 67.6935 69.264C67.7589 69.264 67.8102 69.2803 67.8475 69.313C67.8895 69.341 67.9315 69.3877 67.9735 69.453L68.6315 70.482C68.3515 70.692 68.0365 70.8507 67.6865 70.958C67.3365 71.0607 66.9749 71.112 66.6015 71.112Z" fill="#495867"/>
<circle cx="305.547" cy="55.5476" r="32" transform="rotate(179.916 305.547 55.5476)" fill="#FFD84E" stroke="#EFBB00"/>
<path d="M296.888 58.579C297.051 58.579 297.18 58.628 297.273 58.726C297.366 58.8193 297.413 58.9407 297.413 59.09V60H290.595V59.489C290.595 59.3863 290.616 59.279 290.658 59.167C290.7 59.055 290.768 58.9523 290.861 58.859L293.997 55.716C294.263 55.45 294.499 55.1957 294.704 54.953C294.914 54.7103 295.091 54.4677 295.236 54.225C295.385 53.9823 295.497 53.7373 295.572 53.49C295.651 53.238 295.691 52.9743 295.691 52.699C295.691 52.433 295.649 52.1997 295.565 51.999C295.486 51.7937 295.374 51.6257 295.229 51.495C295.089 51.3597 294.919 51.2593 294.718 51.194C294.522 51.124 294.305 51.089 294.067 51.089C293.838 51.089 293.626 51.1217 293.43 51.187C293.239 51.2523 293.066 51.3433 292.912 51.46C292.763 51.5767 292.637 51.7167 292.534 51.88C292.436 52.0387 292.364 52.2137 292.317 52.405C292.247 52.5963 292.156 52.7247 292.044 52.79C291.937 52.8553 291.778 52.8693 291.568 52.832L290.777 52.692C290.847 52.216 290.978 51.7983 291.169 51.439C291.365 51.0797 291.61 50.781 291.904 50.543C292.198 50.3003 292.534 50.1183 292.912 49.997C293.295 49.871 293.708 49.808 294.151 49.808C294.599 49.808 295.01 49.8757 295.383 50.011C295.761 50.1417 296.085 50.3307 296.356 50.578C296.631 50.8207 296.846 51.117 297 51.467C297.154 51.817 297.231 52.2113 297.231 52.65C297.231 53.0233 297.175 53.3687 297.063 53.686C296.956 54.0033 296.809 54.3067 296.622 54.596C296.435 54.8853 296.216 55.1677 295.964 55.443C295.717 55.7137 295.455 55.989 295.18 56.269L292.744 58.761C292.945 58.705 293.145 58.6607 293.346 58.628C293.551 58.5953 293.745 58.579 293.927 58.579H296.888ZM305.856 54.96C305.856 55.842 305.76 56.605 305.569 57.249C305.382 57.893 305.123 58.4273 304.792 58.852C304.461 59.2767 304.071 59.5917 303.623 59.797C303.175 60.0023 302.692 60.105 302.174 60.105C301.656 60.105 301.173 60.0023 300.725 59.797C300.277 59.5917 299.887 59.2767 299.556 58.852C299.229 58.4273 298.973 57.893 298.786 57.249C298.599 56.605 298.506 55.842 298.506 54.96C298.506 54.078 298.599 53.315 298.786 52.671C298.973 52.0223 299.229 51.488 299.556 51.068C299.887 50.6433 300.277 50.3283 300.725 50.123C301.173 49.913 301.656 49.808 302.174 49.808C302.692 49.808 303.175 49.913 303.623 50.123C304.071 50.3283 304.461 50.6433 304.792 51.068C305.123 51.488 305.382 52.0223 305.569 52.671C305.76 53.315 305.856 54.078 305.856 54.96ZM304.302 54.96C304.302 54.2133 304.241 53.5927 304.12 53.098C304.003 52.5987 303.847 52.1997 303.651 51.901C303.455 51.6023 303.229 51.39 302.972 51.264C302.715 51.138 302.449 51.075 302.174 51.075C301.894 51.075 301.626 51.138 301.369 51.264C301.117 51.39 300.893 51.6023 300.697 51.901C300.501 52.1997 300.345 52.5987 300.228 53.098C300.111 53.5927 300.053 54.2133 300.053 54.96C300.053 55.7067 300.111 56.3297 300.228 56.829C300.345 57.3237 300.501 57.7203 300.697 58.019C300.893 58.3177 301.117 58.53 301.369 58.656C301.626 58.782 301.894 58.845 302.174 58.845C302.449 58.845 302.715 58.782 302.972 58.656C303.229 58.53 303.455 58.3177 303.651 58.019C303.847 57.7203 304.003 57.3237 304.12 56.829C304.241 56.3297 304.302 55.7067 304.302 54.96ZM313.13 58.579C313.294 58.579 313.422 58.628 313.515 58.726C313.609 58.8193 313.655 58.9407 313.655 59.09V60H306.837V59.489C306.837 59.3863 306.858 59.279 306.9 59.167C306.942 59.055 307.01 58.9523 307.103 58.859L310.239 55.716C310.505 55.45 310.741 55.1957 310.946 54.953C311.156 54.7103 311.334 54.4677 311.478 54.225C311.628 53.9823 311.74 53.7373 311.814 53.49C311.894 53.238 311.933 52.9743 311.933 52.699C311.933 52.433 311.891 52.1997 311.807 51.999C311.728 51.7937 311.616 51.6257 311.471 51.495C311.331 51.3597 311.161 51.2593 310.96 51.194C310.764 51.124 310.547 51.089 310.309 51.089C310.081 51.089 309.868 51.1217 309.672 51.187C309.481 51.2523 309.308 51.3433 309.154 51.46C309.005 51.5767 308.879 51.7167 308.776 51.88C308.678 52.0387 308.606 52.2137 308.559 52.405C308.489 52.5963 308.398 52.7247 308.286 52.79C308.179 52.8553 308.02 52.8693 307.81 52.832L307.019 52.692C307.089 52.216 307.22 51.7983 307.411 51.439C307.607 51.0797 307.852 50.781 308.146 50.543C308.44 50.3003 308.776 50.1183 309.154 49.997C309.537 49.871 309.95 49.808 310.393 49.808C310.841 49.808 311.252 49.8757 311.625 50.011C312.003 50.1417 312.328 50.3307 312.598 50.578C312.874 50.8207 313.088 51.117 313.242 51.467C313.396 51.817 313.473 52.2113 313.473 52.65C313.473 53.0233 313.417 53.3687 313.305 53.686C313.198 54.0033 313.051 54.3067 312.864 54.596C312.678 54.8853 312.458 55.1677 312.206 55.443C311.959 55.7137 311.698 55.989 311.422 56.269L308.986 58.761C309.187 58.705 309.388 58.6607 309.588 58.628C309.794 58.5953 309.987 58.579 310.169 58.579H313.13ZM321.552 58.859V60H316.057V58.859H318.157V52.545C318.157 52.321 318.164 52.0923 318.178 51.859L316.561 53.224C316.491 53.28 316.419 53.3173 316.344 53.336C316.274 53.35 316.207 53.35 316.141 53.336C316.081 53.322 316.025 53.301 315.973 53.273C315.927 53.2403 315.889 53.2053 315.861 53.168L315.392 52.51L318.43 49.899H319.655V58.859H321.552Z" fill="#495867"/>
</svg>
