<svg width="103" height="103" viewBox="0 0 103 103" fill="none" xmlns="http://www.w3.org/2000/svg">
<circle cx="51.5" cy="51.5" r="50.06" fill="#F7F7FF" stroke="#BDD5EA" stroke-width="2.88"/>
<path fill-rule="evenodd" clip-rule="evenodd" d="M36.3286 23.0012C31.3846 23.0012 26.4368 24.9118 22.6621 28.7354C15.1126 36.3823 15.1127 48.756 22.6621 56.4032L25.1944 58.9643L50.4837 84.5754C50.7533 84.8473 51.1188 85 51.5 85C51.8812 85 52.2467 84.8473 52.5163 84.5754L77.8056 58.9643L80.3379 56.4032C87.8873 48.756 87.8874 36.3823 80.3379 28.7354C72.7884 21.0882 60.5599 21.0882 53.0104 28.7354L51.5 30.2709L49.9896 28.7354C46.2149 24.9118 41.2727 23.0012 36.3286 23.0012ZM36.3286 26.2836C40.5266 26.2836 44.4234 28.1174 47.6537 31.3895L50.4837 33.3476C50.7533 33.6196 51.1188 33.9424 51.5 33.9424C51.8811 33.9424 52.1052 33.8496 52.3747 33.5777L55.28 31.3895C61.7406 24.8452 70.9721 24.4805 77.4326 31.0248C83.8932 37.5687 83.5301 47.092 77.0695 53.6365L74.5274 56.1895L51.5 80.2588L28.4063 56.4032L25.8642 53.6365C19.4036 47.092 18.7338 37.9334 25.1944 31.3895C28.4246 28.1174 32.1307 26.2836 36.3286 26.2836Z" fill="#FE5F55"/>
<path fill-rule="evenodd" clip-rule="evenodd" d="M39.2634 28.0002C33.455 28.0002 28.0824 30.8194 25.1781 35.3897C22.274 39.9604 22.274 45.5985 25.1781 50.1689C25.2855 50.3542 25.433 50.5181 25.6117 50.6505C25.7905 50.7828 25.9968 50.881 26.2183 50.9391C26.4398 50.9972 26.6719 51.0139 26.9008 50.9885C27.1297 50.9631 27.3505 50.8962 27.5502 50.7914C27.7498 50.6866 27.9241 50.546 28.0625 50.3785C28.201 50.211 28.3008 50.0198 28.356 49.8164C28.4112 49.613 28.4206 49.4018 28.3836 49.195C28.3467 48.9882 28.2642 48.7903 28.141 48.6132C25.8458 45.0011 25.8458 40.5578 28.141 36.9454C30.4363 33.3334 35 31.7097 39.2634 31.1116C39.4903 31.1145 39.7156 31.0764 39.9261 30.9995C40.1367 30.9226 40.3283 30.8085 40.4899 30.6638C40.6515 30.519 40.7798 30.3465 40.8673 30.1563C40.9549 29.9661 41 29.762 41 29.5559C41 29.3497 40.9549 29.1456 40.8673 28.9554C40.7798 28.7652 40.6515 28.5927 40.4899 28.448C40.3283 28.3032 40.1367 28.1891 39.9261 28.1122C39.7156 28.0353 39.4903 27.9972 39.2634 28.0002Z" fill="#FE5F55"/>
</svg>
