<svg width="67" height="76" viewBox="0 0 67 76" fill="none" xmlns="http://www.w3.org/2000/svg">
<path d="M6.09782 68.4032L0 0H67L60.8959 68.3937L33.4588 76L6.09782 68.4032Z" fill="#E44D26"/>
<path d="M34 70L55.856 63.9069L61 6H34V70Z" fill="#F16529"/>
<path d="M34 31.1582H22.3923L21.5875 22.4783H34V14H12L12.2086 16.2747L14.3646 39.6301H34V31.1582ZM34 53.1698L33.9603 53.1794L24.1906 50.6295L23.5647 43.8692H14.7587L15.9874 57.1786L33.9603 62L34 61.9872V53.1698Z" fill="#EBEBEB"/>
<path d="M34 31.1605V39.6367H43.8342L42.906 50.6312L34 53.1814V62L50.3683 57.1843L50.4888 55.7508L52.3665 33.4355L52.5594 31.1573H50.4075H34V31.1605ZM34 14V22.4794H53.2857L53.4454 20.5724L53.8101 16.275L54 14H34V14Z" fill="white"/>
<path d="M34 22.3725H21.9565L22.7341 30.9637H33.9679H34V22.3725ZM34 0H0L6.18883 68.4032L33.9582 76L34 75.9873V61.4777L33.9614 61.4903L16.5228 56.7182L15.3307 43.5448H23.8749L24.4822 50.236L33.9614 52.7598L33.9711 52.7567L34 52.7503V39.3522H14.9483L12.8564 16.2355L12.654 13.9808H33.9711H34V0Z" fill="#C64321"/>
<path d="M23.5647 43.8692H14.7587L15.9874 57.1786L33.9603 62L34 61.9872L33.9702 61.9936V53.1762L33.9603 53.1794L24.1906 50.6295L23.5647 43.8692ZM33.9702 14H12L12.2086 16.2747L14.3646 39.6301H34H33.9702V31.1582H22.3923L21.5875 22.4783H34H33.9702V14Z" fill="#CDCDCD"/>
</svg>
