<svg width="56" height="774" viewBox="0 0 56 774" fill="none" xmlns="http://www.w3.org/2000/svg">
<line x1="28.5" y1="767" x2="28.5" y2="59" stroke="#BDD5EA" stroke-width="5" stroke-dasharray="10 10"/>
<circle cx="28" cy="28" r="25.5" fill="#F8F8FF" stroke="#BDD5EA" stroke-width="5"/>
<circle cx="28" cy="206" r="25.5" fill="#F8F8FF" stroke="#BDD5EA" stroke-width="5"/>
<circle cx="28" cy="475" r="25.5" fill="#F8F8FF" stroke="#BDD5EA" stroke-width="5"/>
<circle cx="28" cy="614" r="25.5" fill="#F8F8FF" stroke="#BDD5EA" stroke-width="5"/>
<circle cx="28" cy="746" r="25.5" fill="#F8F8FF" stroke="#BDD5EA" stroke-width="5"/>
<path fill-rule="evenodd" clip-rule="evenodd" d="M23.0031 736C21.2118 736 19.4191 736.709 18.0515 738.128C15.3162 740.964 15.3162 745.555 18.0515 748.392L18.969 749.342L28.1318 758.842C28.2295 758.943 28.3619 759 28.5 759C28.6381 759 28.7705 758.943 28.8682 758.842L38.031 749.342L38.9485 748.392C41.6838 745.555 41.6838 740.964 38.9485 738.128C36.2132 735.291 31.7826 735.291 29.0472 738.128L28.5 738.697L27.9528 738.128C26.5851 736.709 24.7944 736 23.0031 736ZM23.0031 737.218C24.5241 737.218 25.936 737.898 27.1064 739.112L28.1318 739.839C28.2295 739.94 28.3619 740.059 28.5 740.059C28.6381 740.059 28.7193 740.025 28.8169 739.924L29.8696 739.112C32.2103 736.685 35.5551 736.549 37.8959 738.977C40.2367 741.405 40.1051 744.937 37.7643 747.365L36.8433 748.312L28.5 757.241L20.1327 748.392L19.2117 747.365C16.8709 744.937 16.6282 741.54 18.969 739.112C20.1394 737.898 21.4822 737.218 23.0031 737.218Z" fill="#FF0000"/>
<path d="M29.3077 17H20.4231C19.7804 17 19.1641 17.2596 18.7097 17.7218C18.2553 18.1839 18 18.8107 18 19.4643V37.5357C18 38.1893 18.2553 38.8161 18.7097 39.2782C19.1641 39.7404 19.7804 40 20.4231 40H36.5769C37.2196 40 37.8359 39.7404 38.2903 39.2782C38.7447 38.8161 39 38.1893 39 37.5357V28.5C39 27.8464 38.7447 27.2196 38.2903 26.7575C37.8359 26.2953 37.2196 26.0357 36.5769 26.0357H31.7308V19.4643C31.7308 18.8107 31.4755 18.1839 31.0211 17.7218C30.5667 17.2596 29.9503 17 29.3077 17ZM18.8077 37.5357V19.4643C18.8077 19.0286 18.9779 18.6107 19.2808 18.3026C19.5838 17.9945 19.9947 17.8214 20.4231 17.8214H29.3077C29.7361 17.8214 30.147 17.9945 30.4499 18.3026C30.7529 18.6107 30.9231 19.0286 30.9231 19.4643V39.1786H27.6923V33.8393C27.6923 33.7304 27.6498 33.6259 27.574 33.5489C27.4983 33.4718 27.3956 33.4286 27.2885 33.4286H22.4423C22.3352 33.4286 22.2325 33.4718 22.1567 33.5489C22.081 33.6259 22.0385 33.7304 22.0385 33.8393V39.1786H20.4231C19.9947 39.1786 19.5838 39.0055 19.2808 38.6974C18.9779 38.3893 18.8077 37.9714 18.8077 37.5357ZM22.8462 39.1786V34.25H26.8846V39.1786H22.8462ZM36.5769 26.8571C37.0054 26.8571 37.4162 27.0302 37.7192 27.3383C38.0221 27.6464 38.1923 28.0643 38.1923 28.5V37.5357C38.1923 37.9714 38.0221 38.3893 37.7192 38.6974C37.4162 39.0055 37.0054 39.1786 36.5769 39.1786H31.7308V26.8571H36.5769Z" fill="#494949"/>
<path d="M20.425 21.3684H22.125C22.2377 21.3684 22.3458 21.3268 22.4255 21.2528C22.5052 21.1788 22.55 21.0784 22.55 20.9737V19.3947C22.55 19.29 22.5052 19.1896 22.4255 19.1156C22.3458 19.0416 22.2377 19 22.125 19H20.425C20.3123 19 20.2042 19.0416 20.1245 19.1156C20.0448 19.1896 20 19.29 20 19.3947V20.9737C20 21.0784 20.0448 21.1788 20.1245 21.2528C20.2042 21.3268 20.3123 21.3684 20.425 21.3684ZM20.85 19.7895H21.7V20.5789H20.85V19.7895ZM20.425 25.3158H22.125C22.2377 25.3158 22.3458 25.2742 22.4255 25.2002C22.5052 25.1261 22.55 25.0257 22.55 24.9211V23.3421C22.55 23.2374 22.5052 23.137 22.4255 23.063C22.3458 22.989 22.2377 22.9474 22.125 22.9474H20.425C20.3123 22.9474 20.2042 22.989 20.1245 23.063C20.0448 23.137 20 23.2374 20 23.3421V24.9211C20 25.0257 20.0448 25.1261 20.1245 25.2002C20.2042 25.2742 20.3123 25.3158 20.425 25.3158ZM20.85 23.7368H21.7V24.5263H20.85V23.7368ZM22.125 29.2632C22.2377 29.2632 22.3458 29.2216 22.4255 29.1475C22.5052 29.0735 22.55 28.9731 22.55 28.8684V27.2895C22.55 27.1848 22.5052 27.0844 22.4255 27.0104C22.3458 26.9363 22.2377 26.8947 22.125 26.8947H20.425C20.3123 26.8947 20.2042 26.9363 20.1245 27.0104C20.0448 27.0844 20 27.1848 20 27.2895V28.8684C20 28.9731 20.0448 29.0735 20.1245 29.1475C20.2042 29.2216 20.3123 29.2632 20.425 29.2632H22.125ZM20.85 27.6842H21.7V28.4737H20.85V27.6842ZM27.225 21.3684H28.925C29.0377 21.3684 29.1458 21.3268 29.2255 21.2528C29.3052 21.1788 29.35 21.0784 29.35 20.9737V19.3947C29.35 19.29 29.3052 19.1896 29.2255 19.1156C29.1458 19.0416 29.0377 19 28.925 19H27.225C27.1123 19 27.0042 19.0416 26.9245 19.1156C26.8448 19.1896 26.8 19.29 26.8 19.3947V20.9737C26.8 21.0784 26.8448 21.1788 26.9245 21.2528C27.0042 21.3268 27.1123 21.3684 27.225 21.3684ZM27.65 19.7895H28.5V20.5789H27.65V19.7895ZM27.225 25.3158H28.925C29.0377 25.3158 29.1458 25.2742 29.2255 25.2002C29.3052 25.1261 29.35 25.0257 29.35 24.9211V23.3421C29.35 23.2374 29.3052 23.137 29.2255 23.063C29.1458 22.989 29.0377 22.9474 28.925 22.9474H27.225C27.1123 22.9474 27.0042 22.989 26.9245 23.063C26.8448 23.137 26.8 23.2374 26.8 23.3421V24.9211C26.8 25.0257 26.8448 25.1261 26.9245 25.2002C27.0042 25.2742 27.1123 25.3158 27.225 25.3158ZM27.65 23.7368H28.5V24.5263H27.65V23.7368ZM27.225 29.2632H28.925C29.0377 29.2632 29.1458 29.2216 29.2255 29.1475C29.3052 29.0735 29.35 28.9731 29.35 28.8684V27.2895C29.35 27.1848 29.3052 27.0844 29.2255 27.0104C29.1458 26.9363 29.0377 26.8947 28.925 26.8947H27.225C27.1123 26.8947 27.0042 26.9363 26.9245 27.0104C26.8448 27.0844 26.8 27.1848 26.8 27.2895V28.8684C26.8 28.9731 26.8448 29.0735 26.9245 29.1475C27.0042 29.2216 27.1123 29.2632 27.225 29.2632ZM27.65 27.6842H28.5V28.4737H27.65V27.6842ZM34.875 30.0526H36.575C36.6877 30.0526 36.7958 30.011 36.8755 29.937C36.9552 29.863 37 29.7626 37 29.6579V28.0789C37 27.9743 36.9552 27.8739 36.8755 27.7998C36.7958 27.7258 36.6877 27.6842 36.575 27.6842H34.875C34.7623 27.6842 34.6542 27.7258 34.5745 27.7998C34.4948 27.8739 34.45 27.9743 34.45 28.0789V29.6579C34.45 29.7626 34.4948 29.863 34.5745 29.937C34.6542 30.011 34.7623 30.0526 34.875 30.0526ZM35.3 28.4737H36.15V29.2632H35.3V28.4737ZM34.875 34H36.575C36.6877 34 36.7958 33.9584 36.8755 33.8844C36.9552 33.8104 37 33.71 37 33.6053V32.0263C37 31.9216 36.9552 31.8212 36.8755 31.7472C36.7958 31.6732 36.6877 31.6316 36.575 31.6316H34.875C34.7623 31.6316 34.6542 31.6732 34.5745 31.7472C34.4948 31.8212 34.45 31.9216 34.45 32.0263V33.6053C34.45 33.71 34.4948 33.8104 34.5745 33.8844C34.6542 33.9584 34.7623 34 34.875 34ZM35.3 32.4211H36.15V33.2105H35.3V32.4211Z" fill="#494949"/>
<path d="M32.5833 476C32.3333 476 32.1667 475.835 32.1667 475.586V475.421V475.09C32.1667 470.128 30.25 465.827 28 465.827C25.75 465.827 23.8333 470.045 23.8333 475.09V475.586C23.8333 475.835 23.6667 476 23.4167 476C23.1667 476 23 475.835 23 475.586V475.421V475.09C23 469.466 25.1667 465 28 465C30.8333 465 33 469.383 33 475.09V475.586C33 475.835 32.8333 476 32.5833 476Z" fill="#2E7CF6"/>
<path d="M28.5 465C28.2 465 28 464.909 28 464.773V464.227C28 464.091 28.2 464 28.5 464C28.8 464 29 464.091 29 464.227V464.773C29 464.909 28.8 465 28.5 465Z" fill="#2E7CF6"/>
<path d="M32.5455 476H32.4628C32.2975 476 32.1322 475.917 32.0496 475.752C31.719 474.759 29.9835 473.932 28 473.932C26.0165 473.932 24.281 474.677 23.9504 475.669C23.8678 475.835 23.7025 475.917 23.5372 475.917H23.4545H23.2893C23.124 475.917 23.0413 475.752 23.0413 475.669C22.7107 474.511 21.719 473.684 20.4793 473.684C19.8182 473.684 19.2397 473.932 18.7438 474.346C18.5785 474.429 18.4132 474.511 18.2479 474.429C18.0826 474.346 18 474.18 18 474.015C18.5785 468.887 22.876 465 28 465C33.124 465 37.4215 468.887 38 474.015C38 474.18 37.9174 474.346 37.7521 474.429C37.5868 474.511 37.4215 474.511 37.2562 474.346C36.7603 473.932 36.1818 473.684 35.5207 473.684C34.3636 473.684 33.2893 474.511 32.9587 475.669C32.9587 475.835 32.7934 475.917 32.7107 475.917H32.5455C32.6281 476 32.6281 476 32.5455 476ZM28 473.105C29.9835 473.105 31.719 473.767 32.5455 474.759C33.124 473.602 34.281 472.857 35.6033 472.857C36.0992 472.857 36.595 472.94 37.0083 473.188C36.1818 468.97 32.3802 465.827 28 465.827C23.6198 465.827 19.8182 468.97 18.9917 473.188C19.405 473.023 19.9008 472.857 20.3967 472.857C21.719 472.857 22.9587 473.602 23.4545 474.759C24.281 473.85 26.0165 473.105 28 473.105Z" fill="#2E7CF6"/>
<path d="M26.5 487C25.0577 487 24 486.012 24 484.859V484.529C24 484.282 24.1923 484.118 24.4808 484.118C24.7692 484.118 24.9615 484.282 24.9615 484.529V484.776C24.9615 485.518 25.6346 486.094 26.5 486.094C27.3654 486.094 28.0385 485.518 28.0385 484.776V473.412C28.0385 473.165 28.2308 473 28.5192 473C28.8077 473 29 473.165 29 473.412V484.776C29 486.012 27.8462 487 26.5 487Z" fill="#2E7CF6"/>
<path d="M24.2404 614.996L26.3549 612.488C26.5477 612.259 26.5228 611.913 26.2992 611.716C26.0755 611.518 25.7379 611.544 25.545 611.773L23.1298 614.638C22.9569 614.843 22.9567 615.147 23.1293 615.352L25.5445 618.226C25.6503 618.352 25.7998 618.417 25.9502 618.417C26.0736 618.417 26.1976 618.373 26.2986 618.285C26.5225 618.087 26.5479 617.742 26.3554 617.513L24.2404 614.996ZM31.4554 611.773C31.2628 611.544 30.9252 611.518 30.7014 611.715C30.4774 611.912 30.452 612.258 30.6446 612.487L32.7596 615.004L30.6451 617.512C30.4522 617.741 30.4771 618.087 30.7008 618.284C30.8018 618.373 30.9261 618.417 31.0498 618.417C31.1999 618.417 31.3492 618.353 31.4549 618.227L33.8702 615.362C34.0431 615.156 34.0433 614.853 33.8707 614.647L31.4554 611.773ZM29.5967 611.023C29.3138 610.937 29.0158 611.101 28.9312 611.39L26.9125 618.296C26.8278 618.585 26.9885 618.89 27.2715 618.977C27.3226 618.993 27.3742 619 27.4249 619C27.6551 619 27.8677 618.847 27.937 618.609L29.9557 611.704C30.0404 611.415 29.8796 611.11 29.5967 611.023Z" fill="#FDB440"/>
<path d="M39.8252 605H17.1748C16.527 605 16 605.535 16 606.194V621.806C16 622.465 16.527 623 17.1748 623H39.8252C40.473 623 41 622.465 41 621.806V606.194C41 605.535 40.473 605 39.8252 605ZM17.1748 605.955H39.8252C39.9547 605.955 40.0602 606.062 40.0602 606.194V608.008H16.9398V606.194C16.9398 606.062 17.0453 605.955 17.1748 605.955ZM39.8252 622.045H17.1748C17.0453 622.045 16.9398 621.938 16.9398 621.806V608.963H40.0602V621.806C40.0602 621.938 39.9547 622.045 39.8252 622.045Z" fill="#FDB440"/>
<path d="M30.7419 211C30.5704 211 30.399 210.915 30.3132 210.661L29.1988 206.678C28.4273 203.967 29.9703 201.17 32.6278 200.323L39.4857 198.035C39.6571 197.95 39.7428 198.035 39.9143 198.12C39.9143 198.12 40 198.205 40 198.374V205.577C40 208.373 37.7712 210.661 34.9423 210.746L30.7419 211ZM39.1428 198.967L32.7992 201.086C30.5704 201.848 29.2846 204.221 29.9703 206.424L30.999 210.068L34.8566 209.898C37.1711 209.814 39.057 207.865 39.057 205.492L39.1428 198.967Z" fill="#67CE67"/>
<path d="M35.5294 204.035C35.3647 204.035 35.1176 203.872 35.1176 203.709C35.1176 203.465 35.2 203.302 35.4471 203.221L37.5059 202.895C37.7529 202.895 37.9176 202.977 38 203.221C38 203.465 37.9176 203.628 37.6706 203.709L35.5294 204.035ZM34.2941 205.663C34.1294 205.663 33.8824 205.5 33.8824 205.337L33.3882 202.488C33.3882 202.244 33.4706 202.081 33.7176 202C33.9647 202 34.1294 202.081 34.2118 202.326L34.7059 205.174C34.7059 205.419 34.5412 205.663 34.2941 205.663ZM33.0588 207.372C32.8941 207.372 32.6471 207.209 32.6471 207.047C32.6471 206.802 32.7294 206.64 32.9765 206.558L35.8588 206.07C36.1059 206.07 36.2706 206.151 36.3529 206.395C36.3529 206.64 36.2706 206.802 36.0235 206.884L33.0588 207.372C33.1412 207.372 33.0588 207.372 33.0588 207.372ZM31.8235 209C31.6588 209 31.4118 208.837 31.4118 208.674L31 206.314C31 206.07 31.0824 205.907 31.3294 205.826C31.5765 205.826 31.7412 205.907 31.8235 206.151L32.2353 208.512C32.3176 208.756 32.1529 209 31.8235 209C31.9059 209 31.9059 209 31.8235 209Z" fill="#67CE67"/>
<path d="M30.776 211C30.6901 211 30.6042 211 30.5183 210.914C30.3465 210.741 30.2606 210.483 30.4324 210.31L37.2191 200.828C37.3909 200.655 37.6486 200.569 37.8204 200.741C37.9923 200.914 38.0782 201.172 37.9063 201.345L31.1197 210.828C31.0338 210.914 30.862 211 30.776 211ZM26.223 210.483L21.584 210.224C18.4913 210.052 16.0859 207.552 16.0859 204.448L16 196.431C16 196.259 16.0859 196.172 16.1718 196.086C16.2577 196 16.4295 196 16.6014 196L24.1612 198.586C27.082 199.621 28.7143 202.724 27.8552 205.655L26.5666 210.138C26.5666 210.397 26.3948 210.483 26.223 210.483ZM16.8591 197.034L16.945 204.448C16.945 207.121 19.0068 209.276 21.6699 209.362L25.9652 209.534L27.082 205.397C27.7693 202.897 26.3948 200.224 23.9035 199.362L16.8591 197.034Z" fill="#67CE67"/>
<path d="M20.7709 203.256L18.3659 202.912C18.1082 202.912 17.9364 202.654 18.0223 202.397C18.0223 202.139 18.28 201.967 18.5377 202.053L20.8568 202.397C21.1145 202.397 21.2863 202.654 21.2004 202.912C21.2004 203.17 21.0286 203.256 20.7709 203.256ZM22.2311 205.232C22.1452 205.232 22.1452 205.232 22.2311 205.232C21.8875 205.146 21.8017 204.974 21.8017 204.716L22.317 201.366C22.317 201.108 22.5747 200.936 22.8324 201.022C23.0901 201.022 23.2618 201.28 23.176 201.538L22.6606 204.888C22.5747 205.06 22.4029 205.232 22.2311 205.232ZM23.6054 207.207C23.6054 207.207 23.5195 207.207 23.6054 207.207L20.1697 206.692C19.912 206.692 19.7402 206.434 19.8261 206.176C19.8261 205.919 20.0838 205.747 20.3415 205.833L23.6913 206.348C23.949 206.348 24.1208 206.606 24.0349 206.864C23.949 207.035 23.7772 207.207 23.6054 207.207ZM24.9797 209.097C24.6361 209.011 24.5502 208.839 24.5502 208.582L24.9797 205.833C24.9797 205.575 25.2374 205.403 25.4951 205.489C25.7528 205.489 25.9245 205.747 25.8386 206.005L25.4092 208.753C25.4092 208.925 25.2374 209.097 24.9797 209.097ZM27.7283 217C27.4706 217 27.2988 216.828 27.2988 216.57C27.2988 216.227 27.3847 215.883 27.3847 215.54C27.5565 214.423 28.0719 213.392 28.759 212.447L30.2192 210.471C30.391 210.3 30.6487 210.214 30.8205 210.386C30.9923 210.557 31.0781 210.815 30.9064 210.987L29.4462 212.963C28.8449 213.736 28.4155 214.681 28.2437 215.711C28.1578 215.969 28.1578 216.313 28.1578 216.656C28.1578 216.828 27.986 217 27.7283 217Z" fill="#67CE67"/>
<path d="M26.045 220C25.9604 220 25.8758 220 25.7912 219.914C25.622 219.741 25.5374 219.483 25.7066 219.311C26.4681 218.276 26.9757 216.983 27.1449 215.691V215.26C27.2295 213.536 26.7219 211.898 25.7912 210.519L18.0922 199.66C17.923 199.488 18.0076 199.229 18.1768 199.057C18.346 198.97 18.6845 198.97 18.7691 199.143L26.4681 210.002C27.5679 211.554 28.0755 213.364 27.9909 215.26V215.691C27.8217 217.156 27.3141 218.535 26.4681 219.741C26.2988 219.914 26.2142 220 26.045 220Z" fill="#67CE67"/>
</svg>
