<svg width="58" height="58" viewBox="0 0 58 58" fill="none" xmlns="http://www.w3.org/2000/svg">
<path d="M39.875 0H18.125C13.318 0 8.70779 1.90959 5.30869 5.30869C1.90959 8.70779 0 13.318 0 18.125L0 39.875C0 44.682 1.90959 49.2922 5.30869 52.6913C8.70779 56.0904 13.318 58 18.125 58H39.875C44.682 58 49.2922 56.0904 52.6913 52.6913C56.0904 49.2922 58 44.682 58 39.875V18.125C58 13.318 56.0904 8.70779 52.6913 5.30869C49.2922 1.90959 44.682 0 39.875 0V0ZM52.5625 39.875C52.5625 46.8713 46.8713 52.5625 39.875 52.5625H18.125C11.1287 52.5625 5.4375 46.8713 5.4375 39.875V18.125C5.4375 11.1287 11.1287 5.4375 18.125 5.4375H39.875C46.8713 5.4375 52.5625 11.1287 52.5625 18.125V39.875Z" fill="url(#paint0_linear)"/>
<path d="M28.5 15C24.6544 15 20.9662 16.5277 18.247 19.247C15.5277 21.9662 14 25.6544 14 29.5C14 33.3456 15.5277 37.0338 18.247 39.753C20.9662 42.4723 24.6544 44 28.5 44C32.3456 44 36.0338 42.4723 38.753 39.753C41.4723 37.0338 43 33.3456 43 29.5C43 25.6544 41.4723 21.9662 38.753 19.247C36.0338 16.5277 32.3456 15 28.5 15ZM28.5 38.5625C26.0974 38.5596 23.7939 37.6039 22.095 35.905C20.3961 34.2061 19.4404 31.9026 19.4375 29.5C19.4375 24.5011 23.5048 20.4375 28.5 20.4375C33.4953 20.4375 37.5625 24.5011 37.5625 29.5C37.5625 34.4953 33.4953 38.5625 28.5 38.5625Z" fill="url(#paint1_linear)"/>
<path d="M44.5 15C45.3284 15 46 14.3284 46 13.5C46 12.6716 45.3284 12 44.5 12C43.6716 12 43 12.6716 43 13.5C43 14.3284 43.6716 15 44.5 15Z" fill="url(#paint2_linear)"/>
<defs>
<linearGradient id="paint0_linear" x1="5.307" y1="52.693" x2="52.693" y2="5.307" gradientUnits="userSpaceOnUse">
<stop stop-color="#FFC107"/>
<stop offset="0.507" stop-color="#F44336"/>
<stop offset="0.99" stop-color="#9C27B0"/>
</linearGradient>
<linearGradient id="paint1_linear" x1="18.2485" y1="39.7515" x2="38.7515" y2="19.2485" gradientUnits="userSpaceOnUse">
<stop stop-color="#FFC107"/>
<stop offset="0.507" stop-color="#F44336"/>
<stop offset="0.99" stop-color="#9C27B0"/>
</linearGradient>
<linearGradient id="paint2_linear" x1="43.439" y1="14.561" x2="45.561" y2="12.439" gradientUnits="userSpaceOnUse">
<stop stop-color="#FFC107"/>
<stop offset="0.507" stop-color="#F44336"/>
<stop offset="0.99" stop-color="#9C27B0"/>
</linearGradient>
</defs>
</svg>
