<svg width="109" height="171" viewBox="0 0 109 171" fill="none" xmlns="http://www.w3.org/2000/svg">
<g filter="url(#filter0_d)">
<circle cx="54.5" cy="52.5" r="49.5" fill="white"/>
<circle cx="54.5" cy="52.5" r="48" stroke="#BDD5EA" stroke-width="3"/>
</g>
<path d="M55 171L55 101" stroke="#BDD5EA" stroke-width="5" stroke-dasharray="10 10"/>
<path d="M64.1667 53C63.6667 53 63.3333 52.6692 63.3333 52.1729V51.8421V51.1805C63.3333 41.2556 59.5 32.6541 55 32.6541C50.5 32.6541 46.6667 41.0902 46.6667 51.1805V52.1729C46.6667 52.6692 46.3333 53 45.8333 53C45.3333 53 45 52.6692 45 52.1729V51.8421V51.1805C45 39.9323 49.3333 31 55 31C60.6667 31 65 39.7669 65 51.1805V52.1729C65 52.6692 64.6667 53 64.1667 53Z" fill="#2E7CF6"/>
<path d="M64.0909 53H63.9256C63.595 53 63.2645 52.8346 63.0992 52.5038C62.438 50.5188 58.9669 48.8647 55 48.8647C51.0331 48.8647 47.562 50.3534 46.9008 52.3383C46.7355 52.6692 46.405 52.8346 46.0744 52.8346H45.9091H45.5785C45.2479 52.8346 45.0826 52.5038 45.0826 52.3383C44.4215 50.0226 42.438 48.3684 39.9587 48.3684C38.6364 48.3684 37.4793 48.8647 36.4876 49.6917C36.157 49.8571 35.8264 50.0226 35.4959 49.8571C35.1653 49.6917 35 49.3609 35 49.0301C36.157 38.7744 44.7521 31 55 31C65.2479 31 73.843 38.7744 75 49.0301C75 49.3609 74.8347 49.6917 74.5041 49.8571C74.1735 50.0226 73.843 50.0226 73.5124 49.6917C72.5207 48.8647 71.3636 48.3684 70.0413 48.3684C67.7273 48.3684 65.5785 50.0226 64.9174 52.3383C64.9174 52.6692 64.5868 52.8346 64.4215 52.8346H64.0909C64.2562 53 64.2562 53 64.0909 53ZM55 47.2105C58.9669 47.2105 62.438 48.5338 64.0909 50.5188C65.2479 48.203 67.562 46.7143 70.2066 46.7143C71.1983 46.7143 72.1901 46.8797 73.0165 47.3759C71.3636 38.9399 63.7603 32.6541 55 32.6541C46.2397 32.6541 38.6364 38.9399 36.9835 47.3759C37.8099 47.0451 38.8017 46.7143 39.7934 46.7143C42.438 46.7143 44.9174 48.203 45.9091 50.5188C47.562 48.6992 51.0331 47.2105 55 47.2105Z" fill="#2E7CF6"/>
<path d="M52 75C49.1154 75 47 73.0941 47 70.8706V70.2353C47 69.7588 47.3846 69.4412 47.9615 69.4412C48.5385 69.4412 48.9231 69.7588 48.9231 70.2353V70.7118C48.9231 72.1412 50.2692 73.2529 52 73.2529C53.7308 73.2529 55.0769 72.1412 55.0769 70.7118V48.7941C55.0769 48.3176 55.4615 48 56.0385 48C56.6154 48 57 48.3176 57 48.7941V70.7118C57 73.0941 54.6923 75 52 75Z" fill="#2E7CF6"/>
<defs>
<filter id="filter0_d" x="0" y="0" width="109" height="109" filterUnits="userSpaceOnUse" color-interpolation-filters="sRGB">
<feFlood flood-opacity="0" result="BackgroundImageFix"/>
<feColorMatrix in="SourceAlpha" type="matrix" values="0 0 0 0 0 0 0 0 0 0 0 0 0 0 0 0 0 0 127 0" result="hardAlpha"/>
<feOffset dy="2"/>
<feGaussianBlur stdDeviation="2.5"/>
<feComposite in2="hardAlpha" operator="out"/>
<feColorMatrix type="matrix" values="0 0 0 0 0 0 0 0 0 0 0 0 0 0 0 0 0 0 0.16 0"/>
<feBlend mode="normal" in2="BackgroundImageFix" result="effect1_dropShadow"/>
<feBlend mode="normal" in="SourceGraphic" in2="effect1_dropShadow" result="shape"/>
</filter>
</defs>
</svg>
