<svg width="56" height="128" viewBox="0 0 56 128" fill="none" xmlns="http://www.w3.org/2000/svg">
<line x1="28.5" y1="128" x2="28.5" y2="55" stroke="#BDD5EA" stroke-width="5" stroke-dasharray="10 10"/>
<circle cx="28" cy="28" r="25.5" fill="#F8F8FF" stroke="#BDD5EA" stroke-width="5"/>
<path d="M32.5833 29C32.3333 29 32.1667 28.8346 32.1667 28.5865V28.4211V28.0902C32.1667 23.1278 30.25 18.8271 28 18.8271C25.75 18.8271 23.8333 23.0451 23.8333 28.0902V28.5865C23.8333 28.8346 23.6667 29 23.4167 29C23.1667 29 23 28.8346 23 28.5865V28.4211V28.0902C23 22.4662 25.1667 18 28 18C30.8333 18 33 22.3835 33 28.0902V28.5865C33 28.8346 32.8333 29 32.5833 29Z" fill="#2E7CF6"/>
<path d="M28.5 18C28.2 18 28 17.9091 28 17.7727V17.2273C28 17.0909 28.2 17 28.5 17C28.8 17 29 17.0909 29 17.2273V17.7727C29 17.9091 28.8 18 28.5 18Z" fill="#2E7CF6"/>
<path d="M32.5455 29H32.4628C32.2975 29 32.1322 28.9173 32.0496 28.7519C31.719 27.7594 29.9835 26.9323 28 26.9323C26.0165 26.9323 24.281 27.6767 23.9504 28.6692C23.8678 28.8346 23.7025 28.9173 23.5372 28.9173H23.4545H23.2893C23.124 28.9173 23.0413 28.7519 23.0413 28.6692C22.7107 27.5113 21.719 26.6842 20.4793 26.6842C19.8182 26.6842 19.2397 26.9323 18.7438 27.3459C18.5785 27.4286 18.4132 27.5113 18.2479 27.4286C18.0826 27.3459 18 27.1805 18 27.015C18.5785 21.8872 22.876 18 28 18C33.124 18 37.4215 21.8872 38 27.015C38 27.1805 37.9174 27.3459 37.7521 27.4286C37.5868 27.5113 37.4215 27.5113 37.2562 27.3459C36.7603 26.9323 36.1818 26.6842 35.5207 26.6842C34.3636 26.6842 33.2893 27.5113 32.9587 28.6692C32.9587 28.8346 32.7934 28.9173 32.7107 28.9173H32.5455C32.6281 29 32.6281 29 32.5455 29ZM28 26.1053C29.9835 26.1053 31.719 26.7669 32.5455 27.7594C33.124 26.6015 34.281 25.8571 35.6033 25.8571C36.0992 25.8571 36.595 25.9399 37.0083 26.188C36.1818 21.9699 32.3802 18.8271 28 18.8271C23.6198 18.8271 19.8182 21.9699 18.9917 26.188C19.405 26.0226 19.9008 25.8571 20.3967 25.8571C21.719 25.8571 22.9587 26.6015 23.4545 27.7594C24.281 26.8496 26.0165 26.1053 28 26.1053Z" fill="#2E7CF6"/>
<path d="M26.5 40C25.0577 40 24 39.0118 24 37.8588V37.5294C24 37.2824 24.1923 37.1176 24.4808 37.1176C24.7692 37.1176 24.9615 37.2824 24.9615 37.5294V37.7765C24.9615 38.5176 25.6346 39.0941 26.5 39.0941C27.3654 39.0941 28.0385 38.5176 28.0385 37.7765V26.4118C28.0385 26.1647 28.2308 26 28.5192 26C28.8077 26 29 26.1647 29 26.4118V37.7765C29 39.0118 27.8462 40 26.5 40Z" fill="#2E7CF6"/>
</svg>
