<svg width="76" height="76" viewBox="0 0 76 76" fill="none" xmlns="http://www.w3.org/2000/svg">
<path d="M75.9777 0H0.0222656C0.00996866 0 0 0.00996866 0 0.0222656V75.9777C0 75.99 0.00996866 76 0.0222656 76H75.9777C75.99 76 76 75.99 76 75.9777V0.0222656C76 0.00996866 75.99 0 75.9777 0Z" fill="#F7DF1E"/>
<path d="M48.0089 54.5C49.4926 56.9792 51.5697 58.7292 54.9822 58.7292C57.9496 58.7292 59.8783 57.2708 59.8783 55.2292C59.8783 52.8958 57.9496 52.0208 54.6855 50.5625L52.905 49.8333C47.7122 47.6458 44.2997 45.0208 44.2997 39.3333C44.2997 34.0833 48.3056 30 54.6855 30C59.2849 30 62.549 31.6042 64.7745 35.6875L59.2849 39.1875C58.0979 37 56.7626 36.125 54.6855 36.125C52.6083 36.125 51.273 37.4375 51.273 39.1875C51.273 41.2292 52.6083 42.1042 55.724 43.4167L57.5045 44.1458C63.5875 46.7708 67 49.25 67 55.2292C67 61.5 61.9555 65 55.1306 65C48.454 65 44.1513 61.9375 42.0742 57.8542L48.0089 54.5ZM22.7864 55.0833C23.9733 56.9792 24.8635 58.7292 27.3858 58.7292C29.7596 58.7292 31.2433 57.8542 31.2433 54.3542V30.1458H38.365V54.0625C38.365 61.3542 34.0623 64.5625 27.6825 64.5625C21.8961 64.5625 18.632 61.6458 17 58.1458L22.7864 55.0833Z" fill="black"/>
</svg>
