<svg width="48" height="77" viewBox="0 0 48 77" fill="none" xmlns="http://www.w3.org/2000/svg">
<path d="M10.0734 43.2022C11.3436 44.099 12.1022 45.5058 12.1022 46.9644V48.6326H11.6202C10.6835 48.6326 9.92325 49.3928 9.92325 50.3296C9.92325 51.2663 10.6835 52.0266 11.6202 52.0266H12.1022V55.5292H11.6202C10.6835 55.5292 9.92325 56.2894 9.92325 57.2262C9.92325 58.1629 10.6835 58.9232 11.6202 58.9232H12.1022V61.6791C12.1022 61.9311 12.1234 62.1771 12.1387 62.4258H11.6194C10.6827 62.4258 9.9224 63.186 9.9224 64.1228C9.9224 65.0595 10.6827 65.8198 11.6194 65.8198H12.8395C14.0699 69.2163 16.7503 71.9145 20.1052 73.071C20.0764 73.2136 20.0484 73.3561 20.0484 73.5046C20.0484 75.0845 21.7182 76.3649 23.7775 76.3649C25.8368 76.3649 27.5067 75.0845 27.5067 73.5038C27.5067 73.3612 27.4778 73.2246 27.4515 73.0872C29.1579 72.5229 30.7259 71.5734 32.0334 70.2659C33.3062 68.9931 34.237 67.4726 34.8063 65.8189H35.9348C36.8716 65.8189 37.6318 65.0586 37.6318 64.1219C37.6318 63.1852 36.8716 62.4249 35.9348 62.4249H35.4325C35.4376 62.2858 35.4529 62.1492 35.4529 62.0091V58.9223H35.9348C36.8716 58.9223 37.6318 58.1621 37.6318 57.2253C37.6318 56.2886 36.8716 55.5283 35.9348 55.5283H35.4529V52.0257H35.9348C36.8716 52.0257 37.6318 51.2655 37.6318 50.3287C37.6318 49.392 36.8716 48.6317 35.9348 48.6317H35.4529V46.9967C35.4529 45.5008 36.1444 44.1287 37.3035 43.3252C43.7215 38.8791 47.5542 31.5701 47.5542 23.7766C47.5542 10.6656 36.8877 0 23.7775 0C22.8815 0 21.9728 0.0500615 21.0734 0.149336C9.95125 1.37966 1.1328 10.3704 0.10527 21.5264C-0.688076 30.1293 3.03853 38.2325 10.0734 43.2022ZM29.633 67.8663C28.0693 69.431 25.9896 70.2913 23.7775 70.2913H23.7767L23.6214 70.2896C20.577 70.2336 17.9229 68.4306 16.5305 65.8181H31.1306C30.7437 66.5647 30.244 67.2554 29.633 67.8663ZM32.0597 62.0091C32.0597 62.1492 32.0462 62.2866 32.0394 62.4249H15.5318C15.5115 62.178 15.4953 61.9302 15.4953 61.6782V58.9223H32.0589V62.0091H32.0597ZM32.0597 55.5283H15.4953V52.0257H32.0589V55.5283H32.0597ZM3.48399 21.8378C4.36474 12.2786 11.9189 4.57595 21.4467 3.52297C22.2222 3.43727 23.0063 3.394 23.7775 3.394C35.0168 3.394 44.1602 12.5374 44.1602 23.7766C44.1602 30.4577 40.8748 36.723 35.3706 40.5362C33.2977 41.9727 32.0597 44.3884 32.0597 46.9967V48.6317H15.4953V46.9644C15.4953 44.4045 14.2005 41.9617 12.0318 40.4301C5.99894 36.169 2.8035 29.2189 3.48399 21.8378Z" fill="#EFBB00"/>
<path d="M18.2156 23.3753C18.225 23.4279 18.2385 23.4788 18.253 23.5297C18.2682 23.584 18.2827 23.6383 18.303 23.6909C18.3226 23.7418 18.3463 23.7893 18.3701 23.8377C18.3947 23.8878 18.4201 23.9378 18.4498 23.9853C18.4787 24.0312 18.5109 24.0736 18.544 24.116C18.578 24.1601 18.611 24.2034 18.6501 24.2441C18.6908 24.2874 18.7358 24.3256 18.7807 24.3646C18.8096 24.3892 18.8325 24.4181 18.863 24.441C18.8715 24.4469 18.8817 24.4486 18.8893 24.4546C19.0183 24.5479 19.1609 24.6217 19.3136 24.676C19.345 24.687 19.3764 24.6964 19.4086 24.7057C19.5588 24.7498 19.7141 24.7804 19.8779 24.7804C19.8787 24.7804 19.8795 24.7812 19.8804 24.7812H19.8812H19.8821H24.2705L18.5253 32.4169C17.9619 33.1661 18.113 34.2301 18.8614 34.7935C19.1668 35.0235 19.5249 35.1338 19.8795 35.1338C20.3946 35.1338 20.9037 34.9004 21.238 34.4567L29.0272 24.1041C29.0357 24.0922 29.0408 24.0795 29.0493 24.0676C29.0849 24.0184 29.1138 23.9658 29.1435 23.9124C29.1689 23.8665 29.1969 23.8224 29.2173 23.7758C29.2393 23.7274 29.2538 23.6756 29.2716 23.6247C29.2902 23.5696 29.3106 23.5153 29.3233 23.4584C29.3335 23.4126 29.3378 23.3651 29.3446 23.3176C29.353 23.2531 29.3624 23.1894 29.3641 23.1241C29.3641 23.1105 29.3683 23.0978 29.3683 23.0842C29.3683 23.0486 29.3598 23.0147 29.3581 22.9799C29.3539 22.9171 29.3505 22.8551 29.3395 22.794C29.3301 22.7414 29.3166 22.6905 29.3021 22.6396C29.2869 22.5853 29.2724 22.531 29.2521 22.4784C29.2326 22.4275 29.2088 22.38 29.185 22.3316C29.1604 22.2816 29.135 22.2315 29.1053 22.184C29.0764 22.1382 29.0442 22.0957 29.0111 22.0533C28.9772 22.0092 28.9441 21.9659 28.905 21.9252C28.8643 21.8819 28.8193 21.8437 28.7744 21.8047C28.7455 21.7801 28.7226 21.7512 28.6921 21.7283C28.6802 21.7198 28.6675 21.7148 28.6556 21.7063C28.6055 21.6706 28.5521 21.6409 28.4978 21.6112C28.4536 21.5866 28.4104 21.5595 28.3645 21.5391C28.3145 21.5162 28.261 21.5009 28.2084 21.4831C28.155 21.4653 28.1024 21.4458 28.0472 21.4331C27.9988 21.422 27.9496 21.4178 27.9004 21.411C27.8385 21.4025 27.7765 21.394 27.7137 21.3923C27.6993 21.3923 27.6866 21.3881 27.6722 21.3881H23.2837L29.0289 13.7516C29.5923 13.0024 29.4413 11.9384 28.6929 11.3749C27.9428 10.8115 26.8797 10.9634 26.3163 11.711L18.527 22.0643C18.5186 22.0762 18.5135 22.0889 18.505 22.1008C18.4693 22.15 18.4405 22.2026 18.4108 22.2561C18.3853 22.3019 18.3573 22.346 18.337 22.3927C18.3149 22.4411 18.3005 22.4928 18.2827 22.5437C18.264 22.5989 18.2436 22.6532 18.2309 22.71C18.2207 22.7559 18.2165 22.8034 18.2097 22.8509C18.2012 22.9154 18.1919 22.979 18.1902 23.0444C18.1902 23.0579 18.1859 23.0707 18.1859 23.0842C18.1859 23.1199 18.1944 23.1538 18.1961 23.1886C18.2004 23.2514 18.2046 23.3133 18.2156 23.3753Z" fill="#EFBB00"/>
</svg>
