<svg width="58" height="59" viewBox="0 0 58 59" fill="none" xmlns="http://www.w3.org/2000/svg">
<path d="M53.7113 0.799478H4.28873C3.73318 0.791808 3.18154 0.892994 2.66533 1.09726C2.14912 1.30152 1.67845 1.60486 1.28019 1.98995C0.881937 2.37504 0.5639 2.83433 0.344242 3.34161C0.124584 3.84889 0.00761 4.3942 0 4.94642V54.6517C0.00761 55.2039 0.124584 55.7493 0.344242 56.2565C0.5639 56.7638 0.881937 57.2231 1.28019 57.6082C1.67845 57.9933 2.14912 58.2966 2.66533 58.5009C3.18154 58.7051 3.73318 58.8063 4.28873 58.7987H53.7113C54.2668 58.8063 54.8185 58.7051 55.3347 58.5009C55.8509 58.2966 56.3215 57.9933 56.7198 57.6082C57.1181 57.2231 57.4361 56.7638 57.6558 56.2565C57.8754 55.7493 57.9924 55.2039 58 54.6517V4.94642C57.9924 4.3942 57.8754 3.84889 57.6558 3.34161C57.4361 2.83433 57.1181 2.37504 56.7198 1.98995C56.3215 1.60486 55.8509 1.30152 55.3347 1.09726C54.8185 0.892994 54.2668 0.791808 53.7113 0.799478V0.799478ZM17.5926 49.3448H8.84004V23.2452H17.5926V49.3448ZM13.2163 19.5912C12.0092 19.5912 10.8516 19.1146 9.99804 18.2662C9.1445 17.4178 8.66499 16.2671 8.66499 15.0673C8.66499 13.8675 9.1445 12.7168 9.99804 11.8684C10.8516 11.02 12.0092 10.5433 13.2163 10.5433C13.8573 10.4711 14.5063 10.5342 15.1211 10.7286C15.7358 10.923 16.3023 11.2442 16.7834 11.6713C17.2646 12.0984 17.6495 12.6217 17.9131 13.2069C18.1767 13.7921 18.3129 14.4261 18.3129 15.0673C18.3129 15.7085 18.1767 16.3424 17.9131 16.9277C17.6495 17.5129 17.2646 18.0362 16.7834 18.4632C16.3023 18.8903 15.7358 19.2116 15.1211 19.406C14.5063 19.6003 13.8573 19.6635 13.2163 19.5912V19.5912ZM49.16 49.3448H40.4074V35.338C40.4074 31.829 39.1529 29.5381 35.9728 29.5381C34.9887 29.5452 34.0303 29.8521 33.227 30.4173C32.4236 30.9824 31.8139 31.7788 31.4799 32.699C31.2516 33.3806 31.1526 34.0985 31.1881 34.816V49.3158H22.4356C22.4356 49.3158 22.4356 25.5941 22.4356 23.2162H31.1881V26.8991C31.9832 25.5277 33.1397 24.398 34.5329 23.6314C35.9261 22.8649 37.5033 22.4907 39.0946 22.5492C44.9296 22.5492 49.16 26.2901 49.16 34.323V49.3448Z" fill="#0A66C2"/>
</svg>
