<svg width="88" height="51" viewBox="0 0 88 51" fill="none" xmlns="http://www.w3.org/2000/svg">
<path d="M25.1005 14.8136V35H21.1401V31.6933C20.6787 32.3085 20.0507 32.8981 19.256 33.462C18.4614 34.0259 17.5386 34.4873 16.4876 34.8462C15.4623 35.2051 14.3472 35.3845 13.1424 35.3845C11.143 35.3845 9.36151 34.9359 7.79786 34.0387C6.25985 33.1416 5.04226 31.8983 4.14509 30.3091C3.27355 28.7198 2.83778 26.8998 2.83778 24.8491C2.83778 22.7985 3.29918 20.9913 4.22199 19.4276C5.14479 17.864 6.41365 16.6336 8.02856 15.7364C9.66911 14.8392 11.5404 14.3907 13.6423 14.3907C15.3085 14.3907 16.7824 14.7111 18.0641 15.3519C19.3714 15.9928 20.3967 16.7361 21.1401 17.582V14.8136H25.1005ZM14.0653 31.7317C15.4751 31.7317 16.7183 31.4369 17.7949 30.8474C18.8972 30.2322 19.7559 29.4119 20.3711 28.3866C20.9863 27.3612 21.2939 26.1821 21.2939 24.8491C21.2939 23.5675 20.9863 22.4139 20.3711 21.3886C19.7559 20.3633 18.8972 19.5558 17.7949 18.9662C16.7183 18.351 15.4751 18.0434 14.0653 18.0434C12.6554 18.0434 11.3994 18.351 10.2971 18.9662C9.22052 19.5558 8.37462 20.3633 7.75941 21.3886C7.16984 22.4139 6.87506 23.5675 6.87506 24.8491C6.87506 26.1821 7.16984 27.3612 7.75941 28.3866C8.37462 29.4119 9.22052 30.2322 10.2971 30.8474C11.3994 31.4369 12.6554 31.7317 14.0653 31.7317ZM37.4598 14.3907C39.4336 14.3907 41.2151 14.8392 42.8044 15.7364C44.3937 16.608 45.6497 17.8384 46.5725 19.4276C47.4954 20.9913 47.9568 22.7985 47.9568 24.8491C47.9568 26.8998 47.4954 28.7198 46.5725 30.3091C45.6754 31.8983 44.4321 33.1416 42.8429 34.0387C41.2536 34.9359 39.4464 35.3845 37.4214 35.3845C35.8577 35.3845 34.4223 35.0769 33.115 34.4617C31.8076 33.8465 30.7695 33.1544 30.0005 32.3854V34.8846H26.0401V6.54681H30.0005V17.6205C30.7182 16.8002 31.7307 16.0568 33.0381 15.3904C34.371 14.7239 35.8449 14.3907 37.4598 14.3907ZM36.9215 18.005C35.5117 18.005 34.2556 18.3126 33.1534 18.9278C32.0512 19.5174 31.1924 20.3248 30.5772 21.3502C29.962 22.3755 29.6544 23.5418 29.6544 24.8491C29.6544 26.1564 29.962 27.3356 30.5772 28.3866C31.1924 29.4119 32.0512 30.2322 33.1534 30.8474C34.2556 31.4369 35.5117 31.7317 36.9215 31.7317C38.3314 31.7317 39.5746 31.4369 40.6512 30.8474C41.7534 30.2322 42.6122 29.4119 43.2274 28.3866C43.8426 27.3356 44.1502 26.1564 44.1502 24.8491C44.1502 23.5418 43.8426 22.3755 43.2274 21.3502C42.6122 20.3248 41.7534 19.5174 40.6512 18.9278C39.5746 18.3126 38.3314 18.005 36.9215 18.005Z" fill="white"/>
<circle cx="37.1152" cy="25.3665" r="2.40314" fill="white"/>
<circle cx="13.618" cy="25.3665" r="2.40314" fill="white"/>
<path d="M11.0757 42.7V49H9.8397V47.968C9.6957 48.16 9.4997 48.344 9.2517 48.52C9.0037 48.696 8.7157 48.84 8.3877 48.952C8.0677 49.064 7.7197 49.12 7.3437 49.12C6.7197 49.12 6.1637 48.98 5.6757 48.7C5.1957 48.42 4.8157 48.032 4.5357 47.536C4.2637 47.04 4.1277 46.472 4.1277 45.832C4.1277 45.192 4.2717 44.628 4.5597 44.14C4.8477 43.652 5.2437 43.268 5.7477 42.988C6.2597 42.708 6.8437 42.568 7.4997 42.568C8.0197 42.568 8.4797 42.668 8.8797 42.868C9.2877 43.068 9.6077 43.3 9.8397 43.564V42.7H11.0757ZM7.6317 47.98C8.0717 47.98 8.4597 47.888 8.7957 47.704C9.1397 47.512 9.4077 47.256 9.5997 46.936C9.7917 46.616 9.8877 46.248 9.8877 45.832C9.8877 45.432 9.7917 45.072 9.5997 44.752C9.4077 44.432 9.1397 44.18 8.7957 43.996C8.4597 43.804 8.0717 43.708 7.6317 43.708C7.1917 43.708 6.7997 43.804 6.4557 43.996C6.1197 44.18 5.8557 44.432 5.6637 44.752C5.4797 45.072 5.3877 45.432 5.3877 45.832C5.3877 46.248 5.4797 46.616 5.6637 46.936C5.8557 47.256 6.1197 47.512 6.4557 47.704C6.7997 47.888 7.1917 47.98 7.6317 47.98ZM12.341 49V40.12H13.577V49H12.341ZM20.7003 48.172H20.6883C20.4883 48.332 20.2363 48.488 19.9323 48.64C19.6363 48.784 19.3083 48.9 18.9483 48.988C18.5883 49.076 18.2203 49.12 17.8443 49.12C17.1163 49.12 16.4723 48.984 15.9123 48.712C15.3523 48.432 14.9163 48.052 14.6043 47.572C14.2923 47.084 14.1363 46.532 14.1363 45.916C14.1363 45.212 14.3003 44.612 14.6283 44.116C14.9563 43.612 15.3923 43.228 15.9363 42.964C16.4883 42.692 17.0883 42.556 17.7363 42.556C18.3363 42.556 18.8803 42.688 19.3683 42.952C19.8563 43.208 20.2443 43.564 20.5323 44.02C20.8283 44.476 20.9763 45.008 20.9763 45.616L20.9643 46.192H15.3843C15.4803 46.744 15.7643 47.18 16.2363 47.5C16.7083 47.82 17.3003 47.98 18.0123 47.98C18.5323 47.98 18.9563 47.9 19.2843 47.74C19.6203 47.572 19.8963 47.412 20.1123 47.26L20.7003 48.172ZM17.7363 43.696C17.1683 43.696 16.6723 43.812 16.2483 44.044C15.8243 44.268 15.5483 44.656 15.4203 45.208H19.7163V45.076C19.6843 44.804 19.5723 44.564 19.3803 44.356C19.1883 44.148 18.9443 43.988 18.6483 43.876C18.3603 43.756 18.0563 43.696 17.7363 43.696ZM25.8919 44.38C25.6199 44.156 25.2999 43.968 24.9319 43.816C24.5639 43.664 24.2199 43.588 23.8999 43.588C23.6919 43.588 23.4759 43.608 23.2519 43.648C23.0359 43.688 22.8519 43.764 22.6999 43.876C22.5479 43.98 22.4719 44.136 22.4719 44.344C22.4719 44.536 22.5479 44.692 22.6999 44.812C22.8519 44.924 23.0519 45.016 23.2999 45.088C23.5559 45.16 23.8359 45.228 24.1399 45.292C24.4439 45.356 24.7399 45.432 25.0279 45.52C25.3239 45.6 25.5879 45.712 25.8199 45.856C26.0599 45.992 26.2519 46.168 26.3959 46.384C26.5399 46.592 26.6119 46.856 26.6119 47.176C26.6119 47.592 26.4879 47.944 26.2399 48.232C25.9999 48.52 25.6799 48.74 25.2799 48.892C24.8879 49.044 24.4599 49.12 23.9959 49.12C23.4279 49.12 22.8879 49.036 22.3759 48.868C21.8639 48.692 21.4319 48.396 21.0799 47.98L21.9199 47.236C22.1759 47.5 22.4719 47.712 22.8079 47.872C23.1519 48.024 23.5519 48.1 24.0079 48.1C24.2079 48.1 24.4159 48.076 24.6319 48.028C24.8479 47.98 25.0319 47.9 25.1839 47.788C25.3359 47.668 25.4119 47.504 25.4119 47.296C25.4119 47.112 25.3359 46.964 25.1839 46.852C25.0319 46.74 24.8279 46.652 24.5719 46.588C24.3159 46.516 24.0399 46.452 23.7439 46.396C23.3119 46.3 22.9039 46.188 22.5199 46.06C22.1359 45.924 21.8239 45.728 21.5839 45.472C21.3519 45.208 21.2359 44.844 21.2359 44.38C21.2359 44.012 21.3519 43.692 21.5839 43.42C21.8239 43.148 22.1439 42.94 22.5439 42.796C22.9439 42.644 23.3839 42.568 23.8639 42.568C24.1679 42.568 24.4879 42.604 24.8239 42.676C25.1599 42.74 25.4799 42.848 25.7839 43C26.0959 43.144 26.3599 43.336 26.5759 43.576L25.8919 44.38ZM31.4292 44.38C31.1572 44.156 30.8372 43.968 30.4692 43.816C30.1012 43.664 29.7572 43.588 29.4372 43.588C29.2292 43.588 29.0132 43.608 28.7892 43.648C28.5732 43.688 28.3892 43.764 28.2372 43.876C28.0852 43.98 28.0092 44.136 28.0092 44.344C28.0092 44.536 28.0852 44.692 28.2372 44.812C28.3892 44.924 28.5892 45.016 28.8372 45.088C29.0932 45.16 29.3732 45.228 29.6772 45.292C29.9812 45.356 30.2772 45.432 30.5652 45.52C30.8612 45.6 31.1252 45.712 31.3572 45.856C31.5972 45.992 31.7892 46.168 31.9332 46.384C32.0772 46.592 32.1492 46.856 32.1492 47.176C32.1492 47.592 32.0252 47.944 31.7772 48.232C31.5372 48.52 31.2172 48.74 30.8172 48.892C30.4252 49.044 29.9972 49.12 29.5332 49.12C28.9652 49.12 28.4252 49.036 27.9132 48.868C27.4012 48.692 26.9692 48.396 26.6172 47.98L27.4572 47.236C27.7132 47.5 28.0092 47.712 28.3452 47.872C28.6892 48.024 29.0892 48.1 29.5452 48.1C29.7452 48.1 29.9532 48.076 30.1692 48.028C30.3852 47.98 30.5692 47.9 30.7212 47.788C30.8732 47.668 30.9492 47.504 30.9492 47.296C30.9492 47.112 30.8732 46.964 30.7212 46.852C30.5692 46.74 30.3652 46.652 30.1092 46.588C29.8532 46.516 29.5772 46.452 29.2812 46.396C28.8492 46.3 28.4412 46.188 28.0572 46.06C27.6732 45.924 27.3612 45.728 27.1212 45.472C26.8892 45.208 26.7732 44.844 26.7732 44.38C26.7732 44.012 26.8892 43.692 27.1212 43.42C27.3612 43.148 27.6812 42.94 28.0812 42.796C28.4812 42.644 28.9212 42.568 29.4012 42.568C29.7052 42.568 30.0252 42.604 30.3612 42.676C30.6972 42.74 31.0172 42.848 31.3212 43C31.6332 43.144 31.8972 43.336 32.1132 43.576L31.4292 44.38ZM33.5945 41.332C33.3145 41.332 33.1065 41.26 32.9705 41.116C32.8345 40.972 32.7665 40.784 32.7665 40.552C32.7665 40.352 32.8345 40.172 32.9705 40.012C33.1065 39.852 33.3145 39.772 33.5945 39.772C33.8745 39.772 34.0825 39.844 34.2185 39.988C34.3545 40.132 34.4225 40.32 34.4225 40.552C34.4225 40.752 34.3545 40.932 34.2185 41.092C34.0825 41.252 33.8745 41.332 33.5945 41.332ZM34.2185 49H32.9825V42.7H34.2185V49ZM42.2326 45.844C42.2326 46.484 42.0766 47.052 41.7646 47.548C41.4526 48.036 41.0246 48.42 40.4806 48.7C39.9446 48.98 39.3326 49.12 38.6446 49.12C37.9566 49.12 37.3406 48.98 36.7966 48.7C36.2526 48.42 35.8246 48.036 35.5126 47.548C35.2006 47.052 35.0446 46.484 35.0446 45.844C35.0446 45.204 35.2006 44.64 35.5126 44.152C35.8246 43.656 36.2526 43.268 36.7966 42.988C37.3406 42.708 37.9566 42.568 38.6446 42.568C39.3326 42.568 39.9446 42.708 40.4806 42.988C41.0246 43.268 41.4526 43.656 41.7646 44.152C42.0766 44.64 42.2326 45.204 42.2326 45.844ZM40.9726 45.844C40.9806 45.42 40.8806 45.048 40.6726 44.728C40.4726 44.4 40.1926 44.148 39.8326 43.972C39.4806 43.788 39.0846 43.696 38.6446 43.696C38.2046 43.696 37.8046 43.788 37.4446 43.972C37.0926 44.148 36.8126 44.4 36.6046 44.728C36.3966 45.048 36.2966 45.42 36.3046 45.844C36.2966 46.26 36.3966 46.632 36.6046 46.96C36.8126 47.28 37.0926 47.532 37.4446 47.716C37.8046 47.9 38.2046 47.992 38.6446 47.992C39.0846 47.992 39.4806 47.9 39.8326 47.716C40.1926 47.532 40.4726 47.28 40.6726 46.96C40.8806 46.632 40.9806 46.26 40.9726 45.844ZM49.148 42.568C49.764 42.568 50.32 42.708 50.816 42.988C51.312 43.26 51.704 43.644 51.992 44.14C52.28 44.628 52.424 45.192 52.424 45.832C52.424 46.472 52.28 47.04 51.992 47.536C51.712 48.032 51.324 48.42 50.828 48.7C50.332 48.98 49.768 49.12 49.136 49.12C48.648 49.12 48.2 49.024 47.792 48.832C47.384 48.64 47.06 48.424 46.82 48.184V48.964H45.584V40.12H46.82V43.576C47.044 43.32 47.36 43.088 47.768 42.88C48.184 42.672 48.644 42.568 49.148 42.568ZM48.98 43.696C48.54 43.696 48.148 43.792 47.804 43.984C47.46 44.168 47.192 44.42 47 44.74C46.808 45.06 46.712 45.424 46.712 45.832C46.712 46.24 46.808 46.608 47 46.936C47.192 47.256 47.46 47.512 47.804 47.704C48.148 47.888 48.54 47.98 48.98 47.98C49.42 47.98 49.808 47.888 50.144 47.704C50.488 47.512 50.756 47.256 50.948 46.936C51.14 46.608 51.236 46.24 51.236 45.832C51.236 45.424 51.14 45.06 50.948 44.74C50.756 44.42 50.488 44.168 50.144 43.984C49.808 43.792 49.42 43.696 48.98 43.696ZM53.9041 41.332C53.6241 41.332 53.4161 41.26 53.2801 41.116C53.1441 40.972 53.0761 40.784 53.0761 40.552C53.0761 40.352 53.1441 40.172 53.2801 40.012C53.4161 39.852 53.6241 39.772 53.9041 39.772C54.1841 39.772 54.3921 39.844 54.5281 39.988C54.6641 40.132 54.7321 40.32 54.7321 40.552C54.7321 40.752 54.6641 40.932 54.5281 41.092C54.3921 41.252 54.1841 41.332 53.9041 41.332ZM54.5281 49H53.2921V42.7H54.5281V49ZM62.2421 42.7V49H61.0061V47.968C60.8621 48.16 60.6661 48.344 60.4181 48.52C60.1701 48.696 59.8821 48.84 59.5541 48.952C59.2341 49.064 58.8861 49.12 58.5101 49.12C57.8861 49.12 57.3301 48.98 56.8421 48.7C56.3621 48.42 55.9821 48.032 55.7021 47.536C55.4301 47.04 55.2941 46.472 55.2941 45.832C55.2941 45.192 55.4381 44.628 55.7261 44.14C56.0141 43.652 56.4101 43.268 56.9141 42.988C57.4261 42.708 58.0101 42.568 58.6661 42.568C59.1861 42.568 59.6461 42.668 60.0461 42.868C60.4541 43.068 60.7741 43.3 61.0061 43.564V42.7H62.2421ZM58.7981 47.98C59.2381 47.98 59.6261 47.888 59.9621 47.704C60.3061 47.512 60.5741 47.256 60.7661 46.936C60.9581 46.616 61.0541 46.248 61.0541 45.832C61.0541 45.432 60.9581 45.072 60.7661 44.752C60.5741 44.432 60.3061 44.18 59.9621 43.996C59.6261 43.804 59.2381 43.708 58.7981 43.708C58.3581 43.708 57.9661 43.804 57.6221 43.996C57.2861 44.18 57.0221 44.432 56.8301 44.752C56.6461 45.072 56.5541 45.432 56.5541 45.832C56.5541 46.248 56.6461 46.616 56.8301 46.936C57.0221 47.256 57.2861 47.512 57.6221 47.704C57.9661 47.888 58.3581 47.98 58.7981 47.98ZM67.0954 42.568C67.7034 42.568 68.1874 42.688 68.5474 42.928C68.9154 43.168 69.1794 43.488 69.3394 43.888C69.5074 44.28 69.5914 44.72 69.5914 45.208V49H68.3554V45.34C68.3554 44.86 68.2194 44.464 67.9474 44.152C67.6754 43.84 67.2714 43.692 66.7354 43.708C66.3594 43.708 66.0234 43.792 65.7274 43.96C65.4394 44.12 65.2114 44.328 65.0434 44.584C64.8754 44.84 64.7914 45.104 64.7914 45.376V49H63.5554V42.7H64.7914V43.756C65.0314 43.444 65.3514 43.168 65.7514 42.928C66.1514 42.688 66.5994 42.568 67.0954 42.568ZM71.5317 45.844C71.5317 46.26 71.6317 46.632 71.8317 46.96C72.0397 47.28 72.3157 47.536 72.6597 47.728C73.0037 47.912 73.3797 48.004 73.7877 48.004C74.2917 48.004 74.7237 47.904 75.0837 47.704C75.4437 47.504 75.7437 47.296 75.9837 47.08L76.6677 47.968C76.3477 48.272 75.9317 48.54 75.4197 48.772C74.9077 49.004 74.3357 49.12 73.7037 49.12C73.0637 49.12 72.4837 48.976 71.9637 48.688C71.4517 48.4 71.0477 48.008 70.7517 47.512C70.4557 47.016 70.3077 46.46 70.3077 45.844C70.3077 45.22 70.4557 44.664 70.7517 44.176C71.0477 43.68 71.4517 43.288 71.9637 43C72.4837 42.712 73.0637 42.568 73.7037 42.568C74.3517 42.568 74.9357 42.684 75.4557 42.916C75.9837 43.14 76.3877 43.44 76.6677 43.816L75.9837 44.728C75.8157 44.536 75.6077 44.364 75.3597 44.212C75.1197 44.052 74.8597 43.924 74.5797 43.828C74.3077 43.732 74.0397 43.684 73.7757 43.684C73.3437 43.684 72.9557 43.78 72.6117 43.972C72.2757 44.156 72.0117 44.412 71.8197 44.74C71.6277 45.06 71.5317 45.428 71.5317 45.844ZM80.8899 42.568C81.4819 42.568 81.9579 42.688 82.3179 42.928C82.6779 43.168 82.9379 43.488 83.0979 43.888C83.2579 44.28 83.3379 44.72 83.3379 45.208V49H82.1019V45.34C82.1019 44.852 81.9659 44.452 81.6939 44.14C81.4219 43.82 81.0179 43.672 80.4819 43.696C80.1059 43.696 79.7699 43.78 79.4739 43.948C79.1859 44.108 78.9579 44.32 78.7899 44.584C78.6219 44.84 78.5379 45.104 78.5379 45.376V49H77.3019V40.12H78.5379V43.72C78.7779 43.408 79.1059 43.14 79.5219 42.916C79.9379 42.684 80.3939 42.568 80.8899 42.568ZM85.4463 41.332C85.1663 41.332 84.9583 41.26 84.8223 41.116C84.6863 40.972 84.6183 40.784 84.6183 40.552C84.6183 40.352 84.6863 40.172 84.8223 40.012C84.9583 39.852 85.1663 39.772 85.4463 39.772C85.7263 39.772 85.9343 39.844 86.0703 39.988C86.2063 40.132 86.2743 40.32 86.2743 40.552C86.2743 40.752 86.2063 40.932 86.0703 41.092C85.9343 41.252 85.7263 41.332 85.4463 41.332ZM86.0703 49H84.8343V42.7H86.0703V49Z" fill="white"/>
</svg>
