<svg width="51" height="41" viewBox="0 0 51 41" fill="none" xmlns="http://www.w3.org/2000/svg">
<path d="M25.1005 14.8136V35H21.1401V31.6933C20.6787 32.3085 20.0507 32.8981 19.256 33.462C18.4614 34.0259 17.5386 34.4873 16.4876 34.8462C15.4623 35.2051 14.3472 35.3845 13.1424 35.3845C11.143 35.3845 9.36151 34.9359 7.79786 34.0387C6.25985 33.1416 5.04226 31.8983 4.14509 30.3091C3.27355 28.7198 2.83778 26.8998 2.83778 24.8491C2.83778 22.7985 3.29918 20.9913 4.22199 19.4276C5.14479 17.864 6.41365 16.6336 8.02856 15.7364C9.66911 14.8392 11.5404 14.3907 13.6423 14.3907C15.3085 14.3907 16.7824 14.7111 18.0641 15.3519C19.3714 15.9928 20.3967 16.7361 21.1401 17.582V14.8136H25.1005ZM14.0653 31.7317C15.4751 31.7317 16.7183 31.4369 17.7949 30.8474C18.8972 30.2322 19.7559 29.4119 20.3711 28.3866C20.9863 27.3612 21.2939 26.1821 21.2939 24.8491C21.2939 23.5675 20.9863 22.4139 20.3711 21.3886C19.7559 20.3633 18.8972 19.5558 17.7949 18.9662C16.7183 18.351 15.4751 18.0434 14.0653 18.0434C12.6554 18.0434 11.3994 18.351 10.2971 18.9662C9.22052 19.5558 8.37462 20.3633 7.75941 21.3886C7.16984 22.4139 6.87506 23.5675 6.87506 24.8491C6.87506 26.1821 7.16984 27.3612 7.75941 28.3866C8.37462 29.4119 9.22052 30.2322 10.2971 30.8474C11.3994 31.4369 12.6554 31.7317 14.0653 31.7317ZM37.4598 14.3907C39.4336 14.3907 41.2151 14.8392 42.8044 15.7364C44.3937 16.608 45.6497 17.8384 46.5725 19.4276C47.4954 20.9913 47.9568 22.7985 47.9568 24.8491C47.9568 26.8998 47.4954 28.7198 46.5725 30.3091C45.6754 31.8983 44.4321 33.1416 42.8429 34.0387C41.2536 34.9359 39.4464 35.3845 37.4214 35.3845C35.8577 35.3845 34.4223 35.0769 33.115 34.4617C31.8076 33.8465 30.7695 33.1544 30.0005 32.3854V34.8846H26.0401V6.54681H30.0005V17.6205C30.7182 16.8002 31.7307 16.0568 33.0381 15.3904C34.371 14.7239 35.8449 14.3907 37.4598 14.3907ZM36.9215 18.005C35.5117 18.005 34.2556 18.3126 33.1534 18.9278C32.0512 19.5174 31.1924 20.3248 30.5772 21.3502C29.962 22.3755 29.6544 23.5418 29.6544 24.8491C29.6544 26.1564 29.962 27.3356 30.5772 28.3866C31.1924 29.4119 32.0512 30.2322 33.1534 30.8474C34.2556 31.4369 35.5117 31.7317 36.9215 31.7317C38.3314 31.7317 39.5746 31.4369 40.6512 30.8474C41.7534 30.2322 42.6122 29.4119 43.2274 28.3866C43.8426 27.3356 44.1502 26.1564 44.1502 24.8491C44.1502 23.5418 43.8426 22.3755 43.2274 21.3502C42.6122 20.3248 41.7534 19.5174 40.6512 18.9278C39.5746 18.3126 38.3314 18.005 36.9215 18.005Z" fill="#FE5F55"/>
<circle cx="37.1153" cy="25.3665" r="2.40314" fill="#FE5F55"/>
<circle cx="13.618" cy="25.3665" r="2.40314" fill="#FE5F55"/>
</svg>
