<svg width="56" height="128" viewBox="0 0 56 128" fill="none" xmlns="http://www.w3.org/2000/svg">
<path fill-rule="evenodd" clip-rule="evenodd" d="M24.3247 18.0001C22.0658 18.0001 19.9765 18.9807 18.8471 20.5703C17.7176 22.1601 17.7176 24.1212 18.8471 25.7109C18.8888 25.7754 18.9462 25.8324 19.0157 25.8784C19.0852 25.9244 19.1654 25.9586 19.2516 25.9788C19.3377 25.999 19.428 26.0048 19.517 25.996C19.606 25.9872 19.6919 25.9639 19.7695 25.9274C19.8471 25.891 19.9149 25.8421 19.9688 25.7838C20.0226 25.7256 20.0614 25.6591 20.0829 25.5883C20.1043 25.5176 20.108 25.4441 20.0936 25.3722C20.0793 25.3003 20.0472 25.2314 19.9993 25.1698C19.1067 23.9134 19.1067 22.3679 19.9993 21.1115C20.8919 19.8551 22.6667 19.2903 24.3247 19.0823C24.4129 19.0833 24.5005 19.07 24.5824 19.0433C24.6643 19.0166 24.7388 18.9769 24.8016 18.9265C24.8645 18.8762 24.9144 18.8162 24.9484 18.75C24.9825 18.6839 25 18.6129 25 18.5412C25 18.4695 24.9825 18.3985 24.9484 18.3323C24.9144 18.2661 24.8645 18.2062 24.8016 18.1558C24.7388 18.1055 24.6643 18.0658 24.5824 18.039C24.5005 18.0123 24.4129 17.999 24.3247 18.0001Z" fill="#FF0000"/>
<line x1="28.5" y1="128" x2="28.5" y2="55" stroke="#BDD5EA" stroke-width="5" stroke-dasharray="10 10"/>
<circle cx="28" cy="28" r="25.5" fill="#F8F8FF" stroke="#BDD5EA" stroke-width="5"/>
<path fill-rule="evenodd" clip-rule="evenodd" d="M23.0031 18.0005C21.2118 18.0005 19.4191 18.7092 18.0515 20.1276C15.3162 22.9644 15.3162 27.5547 18.0515 30.3915L18.969 31.3416L28.1318 40.8425C28.2295 40.9434 28.3619 41 28.5 41C28.6381 41 28.7705 40.9434 28.8682 40.8425L38.031 31.3416L38.9485 30.3915C41.6838 27.5547 41.6838 22.9644 38.9485 20.1276C36.2132 17.2908 31.7826 17.2908 29.0472 20.1276L28.5 20.6973L27.9528 20.1276C26.5851 18.7092 24.7944 18.0005 23.0031 18.0005ZM23.0031 19.2181C24.5241 19.2181 25.936 19.8984 27.1064 21.1122L28.1318 21.8386C28.2295 21.9395 28.3619 22.0593 28.5 22.0593C28.6381 22.0593 28.7193 22.0249 28.8169 21.924L29.8696 21.1122C32.2103 18.6845 35.5551 18.5492 37.8959 20.9769C40.2367 23.4045 40.1051 26.9374 37.7643 29.3652L36.8433 30.3122L28.5 39.2412L20.1327 30.3915L19.2117 29.3652C16.8709 26.9374 16.6282 23.5398 18.969 21.1122C20.1394 19.8984 21.4822 19.2181 23.0031 19.2181Z" fill="#FF0000"/>
</svg>
