<svg width="128" height="46" viewBox="0 0 128 46" fill="none" xmlns="http://www.w3.org/2000/svg">
<path d="M86.1415 0.000147685C86.021 0.000227563 85.9027 0.0316729 85.7981 0.0913871C85.6942 0.152193 85.6079 0.239024 85.5478 0.343323C85.4876 0.447622 85.4557 0.565793 85.4551 0.686192V18.1844C85.4551 18.3561 85.3753 18.51 85.2265 18.5961C85.1536 18.6386 85.0707 18.661 84.9863 18.661C84.902 18.661 84.8191 18.6386 84.7462 18.5961L81.8869 16.9494C81.6783 16.8287 81.4417 16.7652 81.2007 16.7652C80.9598 16.7652 80.7231 16.8287 80.5145 16.9494L69.1007 23.5367C68.674 23.7831 68.4146 24.2565 68.4146 24.7492V37.9243C68.4146 38.4164 68.6744 38.8672 69.1007 39.1136L80.5145 45.7012C80.723 45.8222 80.9597 45.8859 81.2007 45.8859C81.4417 45.8859 81.6785 45.8222 81.8869 45.7012L93.3007 39.1136C93.5097 38.9933 93.6832 38.82 93.8037 38.6111C93.9243 38.4023 93.9875 38.1654 93.9871 37.9243V5.07808C93.9868 4.83132 93.921 4.58907 93.7964 4.37605C93.6719 4.16303 93.493 3.98688 93.2782 3.86558L86.4845 0.0684978C86.378 0.00904909 86.2597 -0.00144185 86.1415 0.000147685V0.000147685ZM12.7176 16.4461C12.5001 16.4547 12.2954 16.4929 12.1002 16.606L0.68605 23.1937C0.476966 23.3138 0.303375 23.4871 0.182888 23.696C0.0624008 23.9049 -0.000693694 24.1419 5.75268e-06 24.383L0.0228951 42.0647C0.0228951 42.3104 0.14974 42.539 0.365917 42.6592C0.469558 42.7215 0.588189 42.7544 0.709098 42.7544C0.830008 42.7544 0.948639 42.7215 1.05228 42.6592L7.82275 38.7709C8.25161 38.5159 8.53169 38.0727 8.53169 37.5812V29.3239C8.53169 28.8312 8.79078 28.3791 9.21805 28.1343L12.0999 26.4647C12.3082 26.3435 12.5452 26.2803 12.7862 26.2815C13.0215 26.2815 13.2631 26.3404 13.4723 26.4647L16.3544 28.1343C16.5637 28.2543 16.7375 28.4276 16.858 28.6366C16.9786 28.8455 17.0416 29.0827 17.0408 29.3239V37.5809C17.0408 38.0724 17.3237 38.5188 17.7497 38.7705L24.5202 42.6592C24.6238 42.7215 24.7425 42.7544 24.8634 42.7544C24.9843 42.7544 25.1029 42.7215 25.2066 42.6592C25.3109 42.5988 25.3975 42.5121 25.4578 42.4077C25.518 42.3033 25.5498 42.1849 25.5499 42.0644L25.5722 24.383C25.5735 24.1417 25.5107 23.9045 25.3901 23.6955C25.2696 23.4865 25.0956 23.3133 24.8861 23.1937L13.4723 16.606C13.2793 16.4929 13.0739 16.455 12.8549 16.4461H12.7176ZM115.282 16.606C115.044 16.606 114.81 16.6664 114.596 16.7892L103.182 23.3768C102.973 23.4971 102.8 23.6704 102.679 23.8792C102.559 24.088 102.495 24.325 102.496 24.5661V37.7412C102.496 38.2368 102.775 38.6857 103.205 38.9308L114.527 45.3811C114.945 45.6195 115.456 45.6377 115.877 45.4034L122.739 41.5837C122.957 41.4629 123.104 41.2372 123.105 40.9892C123.106 40.8685 123.075 40.7496 123.015 40.645C122.954 40.5404 122.867 40.4539 122.762 40.3944L111.279 33.8067C111.064 33.684 110.913 33.4357 110.913 33.189V29.0721C110.913 28.8258 111.066 28.6 111.279 28.4773L114.848 26.4186C114.952 26.3582 115.07 26.3264 115.191 26.3264C115.311 26.3264 115.43 26.3582 115.534 26.4186L119.102 28.4773C119.206 28.5374 119.293 28.624 119.353 28.7284C119.414 28.8328 119.445 28.9513 119.445 29.0718V32.3199C119.445 32.4404 119.476 32.5589 119.537 32.6633C119.597 32.7677 119.684 32.8543 119.788 32.9144C120.002 33.038 120.261 33.0384 120.474 32.9144L127.314 28.9351C127.522 28.8144 127.696 28.6409 127.816 28.4322C127.936 28.2234 128 27.9866 128 27.7455V24.5664C128 24.0753 127.739 23.6235 127.314 23.3768L115.968 16.7892C115.76 16.6685 115.523 16.6054 115.282 16.6064V16.606ZM81.1548 26.4418C81.2145 26.4418 81.2845 26.4564 81.3379 26.4872L85.2494 28.7517C85.3556 28.813 85.4325 28.9265 85.4325 29.0489V33.5778C85.4325 33.7009 85.3562 33.814 85.2494 33.8754L81.3379 36.1399C81.2856 36.1697 81.2265 36.1854 81.1664 36.1854C81.1062 36.1854 81.0471 36.1697 80.9949 36.1399L77.0836 33.8754C76.9771 33.8137 76.9005 33.7009 76.9005 33.5778V29.0489C76.9005 28.9262 76.9775 28.8137 77.0836 28.7517L80.9949 26.4876C81.0429 26.4576 81.0985 26.4419 81.1551 26.4421V26.4418H81.1548Z" fill="#404137"/>
<path d="M47.005 16.5374C46.7672 16.5374 46.5319 16.5978 46.3189 16.7205L34.9051 23.2853C34.4782 23.531 34.2188 24.0053 34.2188 24.4974V37.6725C34.2188 38.1652 34.4785 38.6154 34.9051 38.8621L46.3189 45.4494C46.5274 45.5705 46.7641 45.6343 47.0051 45.6343C47.2462 45.6343 47.4829 45.5705 47.6913 45.4494L59.1052 38.8621C59.3141 38.7417 59.4876 38.5684 59.6081 38.3595C59.7285 38.1506 59.7917 37.9136 59.7912 37.6725V24.4974C59.7912 24.0047 59.5318 23.531 59.1052 23.2853L47.6913 16.7205C47.4827 16.6 47.2459 16.5368 47.005 16.5374V16.5374ZM115.259 28.2945C115.214 28.2945 115.163 28.2945 115.122 28.3174L112.927 29.5983C112.886 29.621 112.851 29.6541 112.827 29.6943C112.803 29.7345 112.79 29.7803 112.789 29.8272V32.3431C112.789 32.4378 112.844 32.5246 112.927 32.572L115.122 33.8299C115.205 33.8776 115.292 33.8776 115.374 33.8299L117.57 32.5716C117.61 32.5488 117.645 32.5157 117.669 32.4756C117.693 32.4355 117.706 32.3898 117.707 32.3431V29.8268C117.706 29.7801 117.693 29.7344 117.669 29.6943C117.645 29.6542 117.61 29.6211 117.57 29.5983L115.374 28.3171C115.333 28.2933 115.305 28.2948 115.259 28.2948V28.2945Z" fill="#83CD29"/>
</svg>
