<svg width="120" height="65" viewBox="0 0 120 65" fill="none" xmlns="http://www.w3.org/2000/svg">
<path d="M60 65C93.13 65 120 50.46 120 32.5C120 14.545 93.13 0 60 0C26.87 0 0 14.54 0 32.5C0 50.46 26.87 65 60 65Z" fill="#878EB7"/>
<path d="M25.1448 50.7103L26.7748 42.0603C34.4848 42.0603 39.2598 42.6403 43.6848 38.3753C48.5748 33.7403 49.8548 25.4953 46.3648 21.3603C44.5498 19.1953 41.6248 18.1303 37.6498 18.1303H24.3898L18.2598 50.7103H18.2648H25.1448ZM30.3348 23.2703C37.4598 23.2703 42.2998 22.4803 40.9098 29.8953V29.8903C39.4298 37.7103 34.1998 36.9003 27.7648 36.9003L30.3348 23.2703ZM53.7898 42.0203L57.3148 23.3653C62.8848 23.3653 65.1898 23.1353 66.2048 24.2553C67.2548 25.4153 66.7148 26.6903 63.8248 42.0253H70.7598C73.7598 26.1703 75.0898 22.8103 72.3148 20.1853C69.6698 17.6753 64.1998 18.1153 58.2898 18.1153L59.9198 9.46533H53.0748L46.9498 42.0203H53.7898ZM78.9348 50.7103L80.5648 42.0603C88.6648 42.0603 93.1448 42.5403 97.4748 38.3753C102.365 33.7403 103.645 25.4953 100.155 21.3603C98.3348 19.1953 95.4098 18.1353 91.4348 18.1353H78.1798L72.0298 50.7153H78.9348V50.7103ZM84.1098 23.2703C91.2748 23.2703 96.0748 22.4803 94.6848 29.8953V29.8903C93.1848 37.8303 87.8048 36.9003 81.5398 36.9003L84.1098 23.2703Z" fill="#23282C"/>
</svg>
