<svg width="56" height="767" viewBox="0 0 56 767" fill="none" xmlns="http://www.w3.org/2000/svg">
<line x1="28.5" y1="762" x2="28.5" y2="56" stroke="#BDD5EA" stroke-width="5" stroke-dasharray="10 10"/>
<circle cx="28" cy="28" r="25.5" fill="#F8F8FF" stroke="#BDD5EA" stroke-width="5"/>
<circle cx="28" cy="172" r="25.5" fill="#F8F8FF" stroke="#BDD5EA" stroke-width="5"/>
<circle cx="28" cy="418" r="25.5" fill="#F8F8FF" stroke="#BDD5EA" stroke-width="5"/>
<circle cx="28" cy="578" r="25.5" fill="#F8F8FF" stroke="#BDD5EA" stroke-width="5"/>
<circle cx="28" cy="739" r="25.5" fill="#F8F8FF" stroke="#BDD5EA" stroke-width="5"/>
<path fill-rule="evenodd" clip-rule="evenodd" d="M23.0031 729C21.2118 729 19.4191 729.709 18.0515 731.128C15.3162 733.964 15.3162 738.555 18.0515 741.392L18.969 742.342L28.1318 751.842C28.2295 751.943 28.3619 752 28.5 752C28.6381 752 28.7705 751.943 28.8682 751.842L38.031 742.342L38.9485 741.392C41.6838 738.555 41.6838 733.964 38.9485 731.128C36.2132 728.291 31.7826 728.291 29.0472 731.128L28.5 731.697L27.9527 731.128C26.5851 729.709 24.7944 729 23.0031 729ZM23.0031 730.218C24.5241 730.218 25.936 730.898 27.1064 732.112L28.1318 732.839C28.2295 732.94 28.3619 733.059 28.5 733.059C28.6381 733.059 28.7193 733.025 28.8169 732.924L29.8696 732.112C32.2103 729.685 35.5551 729.549 37.8959 731.977C40.2367 734.405 40.1051 737.937 37.7643 740.365L36.8432 741.312L28.5 750.241L20.1327 741.392L19.2117 740.365C16.8709 737.937 16.6282 734.54 18.969 732.112C20.1394 730.898 21.4822 730.218 23.0031 730.218Z" fill="#FF0000"/>
<path d="M29.3077 17H20.4231C19.7804 17 19.1641 17.2596 18.7097 17.7218C18.2553 18.1839 18 18.8107 18 19.4643V37.5357C18 38.1893 18.2553 38.8161 18.7097 39.2782C19.1641 39.7404 19.7804 40 20.4231 40H36.5769C37.2196 40 37.8359 39.7404 38.2903 39.2782C38.7447 38.8161 39 38.1893 39 37.5357V28.5C39 27.8464 38.7447 27.2196 38.2903 26.7575C37.8359 26.2953 37.2196 26.0357 36.5769 26.0357H31.7308V19.4643C31.7308 18.8107 31.4755 18.1839 31.0211 17.7218C30.5667 17.2596 29.9503 17 29.3077 17ZM18.8077 37.5357V19.4643C18.8077 19.0286 18.9779 18.6107 19.2808 18.3026C19.5838 17.9945 19.9947 17.8214 20.4231 17.8214H29.3077C29.7361 17.8214 30.147 17.9945 30.4499 18.3026C30.7529 18.6107 30.9231 19.0286 30.9231 19.4643V39.1786H27.6923V33.8393C27.6923 33.7304 27.6498 33.6259 27.574 33.5489C27.4983 33.4718 27.3956 33.4286 27.2885 33.4286H22.4423C22.3352 33.4286 22.2325 33.4718 22.1567 33.5489C22.081 33.6259 22.0385 33.7304 22.0385 33.8393V39.1786H20.4231C19.9947 39.1786 19.5838 39.0055 19.2808 38.6974C18.9779 38.3893 18.8077 37.9714 18.8077 37.5357V37.5357ZM22.8462 39.1786V34.25H26.8846V39.1786H22.8462ZM36.5769 26.8571C37.0053 26.8571 37.4162 27.0302 37.7192 27.3383C38.0221 27.6464 38.1923 28.0643 38.1923 28.5V37.5357C38.1923 37.9714 38.0221 38.3893 37.7192 38.6974C37.4162 39.0055 37.0053 39.1786 36.5769 39.1786H31.7308V26.8571H36.5769Z" fill="#494949"/>
<path d="M20.425 21.3684H22.125C22.2377 21.3684 22.3458 21.3268 22.4255 21.2528C22.5052 21.1788 22.55 21.0784 22.55 20.9737V19.3947C22.55 19.29 22.5052 19.1896 22.4255 19.1156C22.3458 19.0416 22.2377 19 22.125 19H20.425C20.3123 19 20.2042 19.0416 20.1245 19.1156C20.0448 19.1896 20 19.29 20 19.3947V20.9737C20 21.0784 20.0448 21.1788 20.1245 21.2528C20.2042 21.3268 20.3123 21.3684 20.425 21.3684ZM20.85 19.7895H21.7V20.5789H20.85V19.7895ZM20.425 25.3158H22.125C22.2377 25.3158 22.3458 25.2742 22.4255 25.2002C22.5052 25.1261 22.55 25.0257 22.55 24.9211V23.3421C22.55 23.2374 22.5052 23.137 22.4255 23.063C22.3458 22.989 22.2377 22.9474 22.125 22.9474H20.425C20.3123 22.9474 20.2042 22.989 20.1245 23.063C20.0448 23.137 20 23.2374 20 23.3421V24.9211C20 25.0257 20.0448 25.1261 20.1245 25.2002C20.2042 25.2742 20.3123 25.3158 20.425 25.3158ZM20.85 23.7368H21.7V24.5263H20.85V23.7368ZM22.125 29.2632C22.2377 29.2632 22.3458 29.2216 22.4255 29.1475C22.5052 29.0735 22.55 28.9731 22.55 28.8684V27.2895C22.55 27.1848 22.5052 27.0844 22.4255 27.0104C22.3458 26.9363 22.2377 26.8947 22.125 26.8947H20.425C20.3123 26.8947 20.2042 26.9363 20.1245 27.0104C20.0448 27.0844 20 27.1848 20 27.2895V28.8684C20 28.9731 20.0448 29.0735 20.1245 29.1475C20.2042 29.2216 20.3123 29.2632 20.425 29.2632H22.125ZM20.85 27.6842H21.7V28.4737H20.85V27.6842ZM27.225 21.3684H28.925C29.0377 21.3684 29.1458 21.3268 29.2255 21.2528C29.3052 21.1788 29.35 21.0784 29.35 20.9737V19.3947C29.35 19.29 29.3052 19.1896 29.2255 19.1156C29.1458 19.0416 29.0377 19 28.925 19H27.225C27.1123 19 27.0042 19.0416 26.9245 19.1156C26.8448 19.1896 26.8 19.29 26.8 19.3947V20.9737C26.8 21.0784 26.8448 21.1788 26.9245 21.2528C27.0042 21.3268 27.1123 21.3684 27.225 21.3684ZM27.65 19.7895H28.5V20.5789H27.65V19.7895ZM27.225 25.3158H28.925C29.0377 25.3158 29.1458 25.2742 29.2255 25.2002C29.3052 25.1261 29.35 25.0257 29.35 24.9211V23.3421C29.35 23.2374 29.3052 23.137 29.2255 23.063C29.1458 22.989 29.0377 22.9474 28.925 22.9474H27.225C27.1123 22.9474 27.0042 22.989 26.9245 23.063C26.8448 23.137 26.8 23.2374 26.8 23.3421V24.9211C26.8 25.0257 26.8448 25.1261 26.9245 25.2002C27.0042 25.2742 27.1123 25.3158 27.225 25.3158ZM27.65 23.7368H28.5V24.5263H27.65V23.7368ZM27.225 29.2632H28.925C29.0377 29.2632 29.1458 29.2216 29.2255 29.1475C29.3052 29.0735 29.35 28.9731 29.35 28.8684V27.2895C29.35 27.1848 29.3052 27.0844 29.2255 27.0104C29.1458 26.9363 29.0377 26.8947 28.925 26.8947H27.225C27.1123 26.8947 27.0042 26.9363 26.9245 27.0104C26.8448 27.0844 26.8 27.1848 26.8 27.2895V28.8684C26.8 28.9731 26.8448 29.0735 26.9245 29.1475C27.0042 29.2216 27.1123 29.2632 27.225 29.2632ZM27.65 27.6842H28.5V28.4737H27.65V27.6842ZM34.875 30.0526H36.575C36.6877 30.0526 36.7958 30.011 36.8755 29.937C36.9552 29.863 37 29.7626 37 29.6579V28.0789C37 27.9743 36.9552 27.8739 36.8755 27.7998C36.7958 27.7258 36.6877 27.6842 36.575 27.6842H34.875C34.7623 27.6842 34.6542 27.7258 34.5745 27.7998C34.4948 27.8739 34.45 27.9743 34.45 28.0789V29.6579C34.45 29.7626 34.4948 29.863 34.5745 29.937C34.6542 30.011 34.7623 30.0526 34.875 30.0526ZM35.3 28.4737H36.15V29.2632H35.3V28.4737ZM34.875 34H36.575C36.6877 34 36.7958 33.9584 36.8755 33.8844C36.9552 33.8104 37 33.71 37 33.6053V32.0263C37 31.9216 36.9552 31.8212 36.8755 31.7472C36.7958 31.6732 36.6877 31.6316 36.575 31.6316H34.875C34.7623 31.6316 34.6542 31.6732 34.5745 31.7472C34.4948 31.8212 34.45 31.9216 34.45 32.0263V33.6053C34.45 33.71 34.4948 33.8104 34.5745 33.8844C34.6542 33.9584 34.7623 34 34.875 34ZM35.3 32.4211H36.15V33.2105H35.3V32.4211Z" fill="#494949"/>
<path d="M32.5833 419C32.3333 419 32.1667 418.835 32.1667 418.586V418.421V418.09C32.1667 413.128 30.25 408.827 28 408.827C25.75 408.827 23.8333 413.045 23.8333 418.09V418.586C23.8333 418.835 23.6667 419 23.4167 419C23.1667 419 23 418.835 23 418.586V418.421V418.09C23 412.466 25.1667 408 28 408C30.8333 408 33 412.383 33 418.09V418.586C33 418.835 32.8333 419 32.5833 419Z" fill="#2E7CF6"/>
<path d="M28.5 408C28.2 408 28 407.909 28 407.773V407.227C28 407.091 28.2 407 28.5 407C28.8 407 29 407.091 29 407.227V407.773C29 407.909 28.8 408 28.5 408Z" fill="#2E7CF6"/>
<path d="M32.5455 419H32.4628C32.2975 419 32.1322 418.917 32.0496 418.752C31.719 417.759 29.9835 416.932 28 416.932C26.0165 416.932 24.281 417.677 23.9504 418.669C23.8678 418.835 23.7025 418.917 23.5372 418.917H23.4545H23.2893C23.124 418.917 23.0413 418.752 23.0413 418.669C22.7107 417.511 21.719 416.684 20.4793 416.684C19.8182 416.684 19.2397 416.932 18.7438 417.346C18.5785 417.429 18.4132 417.511 18.2479 417.429C18.0826 417.346 18 417.18 18 417.015C18.5785 411.887 22.876 408 28 408C33.124 408 37.4215 411.887 38 417.015C38 417.18 37.9174 417.346 37.7521 417.429C37.5868 417.511 37.4215 417.511 37.2562 417.346C36.7603 416.932 36.1818 416.684 35.5207 416.684C34.3636 416.684 33.2893 417.511 32.9587 418.669C32.9587 418.835 32.7934 418.917 32.7107 418.917H32.5455C32.6281 419 32.6281 419 32.5455 419V419ZM28 416.105C29.9835 416.105 31.719 416.767 32.5455 417.759C33.124 416.602 34.281 415.857 35.6033 415.857C36.0992 415.857 36.595 415.94 37.0083 416.188C36.1818 411.97 32.3802 408.827 28 408.827C23.6198 408.827 19.8182 411.97 18.9917 416.188C19.405 416.023 19.9008 415.857 20.3967 415.857C21.719 415.857 22.9587 416.602 23.4545 417.759C24.281 416.85 26.0165 416.105 28 416.105V416.105Z" fill="#2E7CF6"/>
<path d="M26.5 431C25.0577 431 24 430.012 24 428.859V428.529C24 428.282 24.1923 428.118 24.4808 428.118C24.7692 428.118 24.9615 428.282 24.9615 428.529V428.776C24.9615 429.518 25.6346 430.094 26.5 430.094C27.3654 430.094 28.0385 429.518 28.0385 428.776V417.412C28.0385 417.165 28.2308 417 28.5192 417C28.8077 417 29 417.165 29 417.412V428.776C29 430.012 27.8462 431 26.5 431Z" fill="#2E7CF6"/>
<path d="M24.2404 578.996L26.3549 576.488C26.5477 576.259 26.5228 575.913 26.2992 575.716C26.0755 575.518 25.7379 575.544 25.545 575.773L23.1298 578.638C22.9569 578.843 22.9567 579.147 23.1293 579.352L25.5445 582.226C25.6503 582.352 25.7998 582.417 25.9502 582.417C26.0736 582.417 26.1976 582.373 26.2986 582.285C26.5225 582.087 26.5479 581.742 26.3554 581.513L24.2404 578.996ZM31.4554 575.773C31.2628 575.544 30.9252 575.518 30.7014 575.715C30.4774 575.912 30.452 576.258 30.6446 576.487L32.7596 579.004L30.6451 581.512C30.4522 581.741 30.4771 582.087 30.7008 582.284C30.8018 582.373 30.9261 582.417 31.0498 582.417C31.1999 582.417 31.3492 582.353 31.4549 582.227L33.8702 579.362C34.0431 579.156 34.0433 578.853 33.8707 578.647L31.4554 575.773ZM29.5967 575.023C29.3138 574.937 29.0158 575.101 28.9312 575.39L26.9125 582.296C26.8278 582.585 26.9885 582.89 27.2715 582.977C27.3226 582.993 27.3742 583 27.4249 583C27.6551 583 27.8677 582.847 27.937 582.609L29.9557 575.704C30.0404 575.415 29.8796 575.11 29.5967 575.023Z" fill="#FDB440"/>
<path d="M39.8252 569H17.1748C16.527 569 16 569.535 16 570.194V585.806C16 586.465 16.527 587 17.1748 587H39.8252C40.473 587 41 586.465 41 585.806V570.194C41 569.535 40.473 569 39.8252 569ZM17.1748 569.955H39.8252C39.9547 569.955 40.0602 570.062 40.0602 570.194V572.008H16.9398V570.194C16.9398 570.062 17.0453 569.955 17.1748 569.955ZM39.8252 586.045H17.1748C17.0453 586.045 16.9398 585.938 16.9398 585.806V572.963H40.0602V585.806C40.0602 585.938 39.9547 586.045 39.8252 586.045Z" fill="#FDB440"/>
<path d="M30.7419 176C30.5704 176 30.399 175.915 30.3132 175.661L29.1988 171.678C28.4273 168.967 29.9703 166.17 32.6278 165.323L39.4857 163.035C39.6571 162.95 39.7428 163.035 39.9143 163.12C39.9143 163.12 40 163.205 40 163.374V170.577C40 173.373 37.7712 175.661 34.9423 175.746L30.7419 176V176ZM39.1428 163.967L32.7992 166.086C30.5704 166.848 29.2846 169.221 29.9703 171.424L30.999 175.068L34.8566 174.898C37.1711 174.814 39.057 172.865 39.057 170.492L39.1428 163.967V163.967Z" fill="#67CE67"/>
<path d="M35.5294 169.035C35.3647 169.035 35.1176 168.872 35.1176 168.709C35.1176 168.465 35.2 168.302 35.4471 168.221L37.5059 167.895C37.7529 167.895 37.9176 167.977 38 168.221C38 168.465 37.9176 168.628 37.6706 168.709L35.5294 169.035ZM34.2941 170.663C34.1294 170.663 33.8824 170.5 33.8824 170.337L33.3882 167.488C33.3882 167.244 33.4706 167.081 33.7176 167C33.9647 167 34.1294 167.081 34.2118 167.326L34.7059 170.174C34.7059 170.419 34.5412 170.663 34.2941 170.663ZM33.0588 172.372C32.8941 172.372 32.6471 172.209 32.6471 172.047C32.6471 171.802 32.7294 171.64 32.9765 171.558L35.8588 171.07C36.1059 171.07 36.2706 171.151 36.3529 171.395C36.3529 171.64 36.2706 171.802 36.0235 171.884L33.0588 172.372C33.0588 172.372 33.1412 172.372 33.0588 172.372ZM31.8235 174C31.6588 174 31.4118 173.837 31.4118 173.674L31 171.314C31 171.07 31.0824 170.907 31.3294 170.826C31.5765 170.826 31.7412 170.907 31.8235 171.151L32.2353 173.512C32.3176 173.756 32.1529 174 31.8235 174C31.9059 174 31.9059 174 31.8235 174V174Z" fill="#67CE67"/>
<path d="M30.776 176C30.6901 176 30.6042 176 30.5183 175.914C30.3465 175.741 30.2606 175.483 30.4324 175.31L37.2191 165.828C37.3909 165.655 37.6486 165.569 37.8204 165.741C37.9923 165.914 38.0782 166.172 37.9063 166.345L31.1197 175.828C31.0338 175.914 30.862 176 30.776 176V176ZM26.223 175.483L21.584 175.224C18.4913 175.052 16.0859 172.552 16.0859 169.448L16 161.431C16 161.259 16.0859 161.172 16.1718 161.086C16.2577 161 16.4295 161 16.6014 161L24.1612 163.586C27.082 164.621 28.7143 167.724 27.8552 170.655L26.5666 175.138C26.5666 175.397 26.3948 175.483 26.223 175.483V175.483ZM16.8591 162.034L16.945 169.448C16.945 172.121 19.0068 174.276 21.6699 174.362L25.9652 174.534L27.082 170.397C27.7693 167.897 26.3948 165.224 23.9035 164.362L16.8591 162.034Z" fill="#67CE67"/>
<path d="M20.7709 168.256L18.3659 167.912C18.1082 167.912 17.9364 167.654 18.0223 167.397C18.0223 167.139 18.28 166.967 18.5377 167.053L20.8568 167.397C21.1145 167.397 21.2863 167.654 21.2004 167.912C21.2004 168.17 21.0286 168.256 20.7709 168.256V168.256ZM22.2311 170.232C22.1452 170.232 22.1452 170.232 22.2311 170.232C21.8875 170.146 21.8017 169.974 21.8017 169.716L22.317 166.366C22.317 166.108 22.5747 165.936 22.8324 166.022C23.0901 166.022 23.2618 166.28 23.176 166.538L22.6606 169.888C22.5747 170.06 22.4029 170.232 22.2311 170.232ZM23.6054 172.207C23.6054 172.207 23.5195 172.207 23.6054 172.207L20.1697 171.692C19.912 171.692 19.7402 171.434 19.8261 171.176C19.8261 170.919 20.0838 170.747 20.3415 170.833L23.6913 171.348C23.949 171.348 24.1208 171.606 24.0349 171.864C23.949 172.035 23.7772 172.207 23.6054 172.207ZM24.9797 174.097C24.6361 174.011 24.5502 173.839 24.5502 173.582L24.9797 170.833C24.9797 170.575 25.2374 170.403 25.4951 170.489C25.7528 170.489 25.9245 170.747 25.8386 171.005L25.4092 173.753C25.4092 173.925 25.2374 174.097 24.9797 174.097V174.097ZM27.7283 182C27.4706 182 27.2988 181.828 27.2988 181.57C27.2988 181.227 27.3847 180.883 27.3847 180.54C27.5565 179.423 28.0719 178.392 28.759 177.447L30.2192 175.471C30.391 175.3 30.6487 175.214 30.8205 175.386C30.9923 175.557 31.0781 175.815 30.9064 175.987L29.4462 177.963C28.8449 178.736 28.4155 179.681 28.2437 180.711C28.1578 180.969 28.1578 181.313 28.1578 181.656C28.1578 181.828 27.986 182 27.7283 182V182Z" fill="#67CE67"/>
<path d="M26.045 185C25.9604 185 25.8758 185 25.7912 184.914C25.622 184.741 25.5374 184.483 25.7066 184.311C26.4681 183.276 26.9757 181.983 27.1449 180.691V180.26C27.2295 178.536 26.7219 176.898 25.7912 175.519L18.0922 164.66C17.923 164.488 18.0076 164.229 18.1768 164.057C18.346 163.97 18.6845 163.97 18.7691 164.143L26.4681 175.002C27.5679 176.554 28.0755 178.364 27.9909 180.26V180.691C27.8217 182.156 27.3141 183.535 26.4681 184.741C26.2988 184.914 26.2142 185 26.045 185V185Z" fill="#67CE67"/>
</svg>
