<svg width="75" height="75" viewBox="0 0 75 75" fill="none" xmlns="http://www.w3.org/2000/svg">
<path d="M73.4375 43.75V31.25H66.5156C65.7846 27.7525 64.4239 24.4171 62.5 21.4062L67.4062 16.5L58.5 7.67187L53.5937 12.5781C50.5885 10.6267 47.2527 9.23947 43.75 8.48437V1.5625H31.25V8.48437C27.7473 9.23947 24.4115 10.6267 21.4062 12.5781L16.5 7.67187L7.67187 16.5L12.5781 21.4062C10.6267 24.4115 9.23947 27.7473 8.48437 31.25H1.5625V43.75H8.48437C9.23947 47.2527 10.6267 50.5885 12.5781 53.5937L7.67187 58.5L16.5 67.3281L21.4062 62.5C24.4171 64.4239 27.7525 65.7846 31.25 66.5156V73.4375H43.75V66.5156C47.2475 65.7846 50.5829 64.4239 53.5937 62.5L58.5 67.4062L67.3281 58.5781L62.5 53.5937C64.4239 50.5829 65.7846 47.2475 66.5156 43.75H73.4375Z" fill="#F1F1F1"/>
<path d="M75 45.3125V29.6875H67.75C67.0241 26.8597 65.8981 24.1501 64.4063 21.6406L69.5469 16.5L58.5 5.45313L53.3594 10.5938C50.8512 9.09919 48.1412 7.97308 45.3125 7.25V0H29.6875V7.25C26.8588 7.97308 24.1488 9.09919 21.6406 10.5938L16.5 5.45313L5.45313 16.5L10.5938 21.6406C9.10188 24.1501 7.97594 26.8597 7.25 29.6875H0V45.3125H7.25C7.97594 48.1403 9.10188 50.8499 10.5938 53.3594L5.45313 58.5L16.5 69.5469L21.6406 64.4063C24.1488 65.9008 26.8588 67.0269 29.6875 67.75V75H45.3125V67.75C48.1412 67.0269 50.8512 65.9008 53.3594 64.4063L58.5 69.5469L69.5469 58.5L64.4063 53.3594C65.8981 50.8499 67.0241 48.1403 67.75 45.3125H75ZM60.4375 53.7969L65.125 58.4844L58.5 65.1094L53.8125 60.4219C50.3448 62.8757 46.3733 64.5251 42.1875 65.25V71.875H32.8125V65.25C28.6315 64.525 24.6652 62.8754 21.2031 60.4219L16.5156 65.1094L9.875 58.5L14.5625 53.8125C12.1137 50.3436 10.4696 46.3722 9.75 42.1875H3.125V32.8125H9.75C10.4647 28.6312 12.1094 24.6638 14.5625 21.2031L9.875 16.5156L16.5 9.89062L21.1875 14.5781C24.6552 12.1243 28.6267 10.4749 32.8125 9.75V3.125H42.1875V9.75C46.3685 10.475 50.3348 12.1246 53.7969 14.5781L58.4844 9.89062L65.1094 16.5156L60.4219 21.2031C62.8741 24.666 64.5234 28.632 65.25 32.8125H71.875V42.1875H65.25C64.5353 46.3688 62.8906 50.3362 60.4375 53.7969V53.7969Z" fill="#FE5F55"/>
<path d="M57.875 37.5C57.875 48.7528 48.7528 57.875 37.5 57.875C26.2472 57.875 17.125 48.7528 17.125 37.5C17.125 26.2472 26.2472 17.125 37.5 17.125C48.7528 17.125 57.875 26.2472 57.875 37.5Z" fill="white" stroke="#FE5F55" stroke-width="3"/>
<path d="M28.5781 44.8594L21.2344 37.5L28.5781 30.1406L30.7969 32.3594L25.6406 37.5L30.7969 42.6406L28.5781 44.8594Z" fill="#577399"/>
<path d="M46.4219 44.8594L44.2031 42.6406L49.3594 37.5L44.2031 32.3594L46.4219 30.1406L53.7656 37.5L46.4219 44.8594Z" fill="#577399"/>
<path d="M39.1132 26.1307L32.8691 48.0071L35.8741 48.8648L42.1182 26.9884L39.1132 26.1307Z" fill="#577399"/>
</svg>
