<svg width="219" height="76" viewBox="0 0 219 76" fill="none" xmlns="http://www.w3.org/2000/svg">
<path d="M164.82 9.69164C164.46 9.56894 164.097 9.45527 163.731 9.35074C163.792 9.10583 163.848 8.85982 163.899 8.61285C164.724 4.63741 164.185 1.4348 162.344 0.380548C160.579 -0.630567 157.692 0.423681 154.776 2.94374C154.489 3.19262 154.208 3.44868 153.934 3.71167C153.75 3.5368 153.563 3.36532 153.373 3.19733C150.318 0.502513 147.255 -0.632947 145.416 0.424425C143.652 1.43837 143.13 4.44925 143.872 8.21677C143.946 8.58986 144.03 8.96103 144.122 9.32991C143.689 9.45218 143.27 9.58247 142.87 9.72109C139.288 10.9616 137 12.9059 137 14.9224C137 17.0053 139.456 19.0945 143.187 20.3612C143.49 20.4634 143.795 20.5581 144.102 20.6452C144.002 21.0427 143.914 21.4428 143.836 21.8451C143.129 25.5472 143.681 28.4867 145.44 29.4944C147.257 30.5348 150.306 29.4654 153.274 26.8877C153.509 26.684 153.745 26.4679 153.98 26.2413C154.278 26.526 154.583 26.8024 154.895 27.0702C157.771 29.5281 160.611 30.5206 162.368 29.5103C164.183 28.4667 164.773 25.3089 164.007 21.4669C163.949 21.1734 163.881 20.8737 163.804 20.5685C164.018 20.5057 164.228 20.4409 164.433 20.3734C168.312 19.0969 170.836 17.0332 170.836 14.9224C170.836 12.8986 168.475 10.9412 164.82 9.69164V9.69164Z" fill="#53C1DE"/>
<path d="M163.57 18.9685C163.389 19.0287 163.203 19.0868 163.014 19.1432C162.594 17.8107 162.029 16.3938 161.336 14.93C161.997 13.5009 162.541 12.1022 162.948 10.7782C163.287 10.8769 163.616 10.9806 163.933 11.0903C166.999 12.1496 168.868 13.716 168.868 14.923C168.868 16.2086 166.849 17.8777 163.57 18.9685H163.57ZM162.21 21.675C162.541 23.3562 162.588 24.8761 162.369 26.0643C162.172 27.132 161.775 27.8438 161.284 28.1289C160.24 28.7356 158.008 27.947 155.6 25.867C155.324 25.6285 155.046 25.3739 154.767 25.1046C155.701 24.0796 156.634 22.888 157.544 21.5648C159.145 21.4222 160.658 21.1889 162.03 20.8705C162.098 21.1443 162.158 21.4126 162.21 21.675V21.675ZM148.451 28.0241C147.431 28.3857 146.619 28.396 146.128 28.1118C145.083 27.5069 144.649 25.1711 145.241 22.0383C145.312 21.668 145.392 21.2998 145.483 20.9341C146.84 21.2354 148.342 21.4522 149.947 21.5829C150.864 22.8777 151.823 24.0678 152.791 25.11C152.585 25.3097 152.375 25.5042 152.159 25.6934C150.874 26.8215 149.586 27.6216 148.451 28.0241H148.451ZM143.673 18.9605C142.058 18.4062 140.724 17.6859 139.81 16.8999C138.988 16.1934 138.573 15.4921 138.573 14.923C138.573 13.7121 140.372 12.1674 143.371 11.1175C143.747 10.9863 144.128 10.8662 144.511 10.7573C144.926 12.111 145.469 13.5263 146.125 14.9575C145.461 16.4101 144.909 17.8479 144.491 19.2175C144.216 19.1386 143.944 19.0529 143.673 18.9605V18.9605ZM145.275 8.01442C144.652 4.82008 145.066 2.41053 146.106 1.8059C147.214 1.16182 149.665 2.08025 152.248 4.38265C152.413 4.52984 152.578 4.68394 152.745 4.84334C151.782 5.88084 150.831 7.06199 149.923 8.34927C148.365 8.49424 146.874 8.72709 145.503 9.03897C145.418 8.69938 145.342 8.35771 145.275 8.01427V8.01442ZM159.564 11.5567C159.24 10.9951 158.904 10.4406 158.556 9.89352C159.613 10.0275 160.626 10.2056 161.577 10.4235C161.291 11.3421 160.935 12.3026 160.516 13.2873C160.21 12.7041 159.893 12.1271 159.564 11.5567V11.5567ZM153.737 5.85862C154.389 6.56848 155.043 7.36122 155.686 8.22122C154.382 8.15934 153.075 8.15904 151.771 8.22033C152.414 7.36828 153.074 6.57673 153.737 5.85862V5.85862ZM147.872 11.5664C147.547 12.1323 147.236 12.7058 146.937 13.2863C146.525 12.305 146.173 11.3402 145.885 10.4085C146.83 10.1961 147.838 10.0226 148.888 9.89087C148.536 10.4413 148.198 11 147.872 11.5664V11.5664ZM148.918 20.0564C147.833 19.9349 146.81 19.7702 145.865 19.5637C146.158 18.6155 146.518 17.63 146.939 16.6276C147.239 17.2086 147.552 17.7824 147.878 18.3485C148.211 18.926 148.558 19.4955 148.918 20.0564V20.0564ZM153.776 24.0877C153.105 23.361 152.436 22.5574 151.783 21.693C152.417 21.718 153.064 21.7307 153.721 21.7307C154.396 21.7307 155.063 21.7155 155.72 21.6861C155.075 22.5662 154.424 23.371 153.776 24.0877ZM160.53 16.5766C160.973 17.5898 161.346 18.57 161.642 19.5021C160.682 19.7222 159.645 19.8994 158.552 20.031C158.902 19.4737 159.241 18.9095 159.569 18.3387C159.902 17.7585 160.223 17.171 160.53 16.5766V16.5766ZM158.343 17.6289C157.842 18.5041 157.312 19.3626 156.754 20.2032C155.771 20.2737 154.756 20.31 153.721 20.31C152.69 20.31 151.687 20.2778 150.722 20.215C150.15 19.3764 149.61 18.5163 149.103 17.6367C148.598 16.7618 148.127 15.8679 147.69 14.9571C148.126 14.046 148.596 13.1516 149.099 12.276V12.2763C149.601 11.4005 150.137 10.5441 150.705 9.7091C151.69 9.63433 152.7 9.59518 153.721 9.59518C154.747 9.59518 155.758 9.63463 156.743 9.70998C157.305 10.5437 157.837 11.3971 158.339 12.2685C158.844 13.1422 159.32 14.0321 159.767 14.9369C159.324 15.8509 158.85 16.7488 158.344 17.6289H158.343ZM161.263 1.76366C162.372 2.40597 162.803 4.99597 162.106 8.39254C162.061 8.6138 162.011 8.83422 161.957 9.05369C160.583 8.73533 159.091 8.49836 157.528 8.35118C156.618 7.04992 155.675 5.86671 154.728 4.8426C154.976 4.60248 155.23 4.36858 155.49 4.14112C157.936 2.0043 160.221 1.16064 161.263 1.76366V1.76366Z" fill="white"/>
<path d="M153.918 12.1968C155.439 12.1968 156.672 13.4299 156.672 14.9508C156.672 16.4719 155.439 17.705 153.918 17.705C152.397 17.705 151.164 16.4719 151.164 14.9508C151.164 13.4299 152.397 12.1968 153.918 12.1968" fill="#53C1DE"/>
<path d="M218.893 2H189.009C189.004 2 189 2.00392 189 2.00876V31.8929C189 31.8977 189.004 31.9016 189.009 31.9016H218.893C218.898 31.9016 218.902 31.8977 218.902 31.8929V2.00876C218.902 2.00392 218.898 2 218.893 2Z" fill="#F7DF1E"/>
<path d="M207.889 23.4426C208.472 24.418 209.29 25.1065 210.632 25.1065C211.8 25.1065 212.559 24.5327 212.559 23.7295C212.559 22.8114 211.8 22.4672 210.516 21.8934L209.815 21.6065C207.772 20.7458 206.429 19.7131 206.429 17.4754C206.429 15.4098 208.005 13.8032 210.516 13.8032C212.325 13.8032 213.609 14.4344 214.485 16.0409L212.325 17.418C211.858 16.5573 211.333 16.2131 210.516 16.2131C209.698 16.2131 209.173 16.7295 209.173 17.418C209.173 18.2213 209.698 18.5655 210.924 19.0819L211.625 19.3688C214.018 20.4016 215.361 21.377 215.361 23.7295C215.361 26.1967 213.376 27.5737 210.691 27.5737C208.064 27.5737 206.371 26.3688 205.554 24.7622L207.889 23.4426ZM197.965 23.6721C198.432 24.418 198.782 25.1065 199.775 25.1065C200.709 25.1065 201.292 24.7622 201.292 23.3852V13.8606H204.094V23.2704C204.094 26.1393 202.402 27.4016 199.891 27.4016C197.615 27.4016 196.331 26.254 195.688 24.877L197.965 23.6721Z" fill="black"/>
<path d="M116.328 0H91.4098C90.0331 0 88.918 1.11633 88.918 2.4918V27.4098C88.918 28.7853 90.0331 29.9016 91.4098 29.9016H116.328C117.703 29.9016 118.82 28.7853 118.82 27.4098V2.4918C118.82 1.11633 117.703 0 116.328 0ZM111.11 20.9972V20.9997C110.862 21.6002 110.466 22.1285 109.96 22.5371C109.437 22.9607 108.774 23.3096 107.959 23.5588C107.144 23.8117 106.176 23.9388 105.052 23.9388H97.0388V6.49613H105.515C107.082 6.49613 108.338 6.84872 109.276 7.56761C110.223 8.29023 110.695 9.36669 110.695 10.8194C110.695 11.6978 110.48 12.4515 110.048 13.0745C109.62 13.6937 109.002 14.1784 108.205 14.5148V14.5721C109.269 14.7963 110.092 15.3022 110.633 16.0871C111.176 16.872 111.453 17.8625 111.453 19.061C111.453 19.7313 111.323 20.3692 111.079 20.9648L111.11 20.9972Z" fill="#543B79"/>
<path d="M107.811 16.8424C107.306 16.3703 106.595 16.1399 105.677 16.1399H100.349V21.6392H105.693C106.604 21.6392 107.32 21.3975 107.826 20.909C108.331 20.4243 108.59 19.7331 108.59 18.8442C108.582 17.9755 108.331 17.3032 107.826 16.8424H107.811V16.8424ZM107.065 13.2882H107.071C107.56 12.8652 107.799 12.2596 107.799 11.4702C107.799 10.5838 107.582 9.9543 107.144 9.59423C106.71 9.23541 106.084 9.04907 105.26 9.04907H100.328V13.9127H105.26C105.98 13.9127 106.593 13.6986 107.065 13.2882Z" fill="#543B79"/>
<path d="M103.869 6.68848H97.1807V24H103.869V21.5281H100.191V16.1269H103.869V13.9395H100.171V9.16278H103.869V6.68848Z" fill="#DEDEDE"/>
<path d="M103.869 0H91.4098C90.0331 0 88.918 1.11633 88.918 2.4918V27.4098C88.918 28.7853 90.0331 29.9016 91.4098 29.9016H103.869V23.9388H97.0388V6.49613H103.869V0Z" fill="#493369"/>
<path d="M103.869 16.1311H100.328V21.6393H103.869V16.1311Z" fill="#493369"/>
<path d="M68.3495 26.9937L57.6399 29.9016L46.9303 26.9937L44.459 0H70.8196L68.3495 26.9937Z" fill="#2062AF"/>
<path d="M57.8359 1.96852V27.1414L57.8614 27.1476L66.7909 24.8148L68.8523 1.96729L57.8359 1.96852Z" fill="#3C9CD7"/>
<path d="M57.5655 8.94868L49.9668 12.1627L50.2191 15.3444L57.5655 12.1552L65.3811 8.76211L65.7045 5.5083L57.5655 8.94868Z" fill="white"/>
<path d="M49.9668 12.2125L50.2281 15.3442L57.8356 12.2052V9.04907L49.9668 12.2125Z" fill="url(#paint0_linear)"/>
<path d="M65.7048 5.5083L57.8359 8.76775V11.8034L65.3921 8.58988L65.7048 5.5083Z" fill="url(#paint1_linear)"/>
<path d="M49.9668 11.8058L50.2293 15.1253L61.9574 15.1629L61.6949 19.5881L57.8356 20.6937L54.1255 19.7399L53.9012 16.9927H50.4537L50.9036 22.295L57.8726 24.3934L64.8047 22.3327L65.7045 11.8032H49.9668V11.8058Z" fill="url(#paint2_linear)"/>
<path opacity="0.05" d="M57.8356 11.8032H49.9668L50.2281 15.1234L57.8356 15.1481V11.8032ZM57.8356 20.6825L57.7989 20.6929L54.1074 19.7389L53.8841 16.9912H50.4514L50.8992 22.2946L57.8356 24.3934V20.6825Z" fill="black"/>
<path d="M49.5742 5.5083H65.7054L65.3877 9.04928H49.9629L49.5742 5.5083Z" fill="url(#paint3_linear)"/>
<path opacity="0.05" d="M57.8365 5.5083H49.5742L49.9689 9.04928H57.8365V5.5083Z" fill="black"/>
<path d="M2.39914 26.9127L0 0H26.3607L23.959 26.909L13.1641 29.9016L2.39914 26.9127Z" fill="#E44D26"/>
<path d="M13.377 27.5409L21.976 25.1436L23.9999 2.3606H13.377V27.5409Z" fill="#F16529"/>
<path d="M13.3774 12.2591H8.81045L8.49382 8.84403H13.3774V5.5083H4.72168L4.80377 6.40328L5.65201 15.5923H13.3774V12.2591ZM13.3774 20.9194L13.3618 20.9231L9.51797 19.9199L9.27171 17.2601H5.80707L6.29048 22.4966L13.3618 24.3935L13.3774 24.3885V20.9194Z" fill="#EBEBEB"/>
<path d="M13.377 12.26V15.5949H17.2462L16.8809 19.9206L13.377 20.9239V24.3935L19.8169 22.4989L19.8644 21.9349L20.6031 13.1551L20.679 12.2587H19.8324H13.377V12.26ZM13.377 5.5083V8.84447H20.9648L21.0276 8.09415L21.1711 6.4034L21.2458 5.5083H13.377V5.5083Z" fill="white"/>
<path d="M13.377 8.8023H8.63863L8.94458 12.1824H13.3644H13.377V8.8023ZM13.377 0H0L2.43495 26.9127L13.3606 29.9016L13.377 29.8967V24.1879L13.3619 24.1929L6.50078 22.3153L6.03175 17.1324H9.39339L9.63233 19.765L13.3619 20.758L13.3657 20.7567L13.377 20.7542V15.4828H5.8813L5.05827 6.38774L4.97862 5.50066H13.3657H13.377V0Z" fill="#C64321"/>
<path d="M9.27171 17.2601H5.80707L6.29048 22.4966L13.3618 24.3935L13.3774 24.3885L13.3657 24.391V20.9219L13.3618 20.9231L9.51797 19.9199L9.27171 17.2601ZM13.3657 5.5083H4.72168L4.80377 6.40328L5.65201 15.5923H13.3774H13.3657V12.2591H8.81045L8.49382 8.84403H13.3774H13.3657V5.5083Z" fill="#CDCDCD"/>
<path d="M33.8917 57.5574C33.8443 57.5575 33.7978 57.5698 33.7566 57.5933C33.7158 57.6173 33.6818 57.6514 33.6581 57.6925C33.6345 57.7335 33.6219 57.78 33.6217 57.8274V64.7119C33.6217 64.7795 33.5903 64.84 33.5317 64.8739C33.5031 64.8906 33.4705 64.8994 33.4373 64.8994C33.404 64.8994 33.3714 64.8906 33.3428 64.8739L32.2178 64.226C32.1357 64.1785 32.0426 64.1535 31.9478 64.1535C31.853 64.1535 31.7599 64.1785 31.6778 64.226L27.1872 66.8177C27.0193 66.9147 26.9172 67.1009 26.9172 67.2948V72.4784C26.9172 72.672 27.0194 72.8494 27.1872 72.9463L31.6778 75.5382C31.7599 75.5858 31.853 75.6109 31.9478 75.6109C32.0426 75.6109 32.1358 75.5858 32.2178 75.5382L36.7085 72.9463C36.7907 72.899 36.859 72.8308 36.9064 72.7486C36.9538 72.6665 36.9787 72.5733 36.9785 72.4784V59.5553C36.9784 59.4582 36.9525 59.3629 36.9035 59.2791C36.8545 59.1953 36.7842 59.126 36.6996 59.0783L34.0267 57.5843C33.9848 57.5609 33.9383 57.5568 33.8917 57.5574V57.5574ZM5.00364 64.028C4.91808 64.0314 4.83753 64.0464 4.76073 64.0909L0.269921 66.6828C0.187659 66.73 0.11936 66.7982 0.0719558 66.8804C0.0245511 66.9626 -0.000272929 67.0558 2.26335e-06 67.1507L0.00900791 74.1074C0.00900791 74.2041 0.0589141 74.294 0.143967 74.3413C0.184744 74.3658 0.231418 74.3788 0.278989 74.3788C0.32656 74.3788 0.373235 74.3658 0.414011 74.3413L3.0778 72.8115C3.24654 72.7112 3.35673 72.5368 3.35673 72.3434V69.0947C3.35673 68.9008 3.45867 68.7229 3.62677 68.6266L4.76061 67.9697C4.84259 67.922 4.93582 67.8972 5.03065 67.8977C5.12321 67.8977 5.21827 67.9208 5.30057 67.9697L6.43453 68.6266C6.51687 68.6738 6.58523 68.742 6.63267 68.8242C6.6801 68.9064 6.70491 68.9997 6.70458 69.0947V72.3433C6.70458 72.5367 6.81589 72.7123 6.9835 72.8114L9.64729 74.3413C9.68807 74.3658 9.73474 74.3788 9.78232 74.3788C9.82989 74.3788 9.87656 74.3658 9.91734 74.3413C9.95838 74.3176 9.99246 74.2834 10.0162 74.2424C10.0399 74.2013 10.0524 74.1547 10.0524 74.1073L10.0612 67.1507C10.0617 67.0558 10.037 66.9624 9.98956 66.8802C9.94213 66.798 9.87369 66.7298 9.79126 66.6828L5.30057 64.0909C5.22465 64.0464 5.14385 64.0315 5.05767 64.028H5.00364ZM45.3569 64.0909C45.2631 64.0909 45.1712 64.1147 45.087 64.1629L40.5963 66.7548C40.5141 66.8021 40.4458 66.8703 40.3984 66.9525C40.3509 67.0346 40.3261 67.1279 40.3263 67.2227V72.4064C40.3263 72.6013 40.4361 72.778 40.6052 72.8744L45.06 75.4122C45.2244 75.506 45.4253 75.5132 45.5909 75.421L48.2907 73.9182C48.3764 73.8706 48.4343 73.7818 48.4347 73.6843C48.4352 73.6368 48.4229 73.59 48.3992 73.5489C48.3754 73.5077 48.3411 73.4737 48.2997 73.4503L43.782 70.8584C43.6975 70.8101 43.6381 70.7124 43.6381 70.6154V68.9956C43.6381 68.8987 43.6981 68.8099 43.782 68.7616L45.1859 67.9516C45.227 67.9278 45.2735 67.9153 45.3209 67.9153C45.3684 67.9153 45.4149 67.9278 45.456 67.9516L46.8597 68.7616C46.9008 68.7852 46.935 68.8193 46.9587 68.8603C46.9824 68.9014 46.9949 68.948 46.9948 68.9955V70.2734C46.9947 70.3208 47.0071 70.3674 47.0308 70.4085C47.0545 70.4496 47.0886 70.4837 47.1298 70.5073C47.2139 70.5559 47.3158 70.5561 47.3997 70.5073L50.0906 68.9417C50.1727 68.8942 50.2409 68.8259 50.2883 68.7438C50.3357 68.6616 50.3606 68.5685 50.3607 68.4736V67.2229C50.3607 67.0296 50.2581 66.8519 50.0906 66.7548L45.6269 64.1629C45.5449 64.1155 45.4517 64.0907 45.3569 64.091V64.0909ZM31.9297 67.9607C31.9533 67.9607 31.9808 67.9664 32.0018 67.9786L33.5408 68.8695C33.5825 68.8937 33.6128 68.9383 33.6128 68.9865V70.7683C33.6128 70.8167 33.5828 70.8613 33.5408 70.8854L32.0018 71.7763C31.9812 71.7881 31.958 71.7942 31.9343 71.7942C31.9106 71.7942 31.8874 71.7881 31.8668 71.7763L30.328 70.8854C30.2861 70.8611 30.2559 70.8167 30.2559 70.7683V68.9865C30.2559 68.9382 30.2862 68.8939 30.328 68.8695L31.8668 67.9787C31.8857 67.9669 31.9076 67.9607 31.9299 67.9608V67.9607H31.9297Z" fill="#404137"/>
<path d="M18.4935 64.0637C18.4 64.0637 18.3074 64.0875 18.2236 64.1358L13.7329 66.7186C13.565 66.8153 13.4629 67.0019 13.4629 67.1956V72.3792C13.4629 72.5731 13.5651 72.7502 13.7329 72.8472L18.2236 75.439C18.3056 75.4866 18.3988 75.5117 18.4936 75.5117C18.5884 75.5117 18.6816 75.4866 18.7636 75.439L23.2543 72.8472C23.3365 72.7999 23.4047 72.7317 23.4521 72.6495C23.4995 72.5673 23.5244 72.4741 23.5242 72.3792V67.1956C23.5242 67.0017 23.4221 66.8153 23.2543 66.7186L18.7636 64.1358C18.6815 64.0884 18.5883 64.0635 18.4935 64.0637V64.0637ZM45.3477 68.6895C45.3298 68.6895 45.31 68.6895 45.2938 68.6985L44.4299 69.2024C44.4138 69.2114 44.4003 69.2244 44.3908 69.2402C44.3813 69.256 44.3762 69.2741 44.3759 69.2925V70.2824C44.3759 70.3196 44.3974 70.3538 44.4299 70.3724L45.2938 70.8674C45.3262 70.8861 45.3607 70.8861 45.3928 70.8674L46.2567 70.3723C46.2727 70.3633 46.2861 70.3503 46.2956 70.3345C46.3051 70.3187 46.3103 70.3008 46.3107 70.2824V69.2924C46.3103 69.274 46.3051 69.256 46.2956 69.2402C46.2861 69.2245 46.2727 69.2114 46.2567 69.2024L45.3928 68.6984C45.3767 68.689 45.3657 68.6896 45.3477 68.6896V68.6895Z" fill="#83CD29"/>
<path d="M79.3826 74.5631C79.0835 74.5631 78.8172 74.5447 78.5918 74.5119V75.5035C79.0548 75.6899 79.4379 75.7821 79.7514 75.7821C80.9253 75.7821 82.007 75.0651 82.9945 73.6228C84.2565 71.7584 85.2768 68.7652 86.0512 64.6514H84.2483C83.9246 67.1775 83.3551 69.5171 82.5377 71.658C82.595 71.2298 82.4537 70.478 82.1177 69.4003L80.6282 64.6514H78.7639L80.8413 71.0004C81.1527 71.9551 81.3125 72.5902 81.3125 72.8996C81.3125 73.3503 81.1117 73.7559 80.7081 74.1186C80.3721 74.4095 79.9317 74.5631 79.3826 74.5631Z" fill="#105E86"/>
<path d="M105.913 61.7356V72.8561H111.301V71.4917H107.726V61.7356H105.913Z" fill="#DE8A03"/>
<path d="M68.1307 63.9892H68.1512L71.0194 72.8582H72.4637L75.3525 63.9892H75.3688C75.67 66.7652 75.8605 69.7175 75.922 72.8582H77.8212H77.8273C77.7372 69.5003 77.4463 65.788 76.9505 61.7376H74.7071L71.9475 69.91H71.9311L69.196 61.7356H66.84C66.3934 65.1939 66.1127 68.9041 66 72.8561H67.7312C67.7865 69.6068 67.9197 66.6485 68.1307 63.9892Z" fill="#105E86"/>
<path d="M104.268 67.0891C104.268 63.4075 102.797 61.5657 99.8531 61.5657C98.4108 61.5657 97.284 62.0328 96.4727 62.9691C95.5917 63.9914 95.1492 65.4951 95.1492 67.4845C95.1492 69.439 95.5385 70.8751 96.3272 71.7868C97.0422 72.6145 98.124 73.0263 99.5704 73.0263C100.111 73.0263 100.607 72.9607 101.056 72.8276L103.77 74.3805L104.508 73.1287H104.502L102.42 72.1228C102.605 71.9712 102.783 71.8032 102.945 71.6208C103.828 70.6026 104.268 69.0907 104.268 67.0891ZM99.7548 71.6475C98.8431 71.6475 98.1772 71.3115 97.7511 70.6416L97.7552 70.6313C97.2942 69.9081 97.0648 68.7403 97.0648 67.1403C97.0648 64.3397 97.9334 62.9363 99.6667 62.9363C100.574 62.9363 101.244 63.2723 101.668 63.9422C102.127 64.6695 102.357 65.825 102.357 67.4066C102.357 70.2298 101.488 71.6475 99.7548 71.6475ZM93.0431 67.4332C93.0431 67.4332 91.4164 66.5175 90.6113 66.0852C89.7262 65.6037 89.2468 65.0342 89.2468 64.3765C89.2468 63.9463 89.4415 63.596 89.7549 63.3214C90.0663 63.0428 90.515 62.9076 91.0948 62.9076C91.8098 62.9076 92.5371 63.0633 93.2746 63.3706L93.711 62.4118C92.8505 61.8607 91.8917 61.5882 90.8428 61.5882C89.8184 61.5882 88.9887 61.8648 88.3433 62.4241C87.7021 62.9752 87.3804 63.7005 87.3804 64.606C87.3804 65.6939 87.8107 66.3577 88.6752 66.9743C88.6752 66.9743 90.265 67.8676 91.0579 68.2958C91.9143 68.767 92.3855 69.3324 92.3855 69.9962C92.3855 70.5186 92.156 70.9366 91.7709 71.2336C91.3816 71.5287 90.8469 71.6762 90.1667 71.6762C89.4353 71.6762 88.6261 71.461 87.7287 71.0165L87.2432 71.9753C88.286 72.6657 89.3534 73.0119 90.4658 73.0119C91.6561 73.0119 92.5965 72.7087 93.3033 72.1043C94.0081 71.502 94.3605 70.7256 94.3605 69.779L94.3727 69.7852C94.3707 68.7014 93.9302 68.0458 93.0431 67.4332Z" fill="#DE8A03"/>
<path d="M85.4817 67.2981H83.8058C83.4862 68.8305 83.0621 70.2851 82.5377 71.6578C82.595 71.2296 82.4537 70.4777 82.1177 69.4001L81.458 67.3001H79.6305L80.8413 71.0022C81.1527 71.9569 81.3125 72.592 81.3125 72.9014C81.3125 73.3521 81.1117 73.7577 80.7081 74.1204C80.3721 74.4133 79.9317 74.567 79.3826 74.567C79.0835 74.567 78.8172 74.5486 78.5918 74.5158V75.5074C79.0548 75.6938 79.4379 75.786 79.7514 75.786C80.9253 75.786 82.007 75.0689 82.9945 73.6266C83.9677 72.1843 84.7974 70.0741 85.4817 67.2981Z" fill="#0E5275"/>
<path d="M107.726 67.2981H105.913V72.8563H111.301V71.4919H107.726V67.2981Z" fill="#C17803"/>
<path d="M67.9156 67.2981H66.2807C66.1475 69.0928 66.0553 70.9469 66 72.8563H67.7312C67.764 70.8977 67.8254 69.0436 67.9156 67.2981ZM74.2748 67.2981H72.8284L71.9475 69.9082H71.9311L71.0563 67.2981H69.2227L71.0194 72.8584H72.4637L74.2748 67.2981ZM77.52 67.2981H75.668C75.7991 69.0825 75.8851 70.9346 75.922 72.8584H77.8212H77.8273C77.7802 71.1005 77.6778 69.2464 77.52 67.2981Z" fill="#0E5275"/>
<path d="M104.266 67.2981H102.357C102.357 67.335 102.357 67.3719 102.357 67.4087C102.357 70.2319 101.488 71.6476 99.7548 71.6476C98.8431 71.6476 98.1772 71.3116 97.7511 70.6416L97.7552 70.6314C97.3086 69.9307 97.0812 68.8183 97.0648 67.2981H95.1492C95.1492 67.3596 95.1472 67.421 95.1472 67.4845C95.1472 69.439 95.5364 70.8752 96.3252 71.7869C97.0402 72.6146 98.1219 73.0264 99.5683 73.0264C100.109 73.0264 100.605 72.9608 101.054 72.8276L103.768 74.3806L104.506 73.1288H104.5L102.418 72.1229C102.603 71.9713 102.781 71.8033 102.943 71.6209C103.797 70.6396 104.237 69.1952 104.266 67.2981ZM92.8014 67.2981H89.255C89.7897 67.5972 90.5724 68.0336 91.0579 68.2938C91.9143 68.765 92.3855 69.3304 92.3855 69.9942C92.3855 70.5167 92.156 70.9346 91.7709 71.2317C91.3816 71.5267 90.8469 71.6742 90.1667 71.6742C89.4353 71.6742 88.6261 71.4591 87.7287 71.0145L87.2432 71.9733C88.286 72.6637 89.3534 73.01 90.4658 73.01C91.6561 73.01 92.5965 72.7067 93.3033 72.1024C94.0081 71.5 94.3605 70.7236 94.3605 69.7771L94.3727 69.7832C94.3727 68.7015 93.9323 68.0479 93.0452 67.4354C93.0431 67.4333 92.9509 67.3821 92.8014 67.2981Z" fill="#C17803"/>
<path d="M99.6122 46.3213C99.3766 46.3213 99.2148 46.348 99.0488 46.3869V46.4135H99.0775C99.1881 46.6225 99.3766 46.7762 99.5159 46.9626C99.6266 47.1757 99.7208 47.3928 99.8314 47.6059L99.8581 47.5752C100.051 47.442 100.147 47.2289 100.147 46.9052L99.983 46.6245L99.6143 46.3152L99.6122 46.3213Z" fill="#105E86"/>
<path d="M114.544 61.545C114.147 61.0225 113.653 60.5657 113.121 60.1887C112.682 59.8937 111.723 59.4839 111.543 58.9902L111.516 58.9615C111.815 58.9349 112.172 58.8283 112.459 58.7484C112.924 58.6255 113.35 58.6542 113.831 58.5354C114.049 58.4821 114.268 58.4145 114.485 58.3469V58.224C114.239 57.9843 114.055 57.6565 113.801 57.4311C113.104 56.839 112.332 56.2613 111.539 55.7778C111.109 55.5073 110.564 55.3353 110.111 55.1058L109.578 54.8497C109.332 54.5567 109.189 54.1675 109.015 53.8171C108.622 53.0776 108.236 52.2581 107.894 51.4754C107.648 50.9489 107.499 50.4265 107.198 49.9409C105.784 47.6546 104.254 46.2696 101.9 44.9134C101.394 44.6327 100.787 44.5118 100.146 44.3643C99.8038 44.3479 99.4616 44.3233 99.1215 44.309C98.8962 44.2147 98.679 43.9586 98.4864 43.8357C97.7079 43.3543 95.692 42.3074 95.1183 43.6923C94.7495 44.5651 95.6653 45.4255 95.9849 45.8701C96.2205 46.1774 96.5176 46.5298 96.6815 46.874C96.7778 47.1096 96.8044 47.3472 96.9007 47.591C97.1179 48.1831 97.3248 48.8428 97.6116 49.396C97.7612 49.6787 97.9251 49.9717 98.1177 50.2257C98.2283 50.3753 98.4168 50.4429 98.4598 50.6826C98.2672 50.9571 98.2549 51.3546 98.1443 51.6885C97.6526 53.2107 97.8452 55.0935 98.5417 56.2142C98.761 56.5481 99.2834 57.2897 99.982 57.005C100.597 56.7653 100.461 55.999 100.638 55.3271L100.736 54.9501V54.9808C100.929 55.3598 101.121 55.7184 101.297 56.0974C101.719 56.755 102.457 57.4393 103.074 57.8982C103.401 58.1379 103.662 58.5559 104.071 58.7054V58.6665H104.041L103.725 58.3981C103.479 58.1564 103.203 57.8593 103.008 57.595C102.434 56.837 101.928 56.0031 101.478 55.1447C101.252 54.7227 101.064 54.2679 100.883 53.852L100.664 53.3623C100.459 53.6553 100.158 53.9114 100.009 54.274C99.7484 54.8518 99.7218 55.5647 99.6235 56.3043L99.5682 56.333C99.1297 56.2285 98.9802 55.7839 98.8163 55.409C98.4065 54.4522 98.3389 52.9177 98.6933 51.8176C98.7896 51.5369 99.1994 50.6457 99.0355 50.3794C98.9494 50.1233 98.679 49.9758 98.5295 49.7689C98.3512 49.5189 98.1607 49.1932 98.0378 48.9104C97.71 48.1585 97.5461 47.3247 97.1896 46.5708C97.0257 46.2225 96.7389 45.8578 96.5053 45.5403C96.2451 45.1776 95.9583 44.9216 95.7514 44.4934L95.6961 43.9423L95.8886 43.7599L96.7532 43.8849C97.2592 44.0877 97.6854 44.2742 98.1095 44.5569C98.302 44.69 98.509 44.9461 98.7548 45.0117H99.0416C99.4801 45.1059 99.9738 45.0404 100.384 45.1592C101.111 45.3887 101.766 45.7226 102.354 46.0832C104.149 47.2018 105.624 48.7875 106.626 50.6805C106.79 50.9899 106.862 51.2747 107.011 51.5963C107.298 52.2601 107.652 52.928 107.943 53.5713C108.23 54.2064 108.507 54.8497 108.919 55.3762C109.123 55.6569 109.947 55.8044 110.316 55.9499C110.588 56.0728 111.012 56.1834 111.258 56.3289C111.729 56.6116 112.188 56.9333 112.631 57.2426C112.856 57.3942 113.538 57.7302 113.579 58.0027C112.483 57.974 111.633 58.0826 110.922 58.3817C110.717 58.4616 110.39 58.4616 110.361 58.7177L110.586 59.1479C110.75 59.4163 111.033 59.779 111.295 59.9674C111.582 60.1887 111.869 60.4018 112.17 60.5902C112.703 60.9119 113.307 61.1024 113.829 61.4261C114.126 61.6146 114.43 61.8543 114.731 62.0551C114.88 62.1555 114.977 62.3358 115.169 62.4013V62.3583L114.954 61.9281L114.544 61.545Z" fill="#105E86"/>
<path d="M99.6134 46.3171L99.6093 46.3212C99.3737 46.3212 99.2118 46.3479 99.0459 46.3868V46.4134H99.0746C99.1852 46.6224 99.3737 46.7761 99.513 46.9625C99.6236 47.1756 99.7179 47.3927 99.8285 47.6058L99.8551 47.5751C100.048 47.4419 100.144 47.2288 100.144 46.9051L99.9801 46.6244L99.6134 46.3171Z" fill="#0E5275"/>
<path d="M96.2081 43C95.739 43 95.3333 43.1803 95.1203 43.6904C94.7515 44.5632 95.6673 45.4236 95.9869 45.8682C96.2225 46.1755 96.5196 46.5279 96.6834 46.8721C96.7797 47.1077 96.8064 47.3454 96.9027 47.5892C97.1198 48.1812 97.3267 48.8409 97.6136 49.3941C97.7631 49.6768 97.927 49.9698 98.1196 50.2238C98.2302 50.3734 98.4187 50.441 98.4617 50.6807C98.2692 50.9552 98.2569 51.3527 98.1462 51.6866C97.6545 53.2088 97.8471 55.0916 98.5437 56.2123C98.7281 56.495 99.1296 57.0666 99.6705 57.0666C99.7709 57.0666 99.8754 57.0482 99.984 57.0031C100.599 56.7634 100.463 55.9972 100.64 55.3252L100.738 54.9482V54.9789C100.93 55.3579 101.123 55.7165 101.299 56.0955C101.721 56.7531 102.459 57.4374 103.075 57.8963C103.403 58.136 103.663 58.554 104.073 58.7035V58.6646H104.042L103.727 58.3962C103.481 58.1545 103.205 57.8574 103.01 57.5931C102.436 56.8351 101.93 56.0012 101.48 55.1428C101.254 54.7208 101.066 54.266 100.885 53.8501L100.664 53.3625C100.459 53.6555 100.158 53.9115 100.009 54.2742C99.7484 54.8519 99.7217 55.5649 99.6234 56.3045L99.5681 56.3331C99.1296 56.2287 98.9801 55.7841 98.8162 55.4092C98.4064 54.4524 98.3388 52.9179 98.6933 51.8177C98.7895 51.5371 99.1993 50.6459 99.0354 50.3795C98.9493 50.1234 98.6789 49.9759 98.5294 49.769C98.3511 49.5191 98.1606 49.1933 98.0377 48.9106C97.7099 48.1587 97.546 47.3249 97.1895 46.5709C97.0256 46.2227 96.7388 45.858 96.5052 45.5404C96.245 45.1778 95.9582 44.9217 95.7513 44.4935L95.696 43.9424L95.8885 43.7601L96.7531 43.8851C97.2591 44.0879 97.6853 44.2743 98.1094 44.557C98.3019 44.6902 98.5089 44.9463 98.7547 45.0119H99.0415C99.48 45.1061 99.9737 45.0405 100.383 45.1594C101.111 45.3888 101.766 45.7228 102.354 46.0833C103 46.4869 103.606 46.95 104.161 47.4662V46.4357C103.493 45.8969 102.75 45.4032 101.9 44.9135C101.393 44.6328 100.787 44.512 100.146 44.3645C99.8037 44.3481 99.4615 44.3235 99.1214 44.3091C98.8961 44.2149 98.6789 43.9588 98.4863 43.8359C97.9967 43.5306 97.0112 43 96.2081 43Z" fill="#0E5275"/>
<path d="M153.607 75.5738C166.641 75.5738 177.213 69.8531 177.213 62.7869C177.213 55.7226 166.641 50 153.607 50C140.572 50 130 55.7207 130 62.7869C130 69.8531 140.572 75.5738 153.607 75.5738Z" fill="#878EB7"/>
<path d="M139.893 69.9517L140.535 66.5484C143.568 66.5484 145.447 66.7766 147.188 65.0985C149.112 63.2749 149.615 60.031 148.242 58.4041C147.528 57.5523 146.377 57.1333 144.813 57.1333H139.596L137.185 69.9517H137.187H139.893ZM141.935 59.1556C144.739 59.1556 146.643 58.8448 146.096 61.7622V61.7602C145.514 64.8369 143.456 64.5182 140.924 64.5182L141.935 59.1556ZM151.164 66.5326L152.55 59.193C154.742 59.193 155.649 59.1025 156.048 59.5431C156.461 59.9995 156.249 60.5012 155.112 66.5346H157.84C159.021 60.2966 159.544 58.9746 158.452 57.9418C157.411 56.9543 155.259 57.1274 152.934 57.1274L153.575 53.7241H150.882L148.472 66.5326H151.164ZM161.057 69.9517L161.698 66.5484C164.885 66.5484 166.648 66.7372 168.351 65.0985C170.275 63.2749 170.779 60.031 169.406 58.4041C168.689 57.5523 167.539 57.1353 165.975 57.1353H160.76L158.34 69.9536H161.057V69.9517ZM163.093 59.1556C165.912 59.1556 167.8 58.8448 167.253 61.7622V61.7602C166.663 64.8841 164.547 64.5182 162.082 64.5182L163.093 59.1556Z" fill="#23282C"/>
<path d="M191.131 59.9998C191.131 65.0934 194.091 69.4949 198.383 71.581L192.245 54.7629C191.509 56.4106 191.129 58.1952 191.131 59.9998V59.9998ZM212.686 59.3504C212.686 57.7601 212.114 56.6588 211.624 55.8016C210.972 54.7416 210.361 53.844 210.361 52.784C210.361 51.6011 211.258 50.5 212.522 50.5C212.579 50.5 212.633 50.5071 212.689 50.5103C210.399 48.4129 207.349 47.1323 203.999 47.1323C199.503 47.1323 195.548 49.4388 193.247 52.9324C193.549 52.9414 193.834 52.9476 194.075 52.9476C195.421 52.9476 197.505 52.7842 197.505 52.7842C198.199 52.7434 198.28 53.7622 197.588 53.8442C197.588 53.8442 196.89 53.9262 196.115 53.9669L200.801 67.9051L203.617 59.4594L201.612 53.9666C200.919 53.926 200.262 53.844 200.262 53.844C199.569 53.8033 199.65 52.7431 200.344 52.784C200.344 52.784 202.469 52.9473 203.733 52.9473C205.079 52.9473 207.163 52.784 207.163 52.784C207.857 52.7431 207.938 53.7619 207.245 53.844C207.245 53.844 206.547 53.926 205.772 53.9666L210.423 67.7993L211.706 63.5102C212.262 61.7304 212.686 60.452 212.686 59.3504V59.3504Z" fill="#00749A"/>
<path d="M204.225 61.1252L200.364 72.3438C201.545 72.6917 202.769 72.8683 203.999 72.8683C205.498 72.8683 206.935 72.609 208.272 72.1389C208.237 72.0827 208.206 72.0234 208.181 71.9616L204.225 61.1252ZM215.29 53.8259C215.346 54.2358 215.377 54.6761 215.377 55.1491C215.377 56.4549 215.133 57.9228 214.399 59.7582L210.468 71.1225C214.294 68.8917 216.867 64.7471 216.867 59.9996C216.87 57.8417 216.328 55.718 215.29 53.8259V53.8259Z" fill="#00749A"/>
<path d="M204 45C195.729 45 189 51.7288 189 59.9996C189 68.2715 195.729 75.0002 204 75.0002C212.271 75.0002 219.001 68.2717 219.001 59.9996C219.001 51.7288 212.271 45 204 45ZM204 74.3125C196.109 74.3125 189.688 67.8917 189.688 59.9996C189.688 52.1083 196.108 45.688 204 45.688C211.891 45.688 218.312 52.1083 218.312 59.9996C218.312 67.8917 211.891 74.3125 204 74.3125Z" fill="#00749A"/>
<defs>
<linearGradient id="paint0_linear" x1="53.9062" y1="15.3455" x2="53.9062" y2="9.05474" gradientUnits="userSpaceOnUse">
<stop offset="0.387" stop-color="#D1D3D4" stop-opacity="0"/>
<stop offset="1" stop-color="#D1D3D4"/>
</linearGradient>
<linearGradient id="paint1_linear" x1="61.7759" y1="11.8079" x2="61.7759" y2="5.51433" gradientUnits="userSpaceOnUse">
<stop offset="0.387" stop-color="#D1D3D4" stop-opacity="0"/>
<stop offset="1" stop-color="#D1D3D4"/>
</linearGradient>
<linearGradient id="paint2_linear" x1="49.9718" y1="18.1024" x2="65.7085" y2="18.1024" gradientUnits="userSpaceOnUse">
<stop stop-color="#E8E7E5"/>
<stop offset="1" stop-color="white"/>
</linearGradient>
<linearGradient id="paint3_linear" x1="49.5754" y1="7.28077" x2="65.706" y2="7.28077" gradientUnits="userSpaceOnUse">
<stop stop-color="#E8E7E5"/>
<stop offset="1" stop-color="white"/>
</linearGradient>
</defs>
</svg>
