<svg width="86" height="76" viewBox="0 0 86 76" fill="none" xmlns="http://www.w3.org/2000/svg">
<path d="M70.7096 24.6329C69.7942 24.3211 68.8711 24.0321 67.9411 23.7665C68.0953 23.144 68.2379 22.5187 68.3689 21.891C70.4645 11.7867 69.0943 3.64678 64.4151 0.967226C59.9289 -1.60269 52.5916 1.07686 45.1812 7.48199C44.4511 8.11459 43.7371 8.7654 43.04 9.43382C42.5731 8.98936 42.0981 8.55353 41.615 8.12655C33.8487 1.27722 26.0642 -1.60874 21.39 1.07875C16.908 3.65585 15.5804 11.3085 17.4671 20.8843C17.6548 21.8326 17.8668 22.7759 18.1027 23.7135C17.0012 24.0243 15.9375 24.3554 14.9197 24.7078C5.81488 27.8606 0 32.8024 0 37.9279C0 43.2219 6.24192 48.5319 15.7258 51.7513C16.4948 52.0111 17.2703 52.2519 18.0513 52.4733C17.7976 53.4834 17.5723 54.5004 17.3758 55.523C15.577 64.9324 16.9818 72.4036 21.452 74.9648C26.0692 77.6092 33.8183 74.8911 41.3642 68.3397C41.9606 67.8218 42.5593 67.2725 43.1587 66.6967C43.9138 67.4203 44.689 68.1229 45.4835 68.8035C52.7926 75.0506 60.0111 77.5733 64.4775 75.0053C69.0905 72.353 70.5893 64.3268 68.6429 54.5616C68.4945 53.8157 68.3213 53.054 68.1272 52.2783C68.6714 52.1187 69.2054 51.9539 69.7265 51.7823C79.5857 48.5379 86 43.2926 86 37.9279C86 32.7839 79.9979 27.8088 70.7096 24.6329V24.6329Z" fill="#53C1DE"/>
<path d="M67.5336 48.2116C67.0734 48.3646 66.601 48.5124 66.1196 48.6556C65.0539 45.269 63.6156 41.6676 61.8562 37.9472C63.5355 34.3148 64.9179 30.7598 65.9538 27.3948C66.8149 27.6455 67.651 27.9092 68.4566 28.1879C76.2478 30.8802 81 34.8617 81 37.9293C81 41.197 75.8673 45.4392 67.534 48.2116H67.5336ZM64.0758 55.0908C64.9183 59.3637 65.0386 63.2269 64.4805 66.247C63.9789 68.9607 62.9707 70.7698 61.7239 71.4944C59.0706 73.0364 53.3962 71.032 47.2772 65.7453C46.5756 65.1393 45.8687 64.4921 45.16 63.8075C47.5324 61.2023 49.9033 58.1737 52.2172 54.8106C56.2876 54.4481 60.1329 53.8552 63.6201 53.046C63.7915 53.7418 63.9443 54.4238 64.0758 55.0908V55.0908ZM29.1066 71.228C26.5144 72.1472 24.4498 72.1734 23.2019 71.451C20.546 69.9135 19.4423 63.9766 20.948 56.014C21.1271 55.073 21.3321 54.1372 21.5628 53.2076C25.0113 53.9734 28.8287 54.5244 32.9087 54.8566C35.2379 58.1475 37.6773 61.1724 40.1358 63.8214C39.6133 64.3288 39.0785 64.8233 38.5317 65.3043C35.2651 68.1713 31.9917 70.2049 29.107 71.228H29.1066ZM16.9623 48.1914C12.8569 46.7826 9.46652 44.9517 7.14257 42.9541C5.05448 41.1584 4 39.3759 4 37.9293C4 34.8516 8.57077 30.9255 16.1939 28.2571C17.1508 27.9236 18.1171 27.6184 19.0917 27.3417C20.1454 30.7822 21.5274 34.3795 23.1952 38.0172C21.5058 41.7091 20.1041 45.3636 19.0407 48.8446C18.3426 48.644 17.6496 48.4262 16.9623 48.1914V48.1914ZM21.0334 20.3701C19.4509 12.2511 20.5017 6.12687 23.146 4.5901C25.963 2.95307 32.1911 5.28741 38.7557 11.1393C39.1752 11.5134 39.5966 11.9051 40.0188 12.3103C37.573 14.9472 35.1559 17.9493 32.8469 21.2212C28.8872 21.5896 25.0966 22.1814 21.612 22.9742C21.3974 22.111 21.2044 21.2426 21.0334 20.3697V20.3701ZM57.3503 29.3734C56.5272 27.946 55.6736 26.5366 54.7901 25.1461C57.4766 25.4866 60.0502 25.9392 62.4669 26.4932C61.7414 28.828 60.8371 31.2693 59.7722 33.772C58.9941 32.2897 58.1867 30.8232 57.3503 29.3734V29.3734ZM42.5402 14.8907C44.1991 16.695 45.8605 18.7099 47.4948 20.8957C44.1797 20.7384 40.8591 20.7377 37.544 20.8934C39.1797 18.7278 40.8553 16.7159 42.5402 14.8907V14.8907ZM27.6352 29.3981C26.8093 30.8364 26.0169 32.2939 25.2587 33.7694C24.2113 31.2753 23.3152 28.8231 22.5834 26.4551C24.9856 25.9153 27.5473 25.4742 30.2163 25.1394C29.3228 26.5385 28.4622 27.9584 27.6352 29.3981V29.3981ZM30.293 50.9769C27.5357 50.6679 24.9353 50.2493 22.5339 49.7244C23.2772 47.3145 24.1931 44.8096 25.2628 42.262C26.0242 43.7386 26.8201 45.1969 27.6497 46.6359C28.4963 48.1038 29.3777 49.5512 30.293 50.9769V50.9769ZM42.6397 61.2229C40.935 59.376 39.2348 57.3335 37.5741 55.1364C39.186 55.2 40.8296 55.2322 42.5 55.2322C44.2162 55.2322 45.9127 55.1937 47.5824 55.1188C45.9429 57.3559 44.2874 59.4015 42.6397 61.2229ZM59.8065 42.1322C60.9318 44.7075 61.8804 47.1989 62.6338 49.568C60.1925 50.1273 57.5571 50.5777 54.78 50.9122C55.6699 49.4957 56.5317 48.0617 57.3648 46.6108C58.2117 45.1363 59.0258 43.6431 59.8065 42.1322V42.1322ZM54.2491 44.807C52.9737 47.0313 51.6266 49.2134 50.21 51.3499C47.712 51.529 45.1306 51.6214 42.5 51.6214C39.8802 51.6214 37.3316 51.5395 34.8772 51.3798C33.4238 49.2483 32.0513 47.0624 30.7625 44.8268C29.4798 42.603 28.2816 40.3311 27.1706 38.0161C28.2788 35.7003 29.4733 33.4272 30.7517 31.2016V31.2023C32.0297 28.9762 33.3914 26.7997 34.834 24.6774C37.3379 24.4874 39.9052 24.3878 42.5004 24.3878C45.1071 24.3878 47.6778 24.4881 50.1809 24.6796C51.6089 26.7987 52.9619 28.9676 54.2375 31.1825C55.5203 33.4032 56.7308 35.6651 57.8671 37.9648C56.7425 40.2879 55.5358 42.5701 54.2494 44.807H54.2491ZM61.6688 4.48273C64.4879 6.11528 65.5845 12.6982 63.8131 21.3311C63.697 21.8935 63.5708 22.4538 63.4346 23.0116C59.9417 22.2024 56.1486 21.6001 52.1774 21.226C49.8638 17.9187 47.4669 14.9113 45.0606 12.3084C45.6911 11.6981 46.3367 11.1036 46.9966 10.5255C53.2125 5.09438 59.0218 2.95007 61.6688 4.48273V4.48273Z" fill="white"/>
<path d="M43 31C46.8662 31 50 34.1341 50 37.9998C50 41.8659 46.8662 45 43 45C39.1342 45 36 41.8659 36 37.9998C36 34.1341 39.1342 31 43 31" fill="#53C1DE"/>
</svg>
