<svg width="58" height="58" viewBox="0 0 58 58" fill="none" xmlns="http://www.w3.org/2000/svg">
<path d="M51.8257 0.0130555C51.3047 0.066421 50.705 0.208729 50.2348 0.38922C50.0696 0.45267 47.5971 1.42855 44.7433 2.55443L39.5515 4.60261L39.0128 4.37136C35.9049 3.04481 32.7157 2.30528 29.3232 2.1274C28.5912 2.08933 26.5787 2.11221 25.9052 2.16558C23.3869 2.36884 21.2091 2.81356 18.8864 3.60135C13.5855 5.4006 8.89427 8.8288 5.49414 13.3904C2.64544 17.2124 0.808055 21.7868 0.21357 26.5313C0.0508717 27.8528 0 28.6685 0 30.0585C0 31.4233 0.0661672 32.4881 0.228866 33.6926C0.792873 37.9366 2.2694 41.9035 4.59205 45.4257C4.75973 45.6824 4.90464 45.8908 4.91223 45.8908C4.91982 45.8908 4.99098 45.7967 5.06473 45.6798C6.51316 43.4943 7.52969 41.3164 8.18785 38.9785C8.42419 38.1474 8.50293 37.7536 8.73928 36.2517C9.0138 34.5008 9.7685 32.732 10.8562 31.2961C11.4788 30.4703 12.2945 29.652 13.0848 29.0599C16.0809 26.8184 19.9715 26.1958 23.5419 27.3877C25.4301 28.0205 27.097 29.131 28.4287 30.6431C29.9051 32.3229 30.8529 34.427 31.1375 36.6659C31.3811 38.558 31.1398 40.481 30.4362 42.2542C29.9204 43.5579 29.1986 44.709 28.2228 45.7789C27.3131 46.7777 26.0678 47.6976 24.8252 48.2948C23.6588 48.8514 22.7237 49.1233 21.1531 49.3597C20.2485 49.4943 19.5166 49.6594 18.6374 49.9289C16.7924 50.4905 15.0593 51.2579 13.4279 52.2389C12.9781 52.5082 12.1064 53.0725 12.1064 53.0927C12.1064 53.113 13.1128 53.7636 13.5549 54.0279C16.9042 56.0356 20.6017 57.3112 24.4694 57.7941C25.7401 57.9542 26.5125 58 27.9509 58C29.3892 58 30.1618 57.9542 31.4324 57.7941C35.9355 57.2325 40.2581 55.5731 43.9326 52.9987C47.9351 50.1931 51.1319 46.4244 53.2005 42.0712C55.1978 37.8705 56.1254 33.1514 55.8637 28.5211C55.6756 25.1641 54.9107 21.9316 53.5766 18.8617L53.3986 18.4551L55.518 13.0804C56.6844 10.1248 57.6756 7.59878 57.7187 7.46667C57.8321 7.11637 57.9138 6.75658 57.9627 6.39166C58.0058 6.04608 58.0135 5.3904 57.9754 5.0778C57.6196 2.18325 55.1267 -0.0327187 52.2653 0.000365639C52.0721 0.000365639 51.8739 0.00795686 51.8257 0.0130555V0.0130555ZM52.738 2.80336C53.7799 3.00164 54.6439 3.72077 55.0403 4.71953C55.18 5.0727 55.236 5.3802 55.2385 5.78934C55.2385 6.19847 55.1927 6.46791 55.0555 6.85166C54.9615 7.11339 43.4523 36.2161 43.338 36.4753C43.2592 36.6608 43.122 36.882 42.9365 37.1183C42.3393 37.8908 41.2923 38.3253 40.2708 38.2212C39.2822 38.1221 38.4563 37.6037 37.9608 36.7752C37.9048 36.6812 37.2365 35.2809 36.4792 33.6672C35.7194 32.0535 35.0181 30.577 34.9189 30.3889C33.4475 27.5783 31.2265 25.22 28.5201 23.5961C27.8315 23.1819 27.4528 22.9964 24.2941 21.5097C22.6753 20.7473 21.27 20.0739 21.1684 20.0104C20.0451 19.3116 19.5191 17.9316 19.8724 16.6127C19.9461 16.3383 20.1316 15.9341 20.2917 15.6979C20.5534 15.3115 21.0388 14.8973 21.4632 14.6965C21.6843 14.5924 51.0481 2.97615 51.2996 2.8923C51.3961 2.86182 51.5562 2.82115 51.6554 2.80336C51.9146 2.75509 52.4863 2.75759 52.738 2.80336V2.80336Z" fill="black"/>
<path d="M5.06559 45.6821C4.99194 45.799 4.92068 45.893 4.91309 45.893L7.68554 49.3611L12.1073 53.095C12.1073 53.0746 12.9789 52.5105 13.4287 52.2412C15.0601 51.2602 16.7933 50.4927 18.6382 49.9311C19.5175 49.6617 20.2494 49.4965 21.154 49.3618C22.7245 49.1256 23.6597 48.8536 24.826 48.2971C26.0687 47.6999 27.314 46.7799 28.2236 45.7812C29.1995 44.7113 29.9212 43.5601 30.4371 42.2565C31.1406 40.4832 31.382 38.5603 31.1384 36.6682C30.8538 34.4293 29.9059 32.3252 28.4295 30.6453C27.0979 29.1333 25.4309 28.0227 23.5428 27.3899C19.9724 26.1981 16.0817 26.8207 13.0856 29.0622C12.2953 29.6543 11.4796 30.4726 10.857 31.2984C9.76935 32.7343 9.01454 34.503 8.74013 36.2539C8.50379 37.7559 8.42504 38.1497 8.1887 38.9807C7.53043 41.3187 6.51413 43.4966 5.06559 45.6821V45.6821Z" fill="#FFCB00"/>
<path d="M52.7391 2.80549C53.781 3.00377 54.645 3.7229 55.0415 4.72167C55.1812 5.07495 55.2371 5.38234 55.2396 5.79158C55.2396 6.20061 55.1939 6.47004 55.0566 6.8538C54.9626 7.11553 43.4535 36.2182 43.3392 36.4775C43.2603 36.6629 43.1231 36.8841 42.9376 37.1205C42.3404 37.8929 41.2934 38.3275 40.2719 38.2233C39.2834 38.1242 38.4574 37.6058 37.962 36.7774C37.906 36.6833 37.2376 35.283 36.4803 33.6694C35.7205 32.0556 35.0192 30.5791 34.9201 30.3911C33.4486 27.5805 31.2276 25.2222 28.5212 23.5982C27.8326 23.184 27.4539 22.9985 24.2953 21.5119C22.6764 20.7495 21.2712 20.0761 21.1695 20.0125C20.0463 19.3137 19.5202 17.9338 19.8735 16.6148C19.9473 16.3404 20.1327 15.9364 20.2928 15.7C20.5545 15.3137 21.0399 14.8994 21.4643 14.6988C21.6854 14.5945 51.0491 2.97828 51.3008 2.89444C51.3973 2.86396 51.5574 2.82328 51.6565 2.80549C51.9157 2.75723 52.4875 2.75983 52.7391 2.80549V2.80549Z" fill="#68D072"/>
<path d="M41.4621 11.1554C39.1444 11.379 37.3072 13.1833 37.0327 15.5086C36.9946 15.8237 37.0174 16.6292 37.0683 16.9088C37.3656 18.4895 38.3262 19.7804 39.7238 20.4793C40.8903 21.0613 42.2423 21.1603 43.4748 20.7563C44.6386 20.3751 45.6347 19.5569 46.2421 18.4819C47.0248 17.0968 47.0757 15.3358 46.3691 13.8974C45.4619 12.0524 43.5052 10.9571 41.4621 11.1554ZM42.4862 13.9228C43.4519 14.1744 44.1481 15.0714 44.1507 16.06C44.1507 17.1884 43.2943 18.1414 42.1634 18.2659C41.5383 18.3345 40.9005 18.121 40.4329 17.6839C39.9729 17.2545 39.7289 16.6979 39.7289 16.0778C39.7289 15.4857 39.9246 14.9825 40.3237 14.5658C40.6895 14.1795 41.1164 13.9508 41.6222 13.872C41.8432 13.8389 42.2524 13.8618 42.4862 13.9228V13.9228Z" fill="black"/>
<path d="M42.4868 13.9229C43.4524 14.1745 44.1486 15.0715 44.1513 16.0601C44.1513 17.1885 43.2948 18.1413 42.164 18.266C41.5389 18.3345 40.901 18.1211 40.4334 17.6839C39.9734 17.2545 39.7295 16.698 39.7295 16.0779C39.7295 15.4858 39.9252 14.9826 40.3242 14.5659C40.69 14.1795 41.117 13.9508 41.6227 13.8721C41.8438 13.839 42.2529 13.8619 42.4868 13.9229V13.9229Z" fill="white"/>
<path d="M15.3568 33.986C14.5386 34.1156 13.8092 34.5349 13.2044 35.2185C12.564 35.9478 12.1168 36.7204 11.8245 37.6048C11.5907 38.3112 11.4891 38.9338 11.4891 39.6911C11.4865 40.2401 11.5221 40.606 11.6237 41.1016L11.6975 41.4574L8.7979 44.3569L5.89844 47.2566L6.13467 47.5463C6.5362 48.0418 6.95553 48.5297 7.31888 48.9262L7.45869 49.0761L10.1244 46.4103L12.7901 43.7445L12.8334 43.8081C13.0774 44.1562 13.6364 44.7305 14.0226 45.0329L14.2641 45.2185L11.5983 47.8868L8.93261 50.5551L9.07242 50.6822C9.63904 51.193 10.5946 51.9986 10.7292 52.0774C10.7547 52.0925 11.573 51.2921 13.6644 49.2006L16.5639 46.3036L16.8281 46.362C17.3008 46.4713 17.6897 46.5094 18.2792 46.5094C19.0949 46.5119 19.6717 46.4179 20.4266 46.1689C21.3693 45.8563 22.2841 45.2921 22.9829 44.5959C23.5294 44.0494 23.8318 43.5133 23.9843 42.8169C24.0401 42.5603 24.063 41.9148 24.0248 41.6454C23.8242 40.2401 22.8279 39.1346 21.4481 38.7865C21.0999 38.6976 20.4215 38.6721 20.0657 38.7356C19.7117 38.7969 19.3695 38.9135 19.0518 39.0812L18.7697 39.2261L18.8815 39.0329C19.2931 38.3112 19.4176 37.3557 19.2068 36.5299C18.8662 35.1855 17.7709 34.1944 16.3987 33.986C16.1039 33.9402 15.6465 33.9402 15.3568 33.986V33.986ZM16.2386 36.3874C16.508 36.4815 16.7087 36.6671 16.8408 36.9466C16.912 37.0965 16.9197 37.1347 16.9197 37.3659C16.9197 37.5997 16.912 37.6352 16.8383 37.7902C16.6122 38.268 15.7075 38.911 14.8866 39.1779C14.6707 39.249 14.2667 39.338 14.0048 39.3735C13.8854 39.3887 13.8829 39.3887 13.8829 39.3176C13.8829 38.9694 14.1015 38.2045 14.3301 37.7547C14.5969 37.2287 15.0976 36.6086 15.3822 36.4536C15.6414 36.3138 15.9514 36.2884 16.2386 36.3874V36.3874ZM17.5245 40.484C17.5143 40.5018 17.4278 40.6314 17.3364 40.7712C16.8155 41.5539 16.4826 42.3976 16.3225 43.343C16.2945 43.5056 16.2665 43.6454 16.2589 43.6505C16.2411 43.6683 15.832 43.4192 15.6237 43.2591C15.1383 42.8957 14.7241 42.4256 14.4317 41.9046C14.381 41.8157 14.3428 41.7394 14.3454 41.7369C14.3505 41.7343 14.4724 41.7114 14.6198 41.6886C15.5728 41.5335 16.5284 41.1524 17.2855 40.6289C17.5626 40.4357 17.5524 40.4433 17.5245 40.484V40.484ZM20.8788 41.1016C21.0923 41.1575 21.2194 41.2286 21.3718 41.3836C21.5265 41.5371 21.6283 41.7358 21.6626 41.951C21.6968 42.1661 21.6618 42.3866 21.5625 42.5806C21.4811 42.7458 21.1686 43.0558 20.8459 43.2972C20.2943 43.7114 19.4278 44.0494 18.7849 44.1054L18.6172 44.1206L18.64 43.9453C18.7163 43.2947 18.9577 42.6339 19.3135 42.0927C19.5243 41.7725 19.8395 41.404 20.0123 41.2769C20.2765 41.0838 20.5764 41.0228 20.8788 41.1016V41.1016Z" fill="black"/>
</svg>
