<svg width="339" height="117" viewBox="0 0 339 117" fill="none" xmlns="http://www.w3.org/2000/svg">
<path d="M0.5 0.5L210.421 0.5L251.388 61.9926L210.439 116.5L0.5 116.5L0.5 0.5Z" fill="#FE5F55" stroke="#F30E00"/>
<path d="M22.4055 40.967C22.7509 40.967 23.0519 40.925 23.3085 40.841C23.5652 40.7523 23.7775 40.6287 23.9455 40.47C24.1182 40.3067 24.2465 40.1107 24.3305 39.882C24.4145 39.6487 24.4565 39.3897 24.4565 39.105C24.4565 38.8343 24.4145 38.5893 24.3305 38.37C24.2465 38.1507 24.1205 37.964 23.9525 37.81C23.7845 37.656 23.5722 37.5393 23.3155 37.46C23.0589 37.376 22.7555 37.334 22.4055 37.334H20.9985V40.967H22.4055ZM22.4055 35.878C23.0822 35.878 23.6679 35.9573 24.1625 36.116C24.6572 36.2747 25.0655 36.4963 25.3875 36.781C25.7095 37.0657 25.9475 37.4063 26.1015 37.803C26.2602 38.1997 26.3395 38.6337 26.3395 39.105C26.3395 39.595 26.2579 40.0453 26.0945 40.456C25.9312 40.862 25.6862 41.212 25.3595 41.506C25.0329 41.8 24.6222 42.0287 24.1275 42.192C23.6375 42.3553 23.0635 42.437 22.4055 42.437H20.9985V46H19.1155V35.878H22.4055ZM29.0321 40.064C29.2561 39.6347 29.5221 39.2987 29.8301 39.056C30.1381 38.8087 30.5021 38.685 30.9221 38.685C31.2535 38.685 31.5195 38.7573 31.7201 38.902L31.6081 40.197C31.5848 40.281 31.5498 40.3417 31.5031 40.379C31.4611 40.4117 31.4028 40.428 31.3281 40.428C31.2581 40.428 31.1531 40.4163 31.0131 40.393C30.8778 40.3697 30.7448 40.358 30.6141 40.358C30.4228 40.358 30.2525 40.386 30.1031 40.442C29.9538 40.498 29.8185 40.5797 29.6971 40.687C29.5805 40.7897 29.4755 40.9157 29.3821 41.065C29.2935 41.2143 29.2095 41.3847 29.1301 41.576V46H27.4011V38.818H28.4161C28.5935 38.818 28.7171 38.8507 28.7871 38.916C28.8571 38.9767 28.9038 39.0887 28.9271 39.252L29.0321 40.064ZM35.5967 38.706C36.1287 38.706 36.6117 38.7923 37.0457 38.965C37.4844 39.1377 37.8577 39.3827 38.1657 39.7C38.4784 40.0173 38.7187 40.4047 38.8867 40.862C39.0547 41.3193 39.1387 41.8303 39.1387 42.395C39.1387 42.9643 39.0547 43.4777 38.8867 43.935C38.7187 44.3923 38.4784 44.782 38.1657 45.104C37.8577 45.426 37.4844 45.6733 37.0457 45.846C36.6117 46.0187 36.1287 46.105 35.5967 46.105C35.06 46.105 34.5724 46.0187 34.1337 45.846C33.695 45.6733 33.3194 45.426 33.0067 45.104C32.6987 44.782 32.4584 44.3923 32.2857 43.935C32.1177 43.4777 32.0337 42.9643 32.0337 42.395C32.0337 41.8303 32.1177 41.3193 32.2857 40.862C32.4584 40.4047 32.6987 40.0173 33.0067 39.7C33.3194 39.3827 33.695 39.1377 34.1337 38.965C34.5724 38.7923 35.06 38.706 35.5967 38.706ZM35.5967 44.775C36.194 44.775 36.635 44.5743 36.9197 44.173C37.209 43.7717 37.3537 43.1837 37.3537 42.409C37.3537 41.6343 37.209 41.044 36.9197 40.638C36.635 40.232 36.194 40.029 35.5967 40.029C34.99 40.029 34.5397 40.2343 34.2457 40.645C33.9564 41.051 33.8117 41.639 33.8117 42.409C33.8117 43.179 33.9564 43.767 34.2457 44.173C34.5397 44.5743 34.99 44.775 35.5967 44.775ZM44.9658 40.652C44.7698 40.414 44.5551 40.246 44.3218 40.148C44.0931 40.05 43.8458 40.001 43.5798 40.001C43.3184 40.001 43.0828 40.05 42.8728 40.148C42.6628 40.246 42.4831 40.3953 42.3338 40.596C42.1844 40.792 42.0701 41.044 41.9908 41.352C41.9114 41.6553 41.8718 42.0147 41.8718 42.43C41.8718 42.85 41.9044 43.207 41.9698 43.501C42.0398 43.7903 42.1378 44.0283 42.2638 44.215C42.3898 44.397 42.5438 44.53 42.7258 44.614C42.9078 44.6933 43.1108 44.733 43.3348 44.733C43.6941 44.733 43.9998 44.6583 44.2518 44.509C44.5038 44.3597 44.7418 44.1473 44.9658 43.872V40.652ZM46.6948 35.598V46H45.6378C45.4091 46 45.2644 45.895 45.2038 45.685L45.0568 44.992C44.7674 45.3233 44.4338 45.5917 44.0558 45.797C43.6824 46.0023 43.2461 46.105 42.7468 46.105C42.3548 46.105 41.9954 46.0233 41.6688 45.86C41.3421 45.6967 41.0598 45.461 40.8218 45.153C40.5884 44.8403 40.4064 44.4553 40.2758 43.998C40.1498 43.5407 40.0868 43.018 40.0868 42.43C40.0868 41.898 40.1591 41.4033 40.3038 40.946C40.4484 40.4887 40.6561 40.092 40.9268 39.756C41.1974 39.42 41.5218 39.1587 41.8998 38.972C42.2778 38.7807 42.7024 38.685 43.1738 38.685C43.5751 38.685 43.9181 38.748 44.2028 38.874C44.4874 39 44.7418 39.1703 44.9658 39.385V35.598H46.6948ZM54.5891 38.818V46H53.5321C53.3035 46 53.1588 45.895 53.0981 45.685L52.9791 45.111C52.6851 45.4097 52.3608 45.6523 52.0061 45.839C51.6515 46.021 51.2338 46.112 50.7531 46.112C50.3611 46.112 50.0135 46.0467 49.7101 45.916C49.4115 45.7807 49.1595 45.5917 48.9541 45.349C48.7488 45.1063 48.5925 44.8193 48.4851 44.488C48.3825 44.152 48.3311 43.7833 48.3311 43.382V38.818H50.0601V43.382C50.0601 43.8207 50.1605 44.1613 50.3611 44.404C50.5665 44.642 50.8721 44.761 51.2781 44.761C51.5768 44.761 51.8568 44.6957 52.1181 44.565C52.3795 44.4297 52.6268 44.2453 52.8601 44.012V38.818H54.5891ZM61.4625 39.532C61.4625 39.6533 61.4415 39.7723 61.3995 39.889C61.3575 40.0057 61.3015 40.1013 61.2315 40.176L57.8225 44.67H61.3575V46H55.8135V45.279C55.8135 45.1997 55.8321 45.1063 55.8695 44.999C55.9068 44.887 55.9628 44.782 56.0375 44.684L59.4815 40.141H56.0165V38.818H61.4625V39.532ZM64.5349 38.818V46H62.7989V38.818H64.5349ZM64.7729 36.725C64.7729 36.8743 64.7426 37.0143 64.6819 37.145C64.6212 37.2757 64.5396 37.39 64.4369 37.488C64.3389 37.586 64.2222 37.6653 64.0869 37.726C63.9516 37.782 63.8069 37.81 63.6529 37.81C63.5036 37.81 63.3612 37.782 63.2259 37.726C63.0952 37.6653 62.9809 37.586 62.8829 37.488C62.7849 37.39 62.7056 37.2757 62.6449 37.145C62.5889 37.0143 62.5609 36.8743 62.5609 36.725C62.5609 36.571 62.5889 36.4263 62.6449 36.291C62.7056 36.1557 62.7849 36.039 62.8829 35.941C62.9809 35.843 63.0952 35.766 63.2259 35.71C63.3612 35.6493 63.5036 35.619 63.6529 35.619C63.8069 35.619 63.9516 35.6493 64.0869 35.71C64.2222 35.766 64.3389 35.843 64.4369 35.941C64.5396 36.039 64.6212 36.1557 64.6819 36.291C64.7426 36.4263 64.7729 36.571 64.7729 36.725ZM69.4756 38.706C70.0076 38.706 70.4906 38.7923 70.9246 38.965C71.3633 39.1377 71.7366 39.3827 72.0446 39.7C72.3573 40.0173 72.5976 40.4047 72.7656 40.862C72.9336 41.3193 73.0176 41.8303 73.0176 42.395C73.0176 42.9643 72.9336 43.4777 72.7656 43.935C72.5976 44.3923 72.3573 44.782 72.0446 45.104C71.7366 45.426 71.3633 45.6733 70.9246 45.846C70.4906 46.0187 70.0076 46.105 69.4756 46.105C68.9389 46.105 68.4513 46.0187 68.0126 45.846C67.5739 45.6733 67.1983 45.426 66.8856 45.104C66.5776 44.782 66.3373 44.3923 66.1646 43.935C65.9966 43.4777 65.9126 42.9643 65.9126 42.395C65.9126 41.8303 65.9966 41.3193 66.1646 40.862C66.3373 40.4047 66.5776 40.0173 66.8856 39.7C67.1983 39.3827 67.5739 39.1377 68.0126 38.965C68.4513 38.7923 68.9389 38.706 69.4756 38.706ZM69.4756 44.775C70.0729 44.775 70.5139 44.5743 70.7986 44.173C71.0879 43.7717 71.2326 43.1837 71.2326 42.409C71.2326 41.6343 71.0879 41.044 70.7986 40.638C70.5139 40.232 70.0729 40.029 69.4756 40.029C68.8689 40.029 68.4186 40.2343 68.1246 40.645C67.8353 41.051 67.6906 41.639 67.6906 42.409C67.6906 43.179 67.8353 43.767 68.1246 44.173C68.4186 44.5743 68.8689 44.775 69.4756 44.775ZM75.9537 39.7C76.0983 39.5553 76.25 39.4223 76.4087 39.301C76.572 39.175 76.7423 39.07 76.9197 38.986C77.1017 38.8973 77.2953 38.8297 77.5007 38.783C77.706 38.7317 77.93 38.706 78.1727 38.706C78.5647 38.706 78.9123 38.7737 79.2157 38.909C79.519 39.0397 79.771 39.2263 79.9717 39.469C80.177 39.707 80.331 39.994 80.4337 40.33C80.541 40.6613 80.5947 41.0277 80.5947 41.429V46H78.8657V41.429C78.8657 40.9903 78.7653 40.652 78.5647 40.414C78.364 40.1713 78.0583 40.05 77.6477 40.05C77.349 40.05 77.069 40.1177 76.8077 40.253C76.5463 40.3883 76.299 40.5727 76.0657 40.806V46H74.3367V38.818H75.3937C75.6177 38.818 75.7647 38.923 75.8347 39.133L75.9537 39.7ZM86.866 41.583C86.866 41.359 86.8333 41.149 86.768 40.953C86.7073 40.7523 86.614 40.5773 86.488 40.428C86.362 40.2787 86.201 40.162 86.005 40.078C85.8137 39.9893 85.5897 39.945 85.333 39.945C84.8337 39.945 84.4393 40.0873 84.15 40.372C83.8653 40.6567 83.6833 41.0603 83.604 41.583H86.866ZM83.569 42.626C83.597 42.9947 83.6623 43.3143 83.765 43.585C83.8677 43.851 84.003 44.0727 84.171 44.25C84.339 44.4227 84.5373 44.5533 84.766 44.642C84.9993 44.726 85.256 44.768 85.536 44.768C85.816 44.768 86.0563 44.7353 86.257 44.67C86.4623 44.6047 86.6397 44.5323 86.789 44.453C86.943 44.3737 87.076 44.3013 87.188 44.236C87.3047 44.1707 87.4167 44.138 87.524 44.138C87.6687 44.138 87.776 44.1917 87.846 44.299L88.343 44.929C88.1517 45.153 87.937 45.342 87.699 45.496C87.461 45.6453 87.2113 45.7667 86.95 45.86C86.6933 45.9487 86.4297 46.0117 86.159 46.049C85.893 46.0863 85.634 46.105 85.382 46.105C84.8827 46.105 84.4183 46.0233 83.989 45.86C83.5597 45.692 83.1863 45.447 82.869 45.125C82.5517 44.7983 82.302 44.397 82.12 43.921C81.938 43.4403 81.847 42.885 81.847 42.255C81.847 41.765 81.9263 41.3053 82.085 40.876C82.2437 40.442 82.47 40.0663 82.764 39.749C83.0627 39.427 83.4243 39.1727 83.849 38.986C84.2783 38.7993 84.7613 38.706 85.298 38.706C85.7507 38.706 86.1683 38.7783 86.551 38.923C86.9337 39.0677 87.2627 39.28 87.538 39.56C87.8133 39.8353 88.028 40.176 88.182 40.582C88.3407 40.9833 88.42 41.443 88.42 41.961C88.42 42.2223 88.392 42.3997 88.336 42.493C88.28 42.5817 88.1727 42.626 88.014 42.626H83.569ZM97.7488 41.583C97.7488 41.359 97.7162 41.149 97.6508 40.953C97.5902 40.7523 97.4968 40.5773 97.3708 40.428C97.2448 40.2787 97.0838 40.162 96.8878 40.078C96.6965 39.9893 96.4725 39.945 96.2158 39.945C95.7165 39.945 95.3222 40.0873 95.0328 40.372C94.7482 40.6567 94.5662 41.0603 94.4868 41.583H97.7488ZM94.4518 42.626C94.4798 42.9947 94.5452 43.3143 94.6478 43.585C94.7505 43.851 94.8858 44.0727 95.0538 44.25C95.2218 44.4227 95.4202 44.5533 95.6488 44.642C95.8822 44.726 96.1388 44.768 96.4188 44.768C96.6988 44.768 96.9392 44.7353 97.1398 44.67C97.3452 44.6047 97.5225 44.5323 97.6718 44.453C97.8258 44.3737 97.9588 44.3013 98.0708 44.236C98.1875 44.1707 98.2995 44.138 98.4068 44.138C98.5515 44.138 98.6588 44.1917 98.7288 44.299L99.2258 44.929C99.0345 45.153 98.8198 45.342 98.5818 45.496C98.3438 45.6453 98.0942 45.7667 97.8328 45.86C97.5762 45.9487 97.3125 46.0117 97.0418 46.049C96.7758 46.0863 96.5168 46.105 96.2648 46.105C95.7655 46.105 95.3012 46.0233 94.8718 45.86C94.4425 45.692 94.0692 45.447 93.7518 45.125C93.4345 44.7983 93.1848 44.397 93.0028 43.921C92.8208 43.4403 92.7298 42.885 92.7298 42.255C92.7298 41.765 92.8092 41.3053 92.9678 40.876C93.1265 40.442 93.3528 40.0663 93.6468 39.749C93.9455 39.427 94.3072 39.1727 94.7318 38.986C95.1612 38.7993 95.6442 38.706 96.1808 38.706C96.6335 38.706 97.0512 38.7783 97.4338 38.923C97.8165 39.0677 98.1455 39.28 98.4208 39.56C98.6962 39.8353 98.9108 40.176 99.0648 40.582C99.2235 40.9833 99.3028 41.443 99.3028 41.961C99.3028 42.2223 99.2748 42.3997 99.2188 42.493C99.1628 42.5817 99.0555 42.626 98.8968 42.626H94.4518ZM108.513 40.652C108.317 40.414 108.102 40.246 107.869 40.148C107.64 40.05 107.393 40.001 107.127 40.001C106.865 40.001 106.63 40.05 106.42 40.148C106.21 40.246 106.03 40.3953 105.881 40.596C105.731 40.792 105.617 41.044 105.538 41.352C105.458 41.6553 105.419 42.0147 105.419 42.43C105.419 42.85 105.451 43.207 105.517 43.501C105.587 43.7903 105.685 44.0283 105.811 44.215C105.937 44.397 106.091 44.53 106.273 44.614C106.455 44.6933 106.658 44.733 106.882 44.733C107.241 44.733 107.547 44.6583 107.799 44.509C108.051 44.3597 108.289 44.1473 108.513 43.872V40.652ZM110.242 35.598V46H109.185C108.956 46 108.811 45.895 108.751 45.685L108.604 44.992C108.314 45.3233 107.981 45.5917 107.603 45.797C107.229 46.0023 106.793 46.105 106.294 46.105C105.902 46.105 105.542 46.0233 105.216 45.86C104.889 45.6967 104.607 45.461 104.369 45.153C104.135 44.8403 103.953 44.4553 103.823 43.998C103.697 43.5407 103.634 43.018 103.634 42.43C103.634 41.898 103.706 41.4033 103.851 40.946C103.995 40.4887 104.203 40.092 104.474 39.756C104.744 39.42 105.069 39.1587 105.447 38.972C105.825 38.7807 106.249 38.685 106.721 38.685C107.122 38.685 107.465 38.748 107.75 38.874C108.034 39 108.289 39.1703 108.513 39.385V35.598H110.242ZM113.74 38.818V46H112.004V38.818H113.74ZM113.978 36.725C113.978 36.8743 113.948 37.0143 113.887 37.145C113.826 37.2757 113.745 37.39 113.642 37.488C113.544 37.586 113.427 37.6653 113.292 37.726C113.157 37.782 113.012 37.81 112.858 37.81C112.709 37.81 112.566 37.782 112.431 37.726C112.3 37.6653 112.186 37.586 112.088 37.488C111.99 37.39 111.911 37.2757 111.85 37.145C111.794 37.0143 111.766 36.8743 111.766 36.725C111.766 36.571 111.794 36.4263 111.85 36.291C111.911 36.1557 111.99 36.039 112.088 35.941C112.186 35.843 112.3 35.766 112.431 35.71C112.566 35.6493 112.709 35.619 112.858 35.619C113.012 35.619 113.157 35.6493 113.292 35.71C113.427 35.766 113.544 35.843 113.642 35.941C113.745 36.039 113.826 36.1557 113.887 36.291C113.948 36.4263 113.978 36.571 113.978 36.725ZM119.885 40.218C119.838 40.2927 119.789 40.3463 119.738 40.379C119.686 40.407 119.621 40.421 119.542 40.421C119.458 40.421 119.367 40.3977 119.269 40.351C119.175 40.3043 119.066 40.253 118.94 40.197C118.814 40.1363 118.669 40.0827 118.506 40.036C118.347 39.9893 118.158 39.966 117.939 39.966C117.598 39.966 117.33 40.0383 117.134 40.183C116.942 40.3277 116.847 40.5167 116.847 40.75C116.847 40.904 116.896 41.0347 116.994 41.142C117.096 41.2447 117.229 41.3357 117.393 41.415C117.561 41.4943 117.75 41.5667 117.96 41.632C118.17 41.6927 118.382 41.7603 118.597 41.835C118.816 41.9097 119.031 41.996 119.241 42.094C119.451 42.1873 119.637 42.3087 119.801 42.458C119.969 42.6027 120.102 42.7777 120.2 42.983C120.302 43.1883 120.354 43.4357 120.354 43.725C120.354 44.0703 120.291 44.39 120.165 44.684C120.043 44.9733 119.861 45.2253 119.619 45.44C119.376 45.65 119.075 45.8157 118.716 45.937C118.361 46.0537 117.95 46.112 117.484 46.112C117.236 46.112 116.994 46.0887 116.756 46.042C116.522 46 116.296 45.9393 116.077 45.86C115.862 45.7807 115.661 45.6873 115.475 45.58C115.293 45.4727 115.132 45.356 114.992 45.23L115.391 44.572C115.442 44.4927 115.503 44.432 115.573 44.39C115.643 44.348 115.731 44.327 115.839 44.327C115.946 44.327 116.046 44.3573 116.14 44.418C116.238 44.4787 116.35 44.544 116.476 44.614C116.602 44.684 116.749 44.7493 116.917 44.81C117.089 44.8707 117.306 44.901 117.568 44.901C117.773 44.901 117.948 44.8777 118.093 44.831C118.242 44.7797 118.363 44.7143 118.457 44.635C118.555 44.5557 118.625 44.4647 118.667 44.362C118.713 44.2547 118.737 44.145 118.737 44.033C118.737 43.865 118.685 43.7273 118.583 43.62C118.485 43.5127 118.352 43.4193 118.184 43.34C118.02 43.2607 117.831 43.1907 117.617 43.13C117.407 43.0647 117.19 42.9947 116.966 42.92C116.746 42.8453 116.529 42.759 116.315 42.661C116.105 42.5583 115.916 42.43 115.748 42.276C115.584 42.122 115.451 41.933 115.349 41.709C115.251 41.485 115.202 41.2143 115.202 40.897C115.202 40.603 115.26 40.323 115.377 40.057C115.493 39.791 115.664 39.56 115.888 39.364C116.116 39.1633 116.399 39.0047 116.735 38.888C117.075 38.7667 117.467 38.706 117.911 38.706C118.405 38.706 118.856 38.7877 119.262 38.951C119.668 39.1143 120.006 39.329 120.277 39.595L119.885 40.218ZM124.049 46.112C123.424 46.112 122.943 45.937 122.607 45.587C122.276 45.2323 122.11 44.7447 122.11 44.124V40.113H121.375C121.282 40.113 121.202 40.0827 121.137 40.022C121.072 39.9613 121.039 39.8703 121.039 39.749V39.063L122.194 38.874L122.558 36.914C122.581 36.8207 122.626 36.7483 122.691 36.697C122.756 36.6457 122.84 36.62 122.943 36.62H123.839V38.881H125.757V40.113H123.839V44.005C123.839 44.229 123.893 44.404 124 44.53C124.112 44.656 124.264 44.719 124.455 44.719C124.562 44.719 124.651 44.7073 124.721 44.684C124.796 44.656 124.859 44.628 124.91 44.6C124.966 44.572 125.015 44.5463 125.057 44.523C125.099 44.495 125.141 44.481 125.183 44.481C125.234 44.481 125.276 44.495 125.309 44.523C125.342 44.5463 125.377 44.5837 125.414 44.635L125.932 45.475C125.68 45.685 125.391 45.8437 125.064 45.951C124.737 46.0583 124.399 46.112 124.049 46.112ZM128.495 40.064C128.719 39.6347 128.985 39.2987 129.293 39.056C129.601 38.8087 129.965 38.685 130.385 38.685C130.716 38.685 130.982 38.7573 131.183 38.902L131.071 40.197C131.048 40.281 131.013 40.3417 130.966 40.379C130.924 40.4117 130.866 40.428 130.791 40.428C130.721 40.428 130.616 40.4163 130.476 40.393C130.341 40.3697 130.208 40.358 130.077 40.358C129.886 40.358 129.715 40.386 129.566 40.442C129.417 40.498 129.281 40.5797 129.16 40.687C129.043 40.7897 128.938 40.9157 128.845 41.065C128.756 41.2143 128.672 41.3847 128.593 41.576V46H126.864V38.818H127.879C128.056 38.818 128.18 38.8507 128.25 38.916C128.32 38.9767 128.367 39.0887 128.39 39.252L128.495 40.064ZM133.879 38.818V46H132.143V38.818H133.879ZM134.117 36.725C134.117 36.8743 134.086 37.0143 134.026 37.145C133.965 37.2757 133.883 37.39 133.781 37.488C133.683 37.586 133.566 37.6653 133.431 37.726C133.295 37.782 133.151 37.81 132.997 37.81C132.847 37.81 132.705 37.782 132.57 37.726C132.439 37.6653 132.325 37.586 132.227 37.488C132.129 37.39 132.049 37.2757 131.989 37.145C131.933 37.0143 131.905 36.8743 131.905 36.725C131.905 36.571 131.933 36.4263 131.989 36.291C132.049 36.1557 132.129 36.039 132.227 35.941C132.325 35.843 132.439 35.766 132.57 35.71C132.705 35.6493 132.847 35.619 132.997 35.619C133.151 35.619 133.295 35.6493 133.431 35.71C133.566 35.766 133.683 35.843 133.781 35.941C133.883 36.039 133.965 36.1557 134.026 36.291C134.086 36.4263 134.117 36.571 134.117 36.725ZM137.37 44.138C137.566 44.376 137.779 44.544 138.007 44.642C138.241 44.74 138.486 44.789 138.742 44.789C139.008 44.789 139.246 44.7423 139.456 44.649C139.671 44.551 139.853 44.4017 140.002 44.201C140.152 43.9957 140.266 43.7367 140.345 43.424C140.425 43.1067 140.464 42.7287 140.464 42.29C140.464 41.5013 140.334 40.932 140.072 40.582C139.811 40.2273 139.435 40.05 138.945 40.05C138.614 40.05 138.325 40.127 138.077 40.281C137.83 40.4303 137.594 40.6427 137.37 40.918V44.138ZM137.37 39.7C137.66 39.3967 137.979 39.1563 138.329 38.979C138.684 38.797 139.088 38.706 139.54 38.706C139.956 38.706 140.329 38.7877 140.66 38.951C140.996 39.1143 141.281 39.35 141.514 39.658C141.752 39.9613 141.934 40.33 142.06 40.764C142.186 41.198 142.249 41.6857 142.249 42.227C142.249 42.8103 142.177 43.34 142.032 43.816C141.888 44.292 141.68 44.7003 141.409 45.041C141.143 45.377 140.821 45.6383 140.443 45.825C140.065 46.0117 139.645 46.105 139.183 46.105C138.959 46.105 138.756 46.0817 138.574 46.035C138.392 45.993 138.224 45.9323 138.07 45.853C137.916 45.7737 137.774 45.678 137.643 45.566C137.517 45.4493 137.396 45.321 137.279 45.181L137.202 45.664C137.174 45.7853 137.125 45.8717 137.055 45.923C136.99 45.9743 136.899 46 136.782 46H135.641V35.598H137.37V39.7ZM149.773 38.818V46H148.716C148.487 46 148.342 45.895 148.282 45.685L148.163 45.111C147.869 45.4097 147.544 45.6523 147.19 45.839C146.835 46.021 146.417 46.112 145.937 46.112C145.545 46.112 145.197 46.0467 144.894 45.916C144.595 45.7807 144.343 45.5917 144.138 45.349C143.932 45.1063 143.776 44.8193 143.669 44.488C143.566 44.152 143.515 43.7833 143.515 43.382V38.818H145.244V43.382C145.244 43.8207 145.344 44.1613 145.545 44.404C145.75 44.642 146.056 44.761 146.462 44.761C146.76 44.761 147.04 44.6957 147.302 44.565C147.563 44.4297 147.81 44.2453 148.044 44.012V38.818H149.773ZM156.646 39.532C156.646 39.6533 156.625 39.7723 156.583 39.889C156.541 40.0057 156.485 40.1013 156.415 40.176L153.006 44.67H156.541V46H150.997V45.279C150.997 45.1997 151.016 45.1063 151.053 44.999C151.09 44.887 151.146 44.782 151.221 44.684L154.665 40.141H151.2V38.818H156.646V39.532ZM159.719 38.818V46H157.983V38.818H159.719ZM159.957 36.725C159.957 36.8743 159.926 37.0143 159.866 37.145C159.805 37.2757 159.723 37.39 159.621 37.488C159.523 37.586 159.406 37.6653 159.271 37.726C159.135 37.782 158.991 37.81 158.837 37.81C158.687 37.81 158.545 37.782 158.41 37.726C158.279 37.6653 158.165 37.586 158.067 37.488C157.969 37.39 157.889 37.2757 157.829 37.145C157.773 37.0143 157.745 36.8743 157.745 36.725C157.745 36.571 157.773 36.4263 157.829 36.291C157.889 36.1557 157.969 36.039 158.067 35.941C158.165 35.843 158.279 35.766 158.41 35.71C158.545 35.6493 158.687 35.619 158.837 35.619C158.991 35.619 159.135 35.6493 159.271 35.71C159.406 35.766 159.523 35.843 159.621 35.941C159.723 36.039 159.805 36.1557 159.866 36.291C159.926 36.4263 159.957 36.571 159.957 36.725ZM164.659 38.706C165.191 38.706 165.674 38.7923 166.108 38.965C166.547 39.1377 166.92 39.3827 167.228 39.7C167.541 40.0173 167.781 40.4047 167.949 40.862C168.117 41.3193 168.201 41.8303 168.201 42.395C168.201 42.9643 168.117 43.4777 167.949 43.935C167.781 44.3923 167.541 44.782 167.228 45.104C166.92 45.426 166.547 45.6733 166.108 45.846C165.674 46.0187 165.191 46.105 164.659 46.105C164.123 46.105 163.635 46.0187 163.196 45.846C162.758 45.6733 162.382 45.426 162.069 45.104C161.761 44.782 161.521 44.3923 161.348 43.935C161.18 43.4777 161.096 42.9643 161.096 42.395C161.096 41.8303 161.18 41.3193 161.348 40.862C161.521 40.4047 161.761 40.0173 162.069 39.7C162.382 39.3827 162.758 39.1377 163.196 38.965C163.635 38.7923 164.123 38.706 164.659 38.706ZM164.659 44.775C165.257 44.775 165.698 44.5743 165.982 44.173C166.272 43.7717 166.416 43.1837 166.416 42.409C166.416 41.6343 166.272 41.044 165.982 40.638C165.698 40.232 165.257 40.029 164.659 40.029C164.053 40.029 163.602 40.2343 163.308 40.645C163.019 41.051 162.874 41.639 162.874 42.409C162.874 43.179 163.019 43.767 163.308 44.173C163.602 44.5743 164.053 44.775 164.659 44.775ZM171.137 39.7C171.282 39.5553 171.434 39.4223 171.592 39.301C171.756 39.175 171.926 39.07 172.103 38.986C172.285 38.8973 172.479 38.8297 172.684 38.783C172.89 38.7317 173.114 38.706 173.356 38.706C173.748 38.706 174.096 38.7737 174.399 38.909C174.703 39.0397 174.955 39.2263 175.155 39.469C175.361 39.707 175.515 39.994 175.617 40.33C175.725 40.6613 175.778 41.0277 175.778 41.429V46H174.049V41.429C174.049 40.9903 173.949 40.652 173.748 40.414C173.548 40.1713 173.242 40.05 172.831 40.05C172.533 40.05 172.253 40.1177 171.991 40.253C171.73 40.3883 171.483 40.5727 171.249 40.806V46H169.52V38.818H170.577C170.801 38.818 170.948 38.923 171.018 39.133L171.137 39.7ZM182.05 41.583C182.05 41.359 182.017 41.149 181.952 40.953C181.891 40.7523 181.798 40.5773 181.672 40.428C181.546 40.2787 181.385 40.162 181.189 40.078C180.997 39.9893 180.773 39.945 180.517 39.945C180.017 39.945 179.623 40.0873 179.334 40.372C179.049 40.6567 178.867 41.0603 178.788 41.583H182.05ZM178.753 42.626C178.781 42.9947 178.846 43.3143 178.949 43.585C179.051 43.851 179.187 44.0727 179.355 44.25C179.523 44.4227 179.721 44.5533 179.95 44.642C180.183 44.726 180.44 44.768 180.72 44.768C181 44.768 181.24 44.7353 181.441 44.67C181.646 44.6047 181.823 44.5323 181.973 44.453C182.127 44.3737 182.26 44.3013 182.372 44.236C182.488 44.1707 182.6 44.138 182.708 44.138C182.852 44.138 182.96 44.1917 183.03 44.299L183.527 44.929C183.335 45.153 183.121 45.342 182.883 45.496C182.645 45.6453 182.395 45.7667 182.134 45.86C181.877 45.9487 181.613 46.0117 181.343 46.049C181.077 46.0863 180.818 46.105 180.566 46.105C180.066 46.105 179.602 46.0233 179.173 45.86C178.743 45.692 178.37 45.447 178.053 45.125C177.735 44.7983 177.486 44.397 177.304 43.921C177.122 43.4403 177.031 42.885 177.031 42.255C177.031 41.765 177.11 41.3053 177.269 40.876C177.427 40.442 177.654 40.0663 177.948 39.749C178.246 39.427 178.608 39.1727 179.033 38.986C179.462 38.7993 179.945 38.706 180.482 38.706C180.934 38.706 181.352 38.7783 181.735 38.923C182.117 39.0677 182.446 39.28 182.722 39.56C182.997 39.8353 183.212 40.176 183.366 40.582C183.524 40.9833 183.604 41.443 183.604 41.961C183.604 42.2223 183.576 42.3997 183.52 42.493C183.464 42.5817 183.356 42.626 183.198 42.626H178.753ZM25.3175 55.818L22.4685 63H20.9005L18.0515 55.818H19.4795C19.6102 55.818 19.7175 55.8483 19.8015 55.909C19.8902 55.9697 19.9485 56.0467 19.9765 56.14L21.3625 59.976C21.4372 60.2 21.5025 60.4193 21.5585 60.634C21.6145 60.8487 21.6635 61.0633 21.7055 61.278C21.7522 61.0633 21.8035 60.8487 21.8595 60.634C21.9155 60.4193 21.9832 60.2 22.0625 59.976L23.4765 56.14C23.5092 56.0467 23.5675 55.9697 23.6515 55.909C23.7355 55.8483 23.8359 55.818 23.9525 55.818H25.3175ZM30.6473 58.583C30.6473 58.359 30.6146 58.149 30.5493 57.953C30.4886 57.7523 30.3953 57.5773 30.2693 57.428C30.1433 57.2787 29.9823 57.162 29.7863 57.078C29.5949 56.9893 29.3709 56.945 29.1143 56.945C28.6149 56.945 28.2206 57.0873 27.9313 57.372C27.6466 57.6567 27.4646 58.0603 27.3853 58.583H30.6473ZM27.3503 59.626C27.3783 59.9947 27.4436 60.3143 27.5463 60.585C27.6489 60.851 27.7843 61.0727 27.9523 61.25C28.1203 61.4227 28.3186 61.5533 28.5473 61.642C28.7806 61.726 29.0373 61.768 29.3173 61.768C29.5973 61.768 29.8376 61.7353 30.0383 61.67C30.2436 61.6047 30.4209 61.5323 30.5703 61.453C30.7243 61.3737 30.8573 61.3013 30.9693 61.236C31.0859 61.1707 31.1979 61.138 31.3053 61.138C31.4499 61.138 31.5573 61.1917 31.6273 61.299L32.1243 61.929C31.9329 62.153 31.7183 62.342 31.4803 62.496C31.2423 62.6453 30.9926 62.7667 30.7313 62.86C30.4746 62.9487 30.2109 63.0117 29.9403 63.049C29.6743 63.0863 29.4153 63.105 29.1633 63.105C28.6639 63.105 28.1996 63.0233 27.7703 62.86C27.3409 62.692 26.9676 62.447 26.6503 62.125C26.3329 61.7983 26.0833 61.397 25.9013 60.921C25.7193 60.4403 25.6283 59.885 25.6283 59.255C25.6283 58.765 25.7076 58.3053 25.8663 57.876C26.0249 57.442 26.2513 57.0663 26.5453 56.749C26.8439 56.427 27.2056 56.1727 27.6303 55.986C28.0596 55.7993 28.5426 55.706 29.0793 55.706C29.5319 55.706 29.9496 55.7783 30.3323 55.923C30.7149 56.0677 31.0439 56.28 31.3193 56.56C31.5946 56.8353 31.8093 57.176 31.9633 57.582C32.1219 57.9833 32.2013 58.443 32.2013 58.961C32.2013 59.2223 32.1733 59.3997 32.1173 59.493C32.0613 59.5817 31.9539 59.626 31.7953 59.626H27.3503ZM35.1298 57.064C35.3538 56.6347 35.6198 56.2987 35.9278 56.056C36.2358 55.8087 36.5998 55.685 37.0198 55.685C37.3511 55.685 37.6171 55.7573 37.8178 55.902L37.7058 57.197C37.6824 57.281 37.6474 57.3417 37.6008 57.379C37.5588 57.4117 37.5004 57.428 37.4258 57.428C37.3558 57.428 37.2508 57.4163 37.1108 57.393C36.9754 57.3697 36.8424 57.358 36.7118 57.358C36.5204 57.358 36.3501 57.386 36.2008 57.442C36.0514 57.498 35.9161 57.5797 35.7948 57.687C35.6781 57.7897 35.5731 57.9157 35.4798 58.065C35.3911 58.2143 35.3071 58.3847 35.2278 58.576V63H33.4988V55.818H34.5138C34.6911 55.818 34.8148 55.8507 34.8848 55.916C34.9548 55.9767 35.0014 56.0887 35.0248 56.252L35.1298 57.064ZM43.038 57.652C42.842 57.414 42.6274 57.246 42.394 57.148C42.1654 57.05 41.918 57.001 41.652 57.001C41.3907 57.001 41.155 57.05 40.945 57.148C40.735 57.246 40.5554 57.3953 40.406 57.596C40.2567 57.792 40.1424 58.044 40.063 58.352C39.9837 58.6553 39.944 59.0147 39.944 59.43C39.944 59.85 39.9767 60.207 40.042 60.501C40.112 60.7903 40.21 61.0283 40.336 61.215C40.462 61.397 40.616 61.53 40.798 61.614C40.98 61.6933 41.183 61.733 41.407 61.733C41.7664 61.733 42.072 61.6583 42.324 61.509C42.576 61.3597 42.814 61.1473 43.038 60.872V57.652ZM44.767 52.598V63H43.71C43.4814 63 43.3367 62.895 43.276 62.685L43.129 61.992C42.8397 62.3233 42.506 62.5917 42.128 62.797C41.7547 63.0023 41.3184 63.105 40.819 63.105C40.427 63.105 40.0677 63.0233 39.741 62.86C39.4144 62.6967 39.132 62.461 38.894 62.153C38.6607 61.8403 38.4787 61.4553 38.348 60.998C38.222 60.5407 38.159 60.018 38.159 59.43C38.159 58.898 38.2314 58.4033 38.376 57.946C38.5207 57.4887 38.7284 57.092 38.999 56.756C39.2697 56.42 39.594 56.1587 39.972 55.972C40.35 55.7807 40.7747 55.685 41.246 55.685C41.6474 55.685 41.9904 55.748 42.275 55.874C42.5597 56 42.814 56.1703 43.038 56.385V52.598H44.767ZM52.6614 55.818V63H51.6044C51.3757 63 51.2311 62.895 51.1704 62.685L51.0514 62.111C50.7574 62.4097 50.4331 62.6523 50.0784 62.839C49.7237 63.021 49.3061 63.112 48.8254 63.112C48.4334 63.112 48.0857 63.0467 47.7824 62.916C47.4837 62.7807 47.2317 62.5917 47.0264 62.349C46.8211 62.1063 46.6647 61.8193 46.5574 61.488C46.4547 61.152 46.4034 60.7833 46.4034 60.382V55.818H48.1324V60.382C48.1324 60.8207 48.2327 61.1613 48.4334 61.404C48.6387 61.642 48.9444 61.761 49.3504 61.761C49.6491 61.761 49.9291 61.6957 50.1904 61.565C50.4517 61.4297 50.6991 61.2453 50.9324 61.012V55.818H52.6614ZM56.0067 57.064C56.2307 56.6347 56.4967 56.2987 56.8047 56.056C57.1127 55.8087 57.4767 55.685 57.8967 55.685C58.2281 55.685 58.4941 55.7573 58.6947 55.902L58.5827 57.197C58.5594 57.281 58.5244 57.3417 58.4777 57.379C58.4357 57.4117 58.3774 57.428 58.3027 57.428C58.2327 57.428 58.1277 57.4163 57.9877 57.393C57.8524 57.3697 57.7194 57.358 57.5887 57.358C57.3974 57.358 57.2271 57.386 57.0777 57.442C56.9284 57.498 56.7931 57.5797 56.6717 57.687C56.5551 57.7897 56.4501 57.9157 56.3567 58.065C56.2681 58.2143 56.1841 58.3847 56.1047 58.576V63H54.3757V55.818H55.3907C55.5681 55.818 55.6917 55.8507 55.7617 55.916C55.8317 55.9767 55.8784 56.0887 55.9017 56.252L56.0067 57.064ZM63.2967 59.934C62.7973 59.9573 62.3773 60.0017 62.0367 60.067C61.696 60.1277 61.423 60.207 61.2177 60.305C61.0123 60.403 60.8653 60.5173 60.7767 60.648C60.688 60.7787 60.6437 60.921 60.6437 61.075C60.6437 61.3783 60.7323 61.5953 60.9097 61.726C61.0917 61.8567 61.3273 61.922 61.6167 61.922C61.9713 61.922 62.277 61.859 62.5337 61.733C62.795 61.6023 63.0493 61.4063 63.2967 61.145V59.934ZM59.3347 56.819C60.1607 56.063 61.1547 55.685 62.3167 55.685C62.7367 55.685 63.1123 55.755 63.4437 55.895C63.775 56.0303 64.055 56.2217 64.2837 56.469C64.5123 56.7117 64.685 57.0033 64.8017 57.344C64.923 57.6847 64.9837 58.058 64.9837 58.464V63H64.1997C64.0363 63 63.9103 62.9767 63.8217 62.93C63.733 62.8787 63.663 62.7783 63.6117 62.629L63.4577 62.111C63.2757 62.2743 63.0983 62.419 62.9257 62.545C62.753 62.6663 62.5733 62.769 62.3867 62.853C62.2 62.937 61.9993 63 61.7847 63.042C61.5747 63.0887 61.3413 63.112 61.0847 63.112C60.7813 63.112 60.5013 63.0723 60.2447 62.993C59.988 62.909 59.7663 62.7853 59.5797 62.622C59.393 62.4587 59.2483 62.2557 59.1457 62.013C59.043 61.7703 58.9917 61.488 58.9917 61.166C58.9917 60.984 59.022 60.8043 59.0827 60.627C59.1433 60.445 59.2413 60.2723 59.3767 60.109C59.5167 59.9457 59.6963 59.7917 59.9157 59.647C60.135 59.5023 60.4033 59.3763 60.7207 59.269C61.0427 59.1617 61.416 59.0753 61.8407 59.01C62.2653 58.94 62.7507 58.898 63.2967 58.884V58.464C63.2967 57.9833 63.194 57.6287 62.9887 57.4C62.7833 57.1667 62.487 57.05 62.0997 57.05C61.8197 57.05 61.5863 57.0827 61.3997 57.148C61.2177 57.2133 61.0567 57.288 60.9167 57.372C60.7767 57.4513 60.6483 57.5237 60.5317 57.589C60.4197 57.6543 60.2937 57.687 60.1537 57.687C60.0323 57.687 59.9297 57.6567 59.8457 57.596C59.7617 57.5307 59.694 57.456 59.6427 57.372L59.3347 56.819ZM71.7454 61.138C71.9414 61.376 72.1537 61.544 72.3824 61.642C72.6157 61.74 72.8607 61.789 73.1174 61.789C73.3834 61.789 73.6214 61.7423 73.8314 61.649C74.046 61.551 74.228 61.4017 74.3774 61.201C74.5267 60.9957 74.641 60.7367 74.7204 60.424C74.7997 60.1067 74.8394 59.7287 74.8394 59.29C74.8394 58.5013 74.7087 57.932 74.4474 57.582C74.186 57.2273 73.8104 57.05 73.3204 57.05C72.989 57.05 72.6997 57.127 72.4524 57.281C72.205 57.4303 71.9694 57.6427 71.7454 57.918V61.138ZM71.7454 56.7C72.0347 56.3967 72.3544 56.1563 72.7044 55.979C73.059 55.797 73.4627 55.706 73.9154 55.706C74.3307 55.706 74.704 55.7877 75.0354 55.951C75.3714 56.1143 75.656 56.35 75.8894 56.658C76.1274 56.9613 76.3094 57.33 76.4354 57.764C76.5614 58.198 76.6244 58.6857 76.6244 59.227C76.6244 59.8103 76.552 60.34 76.4074 60.816C76.2627 61.292 76.055 61.7003 75.7844 62.041C75.5184 62.377 75.1964 62.6383 74.8184 62.825C74.4404 63.0117 74.0204 63.105 73.5584 63.105C73.3344 63.105 73.1314 63.0817 72.9494 63.035C72.7674 62.993 72.5994 62.9323 72.4454 62.853C72.2914 62.7737 72.149 62.678 72.0184 62.566C71.8924 62.4493 71.771 62.321 71.6544 62.181L71.5774 62.664C71.5494 62.7853 71.5004 62.8717 71.4304 62.923C71.365 62.9743 71.274 63 71.1574 63H70.0164V52.598H71.7454V56.7ZM79.7517 55.818V63H78.0157V55.818H79.7517ZM79.9897 53.725C79.9897 53.8743 79.9594 54.0143 79.8987 54.145C79.838 54.2757 79.7564 54.39 79.6537 54.488C79.5557 54.586 79.439 54.6653 79.3037 54.726C79.1684 54.782 79.0237 54.81 78.8697 54.81C78.7204 54.81 78.578 54.782 78.4427 54.726C78.312 54.6653 78.1977 54.586 78.0997 54.488C78.0017 54.39 77.9224 54.2757 77.8617 54.145C77.8057 54.0143 77.7777 53.8743 77.7777 53.725C77.7777 53.571 77.8057 53.4263 77.8617 53.291C77.9224 53.1557 78.0017 53.039 78.0997 52.941C78.1977 52.843 78.312 52.766 78.4427 52.71C78.578 52.6493 78.7204 52.619 78.8697 52.619C79.0237 52.619 79.1684 52.6493 79.3037 52.71C79.439 52.766 79.5557 52.843 79.6537 52.941C79.7564 53.039 79.838 53.1557 79.8987 53.291C79.9594 53.4263 79.9897 53.571 79.9897 53.725ZM84.6924 55.706C85.2244 55.706 85.7074 55.7923 86.1414 55.965C86.5801 56.1377 86.9534 56.3827 87.2614 56.7C87.5741 57.0173 87.8144 57.4047 87.9824 57.862C88.1504 58.3193 88.2344 58.8303 88.2344 59.395C88.2344 59.9643 88.1504 60.4777 87.9824 60.935C87.8144 61.3923 87.5741 61.782 87.2614 62.104C86.9534 62.426 86.5801 62.6733 86.1414 62.846C85.7074 63.0187 85.2244 63.105 84.6924 63.105C84.1557 63.105 83.6681 63.0187 83.2294 62.846C82.7907 62.6733 82.4151 62.426 82.1024 62.104C81.7944 61.782 81.5541 61.3923 81.3814 60.935C81.2134 60.4777 81.1294 59.9643 81.1294 59.395C81.1294 58.8303 81.2134 58.3193 81.3814 57.862C81.5541 57.4047 81.7944 57.0173 82.1024 56.7C82.4151 56.3827 82.7907 56.1377 83.2294 55.965C83.6681 55.7923 84.1557 55.706 84.6924 55.706ZM84.6924 61.775C85.2897 61.775 85.7307 61.5743 86.0154 61.173C86.3047 60.7717 86.4494 60.1837 86.4494 59.409C86.4494 58.6343 86.3047 58.044 86.0154 57.638C85.7307 57.232 85.2897 57.029 84.6924 57.029C84.0857 57.029 83.6354 57.2343 83.3414 57.645C83.0521 58.051 82.9074 58.639 82.9074 59.409C82.9074 60.179 83.0521 60.767 83.3414 61.173C83.6354 61.5743 84.0857 61.775 84.6924 61.775ZM91.3035 52.598V63H89.5745V52.598H91.3035ZM96.2041 55.706C96.7361 55.706 97.2191 55.7923 97.6531 55.965C98.0918 56.1377 98.4651 56.3827 98.7731 56.7C99.0858 57.0173 99.3261 57.4047 99.4941 57.862C99.6621 58.3193 99.7461 58.8303 99.7461 59.395C99.7461 59.9643 99.6621 60.4777 99.4941 60.935C99.3261 61.3923 99.0858 61.782 98.7731 62.104C98.4651 62.426 98.0918 62.6733 97.6531 62.846C97.2191 63.0187 96.7361 63.105 96.2041 63.105C95.6675 63.105 95.1798 63.0187 94.7411 62.846C94.3025 62.6733 93.9268 62.426 93.6141 62.104C93.3061 61.782 93.0658 61.3923 92.8931 60.935C92.7251 60.4777 92.6411 59.9643 92.6411 59.395C92.6411 58.8303 92.7251 58.3193 92.8931 57.862C93.0658 57.4047 93.3061 57.0173 93.6141 56.7C93.9268 56.3827 94.3025 56.1377 94.7411 55.965C95.1798 55.7923 95.6675 55.706 96.2041 55.706ZM96.2041 61.775C96.8015 61.775 97.2425 61.5743 97.5271 61.173C97.8165 60.7717 97.9611 60.1837 97.9611 59.409C97.9611 58.6343 97.8165 58.044 97.5271 57.638C97.2425 57.232 96.8015 57.029 96.2041 57.029C95.5975 57.029 95.1471 57.2343 94.8531 57.645C94.5638 58.051 94.4191 58.639 94.4191 59.409C94.4191 60.179 94.5638 60.767 94.8531 61.173C95.1471 61.5743 95.5975 61.775 96.2041 61.775ZM103.635 59.234C103.85 59.234 104.037 59.206 104.195 59.15C104.354 59.0893 104.485 59.0077 104.587 58.905C104.695 58.8023 104.774 58.6787 104.825 58.534C104.881 58.3893 104.909 58.2307 104.909 58.058C104.909 57.7033 104.802 57.4233 104.587 57.218C104.377 57.008 104.06 56.903 103.635 56.903C103.211 56.903 102.891 57.008 102.676 57.218C102.466 57.4233 102.361 57.7033 102.361 58.058C102.361 58.226 102.387 58.3823 102.438 58.527C102.494 58.6717 102.574 58.7977 102.676 58.905C102.784 59.0077 102.917 59.0893 103.075 59.15C103.239 59.206 103.425 59.234 103.635 59.234ZM105.588 63.322C105.588 63.182 105.546 63.0677 105.462 62.979C105.378 62.8903 105.264 62.8227 105.119 62.776C104.975 62.7247 104.804 62.6873 104.608 62.664C104.417 62.6407 104.212 62.6243 103.992 62.615C103.778 62.601 103.554 62.5893 103.32 62.58C103.092 62.5707 102.868 62.552 102.648 62.524C102.457 62.6313 102.301 62.7573 102.179 62.902C102.063 63.0467 102.004 63.2147 102.004 63.406C102.004 63.532 102.035 63.6487 102.095 63.756C102.161 63.868 102.261 63.9637 102.396 64.043C102.536 64.1223 102.716 64.183 102.935 64.225C103.155 64.2717 103.423 64.295 103.74 64.295C104.062 64.295 104.34 64.2693 104.573 64.218C104.807 64.1713 104.998 64.1037 105.147 64.015C105.301 63.931 105.413 63.8283 105.483 63.707C105.553 63.5903 105.588 63.462 105.588 63.322ZM107.31 56.063V56.707C107.31 56.9123 107.187 57.0383 106.939 57.085L106.295 57.204C106.393 57.4513 106.442 57.722 106.442 58.016C106.442 58.3707 106.37 58.6927 106.225 58.982C106.085 59.2667 105.889 59.5093 105.637 59.71C105.385 59.9107 105.087 60.067 104.741 60.179C104.401 60.2863 104.032 60.34 103.635 60.34C103.495 60.34 103.36 60.333 103.229 60.319C103.099 60.305 102.97 60.2863 102.844 60.263C102.62 60.3983 102.508 60.55 102.508 60.718C102.508 60.8627 102.574 60.97 102.704 61.04C102.84 61.1053 103.017 61.152 103.236 61.18C103.456 61.208 103.705 61.2267 103.985 61.236C104.265 61.2407 104.552 61.2547 104.846 61.278C105.14 61.3013 105.427 61.3433 105.707 61.404C105.987 61.46 106.237 61.551 106.456 61.677C106.676 61.803 106.851 61.9757 106.981 62.195C107.117 62.4097 107.184 62.6873 107.184 63.028C107.184 63.3453 107.105 63.6533 106.946 63.952C106.792 64.2507 106.566 64.5167 106.267 64.75C105.973 64.9833 105.609 65.17 105.175 65.31C104.746 65.4547 104.256 65.527 103.705 65.527C103.164 65.527 102.693 65.4733 102.291 65.366C101.89 65.2633 101.556 65.1233 101.29 64.946C101.024 64.7733 100.826 64.5727 100.695 64.344C100.565 64.1153 100.499 63.8773 100.499 63.63C100.499 63.294 100.6 63.014 100.8 62.79C101.006 62.5613 101.286 62.3793 101.64 62.244C101.449 62.146 101.297 62.0153 101.185 61.852C101.073 61.6887 101.017 61.474 101.017 61.208C101.017 61.1007 101.036 60.991 101.073 60.879C101.115 60.7623 101.174 60.648 101.248 60.536C101.328 60.424 101.426 60.319 101.542 60.221C101.659 60.1183 101.797 60.0273 101.955 59.948C101.591 59.752 101.304 59.4907 101.094 59.164C100.889 58.8373 100.786 58.4547 100.786 58.016C100.786 57.6613 100.856 57.3417 100.996 57.057C101.141 56.7677 101.339 56.5227 101.591 56.322C101.848 56.1167 102.149 55.9603 102.494 55.853C102.844 55.7457 103.225 55.692 103.635 55.692C103.943 55.692 104.233 55.7247 104.503 55.79C104.774 55.8507 105.021 55.9417 105.245 56.063H107.31ZM110.199 55.818V63H108.463V55.818H110.199ZM110.437 53.725C110.437 53.8743 110.407 54.0143 110.346 54.145C110.285 54.2757 110.204 54.39 110.101 54.488C110.003 54.586 109.886 54.6653 109.751 54.726C109.616 54.782 109.471 54.81 109.317 54.81C109.168 54.81 109.025 54.782 108.89 54.726C108.759 54.6653 108.645 54.586 108.547 54.488C108.449 54.39 108.37 54.2757 108.309 54.145C108.253 54.0143 108.225 53.8743 108.225 53.725C108.225 53.571 108.253 53.4263 108.309 53.291C108.37 53.1557 108.449 53.039 108.547 52.941C108.645 52.843 108.759 52.766 108.89 52.71C109.025 52.6493 109.168 52.619 109.317 52.619C109.471 52.619 109.616 52.6493 109.751 52.71C109.886 52.766 110.003 52.843 110.101 52.941C110.204 53.039 110.285 53.1557 110.346 53.291C110.407 53.4263 110.437 53.571 110.437 53.725ZM117.107 57.337C117.055 57.4023 117.004 57.4537 116.953 57.491C116.906 57.5283 116.836 57.547 116.743 57.547C116.654 57.547 116.568 57.5213 116.484 57.47C116.4 57.414 116.299 57.3533 116.183 57.288C116.066 57.218 115.926 57.1573 115.763 57.106C115.604 57.05 115.406 57.022 115.168 57.022C114.864 57.022 114.598 57.078 114.37 57.19C114.141 57.2973 113.95 57.4537 113.796 57.659C113.646 57.8643 113.534 58.114 113.46 58.408C113.385 58.6973 113.348 59.0263 113.348 59.395C113.348 59.7777 113.387 60.1183 113.467 60.417C113.551 60.7157 113.67 60.9677 113.824 61.173C113.978 61.3737 114.164 61.5277 114.384 61.635C114.603 61.7377 114.85 61.789 115.126 61.789C115.401 61.789 115.623 61.7563 115.791 61.691C115.963 61.621 116.108 61.5463 116.225 61.467C116.341 61.383 116.442 61.3083 116.526 61.243C116.614 61.173 116.712 61.138 116.82 61.138C116.96 61.138 117.065 61.1917 117.135 61.299L117.632 61.929C117.44 62.153 117.233 62.342 117.009 62.496C116.785 62.6453 116.551 62.7667 116.309 62.86C116.071 62.9487 115.823 63.0117 115.567 63.049C115.315 63.0863 115.063 63.105 114.811 63.105C114.367 63.105 113.95 63.0233 113.558 62.86C113.166 62.692 112.823 62.4493 112.529 62.132C112.235 61.8147 112.001 61.4273 111.829 60.97C111.661 60.508 111.577 59.983 111.577 59.395C111.577 58.8677 111.651 58.38 111.801 57.932C111.955 57.4793 112.179 57.0897 112.473 56.763C112.767 56.4317 113.131 56.1727 113.565 55.986C113.999 55.7993 114.498 55.706 115.063 55.706C115.599 55.706 116.068 55.7923 116.47 55.965C116.876 56.1377 117.24 56.385 117.562 56.707L117.107 57.337ZM122.51 59.934C122.01 59.9573 121.59 60.0017 121.25 60.067C120.909 60.1277 120.636 60.207 120.431 60.305C120.225 60.403 120.078 60.5173 119.99 60.648C119.901 60.7787 119.857 60.921 119.857 61.075C119.857 61.3783 119.945 61.5953 120.123 61.726C120.305 61.8567 120.54 61.922 120.83 61.922C121.184 61.922 121.49 61.859 121.747 61.733C122.008 61.6023 122.262 61.4063 122.51 61.145V59.934ZM118.548 56.819C119.374 56.063 120.368 55.685 121.53 55.685C121.95 55.685 122.325 55.755 122.657 55.895C122.988 56.0303 123.268 56.2217 123.497 56.469C123.725 56.7117 123.898 57.0033 124.015 57.344C124.136 57.6847 124.197 58.058 124.197 58.464V63H123.413C123.249 63 123.123 62.9767 123.035 62.93C122.946 62.8787 122.876 62.7783 122.825 62.629L122.671 62.111C122.489 62.2743 122.311 62.419 122.139 62.545C121.966 62.6663 121.786 62.769 121.6 62.853C121.413 62.937 121.212 63 120.998 63.042C120.788 63.0887 120.554 63.112 120.298 63.112C119.994 63.112 119.714 63.0723 119.458 62.993C119.201 62.909 118.979 62.7853 118.793 62.622C118.606 62.4587 118.461 62.2557 118.359 62.013C118.256 61.7703 118.205 61.488 118.205 61.166C118.205 60.984 118.235 60.8043 118.296 60.627C118.356 60.445 118.454 60.2723 118.59 60.109C118.73 59.9457 118.909 59.7917 119.129 59.647C119.348 59.5023 119.616 59.3763 119.934 59.269C120.256 59.1617 120.629 59.0753 121.054 59.01C121.478 58.94 121.964 58.898 122.51 58.884V58.464C122.51 57.9833 122.407 57.6287 122.202 57.4C121.996 57.1667 121.7 57.05 121.313 57.05C121.033 57.05 120.799 57.0827 120.613 57.148C120.431 57.2133 120.27 57.288 120.13 57.372C119.99 57.4513 119.861 57.5237 119.745 57.589C119.633 57.6543 119.507 57.687 119.367 57.687C119.245 57.687 119.143 57.6567 119.059 57.596C118.975 57.5307 118.907 57.456 118.856 57.372L118.548 56.819ZM129.173 58.051H132.799V59.493H129.173V58.051ZM142.203 61.481C142.567 61.481 142.892 61.4203 143.176 61.299C143.466 61.1777 143.708 61.0073 143.904 60.788C144.1 60.5687 144.25 60.3027 144.352 59.99C144.46 59.6773 144.513 59.3273 144.513 58.94V52.878H146.396V58.94C146.396 59.542 146.298 60.0997 146.102 60.613C145.911 61.1217 145.633 61.5627 145.269 61.936C144.91 62.3047 144.471 62.594 143.953 62.804C143.435 63.0093 142.852 63.112 142.203 63.112C141.55 63.112 140.964 63.0093 140.446 62.804C139.928 62.594 139.487 62.3047 139.123 61.936C138.764 61.5627 138.486 61.1217 138.29 60.613C138.099 60.0997 138.003 59.542 138.003 58.94V52.878H139.886V58.933C139.886 59.3203 139.938 59.6703 140.04 59.983C140.148 60.2957 140.299 60.564 140.495 60.788C140.696 61.0073 140.939 61.1777 141.223 61.299C141.513 61.4203 141.839 61.481 142.203 61.481ZM155.471 60.613C155.573 60.613 155.664 60.6527 155.744 60.732L156.486 61.537C156.075 62.0457 155.569 62.4353 154.967 62.706C154.369 62.9767 153.651 63.112 152.811 63.112C152.059 63.112 151.383 62.9837 150.781 62.727C150.183 62.4703 149.672 62.1133 149.248 61.656C148.823 61.1987 148.496 60.6527 148.268 60.018C148.044 59.3833 147.932 58.6903 147.932 57.939C147.932 57.1783 148.053 56.483 148.296 55.853C148.538 55.2183 148.879 54.6723 149.318 54.215C149.761 53.7577 150.288 53.403 150.9 53.151C151.511 52.8943 152.188 52.766 152.93 52.766C153.667 52.766 154.32 52.8873 154.89 53.13C155.464 53.3727 155.951 53.69 156.353 54.082L155.723 54.957C155.685 55.013 155.636 55.062 155.576 55.104C155.52 55.146 155.44 55.167 155.338 55.167C155.268 55.167 155.195 55.1483 155.121 55.111C155.046 55.069 154.964 55.02 154.876 54.964C154.787 54.9033 154.684 54.838 154.568 54.768C154.451 54.698 154.316 54.635 154.162 54.579C154.008 54.5183 153.828 54.4693 153.623 54.432C153.422 54.39 153.189 54.369 152.923 54.369C152.47 54.369 152.055 54.4507 151.677 54.614C151.303 54.7727 150.981 55.006 150.711 55.314C150.44 55.6173 150.23 55.9907 150.081 56.434C149.931 56.8727 149.857 57.3743 149.857 57.939C149.857 58.5083 149.936 59.0147 150.095 59.458C150.258 59.9013 150.477 60.2747 150.753 60.578C151.028 60.8813 151.352 61.1147 151.726 61.278C152.099 61.4367 152.5 61.516 152.93 61.516C153.186 61.516 153.417 61.502 153.623 61.474C153.833 61.446 154.024 61.4017 154.197 61.341C154.374 61.2803 154.54 61.2033 154.694 61.11C154.852 61.012 155.009 60.893 155.163 60.753C155.209 60.711 155.258 60.6783 155.31 60.655C155.361 60.627 155.415 60.613 155.471 60.613ZM161.297 59.934C160.797 59.9573 160.377 60.0017 160.037 60.067C159.696 60.1277 159.423 60.207 159.218 60.305C159.012 60.403 158.865 60.5173 158.777 60.648C158.688 60.7787 158.644 60.921 158.644 61.075C158.644 61.3783 158.732 61.5953 158.91 61.726C159.092 61.8567 159.327 61.922 159.617 61.922C159.971 61.922 160.277 61.859 160.534 61.733C160.795 61.6023 161.049 61.4063 161.297 61.145V59.934ZM157.335 56.819C158.161 56.063 159.155 55.685 160.317 55.685C160.737 55.685 161.112 55.755 161.444 55.895C161.775 56.0303 162.055 56.2217 162.284 56.469C162.512 56.7117 162.685 57.0033 162.802 57.344C162.923 57.6847 162.984 58.058 162.984 58.464V63H162.2C162.036 63 161.91 62.9767 161.822 62.93C161.733 62.8787 161.663 62.7783 161.612 62.629L161.458 62.111C161.276 62.2743 161.098 62.419 160.926 62.545C160.753 62.6663 160.573 62.769 160.387 62.853C160.2 62.937 159.999 63 159.785 63.042C159.575 63.0887 159.341 63.112 159.085 63.112C158.781 63.112 158.501 63.0723 158.245 62.993C157.988 62.909 157.766 62.7853 157.58 62.622C157.393 62.4587 157.248 62.2557 157.146 62.013C157.043 61.7703 156.992 61.488 156.992 61.166C156.992 60.984 157.022 60.8043 157.083 60.627C157.143 60.445 157.241 60.2723 157.377 60.109C157.517 59.9457 157.696 59.7917 157.916 59.647C158.135 59.5023 158.403 59.3763 158.721 59.269C159.043 59.1617 159.416 59.0753 159.841 59.01C160.265 58.94 160.751 58.898 161.297 58.884V58.464C161.297 57.9833 161.194 57.6287 160.989 57.4C160.783 57.1667 160.487 57.05 160.1 57.05C159.82 57.05 159.586 57.0827 159.4 57.148C159.218 57.2133 159.057 57.288 158.917 57.372C158.777 57.4513 158.648 57.5237 158.532 57.589C158.42 57.6543 158.294 57.687 158.154 57.687C158.032 57.687 157.93 57.6567 157.846 57.596C157.762 57.5307 157.694 57.456 157.643 57.372L157.335 56.819ZM170.923 55.818L168.074 63H166.506L163.657 55.818H165.085C165.216 55.818 165.323 55.8483 165.407 55.909C165.496 55.9697 165.554 56.0467 165.582 56.14L166.968 59.976C167.043 60.2 167.108 60.4193 167.164 60.634C167.22 60.8487 167.269 61.0633 167.311 61.278C167.358 61.0633 167.409 60.8487 167.465 60.634C167.521 60.4193 167.589 60.2 167.668 59.976L169.082 56.14C169.115 56.0467 169.173 55.9697 169.257 55.909C169.341 55.8483 169.441 55.818 169.558 55.818H170.923ZM175.461 59.934C174.961 59.9573 174.541 60.0017 174.201 60.067C173.86 60.1277 173.587 60.207 173.382 60.305C173.176 60.403 173.029 60.5173 172.941 60.648C172.852 60.7787 172.808 60.921 172.808 61.075C172.808 61.3783 172.896 61.5953 173.074 61.726C173.256 61.8567 173.491 61.922 173.781 61.922C174.135 61.922 174.441 61.859 174.698 61.733C174.959 61.6023 175.213 61.4063 175.461 61.145V59.934ZM171.499 56.819C172.325 56.063 173.319 55.685 174.481 55.685C174.901 55.685 175.276 55.755 175.608 55.895C175.939 56.0303 176.219 56.2217 176.448 56.469C176.676 56.7117 176.849 57.0033 176.966 57.344C177.087 57.6847 177.148 58.058 177.148 58.464V63H176.364C176.2 63 176.074 62.9767 175.986 62.93C175.897 62.8787 175.827 62.7783 175.776 62.629L175.622 62.111C175.44 62.2743 175.262 62.419 175.09 62.545C174.917 62.6663 174.737 62.769 174.551 62.853C174.364 62.937 174.163 63 173.949 63.042C173.739 63.0887 173.505 63.112 173.249 63.112C172.945 63.112 172.665 63.0723 172.409 62.993C172.152 62.909 171.93 62.7853 171.744 62.622C171.557 62.4587 171.412 62.2557 171.31 62.013C171.207 61.7703 171.156 61.488 171.156 61.166C171.156 60.984 171.186 60.8043 171.247 60.627C171.307 60.445 171.405 60.2723 171.541 60.109C171.681 59.9457 171.86 59.7917 172.08 59.647C172.299 59.5023 172.567 59.3763 172.885 59.269C173.207 59.1617 173.58 59.0753 174.005 59.01C174.429 58.94 174.915 58.898 175.461 58.884V58.464C175.461 57.9833 175.358 57.6287 175.153 57.4C174.947 57.1667 174.651 57.05 174.264 57.05C173.984 57.05 173.75 57.0827 173.564 57.148C173.382 57.2133 173.221 57.288 173.081 57.372C172.941 57.4513 172.812 57.5237 172.696 57.589C172.584 57.6543 172.458 57.687 172.318 57.687C172.196 57.687 172.094 57.6567 172.01 57.596C171.926 57.5307 171.858 57.456 171.807 57.372L171.499 56.819ZM181.401 59.234C181.616 59.234 181.802 59.206 181.961 59.15C182.12 59.0893 182.25 59.0077 182.353 58.905C182.46 58.8023 182.54 58.6787 182.591 58.534C182.647 58.3893 182.675 58.2307 182.675 58.058C182.675 57.7033 182.568 57.4233 182.353 57.218C182.143 57.008 181.826 56.903 181.401 56.903C180.976 56.903 180.657 57.008 180.442 57.218C180.232 57.4233 180.127 57.7033 180.127 58.058C180.127 58.226 180.153 58.3823 180.204 58.527C180.26 58.6717 180.339 58.7977 180.442 58.905C180.549 59.0077 180.682 59.0893 180.841 59.15C181.004 59.206 181.191 59.234 181.401 59.234ZM183.354 63.322C183.354 63.182 183.312 63.0677 183.228 62.979C183.144 62.8903 183.03 62.8227 182.885 62.776C182.74 62.7247 182.57 62.6873 182.374 62.664C182.183 62.6407 181.977 62.6243 181.758 62.615C181.543 62.601 181.319 62.5893 181.086 62.58C180.857 62.5707 180.633 62.552 180.414 62.524C180.223 62.6313 180.066 62.7573 179.945 62.902C179.828 63.0467 179.77 63.2147 179.77 63.406C179.77 63.532 179.8 63.6487 179.861 63.756C179.926 63.868 180.027 63.9637 180.162 64.043C180.302 64.1223 180.482 64.183 180.701 64.225C180.92 64.2717 181.189 64.295 181.506 64.295C181.828 64.295 182.106 64.2693 182.339 64.218C182.572 64.1713 182.764 64.1037 182.913 64.015C183.067 63.931 183.179 63.8283 183.249 63.707C183.319 63.5903 183.354 63.462 183.354 63.322ZM185.076 56.063V56.707C185.076 56.9123 184.952 57.0383 184.705 57.085L184.061 57.204C184.159 57.4513 184.208 57.722 184.208 58.016C184.208 58.3707 184.136 58.6927 183.991 58.982C183.851 59.2667 183.655 59.5093 183.403 59.71C183.151 59.9107 182.852 60.067 182.507 60.179C182.166 60.2863 181.798 60.34 181.401 60.34C181.261 60.34 181.126 60.333 180.995 60.319C180.864 60.305 180.736 60.2863 180.61 60.263C180.386 60.3983 180.274 60.55 180.274 60.718C180.274 60.8627 180.339 60.97 180.47 61.04C180.605 61.1053 180.783 61.152 181.002 61.18C181.221 61.208 181.471 61.2267 181.751 61.236C182.031 61.2407 182.318 61.2547 182.612 61.278C182.906 61.3013 183.193 61.3433 183.473 61.404C183.753 61.46 184.003 61.551 184.222 61.677C184.441 61.803 184.616 61.9757 184.747 62.195C184.882 62.4097 184.95 62.6873 184.95 63.028C184.95 63.3453 184.871 63.6533 184.712 63.952C184.558 64.2507 184.332 64.5167 184.033 64.75C183.739 64.9833 183.375 65.17 182.941 65.31C182.512 65.4547 182.022 65.527 181.471 65.527C180.93 65.527 180.458 65.4733 180.057 65.366C179.656 65.2633 179.322 65.1233 179.056 64.946C178.79 64.7733 178.592 64.5727 178.461 64.344C178.33 64.1153 178.265 63.8773 178.265 63.63C178.265 63.294 178.365 63.014 178.566 62.79C178.771 62.5613 179.051 62.3793 179.406 62.244C179.215 62.146 179.063 62.0153 178.951 61.852C178.839 61.6887 178.783 61.474 178.783 61.208C178.783 61.1007 178.802 60.991 178.839 60.879C178.881 60.7623 178.939 60.648 179.014 60.536C179.093 60.424 179.191 60.319 179.308 60.221C179.425 60.1183 179.562 60.0273 179.721 59.948C179.357 59.752 179.07 59.4907 178.86 59.164C178.655 58.8373 178.552 58.4547 178.552 58.016C178.552 57.6613 178.622 57.3417 178.762 57.057C178.907 56.7677 179.105 56.5227 179.357 56.322C179.614 56.1167 179.915 55.9603 180.26 55.853C180.61 55.7457 180.99 55.692 181.401 55.692C181.709 55.692 181.998 55.7247 182.269 55.79C182.54 55.8507 182.787 55.9417 183.011 56.063H185.076ZM187.79 56.7C187.934 56.5553 188.086 56.4223 188.245 56.301C188.408 56.175 188.578 56.07 188.756 55.986C188.938 55.8973 189.131 55.8297 189.337 55.783C189.542 55.7317 189.766 55.706 190.009 55.706C190.401 55.706 190.748 55.7737 191.052 55.909C191.355 56.0397 191.607 56.2263 191.808 56.469C192.013 56.707 192.167 56.994 192.27 57.33C192.377 57.6613 192.431 58.0277 192.431 58.429V63H190.702V58.429C190.702 57.9903 190.601 57.652 190.401 57.414C190.2 57.1713 189.894 57.05 189.484 57.05C189.185 57.05 188.905 57.1177 188.644 57.253C188.382 57.3883 188.135 57.5727 187.902 57.806V63H186.173V55.818H187.23C187.454 55.818 187.601 55.923 187.671 56.133L187.79 56.7ZM200.263 55.818V63H199.206C198.977 63 198.833 62.895 198.772 62.685L198.653 62.111C198.359 62.4097 198.035 62.6523 197.68 62.839C197.325 63.021 196.908 63.112 196.427 63.112C196.035 63.112 195.687 63.0467 195.384 62.916C195.085 62.7807 194.833 62.5917 194.628 62.349C194.423 62.1063 194.266 61.8193 194.159 61.488C194.056 61.152 194.005 60.7833 194.005 60.382V55.818H195.734V60.382C195.734 60.8207 195.834 61.1613 196.035 61.404C196.24 61.642 196.546 61.761 196.952 61.761C197.251 61.761 197.531 61.6957 197.792 61.565C198.053 61.4297 198.301 61.2453 198.534 61.012V55.818H200.263Z" fill="#F8F8FF"/>
<path d="M20.6624 76.1385V79.6455H24.7854V80.7515H20.6624V85.0635H19.3044V75.0325H25.4854V76.1385H20.6624ZM29.3002 77.8605C29.8182 77.8605 30.2849 77.9468 30.7002 78.1195C31.1156 78.2921 31.4702 78.5371 31.7642 78.8545C32.0582 79.1718 32.2822 79.5568 32.4362 80.0095C32.5949 80.4575 32.6742 80.9591 32.6742 81.5145C32.6742 82.0745 32.5949 82.5785 32.4362 83.0265C32.2822 83.4745 32.0582 83.8571 31.7642 84.1745C31.4702 84.4918 31.1156 84.7368 30.7002 84.9095C30.2849 85.0775 29.8182 85.1615 29.3002 85.1615C28.7776 85.1615 28.3062 85.0775 27.8862 84.9095C27.4709 84.7368 27.1162 84.4918 26.8222 84.1745C26.5282 83.8571 26.3019 83.4745 26.1432 83.0265C25.9892 82.5785 25.9122 82.0745 25.9122 81.5145C25.9122 80.9591 25.9892 80.4575 26.1432 80.0095C26.3019 79.5568 26.5282 79.1718 26.8222 78.8545C27.1162 78.5371 27.4709 78.2921 27.8862 78.1195C28.3062 77.9468 28.7776 77.8605 29.3002 77.8605ZM29.3002 84.1885C30.0002 84.1885 30.5229 83.9551 30.8682 83.4885C31.2136 83.0171 31.3862 82.3615 31.3862 81.5215C31.3862 80.6768 31.2136 80.0188 30.8682 79.5475C30.5229 79.0761 30.0002 78.8405 29.3002 78.8405C28.9456 78.8405 28.6352 78.9011 28.3692 79.0225C28.1079 79.1438 27.8886 79.3188 27.7112 79.5475C27.5386 79.7761 27.4079 80.0585 27.3192 80.3945C27.2352 80.7258 27.1932 81.1015 27.1932 81.5215C27.1932 82.3615 27.3659 83.0171 27.7112 83.4885C28.0612 83.9551 28.5909 84.1885 29.3002 84.1885ZM40.0856 77.9725V85.0635H39.3436C39.1662 85.0635 39.0542 84.9771 39.0076 84.8045L38.9096 84.0415C38.6016 84.3821 38.2562 84.6575 37.8736 84.8675C37.4909 85.0728 37.0522 85.1755 36.5576 85.1755C36.1702 85.1755 35.8272 85.1125 35.5286 84.9865C35.2346 84.8558 34.9872 84.6738 34.7866 84.4405C34.5859 84.2071 34.4342 83.9248 34.3316 83.5935C34.2336 83.2621 34.1846 82.8958 34.1846 82.4945V77.9725H35.4306V82.4945C35.4306 83.0311 35.5519 83.4465 35.7946 83.7405C36.0419 84.0345 36.4176 84.1815 36.9216 84.1815C37.2902 84.1815 37.6332 84.0951 37.9506 83.9225C38.2726 83.7451 38.5689 83.5025 38.8396 83.1945V77.9725H40.0856ZM43.2372 79.0015C43.3912 78.8288 43.5546 78.6725 43.7272 78.5325C43.8999 78.3925 44.0819 78.2735 44.2732 78.1755C44.4692 78.0728 44.6746 77.9958 44.8892 77.9445C45.1086 77.8885 45.3442 77.8605 45.5962 77.8605C45.9836 77.8605 46.3242 77.9258 46.6182 78.0565C46.9169 78.1825 47.1642 78.3645 47.3602 78.6025C47.5609 78.8358 47.7126 79.1181 47.8152 79.4495C47.9179 79.7808 47.9692 80.1471 47.9692 80.5485V85.0635H46.7162V80.5485C46.7162 80.0118 46.5926 79.5965 46.3452 79.3025C46.1026 79.0038 45.7316 78.8545 45.2322 78.8545C44.8636 78.8545 44.5182 78.9431 44.1962 79.1205C43.8789 79.2978 43.5849 79.5381 43.3142 79.8415V85.0635H42.0612V77.9725H42.8102C42.9876 77.9725 43.0972 78.0588 43.1392 78.2315L43.2372 79.0015ZM54.4879 79.6595C54.2545 79.3468 54.0025 79.1298 53.7319 79.0085C53.4612 78.8825 53.1579 78.8195 52.8219 78.8195C52.1639 78.8195 51.6575 79.0551 51.3029 79.5265C50.9482 79.9978 50.7709 80.6698 50.7709 81.5425C50.7709 82.0045 50.8105 82.4011 50.8899 82.7325C50.9692 83.0591 51.0859 83.3298 51.2399 83.5445C51.3939 83.7545 51.5829 83.9085 51.8069 84.0065C52.0309 84.1045 52.2852 84.1535 52.5699 84.1535C52.9805 84.1535 53.3375 84.0601 53.6409 83.8735C53.9489 83.6868 54.2312 83.4231 54.4879 83.0825V79.6595ZM55.7339 74.7525V85.0635H54.9919C54.8145 85.0635 54.7025 84.9771 54.6559 84.8045L54.5439 83.9435C54.2405 84.3075 53.8952 84.6015 53.5079 84.8255C53.1205 85.0495 52.6725 85.1615 52.1639 85.1615C51.7579 85.1615 51.3892 85.0845 51.0579 84.9305C50.7265 84.7718 50.4442 84.5408 50.2109 84.2375C49.9775 83.9341 49.7979 83.5561 49.6719 83.1035C49.5459 82.6508 49.4829 82.1305 49.4829 81.5425C49.4829 81.0198 49.5529 80.5345 49.6929 80.0865C49.8329 79.6338 50.0335 79.2418 50.2949 78.9105C50.5562 78.5791 50.8759 78.3201 51.2539 78.1335C51.6365 77.9421 52.0659 77.8465 52.5419 77.8465C52.9759 77.8465 53.3469 77.9211 53.6549 78.0705C53.9675 78.2151 54.2452 78.4181 54.4879 78.6795V74.7525H55.7339ZM62.4478 80.7445C62.4478 80.4551 62.4058 80.1915 62.3218 79.9535C62.2425 79.7108 62.1235 79.5031 61.9648 79.3305C61.8108 79.1531 61.6218 79.0178 61.3978 78.9245C61.1738 78.8265 60.9195 78.7775 60.6348 78.7775C60.0375 78.7775 59.5638 78.9525 59.2138 79.3025C58.8685 79.6478 58.6538 80.1285 58.5698 80.7445H62.4478ZM63.4558 84.0695C63.3018 84.2561 63.1175 84.4195 62.9028 84.5595C62.6882 84.6948 62.4572 84.8068 62.2098 84.8955C61.9672 84.9841 61.7152 85.0495 61.4538 85.0915C61.1925 85.1381 60.9335 85.1615 60.6768 85.1615C60.1868 85.1615 59.7342 85.0798 59.3188 84.9165C58.9082 84.7485 58.5512 84.5058 58.2478 84.1885C57.9492 83.8665 57.7158 83.4698 57.5478 82.9985C57.3798 82.5271 57.2958 81.9858 57.2958 81.3745C57.2958 80.8798 57.3705 80.4178 57.5198 79.9885C57.6738 79.5591 57.8932 79.1881 58.1778 78.8755C58.4625 78.5581 58.8102 78.3108 59.2208 78.1335C59.6315 77.9515 60.0935 77.8605 60.6068 77.8605C61.0315 77.8605 61.4235 77.9328 61.7828 78.0775C62.1468 78.2175 62.4595 78.4228 62.7208 78.6935C62.9868 78.9595 63.1945 79.2908 63.3438 79.6875C63.4932 80.0795 63.5678 80.5275 63.5678 81.0315C63.5678 81.2275 63.5468 81.3581 63.5048 81.4235C63.4628 81.4888 63.3835 81.5215 63.2668 81.5215H58.5278C58.5418 81.9695 58.6025 82.3591 58.7098 82.6905C58.8218 83.0218 58.9758 83.2995 59.1718 83.5235C59.3678 83.7428 59.6012 83.9085 59.8718 84.0205C60.1425 84.1278 60.4458 84.1815 60.7818 84.1815C61.0945 84.1815 61.3628 84.1465 61.5868 84.0765C61.8155 84.0018 62.0115 83.9225 62.1748 83.8385C62.3382 83.7545 62.4735 83.6775 62.5808 83.6075C62.6928 83.5328 62.7885 83.4955 62.8678 83.4955C62.9705 83.4955 63.0498 83.5351 63.1058 83.6145L63.4558 84.0695ZM66.2813 79.3935C66.5053 78.9081 66.7807 78.5301 67.1073 78.2595C67.434 77.9841 67.833 77.8465 68.3043 77.8465C68.4537 77.8465 68.596 77.8628 68.7313 77.8955C68.8713 77.9281 68.995 77.9795 69.1023 78.0495L69.0113 78.9805C68.9833 79.0971 68.9133 79.1555 68.8013 79.1555C68.736 79.1555 68.6403 79.1415 68.5143 79.1135C68.3883 79.0855 68.246 79.0715 68.0873 79.0715C67.8633 79.0715 67.6627 79.1041 67.4853 79.1695C67.3127 79.2348 67.1563 79.3328 67.0163 79.4635C66.881 79.5895 66.7573 79.7481 66.6453 79.9395C66.538 80.1261 66.44 80.3408 66.3513 80.5835V85.0635H65.0983V77.9725H65.8123C65.9477 77.9725 66.041 77.9981 66.0923 78.0495C66.1437 78.1008 66.1787 78.1895 66.1973 78.3155L66.2813 79.3935Z" fill="#F8F8FF"/>
<circle cx="305.547" cy="62.5476" r="32" transform="rotate(179.916 305.547 62.5476)" fill="#FE5F55" stroke="#F30E00"/>
<path d="M295.888 57.579C296.051 57.579 296.18 57.628 296.273 57.726C296.366 57.8193 296.413 57.9407 296.413 58.09V59H289.595V58.489C289.595 58.3863 289.616 58.279 289.658 58.167C289.7 58.055 289.768 57.9523 289.861 57.859L292.997 54.716C293.263 54.45 293.499 54.1957 293.704 53.953C293.914 53.7103 294.091 53.4677 294.236 53.225C294.385 52.9823 294.497 52.7373 294.572 52.49C294.651 52.238 294.691 51.9743 294.691 51.699C294.691 51.433 294.649 51.1997 294.565 50.999C294.486 50.7937 294.374 50.6257 294.229 50.495C294.089 50.3597 293.919 50.2593 293.718 50.194C293.522 50.124 293.305 50.089 293.067 50.089C292.838 50.089 292.626 50.1217 292.43 50.187C292.239 50.2523 292.066 50.3433 291.912 50.46C291.763 50.5767 291.637 50.7167 291.534 50.88C291.436 51.0387 291.364 51.2137 291.317 51.405C291.247 51.5963 291.156 51.7247 291.044 51.79C290.937 51.8553 290.778 51.8693 290.568 51.832L289.777 51.692C289.847 51.216 289.978 50.7983 290.169 50.439C290.365 50.0797 290.61 49.781 290.904 49.543C291.198 49.3003 291.534 49.1183 291.912 48.997C292.295 48.871 292.708 48.808 293.151 48.808C293.599 48.808 294.01 48.8757 294.383 49.011C294.761 49.1417 295.085 49.3307 295.356 49.578C295.631 49.8207 295.846 50.117 296 50.467C296.154 50.817 296.231 51.2113 296.231 51.65C296.231 52.0233 296.175 52.3687 296.063 52.686C295.956 53.0033 295.809 53.3067 295.622 53.596C295.435 53.8853 295.216 54.1677 294.964 54.443C294.717 54.7137 294.455 54.989 294.18 55.269L291.744 57.761C291.945 57.705 292.145 57.6607 292.346 57.628C292.551 57.5953 292.745 57.579 292.927 57.579H295.888ZM304.856 53.96C304.856 54.842 304.76 55.605 304.569 56.249C304.382 56.893 304.123 57.4273 303.792 57.852C303.461 58.2767 303.071 58.5917 302.623 58.797C302.175 59.0023 301.692 59.105 301.174 59.105C300.656 59.105 300.173 59.0023 299.725 58.797C299.277 58.5917 298.887 58.2767 298.556 57.852C298.229 57.4273 297.973 56.893 297.786 56.249C297.599 55.605 297.506 54.842 297.506 53.96C297.506 53.078 297.599 52.315 297.786 51.671C297.973 51.0223 298.229 50.488 298.556 50.068C298.887 49.6433 299.277 49.3283 299.725 49.123C300.173 48.913 300.656 48.808 301.174 48.808C301.692 48.808 302.175 48.913 302.623 49.123C303.071 49.3283 303.461 49.6433 303.792 50.068C304.123 50.488 304.382 51.0223 304.569 51.671C304.76 52.315 304.856 53.078 304.856 53.96ZM303.302 53.96C303.302 53.2133 303.241 52.5927 303.12 52.098C303.003 51.5987 302.847 51.1997 302.651 50.901C302.455 50.6023 302.229 50.39 301.972 50.264C301.715 50.138 301.449 50.075 301.174 50.075C300.894 50.075 300.626 50.138 300.369 50.264C300.117 50.39 299.893 50.6023 299.697 50.901C299.501 51.1997 299.345 51.5987 299.228 52.098C299.111 52.5927 299.053 53.2133 299.053 53.96C299.053 54.7067 299.111 55.3297 299.228 55.829C299.345 56.3237 299.501 56.7203 299.697 57.019C299.893 57.3177 300.117 57.53 300.369 57.656C300.626 57.782 300.894 57.845 301.174 57.845C301.449 57.845 301.715 57.782 301.972 57.656C302.229 57.53 302.455 57.3177 302.651 57.019C302.847 56.7203 303.003 56.3237 303.12 55.829C303.241 55.3297 303.302 54.7067 303.302 53.96ZM312.431 57.859V59H306.936V57.859H309.036V51.545C309.036 51.321 309.043 51.0923 309.057 50.859L307.44 52.224C307.37 52.28 307.298 52.3173 307.223 52.336C307.153 52.35 307.086 52.35 307.02 52.336C306.96 52.322 306.904 52.301 306.852 52.273C306.806 52.2403 306.768 52.2053 306.74 52.168L306.271 51.51L309.309 48.899H310.534V57.859H312.431ZM320.972 48.92V49.585C320.972 49.781 320.951 49.9397 320.909 50.061C320.867 50.1823 320.825 50.285 320.783 50.369L316.8 58.475C316.73 58.6243 316.63 58.7503 316.499 58.853C316.373 58.951 316.205 59 315.995 59H314.91L318.97 51.027C319.045 50.8823 319.12 50.7517 319.194 50.635C319.269 50.5183 319.353 50.4063 319.446 50.299H314.413C314.32 50.299 314.238 50.264 314.168 50.194C314.098 50.1193 314.063 50.0353 314.063 49.942V48.92H320.972ZM295.888 74.579C296.051 74.579 296.18 74.628 296.273 74.726C296.366 74.8193 296.413 74.9407 296.413 75.09V76H289.595V75.489C289.595 75.3863 289.616 75.279 289.658 75.167C289.7 75.055 289.768 74.9523 289.861 74.859L292.997 71.716C293.263 71.45 293.499 71.1957 293.704 70.953C293.914 70.7103 294.091 70.4677 294.236 70.225C294.385 69.9823 294.497 69.7373 294.572 69.49C294.651 69.238 294.691 68.9743 294.691 68.699C294.691 68.433 294.649 68.1997 294.565 67.999C294.486 67.7937 294.374 67.6257 294.229 67.495C294.089 67.3597 293.919 67.2593 293.718 67.194C293.522 67.124 293.305 67.089 293.067 67.089C292.838 67.089 292.626 67.1217 292.43 67.187C292.239 67.2523 292.066 67.3433 291.912 67.46C291.763 67.5767 291.637 67.7167 291.534 67.88C291.436 68.0387 291.364 68.2137 291.317 68.405C291.247 68.5963 291.156 68.7247 291.044 68.79C290.937 68.8553 290.778 68.8693 290.568 68.832L289.777 68.692C289.847 68.216 289.978 67.7983 290.169 67.439C290.365 67.0797 290.61 66.781 290.904 66.543C291.198 66.3003 291.534 66.1183 291.912 65.997C292.295 65.871 292.708 65.808 293.151 65.808C293.599 65.808 294.01 65.8757 294.383 66.011C294.761 66.1417 295.085 66.3307 295.356 66.578C295.631 66.8207 295.846 67.117 296 67.467C296.154 67.817 296.231 68.2113 296.231 68.65C296.231 69.0233 296.175 69.3687 296.063 69.686C295.956 70.0033 295.809 70.3067 295.622 70.596C295.435 70.8853 295.216 71.1677 294.964 71.443C294.717 71.7137 294.455 71.989 294.18 72.269L291.744 74.761C291.945 74.705 292.145 74.6607 292.346 74.628C292.551 74.5953 292.745 74.579 292.927 74.579H295.888ZM304.856 70.96C304.856 71.842 304.76 72.605 304.569 73.249C304.382 73.893 304.123 74.4273 303.792 74.852C303.461 75.2767 303.071 75.5917 302.623 75.797C302.175 76.0023 301.692 76.105 301.174 76.105C300.656 76.105 300.173 76.0023 299.725 75.797C299.277 75.5917 298.887 75.2767 298.556 74.852C298.229 74.4273 297.973 73.893 297.786 73.249C297.599 72.605 297.506 71.842 297.506 70.96C297.506 70.078 297.599 69.315 297.786 68.671C297.973 68.0223 298.229 67.488 298.556 67.068C298.887 66.6433 299.277 66.3283 299.725 66.123C300.173 65.913 300.656 65.808 301.174 65.808C301.692 65.808 302.175 65.913 302.623 66.123C303.071 66.3283 303.461 66.6433 303.792 67.068C304.123 67.488 304.382 68.0223 304.569 68.671C304.76 69.315 304.856 70.078 304.856 70.96ZM303.302 70.96C303.302 70.2133 303.241 69.5927 303.12 69.098C303.003 68.5987 302.847 68.1997 302.651 67.901C302.455 67.6023 302.229 67.39 301.972 67.264C301.715 67.138 301.449 67.075 301.174 67.075C300.894 67.075 300.626 67.138 300.369 67.264C300.117 67.39 299.893 67.6023 299.697 67.901C299.501 68.1997 299.345 68.5987 299.228 69.098C299.111 69.5927 299.053 70.2133 299.053 70.96C299.053 71.7067 299.111 72.3297 299.228 72.829C299.345 73.3237 299.501 73.7203 299.697 74.019C299.893 74.3177 300.117 74.53 300.369 74.656C300.626 74.782 300.894 74.845 301.174 74.845C301.449 74.845 301.715 74.782 301.972 74.656C302.229 74.53 302.455 74.3177 302.651 74.019C302.847 73.7203 303.003 73.3237 303.12 72.829C303.241 72.3297 303.302 71.7067 303.302 70.96ZM312.13 74.579C312.294 74.579 312.422 74.628 312.515 74.726C312.609 74.8193 312.655 74.9407 312.655 75.09V76H305.837V75.489C305.837 75.3863 305.858 75.279 305.9 75.167C305.942 75.055 306.01 74.9523 306.103 74.859L309.239 71.716C309.505 71.45 309.741 71.1957 309.946 70.953C310.156 70.7103 310.334 70.4677 310.478 70.225C310.628 69.9823 310.74 69.7373 310.814 69.49C310.894 69.238 310.933 68.9743 310.933 68.699C310.933 68.433 310.891 68.1997 310.807 67.999C310.728 67.7937 310.616 67.6257 310.471 67.495C310.331 67.3597 310.161 67.2593 309.96 67.194C309.764 67.124 309.547 67.089 309.309 67.089C309.081 67.089 308.868 67.1217 308.672 67.187C308.481 67.2523 308.308 67.3433 308.154 67.46C308.005 67.5767 307.879 67.7167 307.776 67.88C307.678 68.0387 307.606 68.2137 307.559 68.405C307.489 68.5963 307.398 68.7247 307.286 68.79C307.179 68.8553 307.02 68.8693 306.81 68.832L306.019 68.692C306.089 68.216 306.22 67.7983 306.411 67.439C306.607 67.0797 306.852 66.781 307.146 66.543C307.44 66.3003 307.776 66.1183 308.154 65.997C308.537 65.871 308.95 65.808 309.393 65.808C309.841 65.808 310.252 65.8757 310.625 66.011C311.003 66.1417 311.328 66.3307 311.598 66.578C311.874 66.8207 312.088 67.117 312.242 67.467C312.396 67.817 312.473 68.2113 312.473 68.65C312.473 69.0233 312.417 69.3687 312.305 69.686C312.198 70.0033 312.051 70.3067 311.864 70.596C311.678 70.8853 311.458 71.1677 311.206 71.443C310.959 71.7137 310.698 71.989 310.422 72.269L307.986 74.761C308.187 74.705 308.388 74.6607 308.588 74.628C308.794 74.5953 308.987 74.579 309.169 74.579H312.13ZM321.098 70.96C321.098 71.842 321.003 72.605 320.811 73.249C320.625 73.893 320.366 74.4273 320.034 74.852C319.703 75.2767 319.313 75.5917 318.865 75.797C318.417 76.0023 317.934 76.105 317.416 76.105C316.898 76.105 316.415 76.0023 315.967 75.797C315.519 75.5917 315.13 75.2767 314.798 74.852C314.472 74.4273 314.215 73.893 314.028 73.249C313.842 72.605 313.748 71.842 313.748 70.96C313.748 70.078 313.842 69.315 314.028 68.671C314.215 68.0223 314.472 67.488 314.798 67.068C315.13 66.6433 315.519 66.3283 315.967 66.123C316.415 65.913 316.898 65.808 317.416 65.808C317.934 65.808 318.417 65.913 318.865 66.123C319.313 66.3283 319.703 66.6433 320.034 67.068C320.366 67.488 320.625 68.0223 320.811 68.671C321.003 69.315 321.098 70.078 321.098 70.96ZM319.544 70.96C319.544 70.2133 319.484 69.5927 319.362 69.098C319.246 68.5987 319.089 68.1997 318.893 67.901C318.697 67.6023 318.471 67.39 318.214 67.264C317.958 67.138 317.692 67.075 317.416 67.075C317.136 67.075 316.868 67.138 316.611 67.264C316.359 67.39 316.135 67.6023 315.939 67.901C315.743 68.1997 315.587 68.5987 315.47 69.098C315.354 69.5927 315.295 70.2133 315.295 70.96C315.295 71.7067 315.354 72.3297 315.47 72.829C315.587 73.3237 315.743 73.7203 315.939 74.019C316.135 74.3177 316.359 74.53 316.611 74.656C316.868 74.782 317.136 74.845 317.416 74.845C317.692 74.845 317.958 74.782 318.214 74.656C318.471 74.53 318.697 74.3177 318.893 74.019C319.089 73.7203 319.246 73.3237 319.362 72.829C319.484 72.3297 319.544 71.7067 319.544 70.96Z" fill="#F8F8FF"/>
</svg>
