<svg width="125" height="84" viewBox="0 0 125 84" fill="none" xmlns="http://www.w3.org/2000/svg">
<path d="M34.0129 80.2227C33.2527 80.2227 32.5757 80.1758 32.0029 80.0925V82.6128C33.1798 83.0866 34.1535 83.321 34.9502 83.321C37.9339 83.321 40.6833 81.4984 43.1932 77.8326C46.4008 73.094 48.994 65.4863 50.9623 55.0303H46.38C45.5572 61.4507 44.1096 67.3974 42.032 72.8389C42.1778 71.7506 41.8185 69.8395 40.9645 67.1005L37.1789 55.0303H32.4403L37.7204 71.1674C38.5119 73.5939 38.9181 75.2081 38.9181 75.9944C38.9181 77.14 38.4078 78.171 37.382 79.0927C36.528 79.8321 35.4084 80.2227 34.0129 80.2227Z" fill="#105E86"/>
<path d="M101.446 47.6196V75.8843H115.141V72.4163H106.055V47.6196H101.446Z" fill="#DE8A03"/>
<path d="M5.41548 53.3475H5.46755L12.7576 75.8895H16.4287L23.7708 53.3475H23.8125C24.5779 60.4033 25.0622 67.9069 25.2184 75.8895H30.0455H30.0611C29.832 67.3549 29.0926 57.9195 27.8324 47.6248H22.1306L15.1165 68.3963H15.0748L8.12322 47.6196H2.13495C0.999781 56.4094 0.286396 65.8396 0 75.8843H4.40008C4.54067 67.6257 4.87914 60.1065 5.41548 53.3475Z" fill="#105E86"/>
<path d="M97.2649 61.2263C97.2649 51.869 93.5262 47.1877 86.0434 47.1877C82.3776 47.1877 79.5136 48.375 77.4516 50.7547C75.2125 53.3531 74.0877 57.1751 74.0877 62.2313C74.0877 67.199 75.0771 70.8492 77.0819 73.1664C78.8992 75.2701 81.6486 76.3168 85.3248 76.3168C86.6995 76.3168 87.9597 76.1502 89.1001 75.8117L95.9996 79.7587L97.8742 76.5771H97.8585L92.568 74.0204C93.0367 73.6351 93.4897 73.2081 93.9011 72.7446C96.1454 70.1567 97.2649 66.3138 97.2649 61.2263ZM85.7935 72.8123C83.4763 72.8123 81.7839 71.9584 80.7009 70.2556L80.7113 70.2296C79.5396 68.3914 78.9564 65.4233 78.9564 61.3565C78.9564 54.2383 81.1643 50.6714 85.5696 50.6714C87.8764 50.6714 89.5791 51.5253 90.657 53.2281C91.8234 55.0766 92.4066 58.0135 92.4066 62.0335C92.4066 69.209 90.1988 72.8123 85.7935 72.8123ZM68.7347 62.1011C68.7347 62.1011 64.6002 59.7735 62.5538 58.6748C60.3043 57.4511 59.0858 56.0035 59.0858 54.332C59.0858 53.2385 59.5805 52.3481 60.3772 51.6503C61.1687 50.9421 62.309 50.5985 63.7827 50.5985C65.6 50.5985 67.4485 50.9942 69.3231 51.7753L70.4323 49.3383C68.2452 47.9376 65.8083 47.245 63.1422 47.245C60.5386 47.245 58.4297 47.948 56.7894 49.3696C55.1596 50.7703 54.342 52.6136 54.342 54.9152C54.342 57.6802 55.4356 59.3674 57.633 60.9347C57.633 60.9347 61.6738 63.2051 63.689 64.2934C65.8656 65.491 67.0632 66.9282 67.0632 68.6153C67.0632 69.9432 66.48 71.0054 65.5011 71.7605C64.5117 72.5103 63.1526 72.8852 61.4238 72.8852C59.5649 72.8852 57.508 72.3385 55.2273 71.2085L53.9932 73.6455C56.6436 75.4003 59.3566 76.2803 62.1841 76.2803C65.2095 76.2803 67.5996 75.5097 69.396 73.9735C71.1873 72.4426 72.083 70.4691 72.083 68.0634L72.1142 68.079C72.109 65.3244 70.9894 63.6581 68.7347 62.1011Z" fill="#DE8A03"/>
<path d="M49.5147 61.7578H45.2552C44.4429 65.6528 43.365 69.3499 42.032 72.8387C42.1778 71.7504 41.8185 69.8394 40.9645 67.1004L39.2878 61.763H34.643L37.7204 71.1724C38.5119 73.599 38.9181 75.2132 38.9181 75.9995C38.9181 77.1451 38.4078 78.1761 37.382 79.0978C36.528 79.8424 35.4084 80.2329 34.0129 80.2329C33.2527 80.2329 32.5757 80.1861 32.0029 80.1028V82.623C33.1798 83.0969 34.1535 83.3312 34.9502 83.3312C37.9339 83.3312 40.6833 81.5087 43.1932 77.8428C45.6666 74.177 47.7755 68.8136 49.5147 61.7578Z" fill="#0E5275"/>
<path d="M106.055 61.7578H101.446V75.8849H115.141V72.4169H106.055V61.7578Z" fill="#C17803"/>
<path d="M4.86872 61.7578H0.713385C0.374918 66.3193 0.140594 71.0318 0 75.8849H4.40008C4.48339 70.9069 4.63961 66.1943 4.86872 61.7578ZM21.0318 61.7578H17.3556L15.1165 68.3918H15.0748L12.8513 61.7578H8.19091L12.7576 75.8901H16.4287L21.0318 61.7578ZM29.28 61.7578H24.5727C24.906 66.2933 25.1247 71.0006 25.2184 75.8901H30.0455H30.0611C29.9414 71.4224 29.681 66.7099 29.28 61.7578Z" fill="#0E5275"/>
<path d="M97.2597 61.7578H92.4066C92.4066 61.8515 92.4066 61.9453 92.4066 62.039C92.4066 69.2145 90.1988 72.8127 85.7935 72.8127C83.4763 72.8127 81.7839 71.9587 80.7009 70.2559L80.7113 70.2299C79.5761 68.4491 78.9981 65.6215 78.9564 61.7578H74.0877C74.0877 61.914 74.0825 62.0703 74.0825 62.2317C74.0825 67.1993 75.0719 70.8496 77.0766 73.1668C78.894 75.2705 81.6434 76.3171 85.3196 76.3171C86.6943 76.3171 87.9545 76.1505 89.0948 75.812L95.9944 79.7591L97.869 76.5775H97.8533L92.5628 74.0208C93.0315 73.6354 93.4845 73.2084 93.8959 72.745C96.0673 70.2507 97.1868 66.5797 97.2597 61.7578ZM68.1203 61.7578H59.1066C60.4657 62.5181 62.4548 63.6272 63.689 64.2885C65.8656 65.4862 67.0632 66.9233 67.0632 68.6105C67.0632 69.9383 66.48 71.0006 65.5011 71.7556C64.5117 72.5055 63.1526 72.8804 61.4238 72.8804C59.5649 72.8804 57.508 72.3336 55.2273 71.2037L53.9932 73.6406C56.6436 75.3955 59.3566 76.2755 62.1841 76.2755C65.2095 76.2755 67.5996 75.5048 69.396 73.9687C71.1873 72.4378 72.0829 70.4642 72.0829 68.0585L72.1142 68.0741C72.1142 65.3247 70.9946 63.6637 68.7399 62.1067C68.7347 62.1015 68.5004 61.9713 68.1203 61.7578Z" fill="#C17803"/>
<path d="M85.43 8.44189C84.8312 8.44189 84.4198 8.50959 83.998 8.60852V8.67622H84.0709C84.3521 9.20735 84.8312 9.59789 85.1853 10.0717C85.4665 10.6133 85.706 11.1653 85.9872 11.7068L86.0549 11.6287C86.5444 11.2902 86.7891 10.7487 86.7891 9.92594L86.3725 9.21256L85.4352 8.42627L85.43 8.44189Z" fill="#105E86"/>
<path d="M123.384 47.1353C122.374 45.8074 121.119 44.6462 119.765 43.6881C118.651 42.9383 116.214 41.8968 115.756 40.6419L115.688 40.569C116.448 40.5013 117.354 40.2305 118.083 40.0274C119.266 39.715 120.349 39.7879 121.572 39.4859C122.124 39.3505 122.681 39.1787 123.233 39.0068V38.6944C122.609 38.0852 122.14 37.252 121.494 36.6792C119.724 35.1743 117.761 33.7059 115.745 32.477C114.652 31.7897 113.267 31.3523 112.116 30.7691L110.762 30.1182C110.137 29.3735 109.773 28.3842 109.33 27.4937C108.33 25.6139 107.351 23.5311 106.482 21.5419C105.857 20.2037 105.477 18.8758 104.711 17.6417C101.118 11.8305 97.2287 8.31044 91.2456 4.86328C89.9595 4.14989 88.4181 3.84267 86.7883 3.46775C85.9187 3.42609 85.0491 3.36361 84.1847 3.32716C83.6119 3.08763 83.0599 2.43673 82.5704 2.1243C80.5917 0.900606 75.4678 -1.76027 74.0098 1.75979C73.0725 3.97806 75.4001 6.16508 76.2125 7.29504C76.8113 8.07611 77.5663 8.97175 77.9829 9.84656C78.2276 10.4454 78.2953 11.0494 78.5401 11.6691C79.092 13.174 79.618 14.8507 80.347 16.2566C80.7271 16.9752 81.1437 17.7198 81.6331 18.3655C81.9143 18.7457 82.3934 18.9175 82.5027 19.5267C82.0133 20.2245 81.982 21.2347 81.7008 22.0835C80.4511 25.9524 80.9406 30.7378 82.711 33.5861C83.2682 34.4349 84.596 36.3199 86.3717 35.5961C87.9338 34.9869 87.5902 33.0394 88.038 31.3314L88.2879 30.3733V30.4514C88.7774 31.4148 89.2669 32.326 89.7147 33.2893C90.7874 34.9609 92.662 36.7001 94.2293 37.8665C95.0625 38.4757 95.7238 39.538 96.7652 39.9181V39.8192H96.6871L95.8852 39.137C95.2604 38.5226 94.5574 37.7675 94.0627 37.0958C92.6047 35.1691 91.3185 33.0498 90.1729 30.868C89.6001 29.7953 89.1211 28.6393 88.6629 27.5823L88.1057 26.3377C87.585 27.0824 86.8195 27.7333 86.4394 28.6549C85.7781 30.1234 85.7104 31.9355 85.4604 33.8153L85.3198 33.8882C84.2055 33.6226 83.8254 32.4926 83.4088 31.5397C82.3674 29.108 82.1955 25.2078 83.0964 22.4115C83.3411 21.6981 84.3825 19.433 83.966 18.7561C83.7473 18.1052 83.0599 17.7303 82.6798 17.2043C82.2268 16.569 81.7425 15.7411 81.4301 15.0225C80.5969 13.1115 80.1803 10.9921 79.2743 9.0759C78.8577 8.19067 78.1287 7.26379 77.5351 6.45668C76.8738 5.53501 76.1448 4.88411 75.6188 3.7958L75.4782 2.39507L75.9677 1.93163L78.1652 2.24927C79.4513 2.76478 80.5344 3.23863 81.6123 3.95723C82.1018 4.29569 82.6277 4.94659 83.2526 5.11322H83.9816C85.0959 5.35276 86.3509 5.18612 87.3923 5.48814C89.2409 6.07135 90.9072 6.92012 92.4016 7.83658C96.9631 10.6797 100.712 14.7101 103.259 19.5215C103.675 20.3078 103.857 21.0316 104.238 21.8491C104.967 23.5363 105.867 25.2338 106.607 26.8689C107.336 28.4831 108.039 30.1182 109.085 31.4564C109.606 32.1698 111.699 32.5447 112.637 32.9144C113.329 33.2269 114.407 33.508 115.032 33.8778C116.23 34.5963 117.396 35.4139 118.521 36.2002C119.094 36.5855 120.828 37.4395 120.932 38.132C118.146 38.0591 115.985 38.3351 114.178 39.0954C113.657 39.2984 112.824 39.2984 112.751 39.9493L113.324 41.0428C113.741 41.725 114.459 42.6467 115.126 43.1257C115.855 43.6881 116.584 44.2297 117.349 44.7087C118.703 45.5262 120.239 46.0105 121.567 46.8332C122.322 47.3123 123.093 47.9216 123.858 48.4319C124.238 48.687 124.483 49.1452 124.973 49.3119V49.2025L124.426 48.109L123.384 47.1353Z" fill="#105E86"/>
<path d="M85.4346 8.43115L85.4242 8.44157C84.8253 8.44157 84.414 8.50926 83.9922 8.6082V8.67589H84.0651C84.3463 9.20702 84.8253 9.59756 85.1794 10.0714C85.4606 10.613 85.7001 11.1649 85.9813 11.7065L86.049 11.6284C86.5385 11.2899 86.7832 10.7484 86.7832 9.92561L86.3667 9.21223L85.4346 8.43115Z" fill="#0E5275"/>
<path d="M76.7787 0C75.5863 0 74.5553 0.458235 74.0137 1.75483C73.0764 3.97309 75.404 6.16011 76.2164 7.29007C76.8152 8.07115 77.5702 8.96679 77.9868 9.8416C78.2316 10.4404 78.2992 11.0445 78.544 11.6641C79.0959 13.169 79.6219 14.8457 80.3509 16.2516C80.731 16.9702 81.1476 17.7149 81.6371 18.3606C81.9182 18.7407 82.3973 18.9125 82.5067 19.5218C82.0172 20.2195 81.9859 21.2297 81.7047 22.0785C80.455 25.9474 80.9445 30.7329 82.7149 33.5812C83.1836 34.2998 84.2042 35.7526 85.5789 35.7526C85.834 35.7526 86.0996 35.7057 86.3756 35.5912C87.9378 34.9819 87.5941 33.0344 88.0419 31.3265L88.2918 30.3683V30.4465C88.7813 31.4098 89.2708 32.321 89.7186 33.2844C90.7913 34.9559 92.6659 36.6951 94.2333 37.8615C95.0664 38.4707 95.7277 39.533 96.7692 39.9131V39.8142H96.691L95.8891 39.1321C95.2643 38.5176 94.5613 37.7626 94.0666 37.0908C92.6086 35.1642 91.3224 33.0448 90.1769 30.863C89.6041 29.7903 89.125 28.6344 88.6668 27.5773L88.1044 26.338C87.5837 27.0826 86.8182 27.7335 86.4381 28.6552C85.7768 30.1236 85.7091 31.9357 85.4591 33.8155L85.3185 33.8884C84.2042 33.6228 83.8241 32.4929 83.4075 31.54C82.3661 29.1082 82.1942 25.208 83.0951 22.4118C83.3398 21.6984 84.3812 19.4332 83.9647 18.7563C83.746 18.1054 83.0586 17.7305 82.6785 17.2046C82.2255 16.5693 81.7412 15.7413 81.4288 15.0228C80.5956 13.1117 80.179 10.9924 79.273 9.07614C78.8564 8.19091 78.1274 7.26403 77.5338 6.45692C76.8725 5.53525 76.1435 4.88435 75.6175 3.79604L75.4769 2.39531L75.9664 1.93187L78.1639 2.24951C79.45 2.76502 80.5331 3.23887 81.611 3.95747C82.1005 4.29593 82.6264 4.94683 83.2513 5.11346H83.9803C85.0946 5.353 86.3496 5.18637 87.391 5.48838C89.2396 6.07159 90.9059 6.92036 92.4003 7.83683C94.0406 8.86264 95.5819 10.0395 96.9931 11.3517V8.73246C95.2955 7.36297 93.4053 6.10804 91.2443 4.86352C89.9582 4.15013 88.4168 3.84291 86.787 3.46799C85.9174 3.42633 85.0478 3.36385 84.1834 3.3274C83.6106 3.08787 83.0586 2.43697 82.5691 2.12454C81.3246 1.34867 78.82 0 76.7787 0Z" fill="#0E5275"/>
</svg>
