<svg width="56" height="128" viewBox="0 0 56 128" fill="none" xmlns="http://www.w3.org/2000/svg">
<line x1="28.5" y1="128" x2="28.5" y2="55" stroke="#BDD5EA" stroke-width="5" stroke-dasharray="10 10"/>
<circle cx="28" cy="28" r="25.5" fill="#F8F8FF" stroke="#BDD5EA" stroke-width="5"/>
<path d="M24.2404 28.9962L26.3549 26.4875C26.5477 26.2586 26.5228 25.9132 26.2992 25.7158C26.0755 25.5185 25.7379 25.5439 25.545 25.7727L23.1298 28.6383C22.9569 28.8434 22.9567 29.147 23.1293 29.3525L25.5445 32.2265C25.6503 32.3523 25.7998 32.4168 25.9502 32.4168C26.0736 32.4168 26.1976 32.3733 26.2986 32.2845C26.5225 32.0875 26.5479 31.742 26.3554 31.5129L24.2404 28.9962ZM31.4554 25.7734C31.2628 25.5443 30.9252 25.5183 30.7014 25.7153C30.4774 25.9123 30.452 26.2578 30.6446 26.487L32.7596 29.0036L30.6451 31.5124C30.4522 31.7413 30.4771 32.0868 30.7008 32.2841C30.8018 32.3733 30.9261 32.417 31.0498 32.417C31.1999 32.417 31.3492 32.3527 31.4549 32.2272L33.8702 29.3616C34.0431 29.1565 34.0433 28.8528 33.8707 28.6474L31.4554 25.7734ZM29.5967 25.0231C29.3138 24.9365 29.0158 25.1009 28.9312 25.3904L26.9125 32.2959C26.8278 32.5854 26.9885 32.8903 27.2715 32.9769C27.3226 32.9925 27.3742 33 27.4249 33C27.6551 33 27.8677 32.8467 27.937 32.6095L29.9557 25.7041C30.0404 25.4146 29.8796 25.1096 29.5967 25.0231Z" fill="#FDB440"/>
<path d="M39.8252 19H17.1748C16.527 19 16 19.5355 16 20.1936V35.8064C16 36.4645 16.527 37 17.1748 37H39.8252C40.473 37 41 36.4645 41 35.8064V20.1936C41 19.5355 40.473 19 39.8252 19ZM17.1748 19.9549H39.8252C39.9547 19.9549 40.0602 20.062 40.0602 20.1936V22.008H16.9398V20.1936C16.9398 20.062 17.0453 19.9549 17.1748 19.9549ZM39.8252 36.0451H17.1748C17.0453 36.0451 16.9398 35.938 16.9398 35.8064V22.9629H40.0602V35.8064C40.0602 35.938 39.9547 36.0451 39.8252 36.0451Z" fill="#FDB440"/>
</svg>
