<svg width="109" height="171" viewBox="0 0 109 171" fill="none" xmlns="http://www.w3.org/2000/svg">
<g filter="url(#filter0_d)">
<circle cx="54.5" cy="52.5" r="49.5" fill="white"/>
<circle cx="54.5" cy="52.5" r="48" stroke="#BDD5EA" stroke-width="3"/>
</g>
<path d="M54 171L54 101" stroke="#BDD5EA" stroke-width="5" stroke-dasharray="10 10"/>
<path d="M44.0586 55.2865L48.9935 49.6213C49.4436 49.1044 49.3855 48.3243 48.8635 47.8786C48.3415 47.433 47.5535 47.4905 47.1034 48.0072L41.4667 54.4782C41.0633 54.9413 41.0628 55.6271 41.4656 56.0909L47.1023 62.581C47.3491 62.8652 47.6981 63.0109 48.049 63.0109C48.3371 63.0109 48.6265 62.9126 48.8621 62.7121C49.3847 62.2672 49.444 61.487 48.9946 60.9695L44.0586 55.2865ZM60.8973 48.0087C60.4478 47.4912 59.6598 47.4327 59.1375 47.8775C58.6149 48.3224 58.5556 49.1026 59.005 49.6201L63.941 55.3032L59.0061 60.9686C58.556 61.4854 58.6142 62.2656 59.1362 62.7112C59.3719 62.9127 59.6619 63.0112 59.9507 63.0112C60.3011 63.0112 60.6494 62.8659 60.8962 62.5826L66.533 56.1115C66.9365 55.6483 66.937 54.9627 66.5342 54.4988L60.8973 48.0087ZM56.5595 46.3143C55.8991 46.1189 55.2037 46.4902 55.0062 47.1439L50.2948 62.7377C50.0973 63.3914 50.4724 64.08 51.1327 64.2755C51.252 64.3109 51.3724 64.3278 51.4908 64.3278C52.0279 64.3278 52.5241 63.9816 52.686 63.4459L57.3973 47.8522C57.595 47.1984 57.2197 46.5098 56.5595 46.3143Z" fill="#FDB440"/>
<path d="M80.2744 32H27.7256C26.2227 32 25 33.2445 25 34.7743V71.0618C25 72.5915 26.2227 73.8361 27.7256 73.8361H80.2744C81.7773 73.8361 83 72.5915 83 71.0618V34.7743C83 33.2445 81.7773 32 80.2744 32ZM27.7256 34.2194H80.2744C80.575 34.2194 80.8195 34.4683 80.8195 34.7743V38.9912H27.1805V34.7743C27.1805 34.4683 27.425 34.2194 27.7256 34.2194ZM80.2744 71.6166H27.7256C27.425 71.6166 27.1805 71.3677 27.1805 71.0618V41.2106H80.8195V71.0618C80.8195 71.3677 80.575 71.6166 80.2744 71.6166Z" fill="#FDB440"/>
<defs>
<filter id="filter0_d" x="0" y="0" width="109" height="109" filterUnits="userSpaceOnUse" color-interpolation-filters="sRGB">
<feFlood flood-opacity="0" result="BackgroundImageFix"/>
<feColorMatrix in="SourceAlpha" type="matrix" values="0 0 0 0 0 0 0 0 0 0 0 0 0 0 0 0 0 0 127 0" result="hardAlpha"/>
<feOffset dy="2"/>
<feGaussianBlur stdDeviation="2.5"/>
<feComposite in2="hardAlpha" operator="out"/>
<feColorMatrix type="matrix" values="0 0 0 0 0 0 0 0 0 0 0 0 0 0 0 0 0 0 0.16 0"/>
<feBlend mode="normal" in2="BackgroundImageFix" result="effect1_dropShadow"/>
<feBlend mode="normal" in="SourceGraphic" in2="effect1_dropShadow" result="shape"/>
</filter>
</defs>
</svg>
