<svg width="337" height="117" viewBox="0 0 337 117" fill="none" xmlns="http://www.w3.org/2000/svg">
<path d="M0.5 0.5H209.584L250.388 61.9927L209.602 116.5H0.5V0.5Z" fill="#577399" stroke="#234C84"/>
<path d="M23.475 42.178L22.243 38.811C22.1823 38.6617 22.1193 38.4843 22.054 38.279C21.9887 38.0737 21.9233 37.852 21.858 37.614C21.7973 37.852 21.7343 38.076 21.669 38.286C21.6037 38.4913 21.5407 38.671 21.48 38.825L20.255 42.178H23.475ZM26.8 46H25.344C25.1807 46 25.0477 45.9603 24.945 45.881C24.8423 45.797 24.7653 45.6943 24.714 45.573L23.958 43.508H19.765L19.009 45.573C18.9717 45.6803 18.8993 45.7783 18.792 45.867C18.6847 45.9557 18.5517 46 18.393 46H16.923L20.906 35.878H22.824L26.8 46ZM31.9567 40.218C31.91 40.2927 31.861 40.3463 31.8097 40.379C31.7584 40.407 31.693 40.421 31.6137 40.421C31.5297 40.421 31.4387 40.3977 31.3407 40.351C31.2474 40.3043 31.1377 40.253 31.0117 40.197C30.8857 40.1363 30.741 40.0827 30.5777 40.036C30.419 39.9893 30.23 39.966 30.0107 39.966C29.67 39.966 29.4017 40.0383 29.2057 40.183C29.0144 40.3277 28.9187 40.5167 28.9187 40.75C28.9187 40.904 28.9677 41.0347 29.0657 41.142C29.1684 41.2447 29.3014 41.3357 29.4647 41.415C29.6327 41.4943 29.8217 41.5667 30.0317 41.632C30.2417 41.6927 30.454 41.7603 30.6687 41.835C30.888 41.9097 31.1027 41.996 31.3127 42.094C31.5227 42.1873 31.7094 42.3087 31.8727 42.458C32.0407 42.6027 32.1737 42.7777 32.2717 42.983C32.3744 43.1883 32.4257 43.4357 32.4257 43.725C32.4257 44.0703 32.3627 44.39 32.2367 44.684C32.1154 44.9733 31.9334 45.2253 31.6907 45.44C31.448 45.65 31.147 45.8157 30.7877 45.937C30.433 46.0537 30.0224 46.112 29.5557 46.112C29.3084 46.112 29.0657 46.0887 28.8277 46.042C28.5944 46 28.368 45.9393 28.1487 45.86C27.934 45.7807 27.7334 45.6873 27.5467 45.58C27.3647 45.4727 27.2037 45.356 27.0637 45.23L27.4627 44.572C27.514 44.4927 27.5747 44.432 27.6447 44.39C27.7147 44.348 27.8034 44.327 27.9107 44.327C28.018 44.327 28.1184 44.3573 28.2117 44.418C28.3097 44.4787 28.4217 44.544 28.5477 44.614C28.6737 44.684 28.8207 44.7493 28.9887 44.81C29.1614 44.8707 29.3784 44.901 29.6397 44.901C29.845 44.901 30.02 44.8777 30.1647 44.831C30.314 44.7797 30.4354 44.7143 30.5287 44.635C30.6267 44.5557 30.6967 44.4647 30.7387 44.362C30.7854 44.2547 30.8087 44.145 30.8087 44.033C30.8087 43.865 30.7574 43.7273 30.6547 43.62C30.5567 43.5127 30.4237 43.4193 30.2557 43.34C30.0924 43.2607 29.9034 43.1907 29.6887 43.13C29.4787 43.0647 29.2617 42.9947 29.0377 42.92C28.8184 42.8453 28.6014 42.759 28.3867 42.661C28.1767 42.5583 27.9877 42.43 27.8197 42.276C27.6564 42.122 27.5234 41.933 27.4207 41.709C27.3227 41.485 27.2737 41.2143 27.2737 40.897C27.2737 40.603 27.332 40.323 27.4487 40.057C27.5654 39.791 27.7357 39.56 27.9597 39.364C28.1884 39.1633 28.4707 39.0047 28.8067 38.888C29.1474 38.7667 29.5394 38.706 29.9827 38.706C30.4774 38.706 30.9277 38.7877 31.3337 38.951C31.7397 39.1143 32.078 39.329 32.3487 39.595L31.9567 40.218ZM38.109 40.218C38.0624 40.2927 38.0134 40.3463 37.962 40.379C37.9107 40.407 37.8454 40.421 37.766 40.421C37.682 40.421 37.591 40.3977 37.493 40.351C37.3997 40.3043 37.29 40.253 37.164 40.197C37.038 40.1363 36.8934 40.0827 36.73 40.036C36.5714 39.9893 36.3824 39.966 36.163 39.966C35.8224 39.966 35.554 40.0383 35.358 40.183C35.1667 40.3277 35.071 40.5167 35.071 40.75C35.071 40.904 35.12 41.0347 35.218 41.142C35.3207 41.2447 35.4537 41.3357 35.617 41.415C35.785 41.4943 35.974 41.5667 36.184 41.632C36.394 41.6927 36.6064 41.7603 36.821 41.835C37.0404 41.9097 37.255 41.996 37.465 42.094C37.675 42.1873 37.8617 42.3087 38.025 42.458C38.193 42.6027 38.326 42.7777 38.424 42.983C38.5267 43.1883 38.578 43.4357 38.578 43.725C38.578 44.0703 38.515 44.39 38.389 44.684C38.2677 44.9733 38.0857 45.2253 37.843 45.44C37.6004 45.65 37.2994 45.8157 36.94 45.937C36.5854 46.0537 36.1747 46.112 35.708 46.112C35.4607 46.112 35.218 46.0887 34.98 46.042C34.7467 46 34.5204 45.9393 34.301 45.86C34.0864 45.7807 33.8857 45.6873 33.699 45.58C33.517 45.4727 33.356 45.356 33.216 45.23L33.615 44.572C33.6664 44.4927 33.727 44.432 33.797 44.39C33.867 44.348 33.9557 44.327 34.063 44.327C34.1704 44.327 34.2707 44.3573 34.364 44.418C34.462 44.4787 34.574 44.544 34.7 44.614C34.826 44.684 34.973 44.7493 35.141 44.81C35.3137 44.8707 35.5307 44.901 35.792 44.901C35.9974 44.901 36.1724 44.8777 36.317 44.831C36.4664 44.7797 36.5877 44.7143 36.681 44.635C36.779 44.5557 36.849 44.4647 36.891 44.362C36.9377 44.2547 36.961 44.145 36.961 44.033C36.961 43.865 36.9097 43.7273 36.807 43.62C36.709 43.5127 36.576 43.4193 36.408 43.34C36.2447 43.2607 36.0557 43.1907 35.841 43.13C35.631 43.0647 35.414 42.9947 35.19 42.92C34.9707 42.8453 34.7537 42.759 34.539 42.661C34.329 42.5583 34.14 42.43 33.972 42.276C33.8087 42.122 33.6757 41.933 33.573 41.709C33.475 41.485 33.426 41.2143 33.426 40.897C33.426 40.603 33.4844 40.323 33.601 40.057C33.7177 39.791 33.888 39.56 34.112 39.364C34.3407 39.1633 34.623 39.0047 34.959 38.888C35.2997 38.7667 35.6917 38.706 36.135 38.706C36.6297 38.706 37.08 38.7877 37.486 38.951C37.892 39.1143 38.2304 39.329 38.501 39.595L38.109 40.218ZM41.6714 38.818V46H39.9354V38.818H41.6714ZM41.9094 36.725C41.9094 36.8743 41.8791 37.0143 41.8184 37.145C41.7577 37.2757 41.6761 37.39 41.5734 37.488C41.4754 37.586 41.3587 37.6653 41.2234 37.726C41.0881 37.782 40.9434 37.81 40.7894 37.81C40.6401 37.81 40.4977 37.782 40.3624 37.726C40.2317 37.6653 40.1174 37.586 40.0194 37.488C39.9214 37.39 39.8421 37.2757 39.7814 37.145C39.7254 37.0143 39.6974 36.8743 39.6974 36.725C39.6974 36.571 39.7254 36.4263 39.7814 36.291C39.8421 36.1557 39.9214 36.039 40.0194 35.941C40.1174 35.843 40.2317 35.766 40.3624 35.71C40.4977 35.6493 40.6401 35.619 40.7894 35.619C40.9434 35.619 41.0881 35.6493 41.2234 35.71C41.3587 35.766 41.4754 35.843 41.5734 35.941C41.6761 36.039 41.7577 36.1557 41.8184 36.291C41.8791 36.4263 41.9094 36.571 41.9094 36.725ZM48.5791 40.337C48.5277 40.4023 48.4764 40.4537 48.4251 40.491C48.3784 40.5283 48.3084 40.547 48.2151 40.547C48.1264 40.547 48.0401 40.5213 47.9561 40.47C47.8721 40.414 47.7717 40.3533 47.6551 40.288C47.5384 40.218 47.3984 40.1573 47.2351 40.106C47.0764 40.05 46.8781 40.022 46.6401 40.022C46.3367 40.022 46.0707 40.078 45.8421 40.19C45.6134 40.2973 45.4221 40.4537 45.2681 40.659C45.1187 40.8643 45.0067 41.114 44.9321 41.408C44.8574 41.6973 44.8201 42.0263 44.8201 42.395C44.8201 42.7777 44.8597 43.1183 44.9391 43.417C45.0231 43.7157 45.1421 43.9677 45.2961 44.173C45.4501 44.3737 45.6367 44.5277 45.8561 44.635C46.0754 44.7377 46.3227 44.789 46.5981 44.789C46.8734 44.789 47.0951 44.7563 47.2631 44.691C47.4357 44.621 47.5804 44.5463 47.6971 44.467C47.8137 44.383 47.9141 44.3083 47.9981 44.243C48.0867 44.173 48.1847 44.138 48.2921 44.138C48.4321 44.138 48.5371 44.1917 48.6071 44.299L49.1041 44.929C48.9127 45.153 48.7051 45.342 48.4811 45.496C48.2571 45.6453 48.0237 45.7667 47.7811 45.86C47.5431 45.9487 47.2957 46.0117 47.0391 46.049C46.7871 46.0863 46.5351 46.105 46.2831 46.105C45.8397 46.105 45.4221 46.0233 45.0301 45.86C44.6381 45.692 44.2951 45.4493 44.0011 45.132C43.7071 44.8147 43.4737 44.4273 43.3011 43.97C43.1331 43.508 43.0491 42.983 43.0491 42.395C43.0491 41.8677 43.1237 41.38 43.2731 40.932C43.4271 40.4793 43.6511 40.0897 43.9451 39.763C44.2391 39.4317 44.6031 39.1727 45.0371 38.986C45.4711 38.7993 45.9704 38.706 46.5351 38.706C47.0717 38.706 47.5407 38.7923 47.9421 38.965C48.3481 39.1377 48.7121 39.385 49.0341 39.707L48.5791 40.337ZM56.376 38.818V46H55.319C55.0903 46 54.9457 45.895 54.885 45.685L54.766 45.111C54.472 45.4097 54.1477 45.6523 53.793 45.839C53.4383 46.021 53.0207 46.112 52.54 46.112C52.148 46.112 51.8003 46.0467 51.497 45.916C51.1983 45.7807 50.9463 45.5917 50.741 45.349C50.5357 45.1063 50.3793 44.8193 50.272 44.488C50.1693 44.152 50.118 43.7833 50.118 43.382V38.818H51.847V43.382C51.847 43.8207 51.9473 44.1613 52.148 44.404C52.3533 44.642 52.659 44.761 53.065 44.761C53.3637 44.761 53.6437 44.6957 53.905 44.565C54.1663 44.4297 54.4137 44.2453 54.647 44.012V38.818H56.376ZM59.7213 40.064C59.9453 39.6347 60.2113 39.2987 60.5193 39.056C60.8273 38.8087 61.1913 38.685 61.6113 38.685C61.9427 38.685 62.2087 38.7573 62.4093 38.902L62.2973 40.197C62.274 40.281 62.239 40.3417 62.1923 40.379C62.1503 40.4117 62.092 40.428 62.0173 40.428C61.9473 40.428 61.8423 40.4163 61.7023 40.393C61.567 40.3697 61.434 40.358 61.3033 40.358C61.112 40.358 60.9417 40.386 60.7923 40.442C60.643 40.498 60.5077 40.5797 60.3863 40.687C60.2697 40.7897 60.1647 40.9157 60.0713 41.065C59.9827 41.2143 59.8987 41.3847 59.8193 41.576V46H58.0903V38.818H59.1053C59.2827 38.818 59.4063 38.8507 59.4763 38.916C59.5463 38.9767 59.593 39.0887 59.6163 39.252L59.7213 40.064ZM67.0113 42.934C66.5119 42.9573 66.0919 43.0017 65.7513 43.067C65.4106 43.1277 65.1376 43.207 64.9323 43.305C64.7269 43.403 64.5799 43.5173 64.4913 43.648C64.4026 43.7787 64.3583 43.921 64.3583 44.075C64.3583 44.3783 64.4469 44.5953 64.6243 44.726C64.8063 44.8567 65.0419 44.922 65.3313 44.922C65.6859 44.922 65.9916 44.859 66.2483 44.733C66.5096 44.6023 66.7639 44.4063 67.0113 44.145V42.934ZM63.0493 39.819C63.8753 39.063 64.8693 38.685 66.0313 38.685C66.4513 38.685 66.8269 38.755 67.1583 38.895C67.4896 39.0303 67.7696 39.2217 67.9983 39.469C68.2269 39.7117 68.3996 40.0033 68.5163 40.344C68.6376 40.6847 68.6983 41.058 68.6983 41.464V46H67.9143C67.7509 46 67.6249 45.9767 67.5363 45.93C67.4476 45.8787 67.3776 45.7783 67.3263 45.629L67.1723 45.111C66.9903 45.2743 66.8129 45.419 66.6403 45.545C66.4676 45.6663 66.2879 45.769 66.1013 45.853C65.9146 45.937 65.7139 46 65.4993 46.042C65.2893 46.0887 65.0559 46.112 64.7993 46.112C64.4959 46.112 64.2159 46.0723 63.9593 45.993C63.7026 45.909 63.4809 45.7853 63.2943 45.622C63.1076 45.4587 62.9629 45.2557 62.8603 45.013C62.7576 44.7703 62.7063 44.488 62.7063 44.166C62.7063 43.984 62.7366 43.8043 62.7973 43.627C62.8579 43.445 62.9559 43.2723 63.0913 43.109C63.2313 42.9457 63.4109 42.7917 63.6303 42.647C63.8496 42.5023 64.1179 42.3763 64.4353 42.269C64.7573 42.1617 65.1306 42.0753 65.5553 42.01C65.9799 41.94 66.4653 41.898 67.0113 41.884V41.464C67.0113 40.9833 66.9086 40.6287 66.7033 40.4C66.4979 40.1667 66.2016 40.05 65.8143 40.05C65.5343 40.05 65.3009 40.0827 65.1143 40.148C64.9323 40.2133 64.7713 40.288 64.6313 40.372C64.4913 40.4513 64.3629 40.5237 64.2463 40.589C64.1343 40.6543 64.0083 40.687 63.8683 40.687C63.7469 40.687 63.6443 40.6567 63.5603 40.596C63.4763 40.5307 63.4086 40.456 63.3573 40.372L63.0493 39.819ZM75.4857 39.532C75.4857 39.6533 75.4647 39.7723 75.4227 39.889C75.3807 40.0057 75.3247 40.1013 75.2547 40.176L71.8457 44.67H75.3807V46H69.8367V45.279C69.8367 45.1997 69.8553 45.1063 69.8927 44.999C69.93 44.887 69.986 44.782 70.0607 44.684L73.5047 40.141H70.0397V38.818H75.4857V39.532ZM78.5581 38.818V46H76.8221V38.818H78.5581ZM78.7961 36.725C78.7961 36.8743 78.7658 37.0143 78.7051 37.145C78.6444 37.2757 78.5628 37.39 78.4601 37.488C78.3621 37.586 78.2454 37.6653 78.1101 37.726C77.9748 37.782 77.8301 37.81 77.6761 37.81C77.5268 37.81 77.3844 37.782 77.2491 37.726C77.1184 37.6653 77.0041 37.586 76.9061 37.488C76.8081 37.39 76.7288 37.2757 76.6681 37.145C76.6121 37.0143 76.5841 36.8743 76.5841 36.725C76.5841 36.571 76.6121 36.4263 76.6681 36.291C76.7288 36.1557 76.8081 36.039 76.9061 35.941C77.0041 35.843 77.1184 35.766 77.2491 35.71C77.3844 35.6493 77.5268 35.619 77.6761 35.619C77.8301 35.619 77.9748 35.6493 78.1101 35.71C78.2454 35.766 78.3621 35.843 78.4601 35.941C78.5628 36.039 78.6444 36.1557 78.7051 36.291C78.7658 36.4263 78.7961 36.571 78.7961 36.725ZM83.4988 38.706C84.0308 38.706 84.5138 38.7923 84.9478 38.965C85.3865 39.1377 85.7598 39.3827 86.0678 39.7C86.3805 40.0173 86.6208 40.4047 86.7888 40.862C86.9568 41.3193 87.0408 41.8303 87.0408 42.395C87.0408 42.9643 86.9568 43.4777 86.7888 43.935C86.6208 44.3923 86.3805 44.782 86.0678 45.104C85.7598 45.426 85.3865 45.6733 84.9478 45.846C84.5138 46.0187 84.0308 46.105 83.4988 46.105C82.9621 46.105 82.4745 46.0187 82.0358 45.846C81.5971 45.6733 81.2215 45.426 80.9088 45.104C80.6008 44.782 80.3605 44.3923 80.1878 43.935C80.0198 43.4777 79.9358 42.9643 79.9358 42.395C79.9358 41.8303 80.0198 41.3193 80.1878 40.862C80.3605 40.4047 80.6008 40.0173 80.9088 39.7C81.2215 39.3827 81.5971 39.1377 82.0358 38.965C82.4745 38.7923 82.9621 38.706 83.4988 38.706ZM83.4988 44.775C84.0961 44.775 84.5371 44.5743 84.8218 44.173C85.1111 43.7717 85.2558 43.1837 85.2558 42.409C85.2558 41.6343 85.1111 41.044 84.8218 40.638C84.5371 40.232 84.0961 40.029 83.4988 40.029C82.8921 40.029 82.4418 40.2343 82.1478 40.645C81.8585 41.051 81.7138 41.639 81.7138 42.409C81.7138 43.179 81.8585 43.767 82.1478 44.173C82.4418 44.5743 82.8921 44.775 83.4988 44.775ZM89.9769 39.7C90.1215 39.5553 90.2732 39.4223 90.4319 39.301C90.5952 39.175 90.7655 39.07 90.9429 38.986C91.1249 38.8973 91.3185 38.8297 91.5239 38.783C91.7292 38.7317 91.9532 38.706 92.1959 38.706C92.5879 38.706 92.9355 38.7737 93.2389 38.909C93.5422 39.0397 93.7942 39.2263 93.9949 39.469C94.2002 39.707 94.3542 39.994 94.4569 40.33C94.5642 40.6613 94.6179 41.0277 94.6179 41.429V46H92.8889V41.429C92.8889 40.9903 92.7885 40.652 92.5879 40.414C92.3872 40.1713 92.0815 40.05 91.6709 40.05C91.3722 40.05 91.0922 40.1177 90.8309 40.253C90.5695 40.3883 90.3222 40.5727 90.0889 40.806V46H88.3599V38.818H89.4169C89.6409 38.818 89.7879 38.923 89.8579 39.133L89.9769 39.7ZM98.0542 38.818V46H96.3182V38.818H98.0542ZM98.2922 36.725C98.2922 36.8743 98.2619 37.0143 98.2012 37.145C98.1405 37.2757 98.0589 37.39 97.9562 37.488C97.8582 37.586 97.7415 37.6653 97.6062 37.726C97.4709 37.782 97.3262 37.81 97.1722 37.81C97.0229 37.81 96.8805 37.782 96.7452 37.726C96.6145 37.6653 96.5002 37.586 96.4022 37.488C96.3042 37.39 96.2249 37.2757 96.1642 37.145C96.1082 37.0143 96.0802 36.8743 96.0802 36.725C96.0802 36.571 96.1082 36.4263 96.1642 36.291C96.2249 36.1557 96.3042 36.039 96.4022 35.941C96.5002 35.843 96.6145 35.766 96.7452 35.71C96.8805 35.6493 97.0229 35.619 97.1722 35.619C97.3262 35.619 97.4709 35.6493 97.6062 35.71C97.7415 35.766 97.8582 35.843 97.9562 35.941C98.0589 36.039 98.1405 36.1557 98.2012 36.291C98.2619 36.4263 98.2922 36.571 98.2922 36.725ZM103.165 41.051H106.791V42.493H103.165V41.051ZM117.004 42.178L115.772 38.811C115.712 38.6617 115.649 38.4843 115.583 38.279C115.518 38.0737 115.453 37.852 115.387 37.614C115.327 37.852 115.264 38.076 115.198 38.286C115.133 38.4913 115.07 38.671 115.009 38.825L113.784 42.178H117.004ZM120.329 46H118.873C118.71 46 118.577 45.9603 118.474 45.881C118.372 45.797 118.295 45.6943 118.243 45.573L117.487 43.508H113.294L112.538 45.573C112.501 45.6803 112.429 45.7783 112.321 45.867C112.214 45.9557 112.081 46 111.922 46H110.452L114.435 35.878H116.353L120.329 46ZM122.84 35.598V46H121.111V35.598H122.84ZM126.313 35.598V46H124.584V35.598H126.313ZM129.828 38.818V46H128.092V38.818H129.828ZM130.066 36.725C130.066 36.8743 130.035 37.0143 129.975 37.145C129.914 37.2757 129.832 37.39 129.73 37.488C129.632 37.586 129.515 37.6653 129.38 37.726C129.244 37.782 129.1 37.81 128.946 37.81C128.796 37.81 128.654 37.782 128.519 37.726C128.388 37.6653 128.274 37.586 128.176 37.488C128.078 37.39 127.998 37.2757 127.938 37.145C127.882 37.0143 127.854 36.8743 127.854 36.725C127.854 36.571 127.882 36.4263 127.938 36.291C127.998 36.1557 128.078 36.039 128.176 35.941C128.274 35.843 128.388 35.766 128.519 35.71C128.654 35.6493 128.796 35.619 128.946 35.619C129.1 35.619 129.244 35.6493 129.38 35.71C129.515 35.766 129.632 35.843 129.73 35.941C129.832 36.039 129.914 36.1557 129.975 36.291C130.035 36.4263 130.066 36.571 130.066 36.725ZM135.384 42.934C134.885 42.9573 134.465 43.0017 134.124 43.067C133.784 43.1277 133.511 43.207 133.305 43.305C133.1 43.403 132.953 43.5173 132.864 43.648C132.776 43.7787 132.731 43.921 132.731 44.075C132.731 44.3783 132.82 44.5953 132.997 44.726C133.179 44.8567 133.415 44.922 133.704 44.922C134.059 44.922 134.365 44.859 134.621 44.733C134.883 44.6023 135.137 44.4063 135.384 44.145V42.934ZM131.422 39.819C132.248 39.063 133.242 38.685 134.404 38.685C134.824 38.685 135.2 38.755 135.531 38.895C135.863 39.0303 136.143 39.2217 136.371 39.469C136.6 39.7117 136.773 40.0033 136.889 40.344C137.011 40.6847 137.071 41.058 137.071 41.464V46H136.287C136.124 46 135.998 45.9767 135.909 45.93C135.821 45.8787 135.751 45.7783 135.699 45.629L135.545 45.111C135.363 45.2743 135.186 45.419 135.013 45.545C134.841 45.6663 134.661 45.769 134.474 45.853C134.288 45.937 134.087 46 133.872 46.042C133.662 46.0887 133.429 46.112 133.172 46.112C132.869 46.112 132.589 46.0723 132.332 45.993C132.076 45.909 131.854 45.7853 131.667 45.622C131.481 45.4587 131.336 45.2557 131.233 45.013C131.131 44.7703 131.079 44.488 131.079 44.166C131.079 43.984 131.11 43.8043 131.17 43.627C131.231 43.445 131.329 43.2723 131.464 43.109C131.604 42.9457 131.784 42.7917 132.003 42.647C132.223 42.5023 132.491 42.3763 132.808 42.269C133.13 42.1617 133.504 42.0753 133.928 42.01C134.353 41.94 134.838 41.898 135.384 41.884V41.464C135.384 40.9833 135.282 40.6287 135.076 40.4C134.871 40.1667 134.575 40.05 134.187 40.05C133.907 40.05 133.674 40.0827 133.487 40.148C133.305 40.2133 133.144 40.288 133.004 40.372C132.864 40.4513 132.736 40.5237 132.619 40.589C132.507 40.6543 132.381 40.687 132.241 40.687C132.12 40.687 132.017 40.6567 131.933 40.596C131.849 40.5307 131.782 40.456 131.73 40.372L131.422 39.819ZM140.317 39.7C140.461 39.5553 140.613 39.4223 140.772 39.301C140.935 39.175 141.105 39.07 141.283 38.986C141.465 38.8973 141.658 38.8297 141.864 38.783C142.069 38.7317 142.293 38.706 142.536 38.706C142.928 38.706 143.275 38.7737 143.579 38.909C143.882 39.0397 144.134 39.2263 144.335 39.469C144.54 39.707 144.694 39.994 144.797 40.33C144.904 40.6613 144.958 41.0277 144.958 41.429V46H143.229V41.429C143.229 40.9903 143.128 40.652 142.928 40.414C142.727 40.1713 142.421 40.05 142.011 40.05C141.712 40.05 141.432 40.1177 141.171 40.253C140.909 40.3883 140.662 40.5727 140.429 40.806V46H138.7V38.818H139.757C139.981 38.818 140.128 38.923 140.198 39.133L140.317 39.7ZM151.761 39.532C151.761 39.6533 151.74 39.7723 151.698 39.889C151.656 40.0057 151.6 40.1013 151.53 40.176L148.121 44.67H151.656V46H146.112V45.279C146.112 45.1997 146.131 45.1063 146.168 44.999C146.205 44.887 146.261 44.782 146.336 44.684L149.78 40.141H146.315V38.818H151.761V39.532ZM162.109 37.719C162.053 37.817 161.992 37.8893 161.927 37.936C161.866 37.978 161.789 37.999 161.696 37.999C161.598 37.999 161.49 37.964 161.374 37.894C161.262 37.8193 161.126 37.7377 160.968 37.649C160.809 37.5603 160.622 37.481 160.408 37.411C160.198 37.3363 159.948 37.299 159.659 37.299C159.397 37.299 159.169 37.3317 158.973 37.397C158.777 37.4577 158.611 37.544 158.476 37.656C158.345 37.768 158.247 37.9033 158.182 38.062C158.116 38.216 158.084 38.3863 158.084 38.573C158.084 38.811 158.149 39.0093 158.28 39.168C158.415 39.3267 158.592 39.462 158.812 39.574C159.031 39.686 159.281 39.7863 159.561 39.875C159.841 39.9637 160.128 40.0593 160.422 40.162C160.716 40.26 161.003 40.3767 161.283 40.512C161.563 40.6427 161.812 40.8107 162.032 41.016C162.251 41.2167 162.426 41.464 162.557 41.758C162.692 42.052 162.76 42.409 162.76 42.829C162.76 43.2863 162.68 43.7157 162.522 44.117C162.368 44.5137 162.139 44.8613 161.836 45.16C161.537 45.454 161.171 45.6873 160.737 45.86C160.303 46.028 159.806 46.112 159.246 46.112C158.924 46.112 158.606 46.0793 158.294 46.014C157.981 45.9533 157.68 45.8647 157.391 45.748C157.106 45.6313 156.838 45.4913 156.586 45.328C156.334 45.1647 156.11 44.9827 155.914 44.782L156.467 43.879C156.513 43.8137 156.574 43.76 156.649 43.718C156.723 43.6713 156.803 43.648 156.887 43.648C157.003 43.648 157.129 43.697 157.265 43.795C157.4 43.8883 157.561 43.9933 157.748 44.11C157.934 44.2267 158.151 44.334 158.399 44.432C158.651 44.5253 158.952 44.572 159.302 44.572C159.838 44.572 160.254 44.446 160.548 44.194C160.842 43.9373 160.989 43.571 160.989 43.095C160.989 42.829 160.921 42.612 160.786 42.444C160.655 42.276 160.48 42.136 160.261 42.024C160.041 41.9073 159.792 41.8093 159.512 41.73C159.232 41.6507 158.947 41.5643 158.658 41.471C158.368 41.3777 158.084 41.2657 157.804 41.135C157.524 41.0043 157.274 40.834 157.055 40.624C156.835 40.414 156.658 40.1527 156.523 39.84C156.392 39.5227 156.327 39.133 156.327 38.671C156.327 38.3023 156.399 37.943 156.544 37.593C156.693 37.243 156.908 36.9327 157.188 36.662C157.468 36.3913 157.813 36.1743 158.224 36.011C158.634 35.8477 159.106 35.766 159.638 35.766C160.235 35.766 160.786 35.8593 161.29 36.046C161.794 36.2327 162.223 36.494 162.578 36.83L162.109 37.719ZM163.877 45.048C163.877 44.9033 163.903 44.7657 163.954 44.635C164.01 44.5043 164.085 44.3923 164.178 44.299C164.272 44.2057 164.384 44.131 164.514 44.075C164.645 44.019 164.785 43.991 164.934 43.991C165.084 43.991 165.221 44.019 165.347 44.075C165.478 44.131 165.59 44.2057 165.683 44.299C165.781 44.3923 165.858 44.5043 165.914 44.635C165.97 44.7657 165.998 44.9033 165.998 45.048C165.998 45.1973 165.97 45.3373 165.914 45.468C165.858 45.594 165.781 45.7037 165.683 45.797C165.59 45.8903 165.478 45.9627 165.347 46.014C165.221 46.07 165.084 46.098 164.934 46.098C164.785 46.098 164.645 46.07 164.514 46.014C164.384 45.9627 164.272 45.8903 164.178 45.797C164.085 45.7037 164.01 45.594 163.954 45.468C163.903 45.3373 163.877 45.1973 163.877 45.048ZM169.181 44.138C169.377 44.376 169.589 44.544 169.818 44.642C170.051 44.74 170.303 44.789 170.574 44.789C170.835 44.789 171.071 44.74 171.281 44.642C171.491 44.544 171.668 44.3947 171.813 44.194C171.962 43.9933 172.076 43.7413 172.156 43.438C172.235 43.13 172.275 42.7683 172.275 42.353C172.275 41.933 172.24 41.5783 172.17 41.289C172.104 40.995 172.009 40.757 171.883 40.575C171.757 40.393 171.603 40.26 171.421 40.176C171.243 40.092 171.04 40.05 170.812 40.05C170.452 40.05 170.147 40.127 169.895 40.281C169.643 40.4303 169.405 40.6427 169.181 40.918V44.138ZM169.09 39.798C169.384 39.4667 169.717 39.1983 170.091 38.993C170.464 38.7877 170.903 38.685 171.407 38.685C171.799 38.685 172.156 38.7667 172.478 38.93C172.804 39.0933 173.084 39.3313 173.318 39.644C173.556 39.952 173.738 40.3347 173.864 40.792C173.994 41.2447 174.06 41.765 174.06 42.353C174.06 42.8897 173.987 43.3867 173.843 43.844C173.698 44.3013 173.49 44.698 173.22 45.034C172.954 45.37 172.629 45.6337 172.247 45.825C171.869 46.0117 171.444 46.105 170.973 46.105C170.571 46.105 170.228 46.0443 169.944 45.923C169.659 45.797 169.405 45.6243 169.181 45.405V48.345H167.452V38.818H168.509C168.733 38.818 168.88 38.923 168.95 39.133L169.09 39.798ZM175.157 45.048C175.157 44.9033 175.182 44.7657 175.234 44.635C175.29 44.5043 175.364 44.3923 175.458 44.299C175.551 44.2057 175.663 44.131 175.794 44.075C175.924 44.019 176.064 43.991 176.214 43.991C176.363 43.991 176.501 44.019 176.627 44.075C176.757 44.131 176.869 44.2057 176.963 44.299C177.061 44.3923 177.138 44.5043 177.194 44.635C177.25 44.7657 177.278 44.9033 177.278 45.048C177.278 45.1973 177.25 45.3373 177.194 45.468C177.138 45.594 177.061 45.7037 176.963 45.797C176.869 45.8903 176.757 45.9627 176.627 46.014C176.501 46.07 176.363 46.098 176.214 46.098C176.064 46.098 175.924 46.07 175.794 46.014C175.663 45.9627 175.551 45.8903 175.458 45.797C175.364 45.7037 175.29 45.594 175.234 45.468C175.182 45.3373 175.157 45.1973 175.157 45.048ZM184.352 42.178L183.12 38.811C183.059 38.6617 182.996 38.4843 182.931 38.279C182.866 38.0737 182.8 37.852 182.735 37.614C182.674 37.852 182.611 38.076 182.546 38.286C182.481 38.4913 182.418 38.671 182.357 38.825L181.132 42.178H184.352ZM187.677 46H186.221C186.058 46 185.925 45.9603 185.822 45.881C185.719 45.797 185.642 45.6943 185.591 45.573L184.835 43.508H180.642L179.886 45.573C179.849 45.6803 179.776 45.7783 179.669 45.867C179.562 45.9557 179.429 46 179.27 46H177.8L181.783 35.878H183.701L187.677 46ZM188.2 45.048C188.2 44.9033 188.225 44.7657 188.277 44.635C188.333 44.5043 188.407 44.3923 188.501 44.299C188.594 44.2057 188.706 44.131 188.837 44.075C188.967 44.019 189.107 43.991 189.257 43.991C189.406 43.991 189.544 44.019 189.67 44.075C189.8 44.131 189.912 44.2057 190.006 44.299C190.104 44.3923 190.181 44.5043 190.237 44.635C190.293 44.7657 190.321 44.9033 190.321 45.048C190.321 45.1973 190.293 45.3373 190.237 45.468C190.181 45.594 190.104 45.7037 190.006 45.797C189.912 45.8903 189.8 45.9627 189.67 46.014C189.544 46.07 189.406 46.098 189.257 46.098C189.107 46.098 188.967 46.07 188.837 46.014C188.706 45.9627 188.594 45.8903 188.501 45.797C188.407 45.7037 188.333 45.594 188.277 45.468C188.225 45.3373 188.2 45.1973 188.2 45.048ZM195.122 41.051H198.748V42.493H195.122V41.051ZM22.201 61.481C22.565 61.481 22.8893 61.4203 23.174 61.299C23.4633 61.1777 23.706 61.0073 23.902 60.788C24.098 60.5687 24.2473 60.3027 24.35 59.99C24.4573 59.6773 24.511 59.3273 24.511 58.94V52.878H26.394V58.94C26.394 59.542 26.296 60.0997 26.1 60.613C25.9087 61.1217 25.631 61.5627 25.267 61.936C24.9077 62.3047 24.469 62.594 23.951 62.804C23.433 63.0093 22.8497 63.112 22.201 63.112C21.5477 63.112 20.962 63.0093 20.444 62.804C19.926 62.594 19.485 62.3047 19.121 61.936C18.7617 61.5627 18.484 61.1217 18.288 60.613C18.0967 60.0997 18.001 59.542 18.001 58.94V52.878H19.884V58.933C19.884 59.3203 19.9353 59.6703 20.038 59.983C20.1453 60.2957 20.297 60.564 20.493 60.788C20.6937 61.0073 20.9363 61.1777 21.221 61.299C21.5103 61.4203 21.837 61.481 22.201 61.481ZM29.6292 56.7C29.7739 56.5553 29.9255 56.4223 30.0842 56.301C30.2475 56.175 30.4179 56.07 30.5952 55.986C30.7772 55.8973 30.9709 55.8297 31.1762 55.783C31.3815 55.7317 31.6055 55.706 31.8482 55.706C32.2402 55.706 32.5879 55.7737 32.8912 55.909C33.1945 56.0397 33.4465 56.2263 33.6472 56.469C33.8525 56.707 34.0065 56.994 34.1092 57.33C34.2165 57.6613 34.2702 58.0277 34.2702 58.429V63H32.5412V58.429C32.5412 57.9903 32.4409 57.652 32.2402 57.414C32.0395 57.1713 31.7339 57.05 31.3232 57.05C31.0245 57.05 30.7445 57.1177 30.4832 57.253C30.2219 57.3883 29.9745 57.5727 29.7412 57.806V63H28.0122V55.818H29.0692C29.2932 55.818 29.4402 55.923 29.5102 56.133L29.6292 56.7ZM37.7065 55.818V63H35.9705V55.818H37.7065ZM37.9445 53.725C37.9445 53.8743 37.9142 54.0143 37.8535 54.145C37.7929 54.2757 37.7112 54.39 37.6085 54.488C37.5105 54.586 37.3939 54.6653 37.2585 54.726C37.1232 54.782 36.9785 54.81 36.8245 54.81C36.6752 54.81 36.5329 54.782 36.3975 54.726C36.2669 54.6653 36.1525 54.586 36.0545 54.488C35.9565 54.39 35.8772 54.2757 35.8165 54.145C35.7605 54.0143 35.7325 53.8743 35.7325 53.725C35.7325 53.571 35.7605 53.4263 35.8165 53.291C35.8772 53.1557 35.9565 53.039 36.0545 52.941C36.1525 52.843 36.2669 52.766 36.3975 52.71C36.5329 52.6493 36.6752 52.619 36.8245 52.619C36.9785 52.619 37.1232 52.6493 37.2585 52.71C37.3939 52.766 37.5105 52.843 37.6085 52.941C37.7112 53.039 37.7929 53.1557 37.8535 53.291C37.9142 53.4263 37.9445 53.571 37.9445 53.725ZM41.1982 61.138C41.3942 61.376 41.6066 61.544 41.8352 61.642C42.0686 61.74 42.3206 61.789 42.5912 61.789C42.8526 61.789 43.0882 61.74 43.2982 61.642C43.5082 61.544 43.6856 61.3947 43.8302 61.194C43.9796 60.9933 44.0939 60.7413 44.1732 60.438C44.2526 60.13 44.2922 59.7683 44.2922 59.353C44.2922 58.933 44.2572 58.5783 44.1872 58.289C44.1219 57.995 44.0262 57.757 43.9002 57.575C43.7742 57.393 43.6202 57.26 43.4382 57.176C43.2609 57.092 43.0579 57.05 42.8292 57.05C42.4699 57.05 42.1642 57.127 41.9122 57.281C41.6602 57.4303 41.4222 57.6427 41.1982 57.918V61.138ZM41.1072 56.798C41.4012 56.4667 41.7349 56.1983 42.1082 55.993C42.4816 55.7877 42.9202 55.685 43.4242 55.685C43.8162 55.685 44.1732 55.7667 44.4952 55.93C44.8219 56.0933 45.1019 56.3313 45.3352 56.644C45.5732 56.952 45.7552 57.3347 45.8812 57.792C46.0119 58.2447 46.0772 58.765 46.0772 59.353C46.0772 59.8897 46.0049 60.3867 45.8602 60.844C45.7156 61.3013 45.5079 61.698 45.2372 62.034C44.9712 62.37 44.6469 62.6337 44.2642 62.825C43.8862 63.0117 43.4616 63.105 42.9902 63.105C42.5889 63.105 42.2459 63.0443 41.9612 62.923C41.6766 62.797 41.4222 62.6243 41.1982 62.405V65.345H39.4692V55.818H40.5262C40.7502 55.818 40.8972 55.923 40.9672 56.133L41.1072 56.798ZM50.6043 55.706C51.1363 55.706 51.6193 55.7923 52.0533 55.965C52.4919 56.1377 52.8653 56.3827 53.1733 56.7C53.4859 57.0173 53.7263 57.4047 53.8943 57.862C54.0623 58.3193 54.1463 58.8303 54.1463 59.395C54.1463 59.9643 54.0623 60.4777 53.8943 60.935C53.7263 61.3923 53.4859 61.782 53.1733 62.104C52.8653 62.426 52.4919 62.6733 52.0533 62.846C51.6193 63.0187 51.1363 63.105 50.6043 63.105C50.0676 63.105 49.5799 63.0187 49.1413 62.846C48.7026 62.6733 48.3269 62.426 48.0143 62.104C47.7063 61.782 47.4659 61.3923 47.2933 60.935C47.1253 60.4777 47.0413 59.9643 47.0413 59.395C47.0413 58.8303 47.1253 58.3193 47.2933 57.862C47.4659 57.4047 47.7063 57.0173 48.0143 56.7C48.3269 56.3827 48.7026 56.1377 49.1413 55.965C49.5799 55.7923 50.0676 55.706 50.6043 55.706ZM50.6043 61.775C51.2016 61.775 51.6426 61.5743 51.9273 61.173C52.2166 60.7717 52.3613 60.1837 52.3613 59.409C52.3613 58.6343 52.2166 58.044 51.9273 57.638C51.6426 57.232 51.2016 57.029 50.6043 57.029C49.9976 57.029 49.5473 57.2343 49.2533 57.645C48.9639 58.051 48.8193 58.639 48.8193 59.409C48.8193 60.179 48.9639 60.767 49.2533 61.173C49.5473 61.5743 49.9976 61.775 50.6043 61.775ZM57.2153 52.598V63H55.4863V52.598H57.2153ZM64.56 54.719C64.504 54.817 64.4433 54.8893 64.378 54.936C64.3173 54.978 64.2403 54.999 64.147 54.999C64.049 54.999 63.9416 54.964 63.825 54.894C63.713 54.8193 63.5776 54.7377 63.419 54.649C63.2603 54.5603 63.0736 54.481 62.859 54.411C62.649 54.3363 62.3993 54.299 62.11 54.299C61.8486 54.299 61.62 54.3317 61.424 54.397C61.228 54.4577 61.0623 54.544 60.927 54.656C60.7963 54.768 60.6983 54.9033 60.633 55.062C60.5676 55.216 60.535 55.3863 60.535 55.573C60.535 55.811 60.6003 56.0093 60.731 56.168C60.8663 56.3267 61.0436 56.462 61.263 56.574C61.4823 56.686 61.732 56.7863 62.012 56.875C62.292 56.9637 62.579 57.0593 62.873 57.162C63.167 57.26 63.454 57.3767 63.734 57.512C64.014 57.6427 64.2636 57.8107 64.483 58.016C64.7023 58.2167 64.8773 58.464 65.008 58.758C65.1433 59.052 65.211 59.409 65.211 59.829C65.211 60.2863 65.1316 60.7157 64.973 61.117C64.819 61.5137 64.5903 61.8613 64.287 62.16C63.9883 62.454 63.622 62.6873 63.188 62.86C62.754 63.028 62.257 63.112 61.697 63.112C61.375 63.112 61.0576 63.0793 60.745 63.014C60.4323 62.9533 60.1313 62.8647 59.842 62.748C59.5573 62.6313 59.289 62.4913 59.037 62.328C58.785 62.1647 58.561 61.9827 58.365 61.782L58.918 60.879C58.9646 60.8137 59.0253 60.76 59.1 60.718C59.1746 60.6713 59.254 60.648 59.338 60.648C59.4546 60.648 59.5806 60.697 59.716 60.795C59.8513 60.8883 60.0123 60.9933 60.199 61.11C60.3856 61.2267 60.6026 61.334 60.85 61.432C61.102 61.5253 61.403 61.572 61.753 61.572C62.2896 61.572 62.705 61.446 62.999 61.194C63.293 60.9373 63.44 60.571 63.44 60.095C63.44 59.829 63.3723 59.612 63.237 59.444C63.1063 59.276 62.9313 59.136 62.712 59.024C62.4926 58.9073 62.243 58.8093 61.963 58.73C61.683 58.6507 61.3983 58.5643 61.109 58.471C60.8196 58.3777 60.535 58.2657 60.255 58.135C59.975 58.0043 59.7253 57.834 59.506 57.624C59.2866 57.414 59.1093 57.1527 58.974 56.84C58.8433 56.5227 58.778 56.133 58.778 55.671C58.778 55.3023 58.8503 54.943 58.995 54.593C59.1443 54.243 59.359 53.9327 59.639 53.662C59.919 53.3913 60.2643 53.1743 60.675 53.011C61.0856 52.8477 61.557 52.766 62.089 52.766C62.6863 52.766 63.237 52.8593 63.741 53.046C64.245 53.2327 64.6743 53.494 65.029 53.83L64.56 54.719ZM70.2789 59.934C69.7795 59.9573 69.3595 60.0017 69.0189 60.067C68.6782 60.1277 68.4052 60.207 68.1999 60.305C67.9945 60.403 67.8475 60.5173 67.7589 60.648C67.6702 60.7787 67.6259 60.921 67.6259 61.075C67.6259 61.3783 67.7145 61.5953 67.8919 61.726C68.0739 61.8567 68.3095 61.922 68.5989 61.922C68.9535 61.922 69.2592 61.859 69.5159 61.733C69.7772 61.6023 70.0315 61.4063 70.2789 61.145V59.934ZM66.3169 56.819C67.1429 56.063 68.1369 55.685 69.2989 55.685C69.7189 55.685 70.0945 55.755 70.4259 55.895C70.7572 56.0303 71.0372 56.2217 71.2659 56.469C71.4945 56.7117 71.6672 57.0033 71.7839 57.344C71.9052 57.6847 71.9659 58.058 71.9659 58.464V63H71.1819C71.0185 63 70.8925 62.9767 70.8039 62.93C70.7152 62.8787 70.6452 62.7783 70.5939 62.629L70.4399 62.111C70.2579 62.2743 70.0805 62.419 69.9079 62.545C69.7352 62.6663 69.5555 62.769 69.3689 62.853C69.1822 62.937 68.9815 63 68.7669 63.042C68.5569 63.0887 68.3235 63.112 68.0669 63.112C67.7635 63.112 67.4835 63.0723 67.2269 62.993C66.9702 62.909 66.7485 62.7853 66.5619 62.622C66.3752 62.4587 66.2305 62.2557 66.1279 62.013C66.0252 61.7703 65.9739 61.488 65.9739 61.166C65.9739 60.984 66.0042 60.8043 66.0649 60.627C66.1255 60.445 66.2235 60.2723 66.3589 60.109C66.4989 59.9457 66.6785 59.7917 66.8979 59.647C67.1172 59.5023 67.3855 59.3763 67.7029 59.269C68.0249 59.1617 68.3982 59.0753 68.8229 59.01C69.2475 58.94 69.7329 58.898 70.2789 58.884V58.464C70.2789 57.9833 70.1762 57.6287 69.9709 57.4C69.7655 57.1667 69.4692 57.05 69.0819 57.05C68.8019 57.05 68.5685 57.0827 68.3819 57.148C68.1999 57.2133 68.0389 57.288 67.8989 57.372C67.7589 57.4513 67.6305 57.5237 67.5139 57.589C67.4019 57.6543 67.2759 57.687 67.1359 57.687C67.0145 57.687 66.9119 57.6567 66.8279 57.596C66.7439 57.5307 66.6762 57.456 66.6249 57.372L66.3169 56.819ZM75.3862 55.818V63H73.6502V55.818H75.3862ZM75.6242 53.725C75.6242 53.8743 75.5939 54.0143 75.5332 54.145C75.4726 54.2757 75.3909 54.39 75.2882 54.488C75.1902 54.586 75.0736 54.6653 74.9382 54.726C74.8029 54.782 74.6582 54.81 74.5042 54.81C74.3549 54.81 74.2126 54.782 74.0772 54.726C73.9466 54.6653 73.8322 54.586 73.7342 54.488C73.6362 54.39 73.5569 54.2757 73.4962 54.145C73.4402 54.0143 73.4122 53.8743 73.4122 53.725C73.4122 53.571 73.4402 53.4263 73.4962 53.291C73.5569 53.1557 73.6362 53.039 73.7342 52.941C73.8322 52.843 73.9466 52.766 74.0772 52.71C74.2126 52.6493 74.3549 52.619 74.5042 52.619C74.6582 52.619 74.8029 52.6493 74.9382 52.71C75.0736 52.766 75.1902 52.843 75.2882 52.941C75.3909 53.039 75.4726 53.1557 75.5332 53.291C75.5939 53.4263 75.6242 53.571 75.6242 53.725ZM86.2162 54.719C86.1602 54.817 86.0996 54.8893 86.0342 54.936C85.9736 54.978 85.8966 54.999 85.8032 54.999C85.7052 54.999 85.5979 54.964 85.4812 54.894C85.3692 54.8193 85.2339 54.7377 85.0752 54.649C84.9166 54.5603 84.7299 54.481 84.5152 54.411C84.3052 54.3363 84.0556 54.299 83.7662 54.299C83.5049 54.299 83.2762 54.3317 83.0802 54.397C82.8842 54.4577 82.7186 54.544 82.5832 54.656C82.4526 54.768 82.3546 54.9033 82.2892 55.062C82.2239 55.216 82.1912 55.3863 82.1912 55.573C82.1912 55.811 82.2566 56.0093 82.3872 56.168C82.5226 56.3267 82.6999 56.462 82.9192 56.574C83.1386 56.686 83.3882 56.7863 83.6682 56.875C83.9482 56.9637 84.2352 57.0593 84.5292 57.162C84.8232 57.26 85.1102 57.3767 85.3902 57.512C85.6702 57.6427 85.9199 57.8107 86.1392 58.016C86.3586 58.2167 86.5336 58.464 86.6642 58.758C86.7996 59.052 86.8672 59.409 86.8672 59.829C86.8672 60.2863 86.7879 60.7157 86.6292 61.117C86.4752 61.5137 86.2466 61.8613 85.9432 62.16C85.6446 62.454 85.2782 62.6873 84.8442 62.86C84.4102 63.028 83.9132 63.112 83.3532 63.112C83.0312 63.112 82.7139 63.0793 82.4012 63.014C82.0886 62.9533 81.7876 62.8647 81.4982 62.748C81.2136 62.6313 80.9452 62.4913 80.6932 62.328C80.4412 62.1647 80.2172 61.9827 80.0212 61.782L80.5742 60.879C80.6209 60.8137 80.6816 60.76 80.7562 60.718C80.8309 60.6713 80.9102 60.648 80.9942 60.648C81.1109 60.648 81.2369 60.697 81.3722 60.795C81.5076 60.8883 81.6686 60.9933 81.8552 61.11C82.0419 61.2267 82.2589 61.334 82.5062 61.432C82.7582 61.5253 83.0592 61.572 83.4092 61.572C83.9459 61.572 84.3612 61.446 84.6552 61.194C84.9492 60.9373 85.0962 60.571 85.0962 60.095C85.0962 59.829 85.0286 59.612 84.8932 59.444C84.7626 59.276 84.5876 59.136 84.3682 59.024C84.1489 58.9073 83.8992 58.8093 83.6192 58.73C83.3392 58.6507 83.0546 58.5643 82.7652 58.471C82.4759 58.3777 82.1912 58.2657 81.9112 58.135C81.6312 58.0043 81.3816 57.834 81.1622 57.624C80.9429 57.414 80.7656 57.1527 80.6302 56.84C80.4996 56.5227 80.4342 56.133 80.4342 55.671C80.4342 55.3023 80.5066 54.943 80.6512 54.593C80.8006 54.243 81.0152 53.9327 81.2952 53.662C81.5752 53.3913 81.9206 53.1743 82.3312 53.011C82.7419 52.8477 83.2132 52.766 83.7452 52.766C84.3426 52.766 84.8932 52.8593 85.3972 53.046C85.9012 53.2327 86.3306 53.494 86.6852 53.83L86.2162 54.719ZM87.9848 62.048C87.9848 61.9033 88.0105 61.7657 88.0618 61.635C88.1178 61.5043 88.1925 61.3923 88.2858 61.299C88.3791 61.2057 88.4911 61.131 88.6218 61.075C88.7525 61.019 88.8925 60.991 89.0418 60.991C89.1911 60.991 89.3288 61.019 89.4548 61.075C89.5855 61.131 89.6975 61.2057 89.7908 61.299C89.8888 61.3923 89.9658 61.5043 90.0218 61.635C90.0778 61.7657 90.1058 61.9033 90.1058 62.048C90.1058 62.1973 90.0778 62.3373 90.0218 62.468C89.9658 62.594 89.8888 62.7037 89.7908 62.797C89.6975 62.8903 89.5855 62.9627 89.4548 63.014C89.3288 63.07 89.1911 63.098 89.0418 63.098C88.8925 63.098 88.7525 63.07 88.6218 63.014C88.4911 62.9627 88.3791 62.8903 88.2858 62.797C88.1925 62.7037 88.1178 62.594 88.0618 62.468C88.0105 62.3373 87.9848 62.1973 87.9848 62.048ZM93.2881 61.138C93.4841 61.376 93.6964 61.544 93.9251 61.642C94.1584 61.74 94.4104 61.789 94.6811 61.789C94.9424 61.789 95.1781 61.74 95.3881 61.642C95.5981 61.544 95.7754 61.3947 95.9201 61.194C96.0694 60.9933 96.1837 60.7413 96.2631 60.438C96.3424 60.13 96.3821 59.7683 96.3821 59.353C96.3821 58.933 96.3471 58.5783 96.2771 58.289C96.2117 57.995 96.1161 57.757 95.9901 57.575C95.8641 57.393 95.7101 57.26 95.5281 57.176C95.3507 57.092 95.1477 57.05 94.9191 57.05C94.5597 57.05 94.2541 57.127 94.0021 57.281C93.7501 57.4303 93.5121 57.6427 93.2881 57.918V61.138ZM93.1971 56.798C93.4911 56.4667 93.8247 56.1983 94.1981 55.993C94.5714 55.7877 95.0101 55.685 95.5141 55.685C95.9061 55.685 96.2631 55.7667 96.5851 55.93C96.9117 56.0933 97.1917 56.3313 97.4251 56.644C97.6631 56.952 97.8451 57.3347 97.9711 57.792C98.1017 58.2447 98.1671 58.765 98.1671 59.353C98.1671 59.8897 98.0947 60.3867 97.9501 60.844C97.8054 61.3013 97.5977 61.698 97.3271 62.034C97.0611 62.37 96.7367 62.6337 96.3541 62.825C95.9761 63.0117 95.5514 63.105 95.0801 63.105C94.6787 63.105 94.3357 63.0443 94.0511 62.923C93.7664 62.797 93.5121 62.6243 93.2881 62.405V65.345H91.5591V55.818H92.6161C92.8401 55.818 92.9871 55.923 93.0571 56.133L93.1971 56.798ZM99.2641 62.048C99.2641 61.9033 99.2898 61.7657 99.3411 61.635C99.3971 61.5043 99.4718 61.3923 99.5651 61.299C99.6584 61.2057 99.7704 61.131 99.9011 61.075C100.032 61.019 100.172 60.991 100.321 60.991C100.47 60.991 100.608 61.019 100.734 61.075C100.865 61.131 100.977 61.2057 101.07 61.299C101.168 61.3923 101.245 61.5043 101.301 61.635C101.357 61.7657 101.385 61.9033 101.385 62.048C101.385 62.1973 101.357 62.3373 101.301 62.468C101.245 62.594 101.168 62.7037 101.07 62.797C100.977 62.8903 100.865 62.9627 100.734 63.014C100.608 63.07 100.47 63.098 100.321 63.098C100.172 63.098 100.032 63.07 99.9011 63.014C99.7704 62.9627 99.6584 62.8903 99.5651 62.797C99.4718 62.7037 99.3971 62.594 99.3411 62.468C99.2898 62.3373 99.2641 62.1973 99.2641 62.048ZM108.459 59.178L107.227 55.811C107.167 55.6617 107.104 55.4843 107.038 55.279C106.973 55.0737 106.908 54.852 106.842 54.614C106.782 54.852 106.719 55.076 106.653 55.286C106.588 55.4913 106.525 55.671 106.464 55.825L105.239 59.178H108.459ZM111.784 63H110.328C110.165 63 110.032 62.9603 109.929 62.881C109.827 62.797 109.75 62.6943 109.698 62.573L108.942 60.508H104.749L103.993 62.573C103.956 62.6803 103.884 62.7783 103.776 62.867C103.669 62.9557 103.536 63 103.377 63H101.907L105.89 52.878H107.808L111.784 63ZM112.307 62.048C112.307 61.9033 112.333 61.7657 112.384 61.635C112.44 61.5043 112.515 61.3923 112.608 61.299C112.701 61.2057 112.813 61.131 112.944 61.075C113.075 61.019 113.215 60.991 113.364 60.991C113.513 60.991 113.651 61.019 113.777 61.075C113.908 61.131 114.02 61.2057 114.113 61.299C114.211 61.3923 114.288 61.5043 114.344 61.635C114.4 61.7657 114.428 61.9033 114.428 62.048C114.428 62.1973 114.4 62.3373 114.344 62.468C114.288 62.594 114.211 62.7037 114.113 62.797C114.02 62.8903 113.908 62.9627 113.777 63.014C113.651 63.07 113.513 63.098 113.364 63.098C113.215 63.098 113.075 63.07 112.944 63.014C112.813 62.9627 112.701 62.8903 112.608 62.797C112.515 62.7037 112.44 62.594 112.384 62.468C112.333 62.3373 112.307 62.1973 112.307 62.048Z" fill="#F8F8FF"/>
<path d="M25.323 82.928C25.3977 82.928 25.463 82.9583 25.519 83.019L26.058 83.6C25.6473 84.076 25.148 84.447 24.56 84.713C23.9767 84.979 23.2697 85.112 22.439 85.112C21.7203 85.112 21.067 84.9883 20.479 84.741C19.891 84.489 19.3893 84.139 18.974 83.691C18.5587 83.2383 18.2367 82.697 18.008 82.067C17.7793 81.437 17.665 80.744 17.665 79.988C17.665 79.232 17.784 78.539 18.022 77.909C18.26 77.279 18.5937 76.7377 19.023 76.285C19.457 75.8323 19.975 75.4823 20.577 75.235C21.179 74.983 21.844 74.857 22.572 74.857C23.286 74.857 23.916 74.9713 24.462 75.2C25.008 75.4287 25.4887 75.739 25.904 76.131L25.456 76.754C25.428 76.8007 25.3907 76.8403 25.344 76.873C25.302 76.901 25.2437 76.915 25.169 76.915C25.085 76.915 24.9823 76.8707 24.861 76.782C24.7397 76.6887 24.581 76.586 24.385 76.474C24.189 76.362 23.944 76.2617 23.65 76.173C23.356 76.0797 22.9943 76.033 22.565 76.033C22.047 76.033 21.5733 76.124 21.144 76.306C20.7147 76.4833 20.3437 76.7423 20.031 77.083C19.723 77.4237 19.4827 77.839 19.31 78.329C19.1373 78.819 19.051 79.372 19.051 79.988C19.051 80.6133 19.1397 81.171 19.317 81.661C19.499 82.151 19.744 82.5663 20.052 82.907C20.3647 83.243 20.731 83.4997 21.151 83.677C21.5757 83.8543 22.033 83.943 22.523 83.943C22.8217 83.943 23.09 83.9267 23.328 83.894C23.5707 83.8567 23.7923 83.8007 23.993 83.726C24.1983 83.6513 24.3873 83.558 24.56 83.446C24.7373 83.3293 24.9123 83.1917 25.085 83.033C25.1643 82.963 25.2437 82.928 25.323 82.928ZM30.1908 77.797C30.7088 77.797 31.1755 77.8833 31.5908 78.056C32.0062 78.2287 32.3608 78.4737 32.6548 78.791C32.9488 79.1083 33.1728 79.4933 33.3268 79.946C33.4855 80.394 33.5648 80.8957 33.5648 81.451C33.5648 82.011 33.4855 82.515 33.3268 82.963C33.1728 83.411 32.9488 83.7937 32.6548 84.111C32.3608 84.4283 32.0062 84.6733 31.5908 84.846C31.1755 85.014 30.7088 85.098 30.1908 85.098C29.6682 85.098 29.1968 85.014 28.7768 84.846C28.3615 84.6733 28.0068 84.4283 27.7128 84.111C27.4188 83.7937 27.1925 83.411 27.0338 82.963C26.8798 82.515 26.8028 82.011 26.8028 81.451C26.8028 80.8957 26.8798 80.394 27.0338 79.946C27.1925 79.4933 27.4188 79.1083 27.7128 78.791C28.0068 78.4737 28.3615 78.2287 28.7768 78.056C29.1968 77.8833 29.6682 77.797 30.1908 77.797ZM30.1908 84.125C30.8908 84.125 31.4135 83.8917 31.7588 83.425C32.1042 82.9537 32.2768 82.298 32.2768 81.458C32.2768 80.6133 32.1042 79.9553 31.7588 79.484C31.4135 79.0127 30.8908 78.777 30.1908 78.777C29.8362 78.777 29.5258 78.8377 29.2598 78.959C28.9985 79.0803 28.7792 79.2553 28.6018 79.484C28.4292 79.7127 28.2985 79.995 28.2098 80.331C28.1258 80.6623 28.0838 81.038 28.0838 81.458C28.0838 82.298 28.2565 82.9537 28.6018 83.425C28.9518 83.8917 29.4815 84.125 30.1908 84.125ZM36.3212 78.938C36.4752 78.7653 36.6385 78.609 36.8112 78.469C36.9839 78.329 37.1659 78.21 37.3572 78.112C37.5532 78.0093 37.7585 77.9323 37.9732 77.881C38.1925 77.825 38.4282 77.797 38.6802 77.797C39.0675 77.797 39.4082 77.8623 39.7022 77.993C40.0009 78.119 40.2482 78.301 40.4442 78.539C40.6449 78.7723 40.7965 79.0547 40.8992 79.386C41.0019 79.7173 41.0532 80.0837 41.0532 80.485V85H39.8002V80.485C39.8002 79.9483 39.6765 79.533 39.4292 79.239C39.1865 78.9403 38.8155 78.791 38.3162 78.791C37.9475 78.791 37.6022 78.8797 37.2802 79.057C36.9629 79.2343 36.6689 79.4747 36.3982 79.778V85H35.1452V77.909H35.8942C36.0715 77.909 36.1812 77.9953 36.2232 78.168L36.3212 78.938ZM47.0818 79.078C47.0258 79.1807 46.9395 79.232 46.8228 79.232C46.7528 79.232 46.6735 79.2063 46.5848 79.155C46.4962 79.1037 46.3865 79.0477 46.2558 78.987C46.1298 78.9217 45.9782 78.8633 45.8008 78.812C45.6235 78.756 45.4135 78.728 45.1708 78.728C44.9608 78.728 44.7718 78.756 44.6038 78.812C44.4358 78.8633 44.2912 78.9357 44.1698 79.029C44.0532 79.1223 43.9622 79.232 43.8968 79.358C43.8362 79.4793 43.8058 79.6123 43.8058 79.757C43.8058 79.939 43.8572 80.0907 43.9598 80.212C44.0672 80.3333 44.2072 80.4383 44.3798 80.527C44.5525 80.6157 44.7485 80.695 44.9678 80.765C45.1872 80.8303 45.4112 80.9027 45.6398 80.982C45.8732 81.0567 46.0995 81.1407 46.3188 81.234C46.5382 81.3273 46.7342 81.444 46.9068 81.584C47.0795 81.724 47.2172 81.8967 47.3198 82.102C47.4272 82.3027 47.4808 82.5453 47.4808 82.83C47.4808 83.1567 47.4225 83.46 47.3058 83.74C47.1892 84.0153 47.0165 84.2557 46.7878 84.461C46.5592 84.6617 46.2792 84.8203 45.9478 84.937C45.6165 85.0537 45.2338 85.112 44.7998 85.112C44.3052 85.112 43.8572 85.0327 43.4558 84.874C43.0545 84.7107 42.7138 84.503 42.4338 84.251L42.7278 83.775C42.7652 83.7143 42.8095 83.6677 42.8608 83.635C42.9122 83.6023 42.9775 83.586 43.0568 83.586C43.1408 83.586 43.2295 83.6187 43.3228 83.684C43.4162 83.7493 43.5282 83.8217 43.6588 83.901C43.7942 83.9803 43.9575 84.0527 44.1488 84.118C44.3402 84.1833 44.5782 84.216 44.8628 84.216C45.1055 84.216 45.3178 84.1857 45.4998 84.125C45.6818 84.0597 45.8335 83.9733 45.9548 83.866C46.0762 83.7587 46.1648 83.635 46.2208 83.495C46.2815 83.355 46.3118 83.2057 46.3118 83.047C46.3118 82.851 46.2582 82.69 46.1508 82.564C46.0482 82.4333 45.9105 82.3237 45.7378 82.235C45.5652 82.1417 45.3668 82.0623 45.1428 81.997C44.9235 81.927 44.6972 81.8547 44.4638 81.78C44.2352 81.7053 44.0088 81.6213 43.7848 81.528C43.5655 81.43 43.3695 81.3087 43.1968 81.164C43.0242 81.0193 42.8842 80.842 42.7768 80.632C42.6742 80.4173 42.6228 80.1583 42.6228 79.855C42.6228 79.5843 42.6788 79.3253 42.7908 79.078C42.9028 78.826 43.0662 78.6067 43.2808 78.42C43.4955 78.2287 43.7592 78.077 44.0718 77.965C44.3845 77.853 44.7415 77.797 45.1428 77.797C45.6095 77.797 46.0272 77.8717 46.3958 78.021C46.7692 78.1657 47.0912 78.3663 47.3618 78.623L47.0818 79.078ZM54.8395 77.909V85H54.0975C53.9202 85 53.8082 84.9137 53.7615 84.741L53.6635 83.978C53.3555 84.3187 53.0102 84.594 52.6275 84.804C52.2448 85.0093 51.8062 85.112 51.3115 85.112C50.9242 85.112 50.5812 85.049 50.2825 84.923C49.9885 84.7923 49.7412 84.6103 49.5405 84.377C49.3398 84.1437 49.1882 83.8613 49.0855 83.53C48.9875 83.1987 48.9385 82.8323 48.9385 82.431V77.909H50.1845V82.431C50.1845 82.9677 50.3058 83.383 50.5485 83.677C50.7958 83.971 51.1715 84.118 51.6755 84.118C52.0442 84.118 52.3872 84.0317 52.7045 83.859C53.0265 83.6817 53.3228 83.439 53.5935 83.131V77.909H54.8395ZM58.1031 74.689V85H56.8571V74.689H58.1031ZM64.8697 80.681C64.8697 80.3917 64.8277 80.128 64.7437 79.89C64.6644 79.6473 64.5454 79.4397 64.3867 79.267C64.2327 79.0897 64.0437 78.9543 63.8197 78.861C63.5957 78.763 63.3414 78.714 63.0567 78.714C62.4594 78.714 61.9857 78.889 61.6357 79.239C61.2904 79.5843 61.0757 80.065 60.9917 80.681H64.8697ZM65.8777 84.006C65.7237 84.1927 65.5394 84.356 65.3247 84.496C65.1101 84.6313 64.8791 84.7433 64.6317 84.832C64.3891 84.9207 64.1371 84.986 63.8757 85.028C63.6144 85.0747 63.3554 85.098 63.0987 85.098C62.6087 85.098 62.1561 85.0163 61.7407 84.853C61.3301 84.685 60.9731 84.4423 60.6697 84.125C60.3711 83.803 60.1377 83.4063 59.9697 82.935C59.8017 82.4637 59.7177 81.9223 59.7177 81.311C59.7177 80.8163 59.7924 80.3543 59.9417 79.925C60.0957 79.4957 60.3151 79.1247 60.5997 78.812C60.8844 78.4947 61.2321 78.2473 61.6427 78.07C62.0534 77.888 62.5154 77.797 63.0287 77.797C63.4534 77.797 63.8454 77.8693 64.2047 78.014C64.5687 78.154 64.8814 78.3593 65.1427 78.63C65.4087 78.896 65.6164 79.2273 65.7657 79.624C65.9151 80.016 65.9897 80.464 65.9897 80.968C65.9897 81.164 65.9687 81.2947 65.9267 81.36C65.8847 81.4253 65.8054 81.458 65.6887 81.458H60.9497C60.9637 81.906 61.0244 82.2957 61.1317 82.627C61.2437 82.9583 61.3977 83.236 61.5937 83.46C61.7897 83.6793 62.0231 83.845 62.2937 83.957C62.5644 84.0643 62.8677 84.118 63.2037 84.118C63.5164 84.118 63.7847 84.083 64.0087 84.013C64.2374 83.9383 64.4334 83.859 64.5967 83.775C64.7601 83.691 64.8954 83.614 65.0027 83.544C65.1147 83.4693 65.2104 83.432 65.2897 83.432C65.3924 83.432 65.4717 83.4717 65.5277 83.551L65.8777 84.006ZM68.6962 78.938C68.8502 78.7653 69.0135 78.609 69.1862 78.469C69.3589 78.329 69.5409 78.21 69.7322 78.112C69.9282 78.0093 70.1335 77.9323 70.3482 77.881C70.5675 77.825 70.8032 77.797 71.0552 77.797C71.4425 77.797 71.7832 77.8623 72.0772 77.993C72.3759 78.119 72.6232 78.301 72.8192 78.539C73.0199 78.7723 73.1715 79.0547 73.2742 79.386C73.3769 79.7173 73.4282 80.0837 73.4282 80.485V85H72.1752V80.485C72.1752 79.9483 72.0515 79.533 71.8042 79.239C71.5615 78.9403 71.1905 78.791 70.6912 78.791C70.3225 78.791 69.9772 78.8797 69.6552 79.057C69.3379 79.2343 69.0439 79.4747 68.7732 79.778V85H67.5202V77.909H68.2692C68.4465 77.909 68.5562 77.9953 68.5982 78.168L68.6962 78.938ZM77.4081 85.112C76.8481 85.112 76.4165 84.9557 76.1131 84.643C75.8145 84.3303 75.6651 83.88 75.6651 83.292V78.952H74.8111C74.7365 78.952 74.6735 78.931 74.6221 78.889C74.5708 78.8423 74.5451 78.7723 74.5451 78.679V78.182L75.7071 78.035L75.9941 75.844C76.0081 75.774 76.0385 75.718 76.0851 75.676C76.1365 75.6293 76.2018 75.606 76.2811 75.606H76.9111V78.049H78.9621V78.952H76.9111V83.208C76.9111 83.5067 76.9835 83.7283 77.1281 83.873C77.2728 84.0177 77.4595 84.09 77.6881 84.09C77.8188 84.09 77.9308 84.0737 78.0241 84.041C78.1221 84.0037 78.2061 83.964 78.2761 83.922C78.3461 83.88 78.4045 83.8427 78.4511 83.81C78.5025 83.7727 78.5468 83.754 78.5841 83.754C78.6495 83.754 78.7078 83.7937 78.7591 83.873L79.1231 84.468C78.9085 84.6687 78.6495 84.8273 78.3461 84.944C78.0428 85.056 77.7301 85.112 77.4081 85.112ZM84.9537 80.681C84.9537 80.3917 84.9117 80.128 84.8277 79.89C84.7484 79.6473 84.6294 79.4397 84.4707 79.267C84.3167 79.0897 84.1277 78.9543 83.9037 78.861C83.6797 78.763 83.4254 78.714 83.1407 78.714C82.5434 78.714 82.0697 78.889 81.7197 79.239C81.3744 79.5843 81.1597 80.065 81.0757 80.681H84.9537ZM85.9617 84.006C85.8077 84.1927 85.6234 84.356 85.4087 84.496C85.194 84.6313 84.963 84.7433 84.7157 84.832C84.473 84.9207 84.221 84.986 83.9597 85.028C83.6984 85.0747 83.4394 85.098 83.1827 85.098C82.6927 85.098 82.24 85.0163 81.8247 84.853C81.414 84.685 81.057 84.4423 80.7537 84.125C80.455 83.803 80.2217 83.4063 80.0537 82.935C79.8857 82.4637 79.8017 81.9223 79.8017 81.311C79.8017 80.8163 79.8764 80.3543 80.0257 79.925C80.1797 79.4957 80.399 79.1247 80.6837 78.812C80.9684 78.4947 81.316 78.2473 81.7267 78.07C82.1374 77.888 82.5994 77.797 83.1127 77.797C83.5374 77.797 83.9294 77.8693 84.2887 78.014C84.6527 78.154 84.9654 78.3593 85.2267 78.63C85.4927 78.896 85.7004 79.2273 85.8497 79.624C85.999 80.016 86.0737 80.464 86.0737 80.968C86.0737 81.164 86.0527 81.2947 86.0107 81.36C85.9687 81.4253 85.8894 81.458 85.7727 81.458H81.0337C81.0477 81.906 81.1084 82.2957 81.2157 82.627C81.3277 82.9583 81.4817 83.236 81.6777 83.46C81.8737 83.6793 82.107 83.845 82.3777 83.957C82.6484 84.0643 82.9517 84.118 83.2877 84.118C83.6004 84.118 83.8687 84.083 84.0927 84.013C84.3214 83.9383 84.5174 83.859 84.6807 83.775C84.844 83.691 84.9794 83.614 85.0867 83.544C85.1987 83.4693 85.2944 83.432 85.3737 83.432C85.4764 83.432 85.5557 83.4717 85.6117 83.551L85.9617 84.006Z" fill="#F8F8FF"/>
<circle cx="304.5" cy="62.5" r="32" fill="#577399" stroke="#234C84"/>
<path d="M294.888 56.579C295.051 56.579 295.18 56.628 295.273 56.726C295.366 56.8193 295.413 56.9407 295.413 57.09V58H288.595V57.489C288.595 57.3863 288.616 57.279 288.658 57.167C288.7 57.055 288.768 56.9523 288.861 56.859L291.997 53.716C292.263 53.45 292.499 53.1957 292.704 52.953C292.914 52.7103 293.091 52.4677 293.236 52.225C293.385 51.9823 293.497 51.7373 293.572 51.49C293.651 51.238 293.691 50.9743 293.691 50.699C293.691 50.433 293.649 50.1997 293.565 49.999C293.486 49.7937 293.374 49.6257 293.229 49.495C293.089 49.3597 292.919 49.2593 292.718 49.194C292.522 49.124 292.305 49.089 292.067 49.089C291.838 49.089 291.626 49.1217 291.43 49.187C291.239 49.2523 291.066 49.3433 290.912 49.46C290.763 49.5767 290.637 49.7167 290.534 49.88C290.436 50.0387 290.364 50.2137 290.317 50.405C290.247 50.5963 290.156 50.7247 290.044 50.79C289.937 50.8553 289.778 50.8693 289.568 50.832L288.777 50.692C288.847 50.216 288.978 49.7983 289.169 49.439C289.365 49.0797 289.61 48.781 289.904 48.543C290.198 48.3003 290.534 48.1183 290.912 47.997C291.295 47.871 291.708 47.808 292.151 47.808C292.599 47.808 293.01 47.8757 293.383 48.011C293.761 48.1417 294.085 48.3307 294.356 48.578C294.631 48.8207 294.846 49.117 295 49.467C295.154 49.817 295.231 50.2113 295.231 50.65C295.231 51.0233 295.175 51.3687 295.063 51.686C294.956 52.0033 294.809 52.3067 294.622 52.596C294.435 52.8853 294.216 53.1677 293.964 53.443C293.717 53.7137 293.455 53.989 293.18 54.269L290.744 56.761C290.945 56.705 291.145 56.6607 291.346 56.628C291.551 56.5953 291.745 56.579 291.927 56.579H294.888ZM303.856 52.96C303.856 53.842 303.76 54.605 303.569 55.249C303.382 55.893 303.123 56.4273 302.792 56.852C302.461 57.2767 302.071 57.5917 301.623 57.797C301.175 58.0023 300.692 58.105 300.174 58.105C299.656 58.105 299.173 58.0023 298.725 57.797C298.277 57.5917 297.887 57.2767 297.556 56.852C297.229 56.4273 296.973 55.893 296.786 55.249C296.599 54.605 296.506 53.842 296.506 52.96C296.506 52.078 296.599 51.315 296.786 50.671C296.973 50.0223 297.229 49.488 297.556 49.068C297.887 48.6433 298.277 48.3283 298.725 48.123C299.173 47.913 299.656 47.808 300.174 47.808C300.692 47.808 301.175 47.913 301.623 48.123C302.071 48.3283 302.461 48.6433 302.792 49.068C303.123 49.488 303.382 50.0223 303.569 50.671C303.76 51.315 303.856 52.078 303.856 52.96ZM302.302 52.96C302.302 52.2133 302.241 51.5927 302.12 51.098C302.003 50.5987 301.847 50.1997 301.651 49.901C301.455 49.6023 301.229 49.39 300.972 49.264C300.715 49.138 300.449 49.075 300.174 49.075C299.894 49.075 299.626 49.138 299.369 49.264C299.117 49.39 298.893 49.6023 298.697 49.901C298.501 50.1997 298.345 50.5987 298.228 51.098C298.111 51.5927 298.053 52.2133 298.053 52.96C298.053 53.7067 298.111 54.3297 298.228 54.829C298.345 55.3237 298.501 55.7203 298.697 56.019C298.893 56.3177 299.117 56.53 299.369 56.656C299.626 56.782 299.894 56.845 300.174 56.845C300.449 56.845 300.715 56.782 300.972 56.656C301.229 56.53 301.455 56.3177 301.651 56.019C301.847 55.7203 302.003 55.3237 302.12 54.829C302.241 54.3297 302.302 53.7067 302.302 52.96ZM311.431 56.859V58H305.936V56.859H308.036V50.545C308.036 50.321 308.043 50.0923 308.057 49.859L306.44 51.224C306.37 51.28 306.298 51.3173 306.223 51.336C306.153 51.35 306.086 51.35 306.02 51.336C305.96 51.322 305.904 51.301 305.852 51.273C305.806 51.2403 305.768 51.2053 305.74 51.168L305.271 50.51L308.309 47.899H309.534V56.859H311.431ZM316.423 56.922C316.727 56.922 316.997 56.88 317.235 56.796C317.473 56.7073 317.672 56.586 317.83 56.432C317.994 56.2733 318.117 56.0867 318.201 55.872C318.285 55.6573 318.327 55.424 318.327 55.172C318.327 54.864 318.278 54.598 318.18 54.374C318.087 54.15 317.954 53.9657 317.781 53.821C317.613 53.6717 317.413 53.562 317.179 53.492C316.946 53.4173 316.694 53.38 316.423 53.38C316.153 53.38 315.901 53.4173 315.667 53.492C315.434 53.562 315.231 53.6717 315.058 53.821C314.89 53.9657 314.757 54.15 314.659 54.374C314.566 54.598 314.519 54.864 314.519 55.172C314.519 55.424 314.561 55.6573 314.645 55.872C314.729 56.0867 314.851 56.2733 315.009 56.432C315.173 56.586 315.373 56.7073 315.611 56.796C315.849 56.88 316.12 56.922 316.423 56.922ZM316.423 48.963C316.148 48.963 315.905 49.005 315.695 49.089C315.49 49.173 315.32 49.285 315.184 49.425C315.049 49.565 314.946 49.7307 314.876 49.922C314.811 50.1087 314.778 50.307 314.778 50.517C314.778 50.727 314.806 50.9323 314.862 51.133C314.923 51.3337 315.016 51.5133 315.142 51.672C315.273 51.826 315.443 51.9497 315.653 52.043C315.863 52.1363 316.12 52.183 316.423 52.183C316.727 52.183 316.983 52.1363 317.193 52.043C317.403 51.9497 317.571 51.826 317.697 51.672C317.828 51.5133 317.921 51.3337 317.977 51.133C318.038 50.9323 318.068 50.727 318.068 50.517C318.068 50.307 318.033 50.1087 317.963 49.922C317.898 49.7307 317.795 49.565 317.655 49.425C317.52 49.285 317.35 49.173 317.144 49.089C316.939 49.005 316.699 48.963 316.423 48.963ZM318.012 52.743C318.633 52.9343 319.097 53.2377 319.405 53.653C319.718 54.0683 319.874 54.584 319.874 55.2C319.874 55.6433 319.79 56.0447 319.622 56.404C319.454 56.7633 319.219 57.069 318.915 57.321C318.612 57.573 318.248 57.769 317.823 57.909C317.403 58.0443 316.937 58.112 316.423 58.112C315.91 58.112 315.441 58.0443 315.016 57.909C314.596 57.769 314.235 57.573 313.931 57.321C313.628 57.069 313.392 56.7633 313.224 56.404C313.056 56.0447 312.972 55.6433 312.972 55.2C312.972 54.584 313.126 54.0683 313.434 53.653C313.747 53.2377 314.214 52.9343 314.834 52.743C314.33 52.5423 313.95 52.2507 313.693 51.868C313.441 51.4853 313.315 51.0257 313.315 50.489C313.315 50.111 313.39 49.7587 313.539 49.432C313.689 49.1053 313.899 48.823 314.169 48.585C314.445 48.3423 314.774 48.1533 315.156 48.018C315.539 47.878 315.961 47.808 316.423 47.808C316.885 47.808 317.305 47.878 317.683 48.018C318.066 48.1533 318.393 48.3423 318.663 48.585C318.939 48.823 319.151 49.1053 319.3 49.432C319.454 49.7587 319.531 50.111 319.531 50.489C319.531 51.0257 319.403 51.4853 319.146 51.868C318.894 52.2507 318.516 52.5423 318.012 52.743ZM294.888 73.579C295.051 73.579 295.18 73.628 295.273 73.726C295.366 73.8193 295.413 73.9407 295.413 74.09V75H288.595V74.489C288.595 74.3863 288.616 74.279 288.658 74.167C288.7 74.055 288.768 73.9523 288.861 73.859L291.997 70.716C292.263 70.45 292.499 70.1957 292.704 69.953C292.914 69.7103 293.091 69.4677 293.236 69.225C293.385 68.9823 293.497 68.7373 293.572 68.49C293.651 68.238 293.691 67.9743 293.691 67.699C293.691 67.433 293.649 67.1997 293.565 66.999C293.486 66.7937 293.374 66.6257 293.229 66.495C293.089 66.3597 292.919 66.2593 292.718 66.194C292.522 66.124 292.305 66.089 292.067 66.089C291.838 66.089 291.626 66.1217 291.43 66.187C291.239 66.2523 291.066 66.3433 290.912 66.46C290.763 66.5767 290.637 66.7167 290.534 66.88C290.436 67.0387 290.364 67.2137 290.317 67.405C290.247 67.5963 290.156 67.7247 290.044 67.79C289.937 67.8553 289.778 67.8693 289.568 67.832L288.777 67.692C288.847 67.216 288.978 66.7983 289.169 66.439C289.365 66.0797 289.61 65.781 289.904 65.543C290.198 65.3003 290.534 65.1183 290.912 64.997C291.295 64.871 291.708 64.808 292.151 64.808C292.599 64.808 293.01 64.8757 293.383 65.011C293.761 65.1417 294.085 65.3307 294.356 65.578C294.631 65.8207 294.846 66.117 295 66.467C295.154 66.817 295.231 67.2113 295.231 67.65C295.231 68.0233 295.175 68.3687 295.063 68.686C294.956 69.0033 294.809 69.3067 294.622 69.596C294.435 69.8853 294.216 70.1677 293.964 70.443C293.717 70.7137 293.455 70.989 293.18 71.269L290.744 73.761C290.945 73.705 291.145 73.6607 291.346 73.628C291.551 73.5953 291.745 73.579 291.927 73.579H294.888ZM303.856 69.96C303.856 70.842 303.76 71.605 303.569 72.249C303.382 72.893 303.123 73.4273 302.792 73.852C302.461 74.2767 302.071 74.5917 301.623 74.797C301.175 75.0023 300.692 75.105 300.174 75.105C299.656 75.105 299.173 75.0023 298.725 74.797C298.277 74.5917 297.887 74.2767 297.556 73.852C297.229 73.4273 296.973 72.893 296.786 72.249C296.599 71.605 296.506 70.842 296.506 69.96C296.506 69.078 296.599 68.315 296.786 67.671C296.973 67.0223 297.229 66.488 297.556 66.068C297.887 65.6433 298.277 65.3283 298.725 65.123C299.173 64.913 299.656 64.808 300.174 64.808C300.692 64.808 301.175 64.913 301.623 65.123C302.071 65.3283 302.461 65.6433 302.792 66.068C303.123 66.488 303.382 67.0223 303.569 67.671C303.76 68.315 303.856 69.078 303.856 69.96ZM302.302 69.96C302.302 69.2133 302.241 68.5927 302.12 68.098C302.003 67.5987 301.847 67.1997 301.651 66.901C301.455 66.6023 301.229 66.39 300.972 66.264C300.715 66.138 300.449 66.075 300.174 66.075C299.894 66.075 299.626 66.138 299.369 66.264C299.117 66.39 298.893 66.6023 298.697 66.901C298.501 67.1997 298.345 67.5987 298.228 68.098C298.111 68.5927 298.053 69.2133 298.053 69.96C298.053 70.7067 298.111 71.3297 298.228 71.829C298.345 72.3237 298.501 72.7203 298.697 73.019C298.893 73.3177 299.117 73.53 299.369 73.656C299.626 73.782 299.894 73.845 300.174 73.845C300.449 73.845 300.715 73.782 300.972 73.656C301.229 73.53 301.455 73.3177 301.651 73.019C301.847 72.7203 302.003 72.3237 302.12 71.829C302.241 71.3297 302.302 70.7067 302.302 69.96ZM311.13 73.579C311.294 73.579 311.422 73.628 311.515 73.726C311.609 73.8193 311.655 73.9407 311.655 74.09V75H304.837V74.489C304.837 74.3863 304.858 74.279 304.9 74.167C304.942 74.055 305.01 73.9523 305.103 73.859L308.239 70.716C308.505 70.45 308.741 70.1957 308.946 69.953C309.156 69.7103 309.334 69.4677 309.478 69.225C309.628 68.9823 309.74 68.7373 309.814 68.49C309.894 68.238 309.933 67.9743 309.933 67.699C309.933 67.433 309.891 67.1997 309.807 66.999C309.728 66.7937 309.616 66.6257 309.471 66.495C309.331 66.3597 309.161 66.2593 308.96 66.194C308.764 66.124 308.547 66.089 308.309 66.089C308.081 66.089 307.868 66.1217 307.672 66.187C307.481 66.2523 307.308 66.3433 307.154 66.46C307.005 66.5767 306.879 66.7167 306.776 66.88C306.678 67.0387 306.606 67.2137 306.559 67.405C306.489 67.5963 306.398 67.7247 306.286 67.79C306.179 67.8553 306.02 67.8693 305.81 67.832L305.019 67.692C305.089 67.216 305.22 66.7983 305.411 66.439C305.607 66.0797 305.852 65.781 306.146 65.543C306.44 65.3003 306.776 65.1183 307.154 64.997C307.537 64.871 307.95 64.808 308.393 64.808C308.841 64.808 309.252 64.8757 309.625 65.011C310.003 65.1417 310.328 65.3307 310.598 65.578C310.874 65.8207 311.088 66.117 311.242 66.467C311.396 66.817 311.473 67.2113 311.473 67.65C311.473 68.0233 311.417 68.3687 311.305 68.686C311.198 69.0033 311.051 69.3067 310.864 69.596C310.678 69.8853 310.458 70.1677 310.206 70.443C309.959 70.7137 309.698 70.989 309.422 71.269L306.986 73.761C307.187 73.705 307.388 73.6607 307.588 73.628C307.794 73.5953 307.987 73.579 308.169 73.579H311.13ZM320.098 69.96C320.098 70.842 320.003 71.605 319.811 72.249C319.625 72.893 319.366 73.4273 319.034 73.852C318.703 74.2767 318.313 74.5917 317.865 74.797C317.417 75.0023 316.934 75.105 316.416 75.105C315.898 75.105 315.415 75.0023 314.967 74.797C314.519 74.5917 314.13 74.2767 313.798 73.852C313.472 73.4273 313.215 72.893 313.028 72.249C312.842 71.605 312.748 70.842 312.748 69.96C312.748 69.078 312.842 68.315 313.028 67.671C313.215 67.0223 313.472 66.488 313.798 66.068C314.13 65.6433 314.519 65.3283 314.967 65.123C315.415 64.913 315.898 64.808 316.416 64.808C316.934 64.808 317.417 64.913 317.865 65.123C318.313 65.3283 318.703 65.6433 319.034 66.068C319.366 66.488 319.625 67.0223 319.811 67.671C320.003 68.315 320.098 69.078 320.098 69.96ZM318.544 69.96C318.544 69.2133 318.484 68.5927 318.362 68.098C318.246 67.5987 318.089 67.1997 317.893 66.901C317.697 66.6023 317.471 66.39 317.214 66.264C316.958 66.138 316.692 66.075 316.416 66.075C316.136 66.075 315.868 66.138 315.611 66.264C315.359 66.39 315.135 66.6023 314.939 66.901C314.743 67.1997 314.587 67.5987 314.47 68.098C314.354 68.5927 314.295 69.2133 314.295 69.96C314.295 70.7067 314.354 71.3297 314.47 71.829C314.587 72.3237 314.743 72.7203 314.939 73.019C315.135 73.3177 315.359 73.53 315.611 73.656C315.868 73.782 316.136 73.845 316.416 73.845C316.692 73.845 316.958 73.782 317.214 73.656C317.471 73.53 317.697 73.3177 317.893 73.019C318.089 72.7203 318.246 72.3237 318.362 71.829C318.484 71.3297 318.544 70.7067 318.544 69.96Z" fill="#F8F8FF"/>
</svg>
