<svg width="75" height="75" viewBox="0 0 75 75" fill="none" xmlns="http://www.w3.org/2000/svg">
<path d="M37.5003 16.7409C42.1027 16.7409 45.8337 13.1431 45.8337 8.70514C45.8337 4.26714 42.1027 0.669434 37.5003 0.669434C32.898 0.669434 29.167 4.26714 29.167 8.70514C29.167 13.1431 32.898 16.7409 37.5003 16.7409Z" fill="#F0C9AE"/>
<path d="M12.5002 23.4377C16.7191 23.4377 20.1392 20.1398 20.1392 16.0716C20.1392 12.0035 16.7191 8.70557 12.5002 8.70557C8.28139 8.70557 4.86133 12.0035 4.86133 16.0716C4.86133 20.1398 8.28139 23.4377 12.5002 23.4377Z" fill="#F0C9AE"/>
<path d="M62.5002 23.4377C66.7191 23.4377 70.1392 20.1398 70.1392 16.0716C70.1392 12.0035 66.7191 8.70557 62.5002 8.70557C58.2814 8.70557 54.8613 12.0035 54.8613 16.0716C54.8613 20.1398 58.2814 23.4377 62.5002 23.4377Z" fill="#F0C9AE"/>
<path d="M44.6792 21H29.3208C27.8395 21 26.419 21.5584 25.3716 22.5524C24.3243 23.5463 23.7358 24.8944 23.7358 26.3001V47.4265C23.7358 48.9304 25.0204 50.1507 26.6065 50.1507C28.1298 50.1507 29.3878 51.2797 29.4715 52.7226L30.5704 71.497C30.61 72.1734 30.921 72.8096 31.4396 73.2751C31.9581 73.7406 32.6448 74 33.3586 74H40.6414C41.3552 74 42.0419 73.7406 42.5604 73.2751C43.079 72.8096 43.39 72.1734 43.4296 71.497L44.5285 52.7226C44.5691 52.0276 44.8887 51.3738 45.4216 50.8955C45.9544 50.4172 46.6601 50.1507 47.3935 50.1507C48.9782 50.1507 50.2642 48.9317 50.2642 47.4265V26.3001C50.2642 24.8944 49.6757 23.5463 48.6284 22.5524C47.581 21.5584 46.1605 21 44.6792 21V21ZM68.4151 27.6252H55.8491C54.8312 27.6252 53.8776 27.8835 53.0566 28.3341V50.7245C53.0565 51.3985 52.837 52.0561 52.4283 52.6073L52.4241 52.8008C52.9737 52.8001 53.5029 52.9986 53.9035 53.3557C54.3042 53.7128 54.5461 54.2015 54.5799 54.7221L55.6857 71.5156C55.7301 72.1884 56.043 72.8199 56.5608 73.2814C57.0785 73.743 57.7622 74 58.4726 74H65.7916C66.502 74 67.1856 73.743 67.7034 73.2814C68.2211 72.8199 68.5341 72.1884 68.5785 71.5156L69.6843 54.7221C69.7187 54.2017 69.9608 53.7133 70.3613 53.3564C70.7618 52.9995 71.2906 52.8008 71.84 52.8008C73.0324 52.8008 74 51.8825 74 50.751V32.9253C74 31.5196 73.4116 30.1715 72.3642 29.1775C71.3168 28.1836 69.8963 27.6252 68.4151 27.6252V27.6252ZM20.9434 50.7245V28.3341C20.0947 27.8683 19.1313 27.6237 18.1509 27.6252H5.58491C4.1037 27.6252 2.68315 28.1836 1.63578 29.1775C0.588408 30.1715 0 31.5196 0 32.9253V50.751C0 51.8825 0.967585 52.8008 2.15996 52.8008C3.30068 52.8008 4.24453 53.6422 4.31574 54.7221L5.42155 71.5156C5.46595 72.1884 5.77888 72.8199 6.29663 73.2814C6.81439 73.743 7.49804 74 8.20841 74H15.5274C16.2378 74 16.9215 73.743 17.4392 73.2814C17.957 72.8199 18.2699 72.1884 18.3143 71.5156L19.4201 54.7221C19.4542 54.2017 19.696 53.7132 20.0962 53.356C20.4965 52.9988 21.0251 52.7998 21.5745 52.7995L21.5689 52.606C21.1621 52.0545 20.9437 51.3977 20.9434 50.7245V50.7245Z" fill="#2C3E50"/>
<path d="M37.4997 35.6275L33.6024 20.7588H41.3969L37.4997 35.6275ZM12.4996 39.5088L9.02734 27.4552H15.9718L12.4996 39.5088ZM62.4997 39.5088L59.0275 27.4552H65.972L62.4997 39.5088Z" fill="#ECF0F1"/>
<path d="M37.4995 75C37.3153 75 37.1387 74.9294 37.0084 74.8038C36.8782 74.6783 36.805 74.5079 36.805 74.3303V54.241C36.805 54.0634 36.8782 53.8931 37.0084 53.7675C37.1387 53.642 37.3153 53.5714 37.4995 53.5714C37.6837 53.5714 37.8603 53.642 37.9905 53.7675C38.1208 53.8931 38.1939 54.0634 38.1939 54.241V74.3303C38.1939 74.5079 38.1208 74.6783 37.9905 74.8038C37.8603 74.9294 37.6837 75 37.4995 75ZM37.4995 17.4107C32.5217 17.4107 28.4717 13.5054 28.4717 8.70535C28.4717 3.90536 32.5217 0 37.4995 0C42.4773 0 46.5273 3.90536 46.5273 8.70535C46.5273 13.5054 42.4773 17.4107 37.4995 17.4107ZM37.4995 1.33929C33.2884 1.33929 29.8606 4.64464 29.8606 8.70535C29.8606 12.7661 33.2884 16.0714 37.4995 16.0714C41.7106 16.0714 45.1384 12.7661 45.1384 8.70535C45.1384 4.64464 41.7106 1.33929 37.4995 1.33929Z" fill="#212E3A"/>
<path d="M41.1225 75H33.8766C32.9894 74.9997 32.136 74.6718 31.4916 74.0838C30.8472 73.4958 30.4607 72.6922 30.4113 71.838L29.3169 52.8603C29.2864 52.3289 29.046 51.8289 28.6451 51.463C28.2442 51.0971 27.7133 50.8931 27.1613 50.8929C26.22 50.8922 25.3175 50.5313 24.6519 49.8895C23.9863 49.2477 23.6121 48.3774 23.6113 47.4697V26.1161C23.6113 22.7934 26.4155 20.0894 29.8613 20.0894H45.1392C48.585 20.0894 51.3892 22.7934 51.3892 26.1161V47.4697C51.3885 48.3774 51.0142 49.2477 50.3486 49.8895C49.683 50.5313 48.7805 50.8922 47.8392 50.8929C46.6933 50.8929 45.7461 51.7581 45.6822 52.8603L44.5878 71.838C44.5388 72.6923 44.1523 73.4961 43.5079 74.0842C42.8634 74.6722 42.0098 75 41.1225 75ZM29.8613 21.4286C27.1808 21.4286 25.0002 23.5313 25.0002 26.1161V47.4697C25.0002 48.6188 25.9697 49.5536 27.1613 49.5536C28.0684 49.5543 28.9407 49.8896 29.5996 50.4908C30.2584 51.092 30.6537 51.9134 30.7044 52.7867L31.7989 71.7643C31.8283 72.2768 32.0602 72.7589 32.4469 73.1117C32.8336 73.4644 33.3457 73.6609 33.878 73.6608H41.1239C41.6561 73.6605 42.168 73.4639 42.5546 73.1113C42.9412 72.7587 43.1733 72.2767 43.2031 71.7643L44.2975 52.7867C44.3479 51.9135 44.7429 51.0921 45.4015 50.4909C46.0601 49.8897 46.9323 49.5543 47.8392 49.5536C49.0309 49.5536 50.0003 48.6188 50.0003 47.4697V26.1161C50.0003 23.5313 47.8197 21.4286 45.1392 21.4286H29.8613Z" fill="#212E3A"/>
<path d="M37.5004 36.2972C37.3458 36.2977 37.1954 36.248 37.0735 36.1562C36.9516 36.0644 36.8652 35.9358 36.8282 35.791L32.931 20.9222C32.9052 20.8236 32.9031 20.7205 32.9249 20.621C32.9466 20.5214 32.9916 20.4279 33.0564 20.3476C33.1212 20.2673 33.2041 20.2023 33.2988 20.1575C33.3936 20.1128 33.4977 20.0894 33.6032 20.0892H41.3963C41.502 20.0889 41.6064 20.112 41.7015 20.1566C41.7965 20.2012 41.8797 20.2662 41.9448 20.3466C42.0098 20.427 42.0548 20.5206 42.0765 20.6204C42.0982 20.7202 42.0959 20.8234 42.0699 20.9222L38.1727 35.791C38.1352 35.9356 38.0487 36.0639 37.9269 36.1556C37.8051 36.2474 37.655 36.2972 37.5004 36.2972V36.2972ZM34.4949 21.4285L37.5004 32.8941L40.506 21.4285H34.4949V21.4285ZM12.4726 74.9999C12.2884 74.9999 12.1118 74.9294 11.9815 74.8038C11.8513 74.6782 11.7781 74.5079 11.7781 74.3303V58.2588C11.7781 58.0812 11.8513 57.9109 11.9815 57.7853C12.1118 57.6597 12.2884 57.5892 12.4726 57.5892C12.6568 57.5892 12.8334 57.6597 12.9636 57.7853C13.0939 57.9109 13.167 58.0812 13.167 58.2588V74.3303C13.167 74.5079 13.0939 74.6782 12.9636 74.8038C12.8334 74.9294 12.6568 74.9999 12.4726 74.9999ZM12.5004 24.1071C7.9045 24.1071 4.16699 20.503 4.16699 16.0714C4.16699 11.6397 7.9045 8.03564 12.5004 8.03564C17.0962 8.03564 20.8337 11.6397 20.8337 16.0714C20.8337 20.503 17.0962 24.1071 12.5004 24.1071ZM12.5004 9.37493C8.67117 9.37493 5.55589 12.3789 5.55589 16.0714C5.55589 19.7638 8.67117 22.7678 12.5004 22.7678C16.3295 22.7678 19.4448 19.7638 19.4448 16.0714C19.4448 12.3789 16.3295 9.37493 12.5004 9.37493Z" fill="#212E3A"/>
<path d="M16.1403 74.9999H8.85975C7.97678 74.9986 7.12739 74.6735 6.48387 74.0905C5.84035 73.5075 5.45088 72.7103 5.39446 71.8606L4.29446 54.8852C4.27082 54.5294 4.10766 54.1956 3.8381 53.9516C3.56854 53.7076 3.21279 53.5716 2.84306 53.5713C2.08926 53.5706 1.36655 53.2816 0.833526 52.7676C0.300508 52.2536 0.000735417 51.5567 0 50.8298V32.8124C0 29.4897 2.80418 26.7856 6.25002 26.7856H18.7501C19.8501 26.7856 20.9306 27.0656 21.8778 27.5946C22.036 27.684 22.1511 27.8301 22.198 28.0011C22.2449 28.1721 22.2197 28.354 22.128 28.5071C22.0363 28.6602 21.8856 28.7722 21.7086 28.8185C21.5316 28.8648 21.3428 28.8418 21.1834 28.7544C20.444 28.3414 19.6045 28.1243 18.7501 28.1249H6.25002C3.56946 28.1249 1.38889 30.2276 1.38889 32.8124V50.8298C1.38889 51.6026 2.04167 52.2321 2.84306 52.2321C3.56603 52.233 4.26154 52.4991 4.78849 52.9764C5.31544 53.4537 5.63437 54.1064 5.68057 54.8022L6.78058 71.7776C6.81443 72.2874 7.04814 72.7656 7.43426 73.1153C7.82039 73.465 8.33002 73.66 8.85975 73.6606H16.1403C17.2376 73.6606 18.1514 72.8343 18.2195 71.7776L19.3195 54.8022C19.3676 54.1071 19.6872 53.4555 20.2137 52.9786C20.7402 52.5017 21.4346 52.2349 22.157 52.2321C22.3412 52.2321 22.5178 52.3026 22.6481 52.4282C22.7783 52.5538 22.8515 52.7241 22.8515 52.9017C22.8515 53.0793 22.7783 53.2496 22.6481 53.3752C22.5178 53.5008 22.3412 53.5713 22.157 53.5713C21.7874 53.5726 21.432 53.7091 21.1626 53.9532C20.8932 54.1973 20.7299 54.5308 20.7056 54.8865L19.6056 71.862C19.5489 72.7114 19.1592 73.5083 18.5158 74.091C17.8723 74.6737 17.0231 74.9986 16.1403 74.9999V74.9999Z" fill="#212E3A"/>
<path d="M12.4997 40.1785C12.3479 40.179 12.2003 40.1312 12.0795 40.0426C11.9587 39.954 11.8716 39.8295 11.8316 39.6883L8.35939 27.6347C8.33071 27.5353 8.32625 27.4309 8.34633 27.3296C8.36642 27.2282 8.41052 27.1327 8.47519 27.0505C8.53985 26.9683 8.62334 26.9017 8.71914 26.8557C8.81494 26.8098 8.92045 26.7858 9.02745 26.7856H15.9719C16.0789 26.7858 16.1844 26.8098 16.2802 26.8557C16.376 26.9017 16.4595 26.9683 16.5242 27.0505C16.5888 27.1327 16.6329 27.2282 16.653 27.3296C16.6731 27.4309 16.6686 27.5353 16.64 27.6347L13.1677 39.6883C13.1277 39.8295 13.0406 39.954 12.9199 40.0426C12.7991 40.1312 12.6514 40.179 12.4997 40.1785ZM9.94134 28.1249L12.4997 37.0071L15.058 28.1249H9.94134V28.1249ZM62.4721 74.9999C62.2879 74.9999 62.1112 74.9294 61.981 74.8038C61.8508 74.6782 61.7776 74.5079 61.7776 74.3303V58.2588C61.7776 58.0812 61.8508 57.9109 61.981 57.7853C62.1112 57.6597 62.2879 57.5892 62.4721 57.5892C62.6562 57.5892 62.8329 57.6597 62.9631 57.7853C63.0933 57.9109 63.1665 58.0812 63.1665 58.2588V74.3303C63.1665 74.5079 63.0933 74.6782 62.9631 74.8038C62.8329 74.9294 62.6562 74.9999 62.4721 74.9999ZM62.4998 24.1071C57.904 24.1071 54.1665 20.503 54.1665 16.0714C54.1665 11.6397 57.904 8.03564 62.4998 8.03564C67.0957 8.03564 70.8332 11.6397 70.8332 16.0714C70.8332 20.503 67.0957 24.1071 62.4998 24.1071ZM62.4998 9.37493C58.6707 9.37493 55.5554 12.3789 55.5554 16.0714C55.5554 19.7638 58.6707 22.7678 62.4998 22.7678C66.329 22.7678 69.4443 19.7638 69.4443 16.0714C69.4443 12.3789 66.329 9.37493 62.4998 9.37493Z" fill="#212E3A"/>
<path d="M66.1401 74.9999H58.8596C57.9766 74.9986 57.1272 74.6735 56.4837 74.0905C55.8402 73.5075 55.4507 72.7103 55.3943 71.8606L54.2943 54.8852C54.2749 54.6017 54.1672 54.3305 53.9853 54.1071C53.8034 53.8837 53.5558 53.7184 53.2748 53.633C53.1347 53.5925 52.9892 53.5717 52.8429 53.5713C52.6587 53.5713 52.4821 53.5008 52.3518 53.3752C52.2216 53.2496 52.1484 53.0793 52.1484 52.9017C52.1484 52.7241 52.2216 52.5538 52.3518 52.4282C52.4821 52.3026 52.6587 52.2321 52.8429 52.2321C53.5652 52.2352 54.2594 52.5021 54.7859 52.9789C55.3123 53.4558 55.6319 54.1072 55.6804 54.8022L56.7804 71.7776C56.8143 72.2874 57.048 72.7656 57.4341 73.1153C57.8202 73.465 58.3298 73.66 58.8596 73.6606H66.1401C67.2374 73.6606 68.1513 72.8343 68.2193 71.7776L69.3193 54.8022C69.3658 54.1065 69.6849 53.454 70.2118 52.9768C70.7386 52.4996 71.434 52.2333 72.1568 52.2321C72.9582 52.2321 73.611 51.6026 73.611 50.8298V32.8124C73.611 30.2276 71.4304 28.1249 68.7499 28.1249H56.2498C55.3957 28.1249 54.554 28.3419 53.8179 28.7517C53.7389 28.7964 53.6515 28.8255 53.5607 28.8375C53.47 28.8495 53.3777 28.844 53.2892 28.8214C53.2006 28.7989 53.1176 28.7596 53.0448 28.706C52.9721 28.6523 52.9111 28.5853 52.8653 28.5089C52.8195 28.4324 52.7898 28.3479 52.778 28.2603C52.7662 28.1728 52.7725 28.0838 52.7965 27.9986C52.8205 27.9133 52.8617 27.8335 52.9178 27.7637C52.974 27.6939 53.0438 27.6355 53.1234 27.5919C54.0743 27.0637 55.1525 26.7857 56.2498 26.7856H68.7499C72.1957 26.7856 74.9999 29.4897 74.9999 32.8124V50.8298C74.9992 51.5567 74.6994 52.2536 74.1664 52.7676C73.6334 53.2816 72.9106 53.5706 72.1568 53.5713C71.3902 53.5713 70.7527 54.1486 70.7054 54.8852L69.6054 71.8606C69.549 72.7103 69.1595 73.5075 68.516 74.0905C67.8725 74.6735 67.0231 74.9986 66.1401 74.9999V74.9999Z" fill="#212E3A"/>
<path d="M62.5007 40.1785C62.3489 40.179 62.2012 40.1312 62.0805 40.0426C61.9597 39.954 61.8726 39.8295 61.8326 39.6883L58.3604 27.6348C58.3317 27.5354 58.3272 27.4309 58.3473 27.3296C58.3674 27.2282 58.4115 27.1327 58.4762 27.0505C58.5408 26.9683 58.6243 26.9017 58.7201 26.8557C58.8159 26.8098 58.9214 26.7858 59.0284 26.7856H65.9729C66.0799 26.7858 66.1854 26.8098 66.2812 26.8557C66.377 26.9017 66.4605 26.9683 66.5251 27.0505C66.5898 27.1327 66.6339 27.2282 66.654 27.3296C66.6741 27.4309 66.6696 27.5354 66.6409 27.6348L63.1687 39.6883C63.1287 39.8295 63.0416 39.954 62.9208 40.0426C62.8001 40.1312 62.6524 40.179 62.5007 40.1785ZM59.9423 28.1249L62.5007 37.0071L65.059 28.1249H59.9423Z" fill="#212E3A"/>
</svg>
