<svg width="56" height="128" viewBox="0 0 56 128" fill="none" xmlns="http://www.w3.org/2000/svg">
<line x1="28.5" y1="128" x2="28.5" y2="55" stroke="#BDD5EA" stroke-width="5" stroke-dasharray="10 10"/>
<circle cx="28" cy="28" r="25.5" fill="#F8F8FF" stroke="#BDD5EA" stroke-width="5"/>
<path d="M30.7419 31C30.5704 31 30.399 30.9153 30.3132 30.661L29.1988 26.6784C28.4273 23.9668 29.9703 21.1704 32.6278 20.323L39.4857 18.0351C39.6571 17.9504 39.7428 18.0351 39.9143 18.1198C39.9143 18.1198 40 18.2046 40 18.3741V25.5768C40 28.3731 37.7712 30.661 34.9423 30.7458L30.7419 31ZM39.1428 18.9672L32.7992 21.0857C30.5704 21.8483 29.2846 24.221 29.9703 26.4242L30.999 30.0679L34.8566 29.8984C37.1711 29.8137 39.057 27.8647 39.057 25.492L39.1428 18.9672Z" fill="#67CE67"/>
<path d="M35.5294 24.0349C35.3647 24.0349 35.1176 23.8721 35.1176 23.7093C35.1176 23.4651 35.2 23.3023 35.4471 23.2209L37.5059 22.8953C37.7529 22.8953 37.9176 22.9767 38 23.2209C38 23.4651 37.9176 23.6279 37.6706 23.7093L35.5294 24.0349ZM34.2941 25.6628C34.1294 25.6628 33.8824 25.5 33.8824 25.3372L33.3882 22.4884C33.3882 22.2442 33.4706 22.0814 33.7176 22C33.9647 22 34.1294 22.0814 34.2118 22.3256L34.7059 25.1744C34.7059 25.4186 34.5412 25.6628 34.2941 25.6628ZM33.0588 27.3721C32.8941 27.3721 32.6471 27.2093 32.6471 27.0465C32.6471 26.8023 32.7294 26.6395 32.9765 26.5581L35.8588 26.0698C36.1059 26.0698 36.2706 26.1512 36.3529 26.3953C36.3529 26.6395 36.2706 26.8023 36.0235 26.8837L33.0588 27.3721C33.1412 27.3721 33.0588 27.3721 33.0588 27.3721ZM31.8235 29C31.6588 29 31.4118 28.8372 31.4118 28.6744L31 26.314C31 26.0698 31.0824 25.907 31.3294 25.8256C31.5765 25.8256 31.7412 25.907 31.8235 26.1512L32.2353 28.5116C32.3176 28.7558 32.1529 29 31.8235 29C31.9059 29 31.9059 29 31.8235 29Z" fill="#67CE67"/>
<path d="M30.776 31C30.6901 31 30.6042 31 30.5183 30.9138C30.3465 30.7414 30.2606 30.4828 30.4324 30.3103L37.2191 20.8276C37.3909 20.6552 37.6486 20.569 37.8204 20.7414C37.9923 20.9138 38.0782 21.1724 37.9063 21.3448L31.1197 30.8276C31.0338 30.9138 30.862 31 30.776 31ZM26.223 30.4828L21.584 30.2241C18.4913 30.0517 16.0859 27.5517 16.0859 24.4483L16 16.431C16 16.2586 16.0859 16.1724 16.1718 16.0862C16.2577 16 16.4295 16 16.6014 16L24.1612 18.5862C27.082 19.6207 28.7143 22.7241 27.8552 25.6552L26.5666 30.1379C26.5666 30.3966 26.3948 30.4828 26.223 30.4828ZM16.8591 17.0345L16.945 24.4483C16.945 27.1207 19.0068 29.2759 21.6699 29.3621L25.9652 29.5345L27.082 25.3966C27.7693 22.8966 26.3948 20.2241 23.9035 19.3621L16.8591 17.0345Z" fill="#67CE67"/>
<path d="M20.7709 23.2558L18.3659 22.9122C18.1082 22.9122 17.9364 22.6545 18.0223 22.3968C18.0223 22.1391 18.28 21.9673 18.5377 22.0532L20.8568 22.3968C21.1145 22.3968 21.2863 22.6545 21.2004 22.9122C21.2004 23.1699 21.0286 23.2558 20.7709 23.2558ZM22.2311 25.2315C22.1452 25.2315 22.1452 25.2315 22.2311 25.2315C21.8875 25.1456 21.8017 24.9738 21.8017 24.7161L22.317 21.366C22.317 21.1082 22.5747 20.9364 22.8324 21.0223C23.0901 21.0223 23.2618 21.28 23.176 21.5378L22.6606 24.8879C22.5747 25.0597 22.4029 25.2315 22.2311 25.2315ZM23.6054 27.2072C23.6054 27.2072 23.5195 27.2072 23.6054 27.2072L20.1697 26.6918C19.912 26.6918 19.7402 26.4341 19.8261 26.1764C19.8261 25.9187 20.0838 25.7469 20.3415 25.8328L23.6913 26.3482C23.949 26.3482 24.1208 26.6059 24.0349 26.8636C23.949 27.0354 23.7772 27.2072 23.6054 27.2072ZM24.9797 29.0971C24.6361 29.0112 24.5502 28.8394 24.5502 28.5817L24.9797 25.8328C24.9797 25.5751 25.2374 25.4033 25.4951 25.4892C25.7528 25.4892 25.9245 25.7469 25.8386 26.0046L25.4092 28.7535C25.4092 28.9253 25.2374 29.0971 24.9797 29.0971ZM27.7283 37C27.4706 37 27.2988 36.8282 27.2988 36.5705C27.2988 36.2269 27.3847 35.8833 27.3847 35.5397C27.5565 34.423 28.0719 33.3921 28.759 32.4472L30.2192 30.4715C30.391 30.2997 30.6487 30.2138 30.8205 30.3856C30.9923 30.5574 31.0781 30.8151 30.9064 30.9869L29.4462 32.9626C28.8449 33.7357 28.4155 34.6807 28.2437 35.7115C28.1578 35.9692 28.1578 36.3128 28.1578 36.6564C28.1578 36.8282 27.986 37 27.7283 37Z" fill="#67CE67"/>
<path d="M26.045 40C25.9604 40 25.8758 40 25.7912 39.9138C25.622 39.7414 25.5374 39.4829 25.7066 39.3105C26.4681 38.2763 26.9757 36.9835 27.1449 35.6907V35.2597C27.2295 33.536 26.7219 31.8984 25.7912 30.5195L18.0922 19.6599C17.923 19.4875 18.0076 19.229 18.1768 19.0566C18.346 18.9704 18.6845 18.9704 18.7691 19.1428L26.4681 30.0023C27.5679 31.5537 28.0755 33.3636 27.9909 35.2597V35.6907C27.8217 37.1558 27.3141 38.5348 26.4681 39.7414C26.2988 39.9138 26.2142 40 26.045 40Z" fill="#67CE67"/>
</svg>
