<svg width="109" height="171" viewBox="0 0 109 171" fill="none" xmlns="http://www.w3.org/2000/svg">
<g filter="url(#filter0_d)">
<circle cx="54.5" cy="52.5" r="49.5" fill="white"/>
<circle cx="54.5" cy="52.5" r="48" stroke="#BDD5EA" stroke-width="3"/>
</g>
<path d="M55 171L55 101" stroke="#BDD5EA" stroke-width="5" stroke-dasharray="10 10"/>
<path d="M60.0615 59.5178C59.7584 59.5178 59.4553 59.368 59.3038 58.9186L57.3337 51.8778C55.9698 47.084 58.6976 42.1405 63.3956 40.6424L75.5193 36.5977C75.8224 36.4479 75.974 36.5977 76.2771 36.7475C76.2771 36.7475 76.4286 36.8973 76.4286 37.1969V49.9303C76.4286 54.8738 72.4884 58.9186 67.4873 59.0684L60.0615 59.5178ZM74.9131 38.2455L63.6987 41.9907C59.7584 43.3389 57.4852 47.5334 58.6976 51.4283L60.5162 57.8699L67.3358 57.5703C71.4276 57.4205 74.7616 53.975 74.7616 49.7805L74.9131 38.2455Z" fill="#67CE67"/>
<path d="M68.5252 47.2048C68.234 47.2048 67.7972 46.917 67.7972 46.6292C67.7972 46.1975 67.9428 45.9097 68.3796 45.7659L72.0193 45.1903C72.4561 45.1903 72.7472 45.3342 72.8928 45.7659C72.8928 46.1975 72.7472 46.4853 72.3105 46.6292L68.5252 47.2048ZM66.3414 50.0827C66.0502 50.0827 65.6134 49.7949 65.6134 49.5071L64.7399 44.4708C64.7399 44.0391 64.8855 43.7513 65.3222 43.6074C65.759 43.6074 66.0502 43.7513 66.1958 44.183L67.0693 49.2193C67.0693 49.651 66.7781 50.0827 66.3414 50.0827ZM64.1575 53.1045C63.8664 53.1045 63.4296 52.8167 63.4296 52.5289C63.4296 52.0972 63.5752 51.8095 64.0119 51.6656L69.1075 50.8022C69.5443 50.8022 69.8355 50.9461 69.9811 51.3778C69.9811 51.8095 69.8355 52.0972 69.3987 52.2411L64.1575 53.1045C64.3031 53.1045 64.1575 53.1045 64.1575 53.1045ZM61.9737 55.9824C61.6825 55.9824 61.2458 55.6946 61.2458 55.4068L60.5178 51.2339C60.5178 50.8022 60.6634 50.5144 61.1002 50.3705C61.5369 50.3705 61.8281 50.5144 61.9737 50.9461L62.7016 55.119C62.8472 55.5507 62.5561 55.9824 61.9737 55.9824C62.1193 55.9824 62.1193 55.9824 61.9737 55.9824Z" fill="#67CE67"/>
<path d="M60.1219 59.5179C59.9701 59.5179 59.8182 59.5179 59.6663 59.3655C59.3626 59.0607 59.2107 58.6034 59.5145 58.2986L71.5123 41.5345C71.8161 41.2297 72.2717 41.0773 72.5754 41.3821C72.8792 41.6869 73.031 42.1441 72.7273 42.4489L60.7294 59.2131C60.5776 59.3655 60.2738 59.5179 60.1219 59.5179ZM52.0727 58.6034L43.8717 58.1462C38.4043 57.8414 34.1519 53.4218 34.1519 47.9353L34 33.762C34 33.4572 34.1519 33.3048 34.3037 33.1524C34.4556 33 34.7594 33 35.0631 33L48.4278 37.572C53.5915 39.4009 56.477 44.8873 54.9583 50.069L52.6802 57.9938C52.6802 58.451 52.3765 58.6034 52.0727 58.6034ZM35.5187 34.8288L35.6706 47.9353C35.6706 52.6598 39.3155 56.4698 44.0235 56.6222L51.6171 56.927L53.5915 49.6118C54.8064 45.1921 52.3765 40.4677 47.9722 38.9437L35.5187 34.8288Z" fill="#67CE67"/>
<path d="M42.4345 45.8273L38.1828 45.2198C37.7272 45.2198 37.4235 44.7642 37.5754 44.3086C37.5754 43.8531 38.0309 43.5493 38.4865 43.7012L42.5864 44.3086C43.0419 44.3086 43.3456 44.7642 43.1937 45.2198C43.1937 45.6754 42.89 45.8273 42.4345 45.8273ZM45.0159 49.3201C44.8641 49.3201 44.8641 49.3201 45.0159 49.3201C44.4085 49.1682 44.2567 48.8645 44.2567 48.4089L45.1678 42.4863C45.1678 42.0307 45.6233 41.727 46.0788 41.8789C46.5344 41.8789 46.8381 42.3344 46.6862 42.79L45.7751 48.7126C45.6233 49.0163 45.3196 49.3201 45.0159 49.3201ZM47.4455 52.8129C47.4455 52.8129 47.2936 52.8129 47.4455 52.8129L41.3716 51.9017C40.916 51.9017 40.6123 51.4461 40.7642 50.9905C40.7642 50.535 41.2197 50.2312 41.6753 50.3831L47.5973 51.2943C48.0529 51.2943 48.3566 51.7498 48.2047 52.2054C48.0529 52.5092 47.7492 52.8129 47.4455 52.8129ZM49.875 56.1538C49.2676 56.002 49.1158 55.6982 49.1158 55.2427L49.875 50.3831C49.875 49.9275 50.3306 49.6238 50.7861 49.7756C51.2417 49.7756 51.5453 50.2312 51.3935 50.6868L50.6343 55.5464C50.6343 55.8501 50.3306 56.1538 49.875 56.1538ZM54.7341 70.1251C54.2786 70.1251 53.9749 69.8213 53.9749 69.3658C53.9749 68.7583 54.1268 68.1509 54.1268 67.5434C54.4304 65.5692 55.3415 63.7469 56.5563 62.0764L59.1377 58.5836C59.4414 58.2799 59.897 58.128 60.2006 58.4317C60.5043 58.7355 60.6562 59.1911 60.3525 59.4948L57.7711 62.9876C56.7082 64.3543 55.9489 66.0248 55.6452 67.8471C55.4934 68.3027 55.4934 68.9102 55.4934 69.5176C55.4934 69.8213 55.1897 70.1251 54.7341 70.1251Z" fill="#67CE67"/>
<path d="M51.7584 75.4287C51.6088 75.4287 51.4592 75.4287 51.3097 75.2763C51.0105 74.9716 50.861 74.5145 51.1601 74.2098C52.5062 72.3814 53.4036 70.0959 53.7028 67.8104V67.0486C53.8523 64.0013 52.9549 61.1063 51.3097 58.6685L37.6989 39.4704C37.3998 39.1656 37.5494 38.7085 37.8485 38.4038C38.1476 38.2514 38.7459 38.2514 38.8955 38.5562L52.5062 57.7543C54.4506 60.4968 55.348 63.6965 55.1984 67.0486V67.8104C54.8993 70.4006 54.0019 72.8385 52.5062 74.9716C52.2071 75.2763 52.0575 75.4287 51.7584 75.4287Z" fill="#67CE67"/>
<defs>
<filter id="filter0_d" x="0" y="0" width="109" height="109" filterUnits="userSpaceOnUse" color-interpolation-filters="sRGB">
<feFlood flood-opacity="0" result="BackgroundImageFix"/>
<feColorMatrix in="SourceAlpha" type="matrix" values="0 0 0 0 0 0 0 0 0 0 0 0 0 0 0 0 0 0 127 0" result="hardAlpha"/>
<feOffset dy="2"/>
<feGaussianBlur stdDeviation="2.5"/>
<feComposite in2="hardAlpha" operator="out"/>
<feColorMatrix type="matrix" values="0 0 0 0 0 0 0 0 0 0 0 0 0 0 0 0 0 0 0.16 0"/>
<feBlend mode="normal" in2="BackgroundImageFix" result="effect1_dropShadow"/>
<feBlend mode="normal" in="SourceGraphic" in2="effect1_dropShadow" result="shape"/>
</filter>
</defs>
</svg>
