<svg width="103" height="103" viewBox="0 0 103 103" fill="none" xmlns="http://www.w3.org/2000/svg">
<circle cx="51.5" cy="51.5" r="50.0594" fill="#F7F7FF" stroke="#BDD5EA" stroke-width="2.88112"/>
<path d="M63.1036 57.5003L63.1038 57.5005L79.845 74.2288C79.8453 74.2291 79.8456 74.2294 79.846 74.2297C81.3847 75.7769 81.3847 78.2935 79.8459 79.8406C79.0929 80.593 78.107 81 77.056 81H77.0501C75.9718 80.9913 74.9858 80.5795 74.2458 79.8397L57.5025 63.0997L56.2041 61.8016L56.2041 61.8015C55.9838 61.5813 55.6834 61.4506 55.3614 61.4506C55.1156 61.4506 54.9225 61.5375 54.8464 61.5756L54.8216 61.588L54.7975 61.6017L54.7297 61.6405L54.7104 61.6515L54.6916 61.6634C51.2207 63.8566 47.1819 65.0156 43.0075 65.0156C37.1296 65.0156 31.5996 62.7282 27.4367 58.5663C18.8543 49.9763 18.8548 36.0104 27.4361 27.4305C31.5984 23.2786 37.1188 21 43.0172 21C48.8952 21 54.4157 23.2779 58.5883 27.44C65.7548 34.6147 67.0612 46.0455 61.7047 54.6445L61.7023 54.6474L61.6752 54.6813L61.6511 54.7174C61.3137 55.2234 61.4542 55.8088 61.7746 56.1691L61.7941 56.1911L61.8149 56.2119L63.1036 57.5003ZM30.4029 30.3742L30.4013 30.3758C23.452 37.3341 23.4512 48.6523 30.4019 55.6016C33.7673 58.9664 38.2462 60.8253 43.0172 60.8253C47.7787 60.8253 52.2575 58.9662 55.6228 55.6016C58.9791 52.2459 60.8379 47.7676 60.8379 42.9884C60.8379 38.2211 58.9903 33.7325 55.6228 30.3753C52.2654 27.0089 47.7859 25.1613 43.0172 25.1613C38.2464 25.1613 33.7681 27.02 30.4029 30.3742Z" fill="#F7F7FF" stroke="#FE5F55" stroke-width="2"/>
<path d="M44.147 47.7335L47.2141 43.4469C50.9781 43.5565 54 46.6251 54 50.2539V52H33V50.2539C33 46.6246 36.0228 43.5556 39.7876 43.4468L42.4904 47.6889L43.2857 48.9372L44.147 47.7335ZM47.1903 43.4462L47.1904 43.4462C47.1904 43.4462 47.1903 43.4462 47.1903 43.4462ZM48.3949 35.8015C48.3949 38.4315 46.2154 40.6031 43.5048 40.6031C40.7962 40.6031 38.6241 38.4336 38.6241 35.8015C38.6241 33.1705 40.8047 31 43.5048 31C46.2154 31 48.3949 33.1716 48.3949 35.8015Z" fill="#F7F7FF" stroke="#FE5F55" stroke-width="2"/>
</svg>
